<?xml version="1.0" encoding="UTF-8" standalone="no"?><!DOCTYPE svg PUBLIC "-//W3C//DTD SVG 1.1//EN" "http://www.w3.org/Graphics/SVG/1.1/DTD/svg11.dtd"><svg width="100%" height="100%" viewBox="0 0 765 765" version="1.1" xmlns="http://www.w3.org/2000/svg" xmlns:xlink="http://www.w3.org/1999/xlink" xml:space="preserve" xmlns:serif="http://www.serif.com/" style="fill-rule:evenodd;clip-rule:evenodd;stroke-linejoin:round;stroke-miterlimit:2;"><g><path d="M220.201,282.56l-3.318,-1.761l-3.333,1.736l0.649,-3.7l-2.68,-2.632l3.72,-0.527l1.675,-3.362l1.649,3.374l3.716,0.554l-2.699,2.613l0.621,3.705Z" style="fill:#00e1f4;fill-rule:nonzero;"/><path d="M575.452,423.956l3.318,1.76l3.332,-1.735l-0.649,3.7l2.681,2.632l-3.72,0.527l-1.675,3.362l-1.65,-3.374l-3.716,-0.555l2.7,-2.612l-0.621,-3.705Z" style="fill:#00e1f4;fill-rule:nonzero;"/><path d="M299.13,368.224l3.751,-0.18l1.979,-3.194l1.332,3.512l3.649,0.895l-2.93,2.352l0.277,3.746l-3.142,-2.058l-3.478,1.42l0.988,-3.624l-2.426,-2.869Z" style="fill:#00e1f4;fill-rule:nonzero;"/><path d="M633.287,682.637l3.318,1.76l3.332,-1.736l-0.649,3.7l2.681,2.633l-3.72,0.526l-1.675,3.362l-1.65,-3.374l-3.716,-0.554l2.7,-2.612l-0.621,-3.705Z" style="fill:#00e1f4;fill-rule:nonzero;"/><path d="M246.135,231.028l-3.033,0.523l-1.288,2.796l-1.435,-2.723l-3.057,-0.361l2.145,-2.207l-0.6,-3.019l2.761,1.359l2.685,-1.504l-0.439,3.046l2.261,2.09Z" style="fill:#00e1f4;fill-rule:nonzero;"/><path d="M549.517,475.488l3.033,-0.524l1.288,-2.795l1.436,2.723l3.057,0.36l-2.146,2.208l0.601,3.018l-2.762,-1.359l-2.685,1.505l0.439,-3.047l-2.261,-2.089Z" style="fill:#00e1f4;fill-rule:nonzero;"/><path d="M303.143,425.774l2.34,-1.998l-0.32,-3.061l2.625,1.608l2.812,-1.251l-0.718,2.993l2.058,2.289l-3.068,0.242l-1.54,2.664l-1.179,-2.843l-3.01,-0.643Z" style="fill:#00e1f4;fill-rule:nonzero;"/><path d="M607.352,734.168l3.033,-0.523l1.288,-2.795l1.436,2.722l3.057,0.361l-2.146,2.207l0.601,3.019l-2.762,-1.359l-2.685,1.504l0.439,-3.046l-2.261,-2.09Z" style="fill:#00e1f4;fill-rule:nonzero;"/><path d="M156.68,236.066l-3.14,-1.502l-3.017,1.736l0.457,-3.451l-2.583,-2.333l3.423,-0.631l1.422,-3.179l1.657,3.061l3.462,0.37l-2.399,2.523l0.718,3.406Z" style="fill:#00e1f4;fill-rule:nonzero;"/><path d="M638.972,470.45l3.14,1.502l3.018,-1.736l-0.458,3.451l2.583,2.333l-3.423,0.631l-1.421,3.178l-1.658,-3.06l-3.462,-0.37l2.4,-2.523l-0.719,-3.406Z" style="fill:#00e1f4;fill-rule:nonzero;"/><path d="M377.486,375.768l3.466,-0.313l1.709,-3.033l1.368,3.201l3.412,0.687l-2.621,2.29l0.401,3.459l-2.988,-1.785l-3.165,1.449l0.774,-3.394l-2.356,-2.561Z" style="fill:#00e1f4;fill-rule:nonzero;"/><path d="M696.807,729.131l3.14,1.501l3.018,-1.735l-0.458,3.45l2.583,2.334l-3.423,0.63l-1.421,3.179l-1.658,-3.061l-3.462,-0.37l2.4,-2.523l-0.719,-3.405Z" style="fill:#00e1f4;fill-rule:nonzero;"/><path d="M258.68,153.916l-6.309,0.144l-3.459,5.28l-2.087,-5.957l-6.09,-1.658l5.02,-3.826l-0.305,-6.304l5.189,3.592l5.902,-2.238l-1.813,6.046l3.952,4.921Z" style="fill:#008c92;fill-rule:nonzero;"/><path d="M536.972,552.6l6.31,-0.144l3.458,-5.28l2.087,5.957l6.09,1.658l-5.019,3.825l0.305,6.305l-5.19,-3.592l-5.901,2.238l1.813,-6.046l-3.953,-4.921Z" style="fill:#008c92;fill-rule:nonzero;"/><path d="M331.729,498.482l5.352,-3.345l0.277,-6.306l4.837,4.057l6.082,-1.685l-2.362,5.853l3.481,5.265l-6.297,-0.439l-3.931,4.937l-1.528,-6.124l-5.911,-2.213Z" style="fill:#008c92;fill-rule:nonzero;"/><path d="M299.844,16.86l-6.31,0.145l-3.459,5.279l-2.086,-5.956l-6.091,-1.658l5.02,-3.826l-0.305,-6.304l5.189,3.592l5.902,-2.238l-1.813,6.045l3.953,4.921Z" style="fill:#ffdfab;fill-rule:nonzero;"/><path d="M495.808,689.656l6.31,-0.145l3.459,-5.279l2.087,5.956l6.09,1.658l-5.02,3.825l0.306,6.305l-5.19,-3.592l-5.902,2.238l1.813,-6.046l-3.953,-4.92Z" style="fill:#ffdfab;fill-rule:nonzero;"/><path d="M193.79,189.771l-6.892,0.43l-3.553,5.921l-2.539,-6.422l-6.729,-1.55l5.323,-4.399l-0.606,-6.878l5.829,3.703l6.355,-2.702l-1.721,6.688l4.533,5.209Z" style="fill:#00e1f4;fill-rule:nonzero;"/><path d="M601.862,516.745l6.892,-0.43l3.553,-5.921l2.539,6.422l6.73,1.549l-5.324,4.4l0.606,6.878l-5.829,-3.703l-6.354,2.702l1.72,-6.688l-4.533,-5.209Z" style="fill:#00e1f4;fill-rule:nonzero;"/><path d="M369.215,434.521l5.707,-3.889l0.032,-6.905l5.462,4.226l6.577,-2.104l-2.331,6.501l4.033,5.604l-6.902,-0.208l-4.085,5.568l-1.935,-6.628l-6.558,-2.165Z" style="fill:#00e1f4;fill-rule:nonzero;"/><path d="M111.916,294.707l-6.122,1.025l-2.626,5.624l-2.865,-5.505l-6.161,-0.76l4.35,-4.427l-1.182,-6.093l5.555,2.768l5.43,-3.006l-0.916,6.138l4.537,4.236Z" style="fill:#ffbd28;fill-rule:nonzero;"/><path d="M683.737,411.809l6.121,-1.025l2.626,-5.624l2.866,5.505l6.16,0.759l-4.35,4.428l1.182,6.093l-5.555,-2.769l-5.429,3.006l0.915,-6.138l-4.536,-4.235Z" style="fill:#ffbd28;fill-rule:nonzero;"/><path d="M386.033,302.49l4.74,-4.007l-0.614,-6.176l5.275,3.27l5.685,-2.493l-1.48,6.028l4.128,4.636l-6.19,0.456l-3.134,5.357l-2.346,-5.746l-6.064,-1.325Z" style="fill:#ffbd28;fill-rule:nonzero;"/><path d="M741.572,670.49l6.121,-1.026l2.626,-5.624l2.866,5.505l6.16,0.76l-4.35,4.427l1.182,6.093l-5.555,-2.768l-5.429,3.006l0.915,-6.138l-4.536,-4.235Z" style="fill:#ffbd28;fill-rule:nonzero;"/><path d="M305.07,68.276l-4.85,-1.989l-4.389,2.868l0.393,-5.229l-4.083,-3.287l5.093,-1.242l1.864,-4.899l2.755,4.46l5.236,0.26l-3.391,3.998l1.372,5.06Z" style="fill:#ffdfab;fill-rule:nonzero;"/><path d="M490.582,638.239l4.851,1.99l4.389,-2.868l-0.393,5.228l4.083,3.288l-5.094,1.242l-1.864,4.899l-2.755,-4.461l-5.236,-0.259l3.391,-3.998l-1.372,-5.061Z" style="fill:#ffdfab;fill-rule:nonzero;"/><path d="M173.704,138.776l-5.094,1.563l-1.601,5.083l-3.06,-4.362l-5.329,0.049l3.202,-4.259l-1.693,-5.053l5.04,1.73l4.283,-3.172l-0.087,5.328l4.339,3.093Z" style="fill:#ffdfab;fill-rule:nonzero;"/><path d="M621.949,567.739l5.094,-1.562l1.6,-5.083l3.061,4.362l5.329,-0.049l-3.203,4.259l1.693,5.053l-5.04,-1.73l-4.283,3.172l0.087,-5.328l-4.338,-3.094Z" style="fill:#ffdfab;fill-rule:nonzero;"/><path d="M412.524,468.111l3.582,-3.945l-1.219,-5.187l4.859,2.188l4.556,-2.763l-0.578,5.297l4.035,3.48l-5.217,1.086l-2.063,4.914l-2.645,-4.626l-5.31,-0.444Z" style="fill:#ffdfab;fill-rule:nonzero;"/><path d="M99.399,203.649l-6.003,0.419l-3.059,5.181l-2.252,-5.579l-5.874,-1.307l4.61,-3.866l-0.571,-5.991l5.102,3.19l5.52,-2.395l-1.457,5.838l3.984,4.51Z" style="fill:#008c92;fill-rule:nonzero;"/><path d="M696.253,502.867l6.003,-0.419l3.059,-5.182l2.252,5.58l5.874,1.307l-4.61,3.866l0.571,5.99l-5.102,-3.189l-5.52,2.394l1.457,-5.838l-3.984,-4.509Z" style="fill:#008c92;fill-rule:nonzero;"/><path d="M443.289,374.393l4.948,-3.425l-0.016,-6.017l4.785,3.647l5.718,-1.876l-1.99,5.679l3.55,4.859l-6.015,-0.138l-3.524,4.878l-1.728,-5.764l-5.728,-1.843Z" style="fill:#008c92;fill-rule:nonzero;"/><path d="M754.088,761.547l6.003,-0.418l3.059,-5.182l2.252,5.579l5.874,1.307l-4.61,3.867l0.571,5.99l-5.102,-3.19l-5.52,2.395l1.457,-5.838l-3.984,-4.51Z" style="fill:#008c92;fill-rule:nonzero;"/><path d="M278.083,255.614l-3.954,0.996l-1.421,3.822l-2.169,-3.452l-4.075,-0.17l2.614,-3.131l-1.098,-3.927l3.785,1.518l3.396,-2.256l-0.275,4.068l3.197,2.532Z" style="fill:#008c92;fill-rule:nonzero;"/><path d="M517.57,450.902l3.954,-0.996l1.42,-3.822l2.169,3.452l4.075,0.17l-2.613,3.13l1.097,3.927l-3.784,-1.518l-3.396,2.257l0.274,-4.068l-3.196,-2.532Z" style="fill:#008c92;fill-rule:nonzero;"/><path d="M263.12,420.947l2.891,-2.875l-0.73,-4.011l3.627,1.86l3.591,-1.934l-0.648,4.025l2.948,2.817l-4.029,0.627l-1.768,3.674l-1.841,-3.638l-4.041,-0.545Z" style="fill:#008c92;fill-rule:nonzero;"/><path d="M420.721,601.266l-1.456,-3.808l-3.963,-0.959l3.171,-2.562l-0.312,-4.066l3.417,2.225l3.77,-1.554l-1.061,3.937l2.643,3.106l-4.072,0.208l-2.137,3.473Z" style="fill:#008c92;fill-rule:nonzero;"/><path d="M575.405,709.583l3.954,-0.996l1.42,-3.822l2.169,3.451l4.075,0.17l-2.613,3.131l1.097,3.927l-3.784,-1.518l-3.396,2.257l0.274,-4.068l-3.196,-2.532Z" style="fill:#008c92;fill-rule:nonzero;"/><path d="M168.854,261.725l-3.032,4.711l-5.595,-0.271l-2.563,-4.98l3.032,-4.711l5.595,0.271l2.563,4.98Z" style="fill:#00e1f4;fill-rule:nonzero;"/><path d="M626.798,444.79l3.032,-4.71l5.595,0.27l2.563,4.981l-3.031,4.711l-5.595,-0.271l-2.564,-4.981Z" style="fill:#00e1f4;fill-rule:nonzero;"/><path d="M353.916,359.921l0.202,-5.599l4.949,-2.624l4.747,2.974l-0.201,5.599l-4.949,2.623l-4.748,-2.973Z" style="fill:#00e1f4;fill-rule:nonzero;"/><path d="M81.566,690.106l0.202,-5.598l4.949,-2.624l4.746,2.974l-0.201,5.598l-4.949,2.624l-4.747,-2.974Z" style="fill:#00e1f4;fill-rule:nonzero;"/><path d="M684.633,703.471l3.032,-4.711l5.595,0.271l2.563,4.981l-3.031,4.71l-5.595,-0.27l-2.564,-4.981Z" style="fill:#00e1f4;fill-rule:nonzero;"/><path d="M131.221,161.933l-6.927,6.413l-9.016,-2.792l-2.091,-9.204l6.926,-6.413l9.017,2.792l2.091,9.204Z" style="fill:#00e1f4;fill-rule:nonzero;"/><path d="M664.432,544.582l6.926,-6.412l9.016,2.791l2.091,9.205l-6.926,6.413l-9.016,-2.792l-2.091,-9.205Z" style="fill:#00e1f4;fill-rule:nonzero;"/><path d="M437.228,426.509l2.681,-9.05l9.178,-2.204l6.498,6.847l-2.681,9.05l-9.178,2.203l-6.498,-6.846Z" style="fill:#00e1f4;fill-rule:nonzero;"/><path d="M62.877,729.354l2.681,-9.05l9.178,-2.204l6.498,6.847l-2.681,9.05l-9.178,2.204l-6.498,-6.847Z" style="fill:#00e1f4;fill-rule:nonzero;"/><path d="M246.318,82.117l-12.435,2.833l-8.671,-9.353l3.764,-12.185l12.436,-2.833l8.67,9.353l-3.764,12.185Z" style="fill:#ffdfab;fill-rule:nonzero;"/><path d="M549.334,624.399l12.435,-2.834l8.671,9.354l-3.764,12.185l-12.435,2.833l-8.671,-9.353l3.764,-12.185Z" style="fill:#ffdfab;fill-rule:nonzero;"/><path d="M379.019,553.905l9.245,-8.786l12.231,3.615l2.985,12.399l-9.246,8.785l-12.23,-3.614l-2.985,-12.399Z" style="fill:#ffdfab;fill-rule:nonzero;"/><path d="M16.235,712.688l9.245,-8.785l12.231,3.614l2.985,12.4l-9.245,8.785l-12.231,-3.615l-2.985,-12.399Z" style="fill:#ffdfab;fill-rule:nonzero;"/><path d="M312.651,111.773l-12.157,1.233l-7.147,-9.912l5.011,-11.145l12.158,-1.233l7.147,9.912l-5.012,11.145Z" style="fill:#ffbd28;fill-rule:nonzero;"/><path d="M483.001,594.743l12.158,-1.234l7.146,9.913l-5.011,11.145l-12.157,1.233l-7.147,-9.912l5.011,-11.145Z" style="fill:#ffbd28;fill-rule:nonzero;"/><path d="M306.842,562.275l9.823,-7.268l11.206,4.874l1.382,12.142l-9.823,7.267l-11.206,-4.873l-1.382,-12.142Z" style="fill:#ffbd28;fill-rule:nonzero;"/><path d="M262.118,190.179l-4.635,1.888l-3.951,-3.069l0.681,-4.958l4.634,-1.887l3.953,3.069l-0.682,4.957Z" style="fill:#9edee5;fill-rule:nonzero;"/><path d="M533.535,516.337l4.634,-1.888l3.952,3.069l-0.682,4.957l-4.634,1.888l-3.953,-3.069l0.683,-4.957Z" style="fill:#9edee5;fill-rule:nonzero;"/><path d="M310.258,469.058l3.021,-3.99l4.964,0.621l1.946,4.611l-3.021,3.989l-4.966,-0.62l-1.944,-4.611Z" style="fill:#9edee5;fill-rule:nonzero;"/><path d="M218.1,112.897l-6.091,6.53l-8.7,-2.01l-2.61,-8.539l6.091,-6.53l8.701,2.01l2.609,8.539Z" style="fill:#9edee5;fill-rule:nonzero;"/><path d="M577.552,593.619l6.091,-6.53l8.7,2.01l2.61,8.539l-6.091,6.53l-8.7,-2.01l-2.61,-8.539Z" style="fill:#9edee5;fill-rule:nonzero;"/><path d="M387.565,513.031l1.903,-8.724l8.506,-2.714l6.605,6.009l-1.903,8.725l-8.508,2.714l-6.603,-6.01Z" style="fill:#9edee5;fill-rule:nonzero;"/><path d="M177.801,301.883l-4.011,2.854l-4.478,-2.047l-0.466,-4.9l4.011,-2.854l4.477,2.046l0.467,4.901Z" style="fill:#ffdfab;fill-rule:nonzero;"/><path d="M617.851,404.633l4.011,-2.854l4.478,2.046l0.466,4.901l-4.011,2.854l-4.477,-2.046l-0.467,-4.901Z" style="fill:#ffdfab;fill-rule:nonzero;"/><path d="M325.72,329.961l1.991,-4.502l4.895,-0.527l2.903,3.976l-1.991,4.501l-4.895,0.527l-2.903,-3.975Z" style="fill:#ffdfab;fill-rule:nonzero;"/><path d="M675.686,663.314l4.011,-2.855l4.478,2.047l0.466,4.9l-4.011,2.854l-4.477,-2.046l-0.467,-4.9Z" style="fill:#ffdfab;fill-rule:nonzero;"/><path d="M39.851,241.136l-34.661,-19.427l37.971,11.705l-3.31,7.722Z" style="fill:#00e1f4;fill-rule:nonzero;"/><path d="M755.801,465.379l34.661,19.428l-37.971,-11.705l3.31,-7.723Z" style="fill:#00e1f4;fill-rule:nonzero;"/><path d="M475.349,311.755l39.722,-0.993l-38.625,9.324l-1.097,-8.331Z" style="fill:#00e1f4;fill-rule:nonzero;"/><path d="M98.396,264.237l36.346,-16.056l-32.157,23.339l-4.189,-7.283Z" style="fill:#008c92;fill-rule:nonzero;"/><path d="M697.256,442.279l-36.346,16.056l32.157,-23.34l4.189,7.284Z" style="fill:#008c92;fill-rule:nonzero;"/><path d="M701.462,361.31l-36.345,16.056l32.157,-23.34l4.188,7.284Z" style="fill:#008c92;fill-rule:nonzero;"/><path d="M413.215,321.786l-23.052,32.363l15.732,-36.487l7.32,4.124Z" style="fill:#008c92;fill-rule:nonzero;"/><path d="M755.091,700.959l-36.346,16.056l32.157,-23.339l4.189,7.283Z" style="fill:#008c92;fill-rule:nonzero;"/><path d="M187.135,157.223l28.099,-28.092l-21.564,33.373l-6.535,-5.281Z" style="fill:#9edee5;fill-rule:nonzero;"/><path d="M608.518,549.292l-28.1,28.093l21.564,-33.373l6.536,5.28Z" style="fill:#9edee5;fill-rule:nonzero;"/><path d="M391.557,459.108l-9.817,38.502l1.501,-39.706l8.316,1.204Z" style="fill:#9edee5;fill-rule:nonzero;"/><path d="M243.651,299.436l-19.159,-10.255l20.887,5.997l-1.728,4.258Z" style="fill:#00e1f4;fill-rule:nonzero;"/><path d="M552.001,407.08l19.159,10.255l-20.887,-5.998l1.728,-4.257Z" style="fill:#00e1f4;fill-rule:nonzero;"/><path d="M270.35,365.687l21.709,-0.964l-21.021,5.507l-0.688,-4.543Z" style="fill:#00e1f4;fill-rule:nonzero;"/><path d="M98.948,648.553l21.709,-0.964l-21.021,5.507l-0.688,-4.543Z" style="fill:#00e1f4;fill-rule:nonzero;"/><path d="M373.137,572.254l7.92,-20.237l-3.487,21.449l-4.433,-1.212Z" style="fill:#00e1f4;fill-rule:nonzero;"/><path d="M609.836,665.76l19.159,10.256l-20.887,-5.998l1.728,-4.258Z" style="fill:#00e1f4;fill-rule:nonzero;"/><path d="M223.837,191.966l-6.667,-14.194l11.74,10.397l-5.073,3.797Z" style="fill:#00e1f4;fill-rule:nonzero;"/><path d="M571.815,514.549l6.667,14.195l-11.739,-10.397l5.072,-3.798Z" style="fill:#00e1f4;fill-rule:nonzero;"/><path d="M342.259,447.975l12.981,8.801l-15.403,-2.946l2.422,-5.855Z" style="fill:#00e1f4;fill-rule:nonzero;"/><path d="M251.787,139.767c-2.701,1.948 -6.315,1.461 -9.57,1.023c-4.02,-0.541 -6.566,-0.727 -8.047,1.265l-2.626,-1.953c2.738,-3.681 7.185,-3.084 11.11,-2.556c4.019,0.54 6.564,0.726 8.046,-1.266c1.48,-1.989 0.569,-4.375 -1.107,-8.069c-1.636,-3.605 -3.491,-7.693 -0.753,-11.375c2.739,-3.683 7.186,-3.084 11.11,-2.556c4.02,0.541 6.57,0.725 8.046,-1.265c1.48,-1.991 0.57,-4.377 -1.106,-8.071c-1.635,-3.606 -3.49,-7.694 -0.752,-11.377c2.738,-3.683 7.187,-3.085 11.111,-2.557c4.02,0.541 6.567,0.726 8.048,-1.266l2.626,1.954c-2.736,3.683 -7.185,3.084 -11.11,2.556c-4.02,-0.54 -6.568,-0.725 -8.048,1.267c-1.479,1.99 -0.569,4.377 1.107,8.071c1.635,3.606 3.49,7.692 0.751,11.376c-2.738,3.683 -7.186,3.084 -11.11,2.556c-4.019,-0.54 -6.565,-0.727 -8.046,1.265c-1.479,1.99 -0.569,4.376 1.107,8.07c1.636,3.606 3.49,7.693 0.753,11.375c-0.468,0.629 -0.984,1.132 -1.54,1.533Z" style="fill:#39b54a;fill-rule:nonzero;"/><path d="M543.865,566.749c2.701,-1.948 6.315,-1.461 9.57,-1.023c4.02,0.54 6.567,0.726 8.047,-1.265l2.627,1.953c-2.739,3.681 -7.185,3.084 -11.11,2.556c-4.019,-0.54 -6.565,-0.726 -8.047,1.265c-1.48,1.99 -0.568,4.376 1.107,8.07c1.637,3.605 3.491,7.692 0.753,11.375c-2.738,3.682 -7.186,3.084 -11.11,2.556c-4.02,-0.541 -6.57,-0.725 -8.046,1.265c-1.48,1.991 -0.57,4.377 1.106,8.071c1.636,3.606 3.49,7.694 0.752,11.377c-2.737,3.683 -7.186,3.084 -11.111,2.556c-4.019,-0.54 -6.566,-0.725 -8.048,1.266l-2.626,-1.953c2.737,-3.683 7.186,-3.084 11.11,-2.556c4.02,0.54 6.569,0.725 8.048,-1.267c1.48,-1.99 0.569,-4.377 -1.106,-8.071c-1.636,-3.606 -3.49,-7.693 -0.752,-11.376c2.738,-3.683 7.186,-3.084 11.11,-2.556c4.019,0.54 6.565,0.727 8.047,-1.265c1.479,-1.991 0.568,-4.376 -1.107,-8.07c-1.637,-3.606 -3.491,-7.693 -0.753,-11.375c0.467,-0.629 0.984,-1.132 1.539,-1.533Z" style="fill:#39b54a;fill-rule:nonzero;"/><path d="M344.88,507.128c1.328,-3.053 4.684,-4.48 7.707,-5.766c3.732,-1.587 6.016,-2.728 6.273,-5.196l3.255,0.338c-0.475,4.564 -4.603,6.321 -8.248,7.87c-3.731,1.588 -6.014,2.728 -6.272,5.197c-0.256,2.467 1.745,4.053 5.072,6.373c3.248,2.264 6.93,4.832 6.456,9.396c-0.475,4.565 -4.604,6.321 -8.248,7.871c-3.732,1.587 -6.019,2.731 -6.272,5.196c-0.256,2.467 1.745,4.054 5.072,6.375c3.247,2.265 6.929,4.833 6.455,9.398c-0.473,4.564 -4.604,6.321 -8.248,7.871c-3.732,1.588 -6.016,2.729 -6.273,5.198l-3.256,-0.339c0.473,-4.564 4.604,-6.321 8.248,-7.871c3.732,-1.588 6.018,-2.73 6.273,-5.198c0.256,-2.467 -1.746,-4.054 -5.072,-6.374c-3.248,-2.266 -6.929,-4.833 -6.455,-9.398c0.474,-4.565 4.604,-6.321 8.247,-7.87c3.732,-1.588 6.017,-2.728 6.273,-5.197c0.255,-2.466 -1.746,-4.053 -5.072,-6.373c-3.248,-2.265 -6.929,-4.833 -6.456,-9.397c0.081,-0.778 0.268,-1.475 0.541,-2.104Z" style="fill:#39b54a;fill-rule:nonzero;"/><path d="M232.145,251.471c-3.576,-0.173 -4.888,-4.285 -6.046,-7.913c-0.792,-2.483 -1.778,-5.575 -3.084,-5.638c-1.307,-0.063 -2.586,2.919 -3.615,5.314c-1.502,3.5 -3.204,7.466 -6.78,7.293c-3.575,-0.173 -4.886,-4.285 -6.042,-7.913c-0.792,-2.483 -1.778,-5.575 -3.082,-5.638c-1.305,-0.062 -2.584,2.919 -3.613,5.315c-1.501,3.499 -3.205,7.464 -6.778,7.292c-3.574,-0.173 -4.886,-4.285 -6.042,-7.913c-0.792,-2.484 -1.778,-5.574 -3.081,-5.637l0.158,-3.27c3.574,0.173 4.885,4.284 6.041,7.913c0.793,2.483 1.778,5.574 3.082,5.638c1.307,0.062 2.584,-2.919 3.613,-5.315c1.501,-3.499 3.204,-7.465 6.778,-7.292c3.574,0.172 4.886,4.285 6.042,7.912c0.792,2.484 1.778,5.575 3.082,5.638c1.306,0.065 2.585,-2.918 3.614,-5.314c1.502,-3.499 3.205,-7.465 6.78,-7.293c3.576,0.174 4.888,4.285 6.046,7.913c0.793,2.484 1.779,5.575 3.085,5.638l-0.158,3.27Z" style="fill:#00e1f4;fill-rule:nonzero;"/><path d="M64.949,657.368c-3.576,-0.173 -4.887,-4.285 -6.045,-7.913c-0.793,-2.483 -1.779,-5.575 -3.085,-5.638c-1.307,-0.063 -2.585,2.919 -3.615,5.314c-1.502,3.5 -3.204,7.466 -6.78,7.293c-3.575,-0.173 -4.886,-4.285 -6.042,-7.913c-0.792,-2.483 -1.778,-5.575 -3.082,-5.638c-1.305,-0.062 -2.584,2.919 -3.613,5.315c-1.501,3.499 -3.204,7.464 -6.778,7.292c-3.574,-0.173 -4.886,-4.285 -6.042,-7.913c-0.791,-2.484 -1.778,-5.574 -3.081,-5.637l0.158,-3.27c3.574,0.173 4.885,4.284 6.041,7.913c0.793,2.483 1.779,5.574 3.082,5.638c1.307,0.062 2.585,-2.919 3.613,-5.315c1.501,-3.499 3.204,-7.465 6.778,-7.292c3.574,0.172 4.886,4.285 6.042,7.912c0.792,2.484 1.778,5.575 3.082,5.638c1.306,0.065 2.585,-2.918 3.614,-5.314c1.503,-3.499 3.205,-7.465 6.78,-7.293c3.576,0.174 4.888,4.285 6.046,7.913c0.793,2.484 1.779,5.575 3.085,5.638l-0.158,3.27Z" style="fill:#00e1f4;fill-rule:nonzero;"/><path d="M563.507,455.045c3.576,0.173 4.888,4.285 6.046,7.913c0.793,2.483 1.779,5.574 3.085,5.637c1.306,0.064 2.585,-2.918 3.615,-5.313c1.501,-3.5 3.204,-7.466 6.78,-7.293c3.574,0.173 4.885,4.285 6.042,7.913c0.792,2.483 1.777,5.575 3.081,5.638c1.305,0.062 2.584,-2.919 3.613,-5.315c1.502,-3.499 3.205,-7.465 6.779,-7.292c3.573,0.172 4.885,4.285 6.042,7.912c0.791,2.484 1.777,5.575 3.081,5.638l-0.159,3.269c-3.573,-0.172 -4.884,-4.284 -6.041,-7.912c-0.793,-2.483 -1.778,-5.574 -3.082,-5.638c-1.307,-0.062 -2.584,2.919 -3.612,5.315c-1.502,3.499 -3.204,7.464 -6.779,7.292c-3.574,-0.173 -4.885,-4.285 -6.042,-7.913c-0.792,-2.484 -1.777,-5.574 -3.082,-5.637c-1.305,-0.066 -2.585,2.918 -3.614,5.313c-1.502,3.5 -3.205,7.466 -6.78,7.293c-3.576,-0.173 -4.888,-4.284 -6.046,-7.912c-0.792,-2.484 -1.779,-5.576 -3.084,-5.639l0.157,-3.269Z" style="fill:#00e1f4;fill-rule:nonzero;"/><path d="M564.559,325.705c3.576,0.173 4.887,4.285 6.045,7.913c0.793,2.483 1.779,5.574 3.085,5.637c1.307,0.064 2.585,-2.918 3.615,-5.313c1.502,-3.5 3.204,-7.466 6.78,-7.293c3.575,0.173 4.886,4.285 6.042,7.913c0.792,2.483 1.778,5.575 3.082,5.638c1.305,0.062 2.584,-2.919 3.613,-5.315c1.501,-3.499 3.204,-7.465 6.778,-7.292c3.574,0.172 4.886,4.285 6.042,7.912c0.791,2.484 1.778,5.575 3.081,5.638l-0.158,3.269c-3.574,-0.172 -4.885,-4.284 -6.041,-7.912c-0.793,-2.483 -1.779,-5.574 -3.082,-5.638c-1.307,-0.062 -2.585,2.919 -3.613,5.315c-1.501,3.499 -3.204,7.464 -6.778,7.292c-3.574,-0.173 -4.886,-4.285 -6.042,-7.913c-0.792,-2.484 -1.778,-5.574 -3.082,-5.637c-1.306,-0.066 -2.585,2.918 -3.614,5.313c-1.503,3.5 -3.205,7.466 -6.78,7.293c-3.576,-0.173 -4.888,-4.284 -6.046,-7.912c-0.793,-2.484 -1.779,-5.576 -3.085,-5.639l0.158,-3.269Z" style="fill:#00e1f4;fill-rule:nonzero;"/><path d="M304.734,401.054c3.162,-1.677 6.39,1.189 9.238,3.717c1.949,1.73 4.376,3.885 5.531,3.272c1.156,-0.612 0.733,-3.829 0.395,-6.415c-0.496,-3.775 -1.057,-8.055 2.106,-9.732c3.162,-1.676 6.389,1.19 9.235,3.719c1.949,1.73 4.375,3.885 5.529,3.274c1.153,-0.613 0.731,-3.829 0.392,-6.415c-0.495,-3.775 -1.056,-8.054 2.105,-9.731c3.161,-1.676 6.389,1.19 9.235,3.719c1.949,1.731 4.375,3.885 5.528,3.274l1.533,2.892c-3.161,1.676 -6.387,-1.19 -9.234,-3.719c-1.95,-1.73 -4.375,-3.885 -5.529,-3.274c-1.155,0.614 -0.731,3.83 -0.392,6.414c0.495,3.776 1.056,8.055 -2.105,9.731c-3.161,1.677 -6.389,-1.189 -9.235,-3.718c-1.95,-1.731 -4.375,-3.886 -5.529,-3.274c-1.156,0.611 -0.732,3.829 -0.394,6.414c0.495,3.776 1.056,8.056 -2.106,9.733c-3.163,1.677 -6.39,-1.188 -9.238,-3.716c-1.95,-1.731 -4.377,-3.886 -5.532,-3.273l-1.533,-2.892Z" style="fill:#00e1f4;fill-rule:nonzero;"/><path d="M621.342,713.726c3.576,0.172 4.888,4.284 6.046,7.912c0.793,2.483 1.779,5.575 3.085,5.638c1.306,0.064 2.585,-2.918 3.615,-5.314c1.501,-3.499 3.204,-7.465 6.78,-7.293c3.574,0.173 4.885,4.286 6.042,7.913c0.792,2.484 1.777,5.575 3.081,5.638c1.305,0.062 2.584,-2.919 3.613,-5.314c1.502,-3.5 3.205,-7.465 6.779,-7.293c3.573,0.173 4.885,4.285 6.042,7.913c0.791,2.484 1.777,5.575 3.081,5.638l-0.159,3.269c-3.573,-0.173 -4.884,-4.284 -6.041,-7.913c-0.793,-2.483 -1.778,-5.574 -3.082,-5.637c-1.307,-0.063 -2.584,2.919 -3.612,5.314c-1.502,3.5 -3.204,7.465 -6.779,7.292c-3.574,-0.172 -4.885,-4.284 -6.042,-7.912c-0.792,-2.484 -1.777,-5.575 -3.082,-5.638c-1.305,-0.065 -2.585,2.918 -3.614,5.314c-1.502,3.499 -3.205,7.465 -6.78,7.293c-3.576,-0.173 -4.888,-4.285 -6.046,-7.913c-0.792,-2.484 -1.779,-5.575 -3.084,-5.638l0.157,-3.269Z" style="fill:#00e1f4;fill-rule:nonzero;"/><path d="M155.731,158.466l-3.001,1.307c-1.832,-4.207 0.901,-7.767 3.311,-10.909c2.469,-3.218 3.897,-5.335 2.907,-7.609c-0.99,-2.274 -3.513,-2.671 -7.55,-3.055c-3.942,-0.375 -8.41,-0.8 -10.242,-5.007c-1.832,-4.208 0.9,-7.768 3.311,-10.909c2.469,-3.218 3.897,-5.336 2.907,-7.61c-0.991,-2.274 -3.514,-2.672 -7.551,-3.056c-3.943,-0.376 -8.41,-0.801 -10.242,-5.008c-1.833,-4.208 0.899,-7.769 3.31,-10.91c2.469,-3.218 3.897,-5.336 2.906,-7.61l3.002,-1.307c1.832,4.207 -0.9,7.768 -3.311,10.91c-2.469,3.217 -3.897,5.335 -2.907,7.609c0.991,2.275 3.514,2.673 7.552,3.057c3.941,0.375 8.41,0.801 10.242,5.009c1.832,4.207 -0.901,7.768 -3.311,10.909c-2.469,3.217 -3.897,5.334 -2.907,7.609c0.99,2.273 3.513,2.671 7.551,3.055c3.941,0.375 8.41,0.8 10.241,5.008c1.832,4.206 -0.9,7.767 -3.311,10.908c-2.469,3.218 -3.896,5.335 -2.907,7.609Z" style="fill:#39b54a;fill-rule:nonzero;"/><path d="M639.922,548.05l3,-1.307c1.832,4.207 -0.9,7.767 -3.311,10.909c-2.469,3.217 -3.897,5.335 -2.906,7.609c0.99,2.274 3.512,2.671 7.549,3.055c3.942,0.375 8.411,0.8 10.242,5.007c1.833,4.208 -0.9,7.768 -3.311,10.909c-2.469,3.218 -3.896,5.335 -2.906,7.609c0.99,2.274 3.514,2.673 7.551,3.057c3.942,0.376 8.41,0.801 10.242,5.008c1.832,4.208 -0.9,7.769 -3.311,10.91c-2.469,3.218 -3.897,5.336 -2.906,7.61l-3.001,1.307c-1.833,-4.207 0.9,-7.768 3.31,-10.91c2.469,-3.217 3.897,-5.336 2.907,-7.61c-0.991,-2.274 -3.514,-2.672 -7.552,-3.056c-3.941,-0.375 -8.409,-0.801 -10.242,-5.009c-1.832,-4.207 0.901,-7.768 3.312,-10.909c2.469,-3.217 3.897,-5.335 2.907,-7.609c-0.991,-2.274 -3.513,-2.671 -7.551,-3.055c-3.942,-0.375 -8.41,-0.8 -10.242,-5.008c-1.832,-4.207 0.9,-7.767 3.312,-10.909c2.469,-3.217 3.896,-5.334 2.907,-7.608Z" style="fill:#39b54a;fill-rule:nonzero;"/><path d="M417.924,442.005l1.913,-2.656c3.723,2.682 3.191,7.138 2.723,11.07c-0.48,4.027 -0.627,6.577 1.386,8.026c2.012,1.45 4.384,0.504 8.051,-1.227c3.581,-1.69 7.64,-3.607 11.363,-0.925c3.724,2.683 3.193,7.139 2.723,11.071c-0.48,4.027 -0.626,6.577 1.387,8.026c2.012,1.45 4.385,0.504 8.053,-1.227c3.581,-1.69 7.639,-3.606 11.363,-0.923c3.724,2.682 3.193,7.139 2.724,11.07c-0.48,4.028 -0.626,6.578 1.387,8.028l-1.913,2.656c-3.724,-2.682 -3.193,-7.139 -2.725,-11.071c0.481,-4.027 0.627,-6.577 -1.385,-8.027c-2.014,-1.45 -4.386,-0.504 -8.054,1.227c-3.581,1.69 -7.64,3.606 -11.364,0.923c-3.723,-2.681 -3.192,-7.138 -2.723,-11.07c0.48,-4.027 0.627,-6.577 -1.386,-8.027c-2.012,-1.449 -4.384,-0.503 -8.052,1.229c-3.58,1.69 -7.64,3.606 -11.363,0.923c-3.723,-2.681 -3.192,-7.137 -2.723,-11.07c0.481,-4.027 0.627,-6.576 -1.385,-8.026Z" style="fill:#39b54a;fill-rule:nonzero;"/><path d="M275.253,298.781c-1.933,1.394 -4.734,1.78 -7.306,2.136c-3.699,0.511 -6.165,0.981 -6.72,2.772l-3.127,-0.966c1.209,-3.918 5.561,-4.518 9.399,-5.049c3.701,-0.511 6.168,-0.981 6.721,-2.772c0.554,-1.793 -1.219,-3.572 -3.985,-6.082c-2.871,-2.603 -6.125,-5.555 -4.914,-9.473c1.211,-3.918 5.562,-4.519 9.4,-5.05c3.7,-0.512 6.167,-0.981 6.722,-2.775c0.553,-1.793 -1.219,-3.572 -3.986,-6.083c-2.871,-2.604 -6.124,-5.555 -4.913,-9.474c1.21,-3.919 5.561,-4.52 9.4,-5.051c3.7,-0.512 6.166,-0.982 6.722,-2.776l3.127,0.967c-1.209,3.917 -5.561,4.52 -9.4,5.051c-3.701,0.513 -6.168,0.982 -6.722,2.776c-0.553,1.793 1.218,3.572 3.986,6.083c2.87,2.604 6.124,5.555 4.913,9.473c-1.21,3.917 -5.562,4.521 -9.4,5.051c-3.702,0.512 -6.168,0.983 -6.722,2.775c-0.553,1.793 1.219,3.572 3.986,6.082c2.871,2.603 6.124,5.554 4.914,9.472c-0.4,1.293 -1.142,2.226 -2.095,2.913Z" style="fill:#39b54a;fill-rule:nonzero;"/><path d="M520.399,407.735c1.933,-1.394 4.734,-1.78 7.306,-2.137c3.7,-0.51 6.166,-0.98 6.72,-2.772l3.128,0.967c-1.21,3.917 -5.562,4.518 -9.4,5.049c-3.701,0.511 -6.168,0.98 -6.721,2.772c-0.553,1.793 1.219,3.572 3.986,6.082c2.871,2.603 6.124,5.554 4.914,9.472c-1.212,3.918 -5.562,4.52 -9.401,5.051c-3.7,0.512 -6.167,0.981 -6.721,2.775c-0.554,1.793 1.218,3.572 3.985,6.082c2.871,2.604 6.124,5.556 4.913,9.474c-1.209,3.92 -5.561,4.521 -9.4,5.052c-3.7,0.512 -6.166,0.981 -6.722,2.775l-3.127,-0.966c1.21,-3.918 5.561,-4.52 9.4,-5.052c3.701,-0.512 6.168,-0.981 6.722,-2.775c0.553,-1.794 -1.218,-3.573 -3.986,-6.083c-2.87,-2.604 -6.123,-5.555 -4.913,-9.473c1.21,-3.917 5.562,-4.521 9.401,-5.051c3.701,-0.513 6.168,-0.984 6.721,-2.775c0.554,-1.793 -1.219,-3.572 -3.985,-6.082c-2.871,-2.603 -6.125,-5.555 -4.914,-9.473c0.399,-1.293 1.142,-2.225 2.094,-2.912Z" style="fill:#39b54a;fill-rule:nonzero;"/><path d="M243.512,382.387c0.95,-2.186 3.162,-3.948 5.191,-5.568c2.92,-2.328 4.801,-3.991 4.363,-5.815l3.182,-0.765c0.96,3.986 -2.475,6.724 -5.504,9.14c-2.921,2.329 -4.803,3.993 -4.363,5.816c0.439,1.823 2.871,2.448 6.532,3.194c3.798,0.772 8.102,1.648 9.062,5.635c0.959,3.988 -2.475,6.726 -5.504,9.143c-2.92,2.329 -4.802,3.992 -4.363,5.818c0.44,1.824 2.872,2.449 6.533,3.195c3.798,0.773 8.102,1.649 9.062,5.637c0.961,3.988 -2.474,6.726 -5.504,9.143c-2.919,2.329 -4.8,3.992 -4.362,5.818l-3.182,0.766c-0.96,-3.986 2.474,-6.725 5.503,-9.143c2.92,-2.33 4.802,-3.993 4.362,-5.818c-0.44,-1.825 -2.871,-2.45 -6.532,-3.195c-3.798,-0.774 -8.102,-1.65 -9.062,-5.637c-0.96,-3.986 2.474,-6.727 5.504,-9.143c2.921,-2.33 4.801,-3.995 4.362,-5.818c-0.439,-1.824 -2.871,-2.449 -6.532,-3.194c-3.798,-0.773 -8.102,-1.649 -9.062,-5.636c-0.316,-1.316 -0.154,-2.496 0.314,-3.573Z" style="fill:#39b54a;fill-rule:nonzero;"/><path d="M377.522,603.557c-1.613,-1.755 -2.327,-4.491 -2.985,-7.002c-0.944,-3.614 -1.702,-6.007 -3.546,-6.346l0.59,-3.22c4.033,0.739 5.143,4.989 6.124,8.738c0.945,3.614 1.702,6.009 3.547,6.346c1.845,0.338 3.402,-1.632 5.568,-4.676c2.246,-3.159 4.792,-6.738 8.826,-5.999c4.033,0.74 5.145,4.989 6.126,8.738c0.945,3.613 1.702,6.008 3.549,6.346c1.846,0.338 3.404,-1.632 5.569,-4.676c2.247,-3.158 4.793,-6.737 8.827,-5.998c4.035,0.738 5.146,4.988 6.127,8.738c0.946,3.613 1.703,6.006 3.55,6.346l-0.59,3.22c-4.033,-0.738 -5.145,-4.988 -6.127,-8.738c-0.945,-3.614 -1.703,-6.009 -3.55,-6.346c-1.846,-0.338 -3.403,1.631 -5.569,4.676c-2.247,3.158 -4.793,6.737 -8.826,5.998c-4.033,-0.738 -5.147,-4.989 -6.127,-8.738c-0.946,-3.614 -1.705,-6.008 -3.55,-6.346c-1.845,-0.338 -3.402,1.632 -5.568,4.676c-2.246,3.158 -4.792,6.738 -8.825,5.999c-1.332,-0.244 -2.345,-0.872 -3.14,-1.736Z" style="fill:#39b54a;fill-rule:nonzero;"/><path d="M578.234,666.416c1.933,-1.395 4.734,-1.781 7.306,-2.137c3.7,-0.511 6.166,-0.98 6.72,-2.772l3.128,0.967c-1.21,3.917 -5.562,4.518 -9.4,5.049c-3.701,0.51 -6.168,0.98 -6.721,2.772c-0.553,1.792 1.219,3.571 3.986,6.081c2.871,2.604 6.124,5.555 4.914,9.473c-1.212,3.918 -5.562,4.519 -9.401,5.05c-3.7,0.513 -6.167,0.981 -6.721,2.775c-0.554,1.794 1.218,3.573 3.985,6.083c2.871,2.604 6.124,5.555 4.913,9.474c-1.209,3.919 -5.561,4.52 -9.4,5.051c-3.7,0.512 -6.166,0.982 -6.722,2.776l-3.127,-0.967c1.21,-3.917 5.561,-4.519 9.4,-5.051c3.701,-0.512 6.168,-0.982 6.722,-2.776c0.553,-1.793 -1.218,-3.572 -3.986,-6.082c-2.87,-2.604 -6.123,-5.556 -4.913,-9.474c1.21,-3.917 5.562,-4.521 9.401,-5.051c3.701,-0.512 6.168,-0.983 6.721,-2.775c0.554,-1.792 -1.219,-3.571 -3.985,-6.082c-2.871,-2.603 -6.125,-5.554 -4.914,-9.472c0.399,-1.293 1.142,-2.225 2.094,-2.912Z" style="fill:#39b54a;fill-rule:nonzero;"/><path d="M57.661,290.063c-4.406,1.284 -7.593,-1.876 -10.404,-4.665c-2.879,-2.856 -4.799,-4.54 -7.181,-3.846c-2.38,0.696 -3.095,3.148 -3.988,7.104c-0.87,3.863 -1.859,8.241 -6.264,9.526c-4.405,1.285 -7.591,-1.876 -10.401,-4.665c-2.88,-2.857 -4.8,-4.54 -7.181,-3.847c-2.378,0.696 -3.094,3.147 -3.986,7.104c-0.872,3.863 -1.859,8.241 -6.263,9.525c-4.405,1.285 -7.592,-1.875 -10.403,-4.665c-2.878,-2.856 -4.798,-4.541 -7.18,-3.846l-0.916,-3.142c4.405,-1.285 7.591,1.876 10.402,4.665c2.88,2.856 4.8,4.54 7.181,3.846c2.377,-0.694 3.093,-3.146 3.985,-7.103c0.872,-3.862 1.858,-8.241 6.264,-9.525c4.404,-1.286 7.59,1.875 10.402,4.664c2.879,2.857 4.799,4.54 7.18,3.847c2.382,-0.696 3.096,-3.148 3.988,-7.104c0.87,-3.863 1.858,-8.243 6.264,-9.527c4.405,-1.285 7.592,1.877 10.403,4.665c2.879,2.857 4.799,4.541 7.181,3.846l0.917,3.143Z" style="fill:#ffdfab;fill-rule:nonzero;"/><path d="M737.992,416.453c4.405,-1.285 7.592,1.876 10.403,4.664c2.879,2.857 4.799,4.541 7.181,3.847c2.381,-0.696 3.095,-3.148 3.988,-7.104c0.871,-3.863 1.859,-8.242 6.264,-9.526c4.405,-1.285 7.591,1.876 10.402,4.665c2.88,2.856 4.8,4.54 7.18,3.846c2.378,-0.695 3.094,-3.147 3.986,-7.103c0.872,-3.863 1.859,-8.241 6.264,-9.526c4.404,-1.284 7.591,1.876 10.402,4.665c2.879,2.856 4.799,4.542 7.18,3.847l0.916,3.142c-4.405,1.285 -7.591,-1.876 -10.401,-4.665c-2.88,-2.856 -4.8,-4.541 -7.182,-3.846c-2.377,0.694 -3.093,3.146 -3.985,7.102c-0.872,3.863 -1.858,8.242 -6.263,9.526c-4.405,1.286 -7.591,-1.876 -10.402,-4.664c-2.879,-2.857 -4.799,-4.541 -7.181,-3.847c-2.382,0.696 -3.096,3.148 -3.987,7.104c-0.871,3.863 -1.859,8.243 -6.264,9.527c-4.406,1.284 -7.593,-1.877 -10.404,-4.665c-2.879,-2.857 -4.799,-4.541 -7.181,-3.846l-0.916,-3.143Z" style="fill:#ffdfab;fill-rule:nonzero;"/><path d="M435.054,278.781c3.132,-3.354 7.486,-2.264 11.327,-1.301c3.934,0.986 6.445,1.453 8.138,-0.36c1.692,-1.814 1.054,-4.287 -0.198,-8.144c-1.224,-3.766 -2.61,-8.036 0.522,-11.389c3.132,-3.354 7.485,-2.263 11.325,-1.3c3.935,0.985 6.446,1.453 8.138,-0.359c1.69,-1.812 1.053,-4.286 -0.199,-8.143c-1.223,-3.767 -2.61,-8.035 0.521,-11.388c3.132,-3.354 7.485,-2.264 11.327,-1.301c3.933,0.986 6.444,1.455 8.137,-0.358l2.392,2.233c-3.132,3.354 -7.485,2.263 -11.325,1.3c-3.935,-0.985 -6.446,-1.453 -8.139,0.36c-1.69,1.81 -1.053,4.284 0.2,8.142c1.223,3.766 2.611,8.035 -0.522,11.388c-3.13,3.355 -7.484,2.263 -11.325,1.301c-3.934,-0.986 -6.445,-1.454 -8.138,0.359c-1.693,1.814 -1.055,4.287 0.199,8.144c1.223,3.766 2.61,8.036 -0.522,11.389c-3.132,3.355 -7.486,2.264 -11.327,1.301c-3.934,-0.986 -6.445,-1.453 -8.138,0.36l-2.393,-2.234Z" style="fill:#ffdfab;fill-rule:nonzero;"/><path d="M69.635,234.645c2.499,3.466 1.715,8.301 -1.75,10.8c-3.466,2.498 -8.301,1.715 -10.8,-1.751c-2.499,-3.466 -1.715,-8.301 1.751,-10.799c3.466,-2.499 8.301,-1.716 10.799,1.75Z" style="fill:#ffdfab;fill-rule:nonzero;"/><path d="M726.017,471.871c-2.499,-3.466 -1.715,-8.301 1.751,-10.8c3.465,-2.499 8.301,-1.715 10.799,1.751c2.499,3.466 1.715,8.301 -1.751,10.799c-3.465,2.499 -8.301,1.715 -10.799,-1.75Z" style="fill:#ffdfab;fill-rule:nonzero;"/><path d="M453.054,332.544c-3.918,-1.704 -5.713,-6.261 -4.009,-10.18c1.704,-3.917 6.262,-5.712 10.179,-4.008c3.919,1.704 5.714,6.262 4.009,10.179c-1.704,3.919 -6.261,5.714 -10.179,4.009Z" style="fill:#ffdfab;fill-rule:nonzero;"/><path d="M271.694,206.699c1.135,1.574 0.779,3.769 -0.795,4.903c-1.573,1.135 -3.769,0.779 -4.902,-0.794c-1.135,-1.574 -0.78,-3.769 0.794,-4.904c1.574,-1.134 3.768,-0.778 4.903,0.795Z" style="fill:#ffdfab;fill-rule:nonzero;"/><path d="M523.958,499.816c-1.135,-1.573 -0.778,-3.768 0.795,-4.902c1.574,-1.135 3.769,-0.779 4.903,0.794c1.135,1.574 0.779,3.769 -0.794,4.903c-1.575,1.135 -3.769,0.779 -4.904,-0.795Z" style="fill:#ffdfab;fill-rule:nonzero;"/><path d="M293.588,459.743c-1.779,-0.774 -2.593,-2.843 -1.819,-4.621c0.773,-1.78 2.843,-2.594 4.621,-1.821c1.779,0.774 2.594,2.843 1.82,4.622c-0.774,1.779 -2.842,2.593 -4.622,1.82Z" style="fill:#ffdfab;fill-rule:nonzero;"/><path d="M468.538,589.143c-1.428,1.313 -3.65,1.219 -4.962,-0.21c-1.313,-1.428 -1.219,-3.65 0.209,-4.962c1.429,-1.313 3.65,-1.219 4.963,0.209c1.313,1.429 1.218,3.651 -0.21,4.963Z" style="fill:#ffdfab;fill-rule:nonzero;"/><path d="M581.793,758.497c-1.135,-1.574 -0.778,-3.769 0.795,-4.903c1.574,-1.135 3.769,-0.778 4.903,0.794c1.135,1.575 0.779,3.769 -0.794,4.904c-1.575,1.135 -3.769,0.778 -4.904,-0.795Z" style="fill:#ffdfab;fill-rule:nonzero;"/><path d="M311.66,137.233c1.888,2.618 1.296,6.271 -1.324,8.158c-2.617,1.889 -6.27,1.296 -8.158,-1.322c-1.888,-2.618 -1.295,-6.271 1.323,-8.159c2.618,-1.888 6.271,-1.296 8.159,1.323Z" style="fill:#00e1f4;fill-rule:nonzero;"/><path d="M483.992,569.283c-1.888,-2.618 -1.295,-6.271 1.324,-8.159c2.617,-1.888 6.27,-1.295 8.158,1.323c1.888,2.618 1.296,6.271 -1.323,8.159c-2.618,1.888 -6.271,1.296 -8.159,-1.323Z" style="fill:#00e1f4;fill-rule:nonzero;"/><path d="M294.694,539.878c-2.96,-1.287 -4.315,-4.73 -3.027,-7.691c1.286,-2.96 4.729,-4.315 7.69,-3.028c2.96,1.287 4.315,4.731 3.028,7.691c-1.287,2.96 -4.731,4.316 -7.691,3.028Z" style="fill:#00e1f4;fill-rule:nonzero;"/><path d="M312.219,41.374c1.21,1.678 5.517,0.641 9.619,-2.317c4.104,-2.959 6.449,-6.717 5.239,-8.395c-1.209,-1.679 -5.517,-0.641 -9.62,2.317c-4.103,2.958 -6.449,6.717 -5.238,8.395Z" style="fill:#ffdfab;fill-rule:nonzero;"/><path d="M483.433,665.142c-1.209,-1.679 -5.517,-0.641 -9.619,2.317c-4.103,2.958 -6.449,6.717 -5.239,8.395c1.21,1.679 5.517,0.641 9.62,-2.317c4.104,-2.958 6.449,-6.717 5.238,-8.395Z" style="fill:#ffdfab;fill-rule:nonzero;"/><path d="M134.459,197.489c4.397,2.388 7.327,5.493 6.543,6.936c-0.784,1.442 -4.983,0.675 -9.38,-1.714c-4.397,-2.388 -7.326,-5.494 -6.542,-6.935c0.784,-1.443 4.983,-0.676 9.379,1.713Z" style="fill:#ffbd28;fill-rule:nonzero;"/><path d="M661.193,509.027c-4.397,-2.388 -7.327,-5.494 -6.543,-6.936c0.784,-1.442 4.983,-0.675 9.38,1.714c4.397,2.388 7.326,5.494 6.543,6.935c-0.784,1.443 -4.983,0.676 -9.38,-1.713Z" style="fill:#ffbd28;fill-rule:nonzero;"/><path d="M416.289,397.591c-5,0.192 -9.105,-0.983 -9.167,-2.623c-0.063,-1.64 3.94,-3.125 8.94,-3.316c5,-0.191 9.104,0.983 9.166,2.623c0.063,1.641 -3.939,3.125 -8.939,3.316Z" style="fill:#ffbd28;fill-rule:nonzero;"/><path d="M719.028,767.708c-4.397,-2.388 -7.327,-5.494 -6.543,-6.936c0.784,-1.443 4.983,-0.675 9.38,1.713c4.397,2.388 7.326,5.494 6.543,6.936c-0.784,1.443 -4.983,0.675 -9.38,-1.713Z" style="fill:#ffbd28;fill-rule:nonzero;"/><path d="M50.18,178.48c0.91,1.263 4.671,0.106 8.401,-2.582c3.729,-2.689 6.014,-5.892 5.104,-7.155c-0.911,-1.262 -4.672,-0.106 -8.401,2.583c-3.729,2.688 -6.014,5.892 -5.104,7.154Z" style="fill:#008c92;fill-rule:nonzero;"/><path d="M745.472,528.036c-0.91,-1.263 -4.671,-0.107 -8.401,2.582c-3.729,2.689 -6.014,5.892 -5.103,7.154c0.91,1.263 4.671,0.107 8.4,-2.582c3.729,-2.689 6.015,-5.892 5.104,-7.154Z" style="fill:#008c92;fill-rule:nonzero;"/><path d="M498.46,370.903c-1.427,-0.622 -4.071,2.293 -5.905,6.509c-1.833,4.216 -2.163,8.137 -0.735,8.758c1.427,0.62 4.071,-2.294 5.904,-6.51c1.834,-4.216 2.163,-8.137 0.736,-8.757Z" style="fill:#008c92;fill-rule:nonzero;"/><path d="M289.496,225.139c-0.467,-2.909 -1.786,-5.116 -2.948,-4.93c-1.163,0.186 -1.726,2.696 -1.259,5.603c0.465,2.91 1.786,5.117 2.947,4.93c1.162,-0.186 1.725,-2.695 1.26,-5.603Z" style="fill:#ffbd28;fill-rule:nonzero;"/><path d="M506.157,481.377c0.466,2.908 1.786,5.116 2.947,4.93c1.163,-0.186 1.726,-2.696 1.26,-5.604c-0.466,-2.909 -1.786,-5.116 -2.948,-4.929c-1.162,0.186 -1.725,2.695 -1.259,5.603Z" style="fill:#ffbd28;fill-rule:nonzero;"/><path d="M268.867,452.977c1.887,2.263 4.148,3.487 5.052,2.734c0.904,-0.753 0.107,-3.199 -1.778,-5.461c-1.886,-2.263 -4.148,-3.487 -5.052,-2.733c-0.904,0.753 -0.107,3.198 1.778,5.46Z" style="fill:#ffbd28;fill-rule:nonzero;"/><path d="M452.331,608.999c2.833,-0.807 4.869,-2.378 4.547,-3.51c-0.322,-1.132 -2.881,-1.395 -5.713,-0.588c-2.834,0.806 -4.87,2.378 -4.547,3.509c0.322,1.132 2.88,1.395 5.713,0.589Z" style="fill:#ffbd28;fill-rule:nonzero;"/><path d="M563.992,740.057c0.466,2.909 1.786,5.116 2.947,4.93c1.163,-0.186 1.726,-2.695 1.26,-5.603c-0.466,-2.909 -1.786,-5.117 -2.948,-4.93c-1.162,0.186 -1.725,2.696 -1.259,5.603Z" style="fill:#ffbd28;fill-rule:nonzero;"/><path d="M187.862,78.356l-2.697,-5.553l-6.104,-0.927l4.448,-4.281l-1.005,-6.091l5.447,2.908l5.482,-2.839l-1.082,6.079l4.394,4.337l-6.115,0.849l-2.768,5.518Z" style="fill:#ffbd28;fill-rule:nonzero;"/><path d="M607.79,628.159l2.698,5.554l6.103,0.927l-4.448,4.281l1.005,6.091l-5.446,-2.908l-5.483,2.839l1.082,-6.079l-4.393,-4.337l6.115,-0.849l2.767,-5.519Z" style="fill:#ffbd28;fill-rule:nonzero;"/><path d="M431.2,527.291l5.156,3.398l5.721,-2.32l-1.639,5.952l3.974,4.724l-6.168,0.281l-3.264,5.24l-2.173,-5.779l-5.993,-1.486l4.824,-3.852l-0.438,-6.158Z" style="fill:#ffbd28;fill-rule:nonzero;"/><path d="M460.206,132.418c-0.323,-0.099 -0.656,-0.155 -0.99,-0.168l-0.097,-0.674c0.401,0.208 0.769,0.489 1.087,0.842Z" style="fill:#ffbd28;fill-rule:nonzero;"/><path d="M9.092,505.717c-0.322,-0.099 -0.655,-0.155 -0.989,-0.168l-0.098,-0.674c0.402,0.208 0.769,0.489 1.087,0.842Z" style="fill:#ffbd28;fill-rule:nonzero;"/><path d="M459.729,135.013l-0.105,0.014l-0.011,-0.071l0.116,0.057Z" style="fill:#ffbd28;fill-rule:nonzero;"/><path d="M8.616,508.312l-0.106,0.014l-0.01,-0.071l0.116,0.057Z" style="fill:#ffbd28;fill-rule:nonzero;"/><path d="M457.874,133.765l0.01,0.067l0.099,-0.013l-0.109,-0.054Z" style="fill:#ffbd28;fill-rule:nonzero;"/><path d="M6.76,507.064l0.011,0.067l0.099,-0.013l-0.11,-0.054Z" style="fill:#ffbd28;fill-rule:nonzero;"/><path d="M460.206,132.418c-0.323,-0.099 -0.656,-0.155 -0.99,-0.168c-0.516,-0.027 -1.036,0.05 -1.53,0.223l-0.196,-1.336c0.562,0.025 1.121,0.174 1.629,0.439c0.401,0.208 0.769,0.489 1.087,0.842Z" style="fill:#ef9529;fill-rule:nonzero;"/><path d="M9.092,505.717c-0.322,-0.099 -0.655,-0.155 -0.989,-0.168c-0.516,-0.027 -1.037,0.05 -1.531,0.223l-0.196,-1.336c0.562,0.025 1.122,0.174 1.629,0.439c0.402,0.208 0.769,0.489 1.087,0.842Z" style="fill:#ef9529;fill-rule:nonzero;"/><path d="M457.983,133.819l-0.099,0.013l-0.01,-0.067l0.109,0.054Z" style="fill:#ef9529;fill-rule:nonzero;"/><path d="M6.87,507.118l-0.099,0.013l-0.011,-0.067l0.11,0.054Z" style="fill:#ef9529;fill-rule:nonzero;"/><path d="M459.613,134.956l0.011,0.071l0.105,-0.014l-0.116,-0.057Zm-3.226,-1.723c0.393,-0.343 0.835,-0.596 1.299,-0.76c0.494,-0.173 1.014,-0.25 1.53,-0.223c0.334,0.013 0.667,0.069 0.99,0.168c-0.318,-0.353 -0.686,-0.634 -1.087,-0.842c-0.508,-0.265 -1.067,-0.414 -1.629,-0.439c-0.97,-0.045 -1.958,0.269 -2.746,0.956c-1.622,1.414 -1.791,3.884 -0.376,5.507c0.397,0.455 0.879,0.795 1.401,1.02c-1.203,-1.666 -0.96,-4.011 0.618,-5.387Z" style="fill:#ffbd28;fill-rule:nonzero;"/><path d="M8.5,508.255l0.01,0.071l0.106,-0.014l-0.116,-0.057Zm-3.227,-1.723c0.393,-0.343 0.836,-0.596 1.299,-0.76c0.494,-0.173 1.015,-0.25 1.531,-0.223c0.334,0.013 0.667,0.069 0.989,0.168c-0.318,-0.353 -0.685,-0.634 -1.087,-0.842c-0.507,-0.265 -1.067,-0.414 -1.629,-0.439c-0.969,-0.045 -1.958,0.269 -2.745,0.956c-1.622,1.414 -1.791,3.884 -0.376,5.507c0.397,0.455 0.878,0.795 1.401,1.02c-1.203,-1.666 -0.961,-4.011 0.617,-5.387Z" style="fill:#ffbd28;fill-rule:nonzero;"/><path d="M529.535,-0.74c-3.624,1.915 -7.128,-0.733 -10.218,-3.071c-2.98,-2.252 -5.057,-3.664 -6.714,-2.787c-1.66,0.878 -1.663,3.389 -1.479,7.12c0.193,3.87 0.409,8.258 -3.215,10.174c-3.626,1.917 -7.13,-0.731 -10.221,-3.068c-2.98,-2.252 -5.058,-3.664 -6.717,-2.786c-1.659,0.877 -1.662,3.389 -1.479,7.12c0.192,3.87 0.408,8.258 -3.217,10.175c-3.626,1.918 -7.129,-0.731 -10.222,-3.068c-2.98,-2.253 -5.058,-3.663 -6.717,-2.786l-1.531,-2.893c3.626,-1.918 7.131,0.731 10.222,3.068c2.981,2.252 5.058,3.663 6.718,2.785c1.659,-0.877 1.662,-3.388 1.478,-7.119c-0.191,-3.871 -0.408,-8.259 3.218,-10.176c3.624,-1.917 7.129,0.732 10.22,3.069c2.981,2.252 5.058,3.663 6.717,2.786c1.659,-0.878 1.662,-3.389 1.477,-7.119c-0.191,-3.872 -0.408,-8.259 3.217,-10.176c3.624,-1.916 7.127,0.733 10.219,3.07c2.98,2.253 5.056,3.664 6.714,2.787l1.53,2.895Z" style="fill:#008c92;fill-rule:nonzero;"/><path d="M496.332,51.592c-5.718,0.09 -10.335,1.369 -10.311,2.857c0.023,1.488 4.677,2.621 10.396,2.531c5.718,-0.09 10.335,-1.369 10.312,-2.857c-0.023,-1.488 -4.678,-2.621 -10.397,-2.531Z" style="fill:#008c92;fill-rule:nonzero;"/><path d="M45.219,424.891c-5.719,0.09 -10.336,1.369 -10.312,2.857c0.023,1.488 4.678,2.621 10.397,2.531c5.718,-0.09 10.335,-1.369 10.311,-2.857c-0.023,-1.488 -4.677,-2.621 -10.396,-2.531Z" style="fill:#008c92;fill-rule:nonzero;"/><path d="M587.499,17.165l-3.381,1.637l-3.266,-1.857l0.512,3.721l-2.775,2.531l3.697,0.663l1.549,3.423l1.774,-3.312l3.734,-0.417l-2.602,-2.709l0.758,-3.68Z" style="fill:#00e1f4;fill-rule:nonzero;"/><path d="M136.385,390.464l-3.381,1.637l-3.265,-1.857l0.512,3.721l-2.776,2.531l3.698,0.663l1.549,3.423l1.774,-3.312l3.733,-0.417l-2.601,-2.709l0.757,-3.68Z" style="fill:#00e1f4;fill-rule:nonzero;"/><path d="M341.474,704.759l0.125,3.755l-3.022,2.232l3.61,1.04l1.188,3.564l2.106,-3.111l3.756,-0.029l-2.308,-2.964l1.133,-3.582l-3.532,1.28l-3.056,-2.185Z" style="fill:#00e1f4;fill-rule:nonzero;"/><path d="M611.519,69.616l-3.012,-0.634l-1.184,-2.841l-1.535,2.668l-3.068,0.248l2.063,2.284l-0.712,2.994l2.81,-1.256l2.628,1.602l-0.327,-3.06l2.337,-2.005Z" style="fill:#00e1f4;fill-rule:nonzero;"/><path d="M160.405,442.915l-3.012,-0.634l-1.184,-2.841l-1.534,2.668l-3.069,0.248l2.064,2.284l-0.712,2.994l2.809,-1.256l2.628,1.602l-0.327,-3.06l2.337,-2.005Z" style="fill:#00e1f4;fill-rule:nonzero;"/><path d="M399.159,704.067l-1.801,2.496l-3.077,-0.069l1.816,2.484l-1.017,2.906l2.925,-0.96l2.448,1.864l-0.009,-3.077l2.53,-1.753l-2.93,-0.942l-0.885,-2.949Z" style="fill:#00e1f4;fill-rule:nonzero;"/><path d="M522.309,61.288l-3.193,1.386l-2.951,-1.846l0.33,3.466l-2.668,2.236l3.399,0.757l1.303,3.228l1.77,-2.998l3.472,-0.241l-2.305,-2.61l0.843,-3.378Z" style="fill:#00e1f4;fill-rule:nonzero;"/><path d="M71.196,434.587l-3.194,1.386l-2.951,-1.846l0.33,3.466l-2.667,2.236l3.398,0.757l1.303,3.228l1.77,-2.998l3.473,-0.241l-2.305,-2.61l0.843,-3.378Z" style="fill:#00e1f4;fill-rule:nonzero;"/><path d="M621.216,147.138l-6.3,-0.377l-3.261,-5.403l-2.305,5.876l-6.147,1.432l4.876,4.008l-0.538,6.289l5.319,-3.399l5.815,2.454l-1.59,-6.108l4.131,-4.772Z" style="fill:#008c92;fill-rule:nonzero;"/><path d="M170.103,520.437l-6.3,-0.377l-3.262,-5.403l-2.305,5.876l-6.147,1.432l4.876,4.008l-0.538,6.289l5.319,-3.399l5.815,2.454l-1.589,-6.108l4.131,-4.772Z" style="fill:#008c92;fill-rule:nonzero;"/><path d="M560.227,350.519l-6.3,-0.377l-3.262,-5.403l-2.305,5.875l-6.147,1.433l4.876,4.008l-0.538,6.289l5.319,-3.399l5.815,2.454l-1.589,-6.108l4.131,-4.772Z" style="fill:#008c92;fill-rule:nonzero;"/><path d="M657.306,285.616l-6.3,-0.377l-3.261,-5.403l-2.305,5.876l-6.147,1.432l4.876,4.008l-0.538,6.289l5.319,-3.399l5.815,2.455l-1.589,-6.109l4.13,-4.772Z" style="fill:#ffdfab;fill-rule:nonzero;"/><path d="M206.193,658.915l-6.3,-0.377l-3.262,-5.403l-2.305,5.876l-6.147,1.432l4.876,4.008l-0.538,6.289l5.319,-3.399l5.815,2.455l-1.588,-6.109l4.13,-4.772Z" style="fill:#ffdfab;fill-rule:nonzero;"/><path d="M557.691,108.919l-6.873,-0.684l-3.332,-6.048l-2.774,6.324l-6.782,1.301l5.158,4.592l-0.859,6.852l5.961,-3.487l6.252,2.934l-1.474,-6.746l4.723,-5.038Z" style="fill:#00e1f4;fill-rule:nonzero;"/><path d="M106.577,482.218l-6.872,-0.684l-3.332,-6.048l-2.775,6.324l-6.781,1.301l5.158,4.592l-0.859,6.852l5.961,-3.487l6.251,2.934l-1.474,-6.746l4.723,-5.038Z" style="fill:#00e1f4;fill-rule:nonzero;"/><path d="M768.635,184.392l-6.87,-0.683l-3.33,-6.049l-2.775,6.325l-6.78,1.3l5.152,4.592l-0.855,6.852l5.963,-3.486l6.247,2.934l-1.47,-6.747l4.718,-5.038Z" style="fill:#ffdfab;fill-rule:nonzero;"/><path d="M317.521,557.691l-6.87,-0.683l-3.33,-6.049l-2.775,6.325l-6.78,1.3l5.153,4.592l-0.855,6.852l5.962,-3.486l6.248,2.934l-1.47,-6.747l4.717,-5.038Z" style="fill:#ffdfab;fill-rule:nonzero;"/><path d="M479.734,1.04l-6.079,-1.25l-2.417,-5.717l-3.067,5.396l-6.183,0.532l4.183,4.584l-1.405,6.046l5.653,-2.563l5.315,3.205l-0.69,-6.168l4.69,-4.065Z" style="fill:#ffbd28;fill-rule:nonzero;"/><path d="M28.621,374.339l-6.08,-1.25l-2.416,-5.717l-3.068,5.396l-6.183,0.532l4.184,4.584l-1.405,6.046l5.653,-2.563l5.315,3.205l-0.69,-6.168l4.69,-4.065Z" style="fill:#ffbd28;fill-rule:nonzero;"/><path d="M664.422,234.427l-4.921,1.809l-4.28,-3.027l0.201,5.239l-4.202,3.135l5.045,1.428l1.683,4.965l2.917,-4.356l5.242,-0.067l-3.242,-4.119l1.557,-5.007Z" style="fill:#ffdfab;fill-rule:nonzero;"/><path d="M213.309,607.726l-4.921,1.809l-4.28,-3.027l0.201,5.239l-4.202,3.135l5.044,1.428l1.683,4.965l2.918,-4.356l5.241,-0.067l-3.241,-4.119l1.557,-5.007Z" style="fill:#ffdfab;fill-rule:nonzero;"/><path d="M535.741,159.139l-5.033,-1.749l-1.412,-5.139l-3.22,4.247l-5.324,-0.245l3.044,4.374l-1.877,4.986l5.1,-1.542l4.162,3.327l0.109,-5.328l4.451,-2.931Z" style="fill:#ffdfab;fill-rule:nonzero;"/><path d="M84.628,532.438l-5.034,-1.749l-1.412,-5.139l-3.22,4.247l-5.323,-0.245l3.044,4.374l-1.878,4.986l5.101,-1.542l4.162,3.327l0.108,-5.328l4.452,-2.931Z" style="fill:#ffdfab;fill-rule:nonzero;"/><path d="M644.349,46.223l-3.915,-1.141l-1.278,-3.872l-2.295,3.371l-4.077,0.019l2.495,3.224l-1.241,3.884l3.838,-1.377l3.31,2.38l-0.124,-4.075l3.287,-2.413Z" style="fill:#008c92;fill-rule:nonzero;"/><path d="M193.236,419.522l-3.915,-1.141l-1.279,-3.872l-2.294,3.371l-4.078,0.019l2.495,3.224l-1.24,3.884l3.838,-1.377l3.309,2.38l-0.123,-4.075l3.287,-2.413Z" style="fill:#008c92;fill-rule:nonzero;"/><path d="M391.085,664.572l-2.631,3.116l-4.057,-0.401l2.151,3.464l-1.636,3.735l3.96,-0.974l3.047,2.709l0.297,-4.067l3.518,-2.06l-3.776,-1.539l-0.873,-3.983Z" style="fill:#008c92;fill-rule:nonzero;"/><path d="M535.42,36.094l-2.857,-4.818l-5.601,0.064l-2.745,4.883l2.857,4.819l5.602,-0.064l2.744,-4.884Z" style="fill:#00e1f4;fill-rule:nonzero;"/><path d="M84.307,409.393l-2.857,-4.818l-5.602,0.064l-2.744,4.883l2.857,4.819l5.601,-0.064l2.745,-4.884Z" style="fill:#00e1f4;fill-rule:nonzero;"/><path d="M606.219,218.433l-12.322,-3.289l-9.009,9.027l3.313,12.316l12.322,3.289l9.01,-9.027l-3.314,-12.316Z" style="fill:#ffdfab;fill-rule:nonzero;"/><path d="M413.786,78.577l-12.322,-3.289l-9.009,9.027l3.313,12.316l12.322,3.289l9.01,-9.027l-3.314,-12.316Z" style="fill:#ffdfab;fill-rule:nonzero;"/><path d="M155.106,591.732l-12.323,-3.289l-9.009,9.027l3.314,12.316l12.322,3.289l9.009,-9.027l-3.313,-12.316Z" style="fill:#ffdfab;fill-rule:nonzero;"/><path d="M673.6,191.238l-12.104,-1.679l-7.507,9.642l4.597,11.322l12.104,1.68l7.507,-9.642l-4.597,-11.323Z" style="fill:#ffbd28;fill-rule:nonzero;"/><path d="M366.548,231.197l-12.104,-1.68l-7.507,9.643l4.597,11.322l12.104,1.68l7.507,-9.643l-4.597,-11.322Z" style="fill:#ffbd28;fill-rule:nonzero;"/><path d="M222.487,564.537l-12.105,-1.679l-7.506,9.642l4.596,11.322l12.105,1.68l7.506,-9.642l-4.596,-11.323Z" style="fill:#ffbd28;fill-rule:nonzero;"/><path d="M774.575,306.522l-6.63,-0.921l-4.118,5.287l2.52,6.208l6.638,0.921l4.117,-5.287l-2.527,-6.208Z" style="fill:#008c92;fill-rule:nonzero;"/><path d="M323.461,679.821l-6.63,-0.921l-4.117,5.287l2.52,6.208l6.637,0.921l4.118,-5.287l-2.528,-6.208Z" style="fill:#008c92;fill-rule:nonzero;"/><path d="M93.173,104.006l-6.63,-0.921l-4.118,5.287l2.52,6.208l6.638,0.921l4.117,-5.287l-2.527,-6.208Z" style="fill:#008c92;fill-rule:nonzero;"/><path d="M625.986,111.025l-4.56,-2.057l-4.063,2.922l0.499,4.979l4.561,2.058l4.063,-2.922l-0.5,-4.98Z" style="fill:#9edee5;fill-rule:nonzero;"/><path d="M174.873,484.324l-4.561,-2.057l-4.063,2.922l0.499,4.979l4.562,2.058l4.062,-2.922l-0.499,-4.98Z" style="fill:#9edee5;fill-rule:nonzero;"/><path d="M442.878,707.63l-3.73,3.335l1.024,4.899l4.754,1.563l3.73,-3.336l-1.024,-4.898l-4.754,-1.563Z" style="fill:#9edee5;fill-rule:nonzero;"/><path d="M579.153,186.634l-5.846,-6.749l-8.768,1.688l-2.922,8.438l5.845,6.749l8.769,-1.688l2.922,-8.438Z" style="fill:#9edee5;fill-rule:nonzero;"/><path d="M128.04,559.933l-5.846,-6.749l-8.769,1.688l-2.922,8.438l5.846,6.749l8.769,-1.688l2.922,-8.438Z" style="fill:#9edee5;fill-rule:nonzero;"/><path d="M545.838,-3.706l-3.903,-3l-4.549,1.88l-0.646,4.881l3.903,3l4.549,-1.881l0.646,-4.88Z" style="fill:#ffdfab;fill-rule:nonzero;"/><path d="M94.725,369.593l-3.903,-3l-4.55,1.88l-0.645,4.881l3.903,3l4.548,-1.881l0.647,-4.88Z" style="fill:#ffdfab;fill-rule:nonzero;"/><path d="M465.102,30.991l35.731,17.383l-31.277,-24.508l-4.454,7.125Z" style="fill:#008c92;fill-rule:nonzero;"/><path d="M13.989,404.29l35.731,17.383l-31.278,-24.508l-4.453,7.125Z" style="fill:#008c92;fill-rule:nonzero;"/><path d="M748.64,257.873l35.73,17.382l-31.283,-24.506l-4.447,7.124Z" style="fill:#008c92;fill-rule:nonzero;"/><path d="M297.526,631.172l35.73,17.382l-31.282,-24.506l-4.448,7.124Z" style="fill:#008c92;fill-rule:nonzero;"/><path d="M67.238,55.357l35.73,17.382l-31.283,-24.506l-4.447,7.124Z" style="fill:#008c92;fill-rule:nonzero;"/><path d="M549.841,141.199l27.047,29.108l-20.322,-34.145l-6.725,5.037Z" style="fill:#9edee5;fill-rule:nonzero;"/><path d="M98.728,514.498l27.046,29.108l-20.321,-34.145l-6.725,5.037Z" style="fill:#9edee5;fill-rule:nonzero;"/><path d="M709.287,296.611l-6.322,20.541l12.165,-17.718l-5.843,-2.823Z" style="fill:#ffbd28;fill-rule:nonzero;"/><path d="M258.174,669.91l-6.323,20.541l12.165,-17.718l-5.842,-2.823Z" style="fill:#ffbd28;fill-rule:nonzero;"/><path d="M27.885,94.095l-6.322,20.541l12.165,-17.719l-5.843,-2.822Z" style="fill:#ffbd28;fill-rule:nonzero;"/><path d="M611.553,1.163l-19.522,9.543l21.093,-5.224l-1.571,-4.319Z" style="fill:#00e1f4;fill-rule:nonzero;"/><path d="M160.44,374.462l-19.523,9.543l21.093,-5.224l-1.57,-4.319Z" style="fill:#00e1f4;fill-rule:nonzero;"/><path d="M336.598,676.283l0.809,21.715l3.776,-21.4l-4.585,-0.315Z" style="fill:#00e1f4;fill-rule:nonzero;"/><path d="M587.798,107.831l-7.185,13.939l12.114,-9.958l-4.929,-3.981Z" style="fill:#00e1f4;fill-rule:nonzero;"/><path d="M136.684,481.13l-7.185,13.939l12.114,-9.958l-4.929,-3.981Z" style="fill:#00e1f4;fill-rule:nonzero;"/><path d="M424.475,741.244l9.829,12.22l-4.191,-15.111l-5.638,2.891Z" style="fill:#00e1f4;fill-rule:nonzero;"/><path d="M613.806,161.023c-2.627,-2.046 -6.256,-1.692 -9.525,-1.374c-4.037,0.392 -6.588,0.484 -7.995,-1.56l-2.697,1.854c2.601,3.78 7.068,3.347 11.009,2.964c4.036,-0.393 6.586,-0.484 7.994,1.56c1.405,2.043 0.407,4.395 -1.403,8.023c-1.767,3.543 -3.771,7.559 -1.171,11.34c2.6,3.781 7.067,3.347 11.008,2.964c4.037,-0.393 6.592,-0.484 7.995,1.56c1.406,2.044 0.407,4.396 -1.403,8.024c-1.767,3.545 -3.771,7.56 -1.17,11.342c2.601,3.781 7.068,3.347 11.01,2.964c4.035,-0.392 6.588,-0.483 7.994,1.561l2.698,-1.855c-2.599,-3.781 -7.068,-3.347 -11.009,-2.964c-4.037,0.392 -6.591,0.484 -7.996,-1.562c-1.405,-2.043 -0.408,-4.395 1.403,-8.024c1.767,-3.544 3.771,-7.559 1.17,-11.341c-2.601,-3.781 -7.068,-3.346 -11.009,-2.964c-4.036,0.393 -6.588,0.486 -7.994,-1.56c-1.405,-2.043 -0.408,-4.395 1.403,-8.023c1.768,-3.543 3.772,-7.559 1.172,-11.34c-0.444,-0.645 -0.943,-1.168 -1.484,-1.589Z" style="fill:#39b54a;fill-rule:nonzero;"/><path d="M162.693,534.322c-2.627,-2.046 -6.257,-1.692 -9.525,-1.374c-4.037,0.392 -6.589,0.484 -7.995,-1.56l-2.697,1.854c2.601,3.78 7.067,3.347 11.008,2.964c4.037,-0.393 6.587,-0.484 7.995,1.56c1.405,2.043 0.407,4.395 -1.404,8.023c-1.767,3.543 -3.771,7.559 -1.17,11.34c2.6,3.781 7.067,3.347 11.007,2.964c4.038,-0.393 6.592,-0.484 7.995,1.56c1.407,2.044 0.408,4.396 -1.403,8.024c-1.767,3.545 -3.77,7.56 -1.169,11.342c2.6,3.781 7.068,3.347 11.009,2.964c4.036,-0.392 6.589,-0.483 7.995,1.561l2.697,-1.855c-2.599,-3.781 -7.067,-3.347 -11.008,-2.964c-4.038,0.392 -6.591,0.484 -7.996,-1.562c-1.406,-2.043 -0.408,-4.395 1.402,-8.024c1.767,-3.544 3.771,-7.559 1.17,-11.341c-2.601,-3.781 -7.068,-3.346 -11.008,-2.964c-4.037,0.393 -6.588,0.486 -7.994,-1.56c-1.406,-2.043 -0.408,-4.395 1.403,-8.023c1.768,-3.543 3.772,-7.559 1.171,-11.34c-0.444,-0.645 -0.942,-1.168 -1.483,-1.589Z" style="fill:#39b54a;fill-rule:nonzero;"/><path d="M598.29,48.672c-3.58,0.041 -5.042,4.102 -6.332,7.684c-0.884,2.454 -1.984,5.506 -3.29,5.522c-1.308,0.016 -2.477,-3.013 -3.417,-5.444c-1.373,-3.552 -2.928,-7.578 -6.508,-7.537c-3.578,0.041 -5.039,4.102 -6.328,7.684c-0.884,2.454 -1.983,5.506 -3.288,5.521c-1.306,0.014 -2.475,-3.012 -3.415,-5.443c-1.372,-3.553 -2.928,-7.578 -6.504,-7.538c-3.579,0.041 -5.04,4.103 -6.33,7.685c-0.883,2.453 -1.981,5.505 -3.287,5.521l0.038,3.273c3.578,-0.041 5.04,-4.102 6.33,-7.685c0.882,-2.453 1.981,-5.505 3.286,-5.521c1.308,-0.014 2.475,3.013 3.414,5.444c1.372,3.552 2.927,7.578 6.506,7.537c3.577,-0.041 5.04,-4.102 6.329,-7.685c0.883,-2.453 1.982,-5.505 3.287,-5.52c1.308,-0.017 2.477,3.012 3.417,5.443c1.372,3.553 2.928,7.578 6.507,7.538c3.579,-0.041 5.042,-4.102 6.333,-7.685c0.883,-2.453 1.983,-5.506 3.29,-5.521l-0.038,-3.273Z" style="fill:#00e1f4;fill-rule:nonzero;"/><path d="M739.197,111.765c-3.58,0.041 -5.042,4.101 -6.332,7.684c-0.884,2.453 -1.984,5.506 -3.29,5.522c-1.308,0.015 -2.477,-3.013 -3.417,-5.445c-1.373,-3.552 -2.927,-7.578 -6.508,-7.536c-3.577,0.041 -5.039,4.102 -6.328,7.684c-0.884,2.453 -1.983,5.506 -3.288,5.521c-1.306,0.014 -2.475,-3.012 -3.414,-5.444c-1.373,-3.552 -2.928,-7.578 -6.505,-7.537c-3.579,0.041 -5.04,4.102 -6.33,7.685c-0.883,2.453 -1.981,5.505 -3.287,5.521l0.038,3.273c3.578,-0.041 5.04,-4.103 6.33,-7.685c0.882,-2.453 1.981,-5.505 3.286,-5.521c1.308,-0.014 2.475,3.013 3.414,5.444c1.372,3.552 2.927,7.578 6.506,7.537c3.577,-0.041 5.04,-4.102 6.329,-7.685c0.883,-2.453 1.982,-5.505 3.287,-5.52c1.308,-0.018 2.477,3.012 3.417,5.443c1.372,3.553 2.928,7.578 6.507,7.538c3.579,-0.042 5.042,-4.102 6.333,-7.686c0.883,-2.452 1.983,-5.505 3.29,-5.52l-0.038,-3.273Z" style="fill:#00e1f4;fill-rule:nonzero;"/><path d="M147.177,421.971c-3.581,0.041 -5.042,4.102 -6.332,7.684c-0.885,2.454 -1.984,5.506 -3.291,5.522c-1.308,0.016 -2.477,-3.013 -3.417,-5.444c-1.372,-3.552 -2.927,-7.578 -6.507,-7.537c-3.578,0.041 -5.04,4.102 -6.329,7.684c-0.883,2.454 -1.982,5.506 -3.287,5.521c-1.307,0.014 -2.475,-3.012 -3.415,-5.443c-1.372,-3.553 -2.928,-7.578 -6.505,-7.538c-3.579,0.041 -5.04,4.103 -6.33,7.685c-0.882,2.453 -1.98,5.505 -3.286,5.521l0.037,3.273c3.579,-0.041 5.04,-4.102 6.33,-7.685c0.882,-2.453 1.981,-5.505 3.286,-5.521c1.309,-0.014 2.476,3.013 3.415,5.444c1.372,3.552 2.926,7.578 6.505,7.537c3.578,-0.041 5.04,-4.102 6.33,-7.685c0.882,-2.453 1.981,-5.505 3.287,-5.52c1.307,-0.017 2.476,3.012 3.416,5.443c1.373,3.553 2.928,7.578 6.508,7.538c3.579,-0.041 5.041,-4.102 6.332,-7.685c0.884,-2.453 1.983,-5.506 3.29,-5.521l-0.037,-3.273Z" style="fill:#00e1f4;fill-rule:nonzero;"/><path d="M518.505,138.801l-2.952,-1.417c-1.985,4.137 0.614,7.796 2.907,11.024c2.349,3.306 3.699,5.475 2.625,7.71c-1.073,2.236 -3.608,2.541 -7.656,2.775c-3.954,0.231 -8.435,0.491 -10.42,4.627c-1.986,4.138 0.613,7.796 2.907,11.024c2.35,3.306 3.698,5.475 2.625,7.71c-1.074,2.238 -3.611,2.542 -7.659,2.778c-3.953,0.23 -8.434,0.49 -10.42,4.627c-1.985,4.138 0.614,7.796 2.907,11.024c2.349,3.307 3.698,5.476 2.624,7.713l2.952,1.416c1.985,-4.137 -0.614,-7.796 -2.907,-11.025c-2.349,-3.306 -3.698,-5.475 -2.625,-7.711c1.074,-2.237 3.61,-2.541 7.659,-2.777c3.953,-0.23 8.434,-0.49 10.419,-4.627c1.986,-4.138 -0.613,-7.796 -2.907,-11.024c-2.348,-3.306 -3.697,-5.475 -2.625,-7.711c1.074,-2.236 3.609,-2.54 7.659,-2.775c3.953,-0.23 8.433,-0.49 10.418,-4.627c1.986,-4.137 -0.613,-7.795 -2.906,-11.023c-2.349,-3.306 -3.699,-5.475 -2.625,-7.711Z" style="fill:#39b54a;fill-rule:nonzero;"/><path d="M67.391,512.1l-2.951,-1.417c-1.985,4.137 0.614,7.796 2.907,11.024c2.349,3.306 3.698,5.475 2.625,7.71c-1.073,2.236 -3.608,2.541 -7.657,2.775c-3.953,0.231 -8.434,0.491 -10.42,4.627c-1.986,4.138 0.614,7.796 2.907,11.024c2.35,3.306 3.699,5.475 2.625,7.71c-1.074,2.238 -3.61,2.542 -7.659,2.778c-3.953,0.23 -8.433,0.49 -10.419,4.627c-1.986,4.138 0.614,7.796 2.907,11.024c2.349,3.307 3.697,5.476 2.624,7.713l2.951,1.416c1.985,-4.137 -0.613,-7.796 -2.906,-11.025c-2.35,-3.306 -3.698,-5.475 -2.625,-7.711c1.074,-2.237 3.61,-2.541 7.659,-2.777c3.952,-0.23 8.434,-0.49 10.419,-4.627c1.986,-4.138 -0.614,-7.796 -2.907,-11.024c-2.348,-3.306 -3.698,-5.475 -2.625,-7.711c1.074,-2.236 3.609,-2.54 7.658,-2.775c3.953,-0.23 8.434,-0.49 10.419,-4.627c1.985,-4.137 -0.613,-7.795 -2.907,-11.023c-2.349,-3.306 -3.698,-5.475 -2.625,-7.711Z" style="fill:#39b54a;fill-rule:nonzero;"/><path d="M155.721,669.832l-2.951,-1.417c-1.985,4.137 0.614,7.796 2.907,11.024c2.349,3.306 3.698,5.475 2.625,7.71c-1.074,2.236 -3.609,2.541 -7.657,2.775c-3.953,0.231 -8.434,0.491 -10.42,4.627c-1.986,4.138 0.614,7.796 2.907,11.024c2.35,3.306 3.698,5.475 2.625,7.71c-1.074,2.238 -3.61,2.542 -7.659,2.778c-3.953,0.23 -8.434,0.49 -10.42,4.627c-1.985,4.138 0.615,7.796 2.908,11.024c2.348,3.307 3.697,5.476 2.624,7.713l2.951,1.416c1.985,-4.137 -0.614,-7.796 -2.906,-11.025c-2.35,-3.306 -3.698,-5.475 -2.625,-7.711c1.074,-2.237 3.609,-2.541 7.659,-2.777c3.952,-0.23 8.434,-0.49 10.419,-4.627c1.986,-4.138 -0.614,-7.796 -2.907,-11.024c-2.348,-3.306 -3.698,-5.475 -2.625,-7.711c1.074,-2.236 3.609,-2.54 7.658,-2.775c3.953,-0.23 8.434,-0.49 10.419,-4.627c1.985,-4.137 -0.614,-7.795 -2.907,-11.023c-2.349,-3.306 -3.698,-5.475 -2.625,-7.711Z" style="fill:#39b54a;fill-rule:nonzero;"/><path d="M754.482,219.793c-3.555,2.03 -3.202,6.408 -2.887,10.271c0.3,3.722 0.375,6.232 -1.253,7.161c-1.627,0.929 -3.75,-0.416 -6.802,-2.573c-3.158,-2.238 -6.75,-4.776 -10.313,-2.745c-3.562,2.031 -3.202,6.409 -2.888,10.272c0.301,3.723 0.375,6.233 -1.252,7.163c-1.635,0.929 -3.757,-0.416 -6.802,-2.573c-3.165,-2.238 -6.75,-4.775 -10.313,-2.744c-3.562,2.03 -3.21,6.409 -2.895,10.272c0.3,3.724 0.375,6.234 -1.26,7.163l1.628,2.845c3.562,-2.031 3.202,-6.409 2.895,-10.272c-0.308,-3.724 -0.383,-6.235 1.252,-7.164c1.628,-0.93 3.75,0.415 6.802,2.573c3.158,2.238 6.75,4.775 10.312,2.744c3.564,-2.03 3.204,-6.409 2.896,-10.272c-0.307,-3.724 -0.382,-6.234 1.253,-7.163c1.627,-0.929 3.75,0.416 6.795,2.574c3.165,2.238 6.75,4.774 10.312,2.744c3.563,-2.03 3.21,-6.408 2.895,-10.271c-0.3,-3.723 -0.382,-6.233 1.253,-7.161l-1.628,-2.844Z" style="fill:#ffbd28;fill-rule:nonzero;"/><path d="M414.833,129.36c-3.555,2.03 -3.203,6.408 -2.888,10.271c0.3,3.722 0.375,6.232 -1.252,7.161c-1.628,0.929 -3.75,-0.416 -6.803,-2.573c-3.157,-2.238 -6.75,-4.776 -10.312,-2.745c-3.563,2.031 -3.203,6.409 -2.888,10.272c0.3,3.723 0.375,6.233 -1.252,7.163c-1.635,0.929 -3.758,-0.416 -6.803,-2.573c-3.165,-2.238 -6.75,-4.775 -10.312,-2.744c-3.563,2.03 -3.21,6.409 -2.895,10.272c0.3,3.724 0.375,6.234 -1.26,7.163l1.627,2.845c3.563,-2.031 3.203,-6.409 2.895,-10.272c-0.307,-3.724 -0.382,-6.235 1.253,-7.164c1.627,-0.93 3.75,0.415 6.802,2.573c3.158,2.238 6.75,4.775 10.312,2.744c3.563,-2.03 3.203,-6.409 2.896,-10.272c-0.308,-3.724 -0.383,-6.234 1.252,-7.163c1.628,-0.929 3.75,0.416 6.795,2.574c3.165,2.238 6.75,4.774 10.313,2.744c3.562,-2.03 3.21,-6.408 2.895,-10.271c-0.3,-3.723 -0.383,-6.233 1.252,-7.161l-1.627,-2.844Z" style="fill:#ffbd28;fill-rule:nonzero;"/><path d="M303.369,593.092c-3.555,2.03 -3.203,6.408 -2.888,10.271c0.3,3.722 0.375,6.232 -1.252,7.161c-1.628,0.929 -3.75,-0.416 -6.803,-2.573c-3.157,-2.238 -6.75,-4.776 -10.312,-2.745c-3.563,2.031 -3.203,6.409 -2.888,10.272c0.3,3.723 0.375,6.233 -1.252,7.163c-1.635,0.929 -3.758,-0.416 -6.803,-2.573c-3.165,-2.238 -6.75,-4.775 -10.312,-2.744c-3.563,2.03 -3.21,6.409 -2.895,10.272c0.3,3.724 0.375,6.234 -1.26,7.163l1.627,2.845c3.563,-2.031 3.203,-6.409 2.895,-10.272c-0.307,-3.724 -0.382,-6.235 1.253,-7.164c1.627,-0.93 3.75,0.415 6.802,2.573c3.158,2.238 6.75,4.775 10.312,2.744c3.563,-2.03 3.203,-6.409 2.896,-10.272c-0.308,-3.724 -0.383,-6.234 1.252,-7.163c1.628,-0.929 3.75,0.416 6.795,2.574c3.165,2.238 6.75,4.774 10.313,2.744c3.562,-2.03 3.21,-6.408 2.895,-10.271c-0.3,-3.723 -0.383,-6.233 1.252,-7.161l-1.627,-2.844Z" style="fill:#ffbd28;fill-rule:nonzero;"/><path d="M73.08,17.276c-3.555,2.031 -3.202,6.408 -2.887,10.272c0.3,3.722 0.375,6.232 -1.253,7.161c-1.627,0.929 -3.75,-0.416 -6.802,-2.574c-3.158,-2.238 -6.75,-4.775 -10.313,-2.744c-3.562,2.031 -3.202,6.409 -2.888,10.271c0.301,3.724 0.375,6.234 -1.252,7.164c-1.635,0.929 -3.757,-0.416 -6.802,-2.573c-3.165,-2.238 -6.75,-4.775 -10.313,-2.744c-3.562,2.03 -3.21,6.409 -2.895,10.272c0.3,3.724 0.375,6.234 -1.26,7.163l1.628,2.845c3.562,-2.031 3.202,-6.41 2.895,-10.272c-0.308,-3.725 -0.383,-6.235 1.252,-7.164c1.628,-0.93 3.75,0.415 6.802,2.572c3.158,2.238 6.75,4.776 10.312,2.745c3.564,-2.031 3.204,-6.409 2.896,-10.272c-0.307,-3.724 -0.382,-6.234 1.253,-7.163c1.627,-0.929 3.75,0.416 6.795,2.573c3.165,2.238 6.75,4.775 10.312,2.745c3.563,-2.031 3.21,-6.408 2.895,-10.271c-0.3,-3.723 -0.382,-6.233 1.253,-7.162l-1.628,-2.844Z" style="fill:#ffbd28;fill-rule:nonzero;"/><path d="M643.111,2.981c-1.881,-1.464 -4.666,-1.953 -7.222,-2.403c-3.679,-0.647 -6.126,-1.207 -6.614,-3.018l-3.16,0.851c1.063,3.959 5.39,4.719 9.207,5.391c3.679,0.647 6.128,1.207 6.614,3.018c0.487,1.812 -1.349,3.525 -4.207,5.931c-2.965,2.496 -6.325,5.325 -5.26,9.285c1.067,3.96 5.393,4.721 9.209,5.393c3.679,0.648 6.127,1.207 6.615,3.02c0.487,1.813 -1.349,3.526 -4.207,5.932c-2.965,2.497 -6.324,5.326 -5.259,9.286c1.065,3.961 5.391,4.723 9.209,5.395c3.678,0.647 6.125,1.208 6.614,3.021l3.161,-0.85c-1.065,-3.96 -5.39,-4.722 -9.208,-5.395c-3.678,-0.648 -6.128,-1.208 -6.615,-3.021c-0.487,-1.813 1.349,-3.525 4.207,-5.932c2.964,-2.497 6.324,-5.326 5.259,-9.286c-1.065,-3.959 -5.392,-4.722 -9.209,-5.394c-3.68,-0.648 -6.128,-1.209 -6.614,-3.02c-0.487,-1.812 1.35,-3.525 4.206,-5.931c2.965,-2.496 6.325,-5.325 5.259,-9.285c-0.351,-1.307 -1.059,-2.266 -1.985,-2.988Z" style="fill:#39b54a;fill-rule:nonzero;"/><path d="M191.998,376.28c-1.881,-1.464 -4.666,-1.953 -7.222,-2.403c-3.68,-0.647 -6.126,-1.207 -6.614,-3.018l-3.161,0.851c1.064,3.959 5.39,4.719 9.208,5.391c3.679,0.647 6.127,1.207 6.613,3.018c0.488,1.812 -1.349,3.525 -4.206,5.931c-2.965,2.496 -6.325,5.325 -5.26,9.285c1.066,3.96 5.392,4.721 9.208,5.393c3.679,0.648 6.127,1.207 6.615,3.02c0.487,1.813 -1.349,3.526 -4.206,5.932c-2.965,2.497 -6.324,5.326 -5.259,9.286c1.065,3.961 5.391,4.723 9.208,5.395c3.678,0.647 6.125,1.208 6.614,3.021l3.162,-0.85c-1.065,-3.96 -5.391,-4.722 -9.208,-5.395c-3.679,-0.648 -6.128,-1.208 -6.615,-3.021c-0.488,-1.813 1.348,-3.525 4.207,-5.932c2.964,-2.497 6.324,-5.326 5.259,-9.286c-1.065,-3.959 -5.393,-4.722 -9.21,-5.394c-3.679,-0.648 -6.127,-1.209 -6.614,-3.02c-0.487,-1.812 1.35,-3.525 4.207,-5.931c2.965,-2.496 6.325,-5.325 5.259,-9.285c-0.352,-1.307 -1.059,-2.266 -1.985,-2.988Z" style="fill:#39b54a;fill-rule:nonzero;"/><path d="M351.055,648.172c-2.101,1.126 -3.677,3.473 -5.125,5.627c-2.083,3.101 -3.588,5.111 -5.44,4.823l-0.504,3.234c4.05,0.633 6.499,-3.014 8.661,-6.231c2.083,-3.101 3.588,-5.112 5.44,-4.822c1.854,0.289 2.675,2.662 3.716,6.25c1.08,3.722 2.304,7.94 6.355,8.572c4.053,0.631 6.502,-3.015 8.664,-6.231c2.084,-3.1 3.588,-5.111 5.443,-4.822c1.854,0.29 2.676,2.662 3.716,6.25c1.081,3.722 2.306,7.94 6.357,8.572c4.053,0.633 6.503,-3.013 8.665,-6.23c2.083,-3.1 3.587,-5.11 5.443,-4.822l0.505,-3.234c-4.052,-0.632 -6.502,3.013 -8.665,6.23c-2.084,3.1 -3.589,5.112 -5.443,4.822c-1.855,-0.29 -2.676,-2.662 -3.717,-6.251c-1.081,-3.721 -2.305,-7.94 -6.357,-8.572c-4.051,-0.631 -6.503,3.015 -8.664,6.232c-2.084,3.101 -3.59,5.111 -5.443,4.822c-1.853,-0.29 -2.674,-2.664 -3.716,-6.251c-1.079,-3.722 -2.303,-7.94 -6.355,-8.571c-1.338,-0.209 -2.501,0.049 -3.536,0.603Z" style="fill:#39b54a;fill-rule:nonzero;"/><path d="M636.165,94.869c1.191,-1.53 0.917,-3.737 -0.614,-4.929c-1.531,-1.192 -3.738,-0.917 -4.93,0.614c-1.191,1.531 -0.915,3.737 0.615,4.929c1.53,1.192 3.737,0.917 4.929,-0.614Z" style="fill:#ffdfab;fill-rule:nonzero;"/><path d="M185.051,468.168c1.192,-1.53 0.917,-3.737 -0.613,-4.929c-1.531,-1.192 -3.738,-0.917 -4.93,0.614c-1.192,1.531 -0.916,3.737 0.614,4.929c1.531,1.192 3.737,0.917 4.929,-0.614Z" style="fill:#ffdfab;fill-rule:nonzero;"/><path d="M432.235,691.776c-0.915,-1.71 -3.044,-2.354 -4.754,-1.438c-1.71,0.916 -2.353,3.046 -1.437,4.756c0.916,1.71 3.045,2.352 4.754,1.437c1.71,-0.916 2.353,-3.045 1.437,-4.755Z" style="fill:#ffdfab;fill-rule:nonzero;"/><path d="M673.547,165.76c1.982,-2.547 1.525,-6.219 -1.022,-8.202c-2.547,-1.983 -6.22,-1.526 -8.202,1.021c-1.983,2.547 -1.526,6.22 1.021,8.203c2.547,1.983 6.219,1.525 8.203,-1.022Z" style="fill:#00e1f4;fill-rule:nonzero;"/><path d="M719.815,29.059c1.982,-2.547 1.525,-6.219 -1.022,-8.202c-2.547,-1.983 -6.22,-1.526 -8.202,1.021c-1.983,2.547 -1.526,6.22 1.021,8.203c2.547,1.983 6.219,1.525 8.203,-1.022Z" style="fill:#00e1f4;fill-rule:nonzero;"/><path d="M222.433,539.059c1.983,-2.547 1.525,-6.219 -1.022,-8.202c-2.547,-1.983 -6.22,-1.526 -8.202,1.021c-1.983,2.547 -1.525,6.22 1.022,8.203c2.547,1.983 6.219,1.525 8.202,-1.022Z" style="fill:#00e1f4;fill-rule:nonzero;"/><path d="M670.576,261.574c1.271,-1.633 5.537,-0.438 9.528,2.67c3.991,3.107 6.197,6.95 4.925,8.583c-1.27,1.632 -5.537,0.437 -9.528,-2.67c-3.991,-3.108 -6.197,-6.951 -4.925,-8.583Z" style="fill:#ffdfab;fill-rule:nonzero;"/><path d="M219.463,634.873c1.27,-1.633 5.536,-0.438 9.528,2.67c3.99,3.107 6.196,6.95 4.925,8.583c-1.271,1.632 -5.537,0.437 -9.528,-2.67c-3.992,-3.108 -6.197,-6.951 -4.925,-8.583Z" style="fill:#ffdfab;fill-rule:nonzero;"/><path d="M-10.826,59.057c1.27,-1.632 5.536,-0.437 9.528,2.67c3.991,3.108 6.196,6.951 4.925,8.583c-1.27,1.632 -5.537,0.438 -9.528,-2.67c-3.991,-3.108 -6.197,-6.95 -4.925,-8.583Z" style="fill:#ffdfab;fill-rule:nonzero;"/><path d="M498.684,99.022c4.481,-2.226 7.524,-5.221 6.793,-6.691c-0.73,-1.469 -4.954,-0.858 -9.436,1.367c-4.482,2.225 -7.523,5.221 -6.794,6.691c0.73,1.47 4.955,0.858 9.437,-1.367Z" style="fill:#ffbd28;fill-rule:nonzero;"/><path d="M47.57,472.321c4.482,-2.226 7.524,-5.221 6.794,-6.691c-0.73,-1.469 -4.955,-0.858 -9.436,1.367c-4.483,2.225 -7.523,5.221 -6.794,6.691c0.729,1.47 4.955,0.858 9.436,-1.367Z" style="fill:#ffbd28;fill-rule:nonzero;"/><path d="M654.633,77.098c-0.573,2.889 -1.974,5.046 -3.128,4.817c-1.154,-0.229 -1.625,-2.756 -1.051,-5.646c0.572,-2.89 1.973,-5.047 3.126,-4.817c1.155,0.228 1.626,2.756 1.053,5.646Z" style="fill:#ffbd28;fill-rule:nonzero;"/><path d="M203.519,450.397c-0.573,2.889 -1.973,5.046 -3.127,4.817c-1.155,-0.229 -1.626,-2.756 -1.052,-5.646c0.572,-2.89 1.973,-5.047 3.127,-4.817c1.154,0.228 1.625,2.756 1.052,5.646Z" style="fill:#ffbd28;fill-rule:nonzero;"/><path d="M423.478,667.689c2.409,1.695 3.812,3.849 3.135,4.812c-0.677,0.962 -3.178,0.368 -5.587,-1.328c-2.41,-1.695 -3.814,-3.85 -3.136,-4.811c0.677,-0.963 3.178,-0.369 5.588,1.327Z" style="fill:#ffbd28;fill-rule:nonzero;"/><path d="M713.007,215.056c-0.301,5.712 -1.747,10.278 -3.24,10.2c-1.485,-0.078 -2.445,-4.771 -2.145,-10.482c0.3,-5.712 1.748,-10.278 3.233,-10.2c1.492,0.078 2.452,4.771 2.152,10.482Z" style="fill:#00e1f4;fill-rule:nonzero;"/><path d="M377.564,34.19c-0.301,5.712 -1.748,10.278 -3.24,10.2c-1.485,-0.078 -2.445,-4.771 -2.145,-10.482c0.3,-5.712 1.747,-10.278 3.232,-10.2c1.493,0.078 2.453,4.771 2.153,10.482Z" style="fill:#00e1f4;fill-rule:nonzero;"/><path d="M261.894,588.355c-0.301,5.712 -1.748,10.278 -3.24,10.2c-1.485,-0.078 -2.445,-4.771 -2.145,-10.482c0.3,-5.712 1.747,-10.278 3.232,-10.2c1.493,0.078 2.453,4.771 2.153,10.482Z" style="fill:#00e1f4;fill-rule:nonzero;"/><path d="M31.605,12.54c-0.301,5.711 -1.747,10.278 -3.24,10.2c-1.485,-0.078 -2.445,-4.771 -2.145,-10.483c0.3,-5.711 1.748,-10.278 3.233,-10.2c1.492,0.078 2.452,4.772 2.152,10.483Z" style="fill:#00e1f4;fill-rule:nonzero;"/><path d="M751.812,341.218l-2.902,5.45l-6.128,0.701l4.283,4.442l-1.23,6.051l5.55,-2.706l5.377,3.038l-0.855,-6.114l4.545,-4.172l-6.075,-1.074l-2.565,-5.616Z" style="fill:#008c92;fill-rule:nonzero;"/><path d="M300.699,714.517l-2.903,5.45l-6.127,0.701l4.282,4.442l-1.23,6.051l5.55,-2.706l5.378,3.038l-0.855,-6.114l4.545,-4.172l-6.075,-1.074l-2.565,-5.616Z" style="fill:#008c92;fill-rule:nonzero;"/><path d="M70.41,138.701l-2.902,5.451l-6.128,0.701l4.283,4.442l-1.23,6.05l5.55,-2.705l5.377,3.038l-0.855,-6.114l4.545,-4.173l-6.075,-1.073l-2.565,-5.617Z" style="fill:#008c92;fill-rule:nonzero;"/><path d="M547.665,220.039l-2.9,5.451l-6.134,0.701l4.288,4.441l-1.229,6.051l5.55,-2.705l5.375,3.038l-0.858,-6.114l4.549,-4.173l-6.079,-1.073l-2.562,-5.617Z" style="fill:#ffbd28;fill-rule:nonzero;"/><path d="M96.551,593.338l-2.899,5.451l-6.135,0.701l4.288,4.441l-1.228,6.051l5.55,-2.705l5.374,3.038l-0.858,-6.114l4.55,-4.173l-6.079,-1.073l-2.563,-5.617Z" style="fill:#ffbd28;fill-rule:nonzero;"/></g></svg>