<?xml version="1.0" encoding="UTF-8" standalone="no"?><!DOCTYPE svg PUBLIC "-//W3C//DTD SVG 1.1//EN" "http://www.w3.org/Graphics/SVG/1.1/DTD/svg11.dtd"><svg width="100%" height="100%" viewBox="0 0 289 256" version="1.1" xmlns="http://www.w3.org/2000/svg" xmlns:xlink="http://www.w3.org/1999/xlink" xml:space="preserve" xmlns:serif="http://www.serif.com/" style="fill-rule:evenodd;clip-rule:evenodd;stroke-linejoin:round;stroke-miterlimit:2;"><rect id="Rectangle_158" x="36.73" y="235.206" width="22.741" height="0.172" style="fill:none;"/><rect id="Path_878" x="16.356" y="235.206" width="13.178" height="0.172" style="fill:#c4daf1;fill-rule:nonzero;"/><rect id="Path_879" x="105.154" y="237.733" width="13.178" height="0.172" style="fill:#c4daf1;fill-rule:nonzero;"/><rect id="Path_880" x="157.377" y="241.565" width="29.656" height="0.172" style="fill:#c4daf1;fill-rule:nonzero;"/><rect id="Path_881" x="146.916" y="241.565" width="4.348" height="0.172" style="fill:#c4daf1;fill-rule:nonzero;"/><rect id="Path_882" x="220.709" y="237.733" width="64.316" height="0.172" style="fill:#c4daf1;fill-rule:nonzero;"/><path id="Path_883" d="M3.919,0.172c-2.055,0.002 -3.745,1.692 -3.747,3.747l0,186.36c0.002,2.055 1.692,3.745 3.747,3.747l132.574,0c2.055,-0.003 3.744,-1.692 3.747,-3.747l0,-186.36c-0.002,-2.055 -1.692,-3.745 -3.747,-3.747l-132.574,0Zm132.574,194.026l-132.574,0c-2.149,-0.002 -3.917,-1.77 -3.919,-3.919l0,-186.36c0.002,-2.149 1.77,-3.917 3.919,-3.919l132.574,0c2.148,0.003 3.915,1.771 3.918,3.919l0,186.36c-0.002,2.149 -1.769,3.916 -3.918,3.919Z" style="fill:#c4daf1;fill-rule:nonzero;"/><path id="Path_884" d="M152.425,0.172c-2.055,0.002 -3.745,1.692 -3.747,3.747l0,186.36c0.002,2.055 1.692,3.745 3.747,3.747l132.577,0c2.055,-0.003 3.744,-1.692 3.747,-3.747l0,-186.36c-0.002,-2.055 -1.692,-3.745 -3.747,-3.747l-132.577,0Zm132.577,194.026l-132.577,0c-2.149,-0.003 -3.916,-1.77 -3.918,-3.919l0,-186.36c0.002,-2.149 1.769,-3.916 3.918,-3.919l132.577,0c2.149,0.003 3.916,1.77 3.919,3.919l0,186.36c-0.002,2.149 -1.77,3.917 -3.919,3.919Z" style="fill:#c4daf1;fill-rule:nonzero;"/><rect id="Path_885" x="142.262" y="166.17" width="15.1" height="59.893" style="fill:#c4daf1;fill-rule:nonzero;"/><path id="Path_886" d="M154.493,226.064l2.867,0l0,-8.157l-5.874,0l3.007,8.157Z" style="fill:#e7f5fd;fill-rule:nonzero;"/><rect id="Path_887" x="76.107" y="166.17" width="15.1" height="59.893" style="fill:#c4daf1;fill-rule:nonzero;"/><rect id="Path_888" x="88.703" y="166.166" width="68.659" height="54.888" style="fill:#449b3d;fill-rule:nonzero;"/><path id="Path_889" d="M90.926,183.656l64.209,0l0,-15.053l-64.209,0l0,15.053Zm63.944,-14.787l0,14.521l-63.683,0l0,-14.521l63.683,0Z" style="fill:#c4daf1;fill-rule:nonzero;"/><path id="Path_890" d="M91.569,226.064l-2.866,0l0,-8.157l5.874,0l-3.008,8.157Z" style="fill:#e7f5fd;fill-rule:nonzero;"/><path id="Path_891" d="M121.512,176.129c0,0.833 0.686,1.519 1.519,1.519c0.833,-0.001 1.518,-0.686 1.518,-1.519c0,0 0,-0.001 0,-0.001c0,-0.833 -0.685,-1.518 -1.518,-1.518c-0.833,0 -1.519,0.686 -1.519,1.519Z" style="fill:#c4daf1;fill-rule:nonzero;"/><path id="Path_892" d="M90.926,201.14l64.209,0l0,-15.052l-64.209,0l0,15.052Zm63.944,-14.787l0,14.523l-63.683,0l0,-14.523l63.683,0Z" style="fill:#c4daf1;fill-rule:nonzero;"/><path id="Path_893" d="M121.512,193.619c0,0.833 0.685,1.518 1.518,1.519c0.833,-0.001 1.518,-0.686 1.518,-1.519c0,-0.833 -0.685,-1.518 -1.518,-1.518c-0.833,0 -1.518,0.685 -1.518,1.518Z" style="fill:#c4daf1;fill-rule:nonzero;"/><path id="Path_894" d="M90.926,218.626l64.209,0l0,-15.053l-64.209,0l0,15.053Zm63.944,-14.788l0,14.523l-63.683,0l0,-14.523l63.683,0Z" style="fill:#c4daf1;fill-rule:nonzero;"/><path id="Path_895" d="M121.512,211.1c0,0.833 0.685,1.518 1.518,1.518c0.833,0 1.518,-0.685 1.518,-1.518c0,-0.833 -0.685,-1.518 -1.518,-1.519c-0.833,0.001 -1.518,0.686 -1.518,1.519Z" style="fill:#c4daf1;fill-rule:nonzero;"/><rect id="Path_896" x="66.883" y="131.387" width="15.1" height="94.677" style="fill:#c4daf1;fill-rule:nonzero;"/><path id="Path_897" d="M79.114,226.064l2.867,0l0,-8.157l-5.874,0l3.007,8.157Z" style="fill:#e7f5fd;fill-rule:nonzero;"/><rect id="Path_898" x="10.458" y="131.387" width="15.1" height="94.677" style="fill:#125621;fill-rule:nonzero;"/><rect id="Path_899" x="23.052" y="131.387" width="58.928" height="89.672" style="fill:#449b3d;fill-rule:nonzero;"/><path id="Path_900" d="M25.277,154.541l54.478,0l0,-20.925l-54.478,0l0,20.925Zm54.167,-20.615l0,20.3l-53.854,0l0,-20.3l53.854,0Z" style="fill:#aadba6;fill-rule:nonzero;"/><path id="Path_901" d="M53.481,210.862l26.277,0l0,-54.479l-26.277,0l0,54.479Zm25.965,-54.166l0,53.853l-25.654,0l0,-53.853l25.654,0Z" style="fill:#c4daf1;fill-rule:nonzero;"/><path id="Path_902" d="M25.277,210.862l26.278,0l0,-54.479l-26.278,0l0,54.479Zm25.965,-54.166l0,53.853l-25.652,0l0,-53.853l25.652,0Z" style="fill:#c4daf1;fill-rule:nonzero;"/><path id="Path_903" d="M25.92,226.064l-2.868,0l0,-8.157l5.874,0l-3.006,8.157Z" style="fill:#e7f5fd;fill-rule:nonzero;"/><path id="Path_904" d="M50.998,144.077c0,0.832 0.684,1.517 1.516,1.519c0,0 0.001,0 0.001,0c0.833,0 1.518,-0.685 1.518,-1.518c0,0 0,-0.001 0,-0.001c-0.001,-0.833 -0.686,-1.518 -1.519,-1.518c-0.832,0.002 -1.515,0.686 -1.516,1.518Z" style="fill:#c4daf1;fill-rule:nonzero;"/><path id="Path_905" d="M56.432,182.338c0,0.833 0.686,1.519 1.519,1.519c0.833,-0.001 1.518,-0.686 1.518,-1.519c0,0 0,-0.001 0,-0.001c0,-0.833 -0.685,-1.518 -1.518,-1.518c-0.833,0 -1.519,0.686 -1.519,1.519Z" style="fill:#c4daf1;fill-rule:nonzero;"/><path id="Path_906" d="M45.561,182.338c0,0.833 0.686,1.519 1.519,1.519c0.833,-0.001 1.518,-0.686 1.518,-1.519c0,0 0,-0.001 0,-0.001c0,-0.833 -0.685,-1.518 -1.518,-1.518c-0.833,0 -1.519,0.686 -1.519,1.519Z" style="fill:#c4daf1;fill-rule:nonzero;"/><path id="Path_907" d="M43.85,104.99l-6.369,0c0.587,3.088 0.957,6.213 1.107,9.352c0,3.465 -4.845,17.045 2.078,17.045c6.923,0 2.079,-13.581 2.079,-17.045c0.15,-3.139 0.519,-6.264 1.105,-9.352Z" style="fill:#aadba6;fill-rule:nonzero;"/><path id="Path_908" d="M19.631,118.913l0,4.138c0.014,4.568 3.768,8.322 8.336,8.335l4.138,0c4.568,-0.013 8.322,-3.767 8.336,-8.335l0,-4.138l-20.81,0Z" style="fill:#77b772;fill-rule:nonzero;"/><path id="Path_909" d="M108.11,157.439c0,4.8 5.377,8.729 11.948,8.729l5.932,0c6.571,0 11.948,-3.928 11.948,-8.729l-29.828,0Z" style="fill:#c4daf1;fill-rule:nonzero;"/><path id="Path_910" d="M265.295,150.414c-5.214,4.536 -9.645,9.901 -13.113,15.879c-3.157,5.267 -5.092,11.177 -5.659,17.292c0.017,-7.9 0.042,-16.378 0.069,-24.384c0.914,-2.06 3,-6.807 4.5,-10.559c5,-12.518 6.857,-15.6 11.351,-26.392c5.993,-14.4 12.135,-31.487 10.377,-30.122c-3.584,2.782 -17.316,28.5 -18.8,32.177c-4.044,9.821 -6.544,20.209 -7.412,30.795c0.028,-7.519 0.058,-14.424 0.086,-19.751c0.091,-17.376 0.387,-22.984 0.531,-24.714c0.556,-0.879 1.213,-1.9 1.594,-2.455c3.226,-4.664 4.47,-8.637 7.509,-15.594c4.307,-9.857 8.017,-27.358 6.932,-26.475c-4.515,3.675 -8.076,11.576 -12.755,21.645c-4.679,10.069 -3.342,15.859 -4.27,24.458c-0.2,1.688 -0.344,8.056 -0.452,16.882c-1.214,-9.4 -3.491,-15.6 -7.644,-21.23c-5.11,-6.926 -10.052,-11.6 -13.679,-14.047c-3.627,-2.447 6.262,14.569 10.992,21.995c4.211,6.612 8.091,12.448 10.277,18.194c-0.115,11.962 -0.169,27.109 -0.17,41.209c-1.003,-6.407 -2.755,-12.675 -5.221,-18.673c-2.84,-6.429 -7.208,-16.288 -10.686,-19.633c-0.835,-0.8 3.636,18.373 6.506,23.472c2.87,5.099 4.976,9.9 6.783,12.8c0.421,0.675 1.819,3.276 2.617,4.77c0.008,17.213 0.1,32.4 0.246,37.571l0.744,0c-0.051,-1.333 -0.059,-10.089 -0.043,-21.678c1.791,-6.293 5.886,-13.473 9.265,-20.024c3.689,-7.158 13.123,-26.345 9.525,-23.408Z" style="fill:#449b3d;fill-rule:nonzero;"/><path id="Path_911" d="M256.942,226.064l-21.52,0l-1.624,-21.094l24.769,0l-1.625,21.094Z" style="fill:#125621;fill-rule:nonzero;"/><path id="Path_912" d="M260.171,207.428l-27.976,0l-0.8,-7.117l29.579,0l-0.803,7.117Z" style="fill:#125621;fill-rule:nonzero;"/><rect id="Path_913" x="20.598" y="14.106" width="38.484" height="42.258" style="fill:#125621;fill-rule:nonzero;"/><rect id="Path_914" x="23.499" y="14.106" width="39.752" height="42.258" style="fill:#449b3d;fill-rule:nonzero;"/><rect id="Path_915" x="26.829" y="17.434" width="33.091" height="35.6" style="fill:#fff;fill-rule:nonzero;"/><rect id="Path_916" x="34.85" y="26.07" width="17.05" height="18.341" style="fill:#aadba6;fill-rule:nonzero;"/><rect id="Path_917" x="219.551" y="19.032" width="35.751" height="39.257" style="fill:#125621;fill-rule:nonzero;"/><rect id="Path_918" x="222.247" y="19.032" width="36.927" height="39.257" style="fill:#449b3d;fill-rule:nonzero;"/><rect id="Path_919" x="225.34" y="22.126" width="30.74" height="33.069" style="fill:#fff;fill-rule:nonzero;"/><path id="Path_920" d="M250.301,38.661c-0.001,5.261 -4.33,9.59 -9.591,9.59c-5.261,0 -9.59,-4.329 -9.59,-9.59c0,-5.261 4.329,-9.59 9.59,-9.591c5.261,0 9.591,4.33 9.591,9.591Z" style="fill:#aadba6;fill-rule:nonzero;"/><rect id="Path_921" x="70.514" y="39.303" width="28.549" height="31.347" style="fill:#125621;fill-rule:nonzero;"/><rect id="Path_922" x="72.666" y="39.303" width="29.488" height="31.347" style="fill:#449b3d;fill-rule:nonzero;"/><rect id="Path_923" x="75.136" y="41.774" width="24.548" height="26.407" style="fill:#fff;fill-rule:nonzero;"/><path id="Path_924" d="M87.41,48.302l-6.714,11.629l13.428,0l-6.714,-11.629Z" style="fill:#aadba6;fill-rule:nonzero;"/><path id="Path_925" d="M278.535,248.053c0,4.294 -59.6,7.774 -133.121,7.774c-73.521,0 -133.121,-3.48 -133.121,-7.774c0,-4.294 59.6,-7.775 133.121,-7.775c73.521,0 133.121,3.481 133.121,7.775Z" style="fill:#378a5d;fill-rule:nonzero;"/><path id="Path_926" d="M226.723,250.007c-12.974,0 -23.457,-0.6 -23.414,-1.335c0.043,-0.735 10.6,-1.335 23.57,-1.335c12.97,0 23.457,0.6 23.414,1.335c-0.043,0.735 -10.596,1.335 -23.57,1.335Z" style="fill:#ceddeb;fill-rule:nonzero;"/><path id="Path_927" d="M226.651,241.091l-4.92,1.9l-4.225,-10.952l4.92,-1.9l4.225,10.952Z" style="fill:#f4887b;fill-rule:nonzero;"/><path id="Path_928" d="M243.631,243.395l-5.169,0l-1.9,-11.971l5.169,0l1.9,11.971Z" style="fill:#f4887b;fill-rule:nonzero;"/><path id="Path_929" d="M238.128,242.796l5.808,0c0.207,-0.003 0.387,0.149 0.419,0.354l0.752,4.595c0.005,0.036 0.007,0.072 0.007,0.108c0,0.445 -0.366,0.811 -0.811,0.811c-0.002,0 -0.005,0 -0.007,0c-2.025,-0.034 -3,-0.153 -5.557,-0.153c-1.572,0 -4.818,0.163 -6.988,0.163c-2.122,0 -2.328,-2.146 -1.427,-2.34c4.034,-0.871 5.6,-2.073 6.947,-3.219c0.239,-0.204 0.543,-0.317 0.857,-0.319Z" style="fill:#141414;fill-rule:nonzero;"/><path id="Path_930" d="M220.919,240.987l5.507,-1.6c0.198,-0.062 0.415,0.029 0.509,0.214l2.041,4.117c0.047,0.103 0.071,0.215 0.071,0.328c0,0.358 -0.242,0.673 -0.588,0.765c-1.995,0.544 -3.335,0.885 -5.833,1.611c-1.725,0.5 -3.48,1.319 -5.185,1.862c-1.776,0.326 -3.583,0.458 -5.388,0.391c-2.122,0 -2.6,-2.238 -1.686,-2.34c2.3,-0.258 2.611,-0.138 3.882,-0.776c2.076,-0.912 3.958,-2.212 5.545,-3.832c0.303,-0.342 0.691,-0.597 1.125,-0.74Z" style="fill:#141414;fill-rule:nonzero;"/><path id="Path_931" d="M213.554,74.479l-6.81,-2.761c0,0 -8.987,16.391 -11.562,17.218c-3.5,1.125 -10.746,4.256 -15.051,4.842c-0.781,1.057 -1.279,2.296 -1.446,3.6c5.776,1.926 18.464,-0.632 21.18,-2.649c6.191,-4.6 13.689,-20.25 13.689,-20.25Z" style="fill:#f4887b;fill-rule:nonzero;"/><path id="Path_932" d="M215.651,70.762c1.267,4.695 -5.612,14.127 -5.612,14.127l-9.037,-5.069c0,0 1.685,-3.877 3.747,-7.826c3.33,-6.377 9.455,-6.591 10.902,-1.232Z" style="fill:#a2ea9d;fill-rule:nonzero;"/><path id="Path_933" d="M206.157,82.705l-1.552,-0.871c0.606,-2.658 1.61,-5.209 2.977,-7.567c-0.628,2.785 -1.104,5.601 -1.425,8.438Z" style="fill:#77b772;fill-rule:nonzero;"/><path id="Path_934" d="M181.002,93.73l-5.688,-2.393l-2.341,6.3c2.33,0.354 4.701,0.354 7.031,0l0.998,-3.907Z" style="fill:#f4887b;fill-rule:nonzero;"/><path id="Path_935" d="M171.085,91.185l-0.15,4.192l2.036,2.264l2.341,-6.3l-4.227,-0.156Z" style="fill:#f4887b;fill-rule:nonzero;"/><path id="Path_936" d="M217.505,232.041l2.178,5.644l4.922,-1.9l-2.179,-5.643l-4.921,1.899Z" style="fill:#ee7567;fill-rule:nonzero;"/><path id="Path_937" d="M241.736,231.427l-5.171,0l0.98,6.17l5.171,0l-0.98,-6.17Z" style="fill:#ee7567;fill-rule:nonzero;"/><path id="Path_938" d="M209.721,67.224c0,0 -7.017,15.609 -2.926,44.68l27.649,0c0.439,-4.244 -1.014,-24.949 4.252,-44.946c-3.033,-0.591 -6.102,-0.981 -9.187,-1.169c-3.914,-0.227 -7.839,-0.227 -11.753,0c-2.711,0.273 -5.397,0.753 -8.035,1.435Z" style="fill:#a2ea9d;fill-rule:nonzero;"/><path id="Path_939" d="M206.285,107.858c-0.148,-1.305 -0.267,-2.575 -0.367,-3.817c0.101,1.242 0.224,2.514 0.368,3.817l-0.001,0Zm28.674,-16.282c0.097,-1.533 0.219,-3.113 0.367,-4.739c-0.087,0.961 -0.166,1.91 -0.233,2.84c-0.05,0.641 -0.095,1.274 -0.135,1.899l0.001,0Zm0.433,-5.447c0.085,-0.88 0.18,-1.771 0.283,-2.673c-0.102,0.897 -0.198,1.792 -0.28,2.673l-0.003,0Z" style="fill:#eae0c8;fill-rule:nonzero;"/><path id="Path_940" d="M206.285,107.857c-0.144,-1.303 -0.266,-2.575 -0.367,-3.817l29.756,-20.584c-0.104,0.9 -0.198,1.791 -0.283,2.673c-0.018,0.183 -0.036,0.366 -0.052,0.549l-0.014,0.159c-0.15,1.623 -0.272,3.203 -0.367,4.739c-0.086,1.331 -0.152,2.623 -0.2,3.872c-1.907,2.755 -4.698,4.779 -7.909,5.736l-20.564,6.673Z" style="fill:#77b772;fill-rule:nonzero;"/><path id="Path_941" d="M212.63,81.522l-0.7,-0.083c0.409,-3.426 2.965,-6.134 5.668,-6.07l-0.021,0.706c-2.333,-0.07 -4.58,2.374 -4.947,5.447Z" style="fill:#fff;fill-rule:nonzero;"/><path id="Path_942" d="M216.288,87.861l-0.115,0l0.02,-0.706c2.361,0.087 4.58,-2.374 4.947,-5.447l0.7,0.083c-0.402,3.376 -2.879,6.07 -5.552,6.07Z" style="fill:#fff;fill-rule:nonzero;"/><path id="Path_943" d="M229.121,52.554c-0.963,3.782 -2.109,10.711 0.388,13.235c0,0 -1.745,3.835 -8.771,3.835c-6.422,0 -2.982,-3.835 -2.982,-3.835c4.277,-1.007 4.351,-4.136 3.789,-7.074l7.576,-6.161Z" style="fill:#f4887b;fill-rule:nonzero;"/><path id="Path_944" d="M226.032,55.071l-4.484,3.644c0.142,0.687 0.222,1.385 0.24,2.086c1.311,1.306 3.942,-2 4.211,-3.688c0.135,-0.673 0.146,-1.365 0.033,-2.042Z" style="fill:#ee7567;fill-rule:nonzero;"/><path id="Path_945" d="M213.841,52.508c0.627,1.093 1.684,1.875 2.913,2.153c1.649,0.367 2.477,-1.149 2.023,-2.676c-0.409,-1.374 -1.76,-3.22 -3.416,-2.9c-1.069,0.211 -1.846,1.157 -1.846,2.246c0,0.414 0.113,0.821 0.326,1.177Z" style="fill:#ee7567;fill-rule:nonzero;"/><path id="Path_946" d="M216.561,40.404c-2.568,1.177 -3.473,11.377 -0.244,12.886c3.229,1.509 5.109,-15.114 0.244,-12.886Z" style="fill:#12274a;fill-rule:nonzero;"/><path id="Path_947" d="M229.904,46.864c-0.614,5.121 -0.715,8.134 -3.456,10.762c-1.241,1.271 -2.945,1.988 -4.721,1.988c-3.203,0 -5.966,-2.331 -6.506,-5.488c-0.83,-4.6 0.314,-12.2 5.446,-14.24c0.847,-0.377 1.763,-0.572 2.689,-0.572c3.629,0 6.614,2.986 6.614,6.614c0,0.314 -0.022,0.626 -0.066,0.936Z" style="fill:#f4887b;fill-rule:nonzero;"/><path id="Path_948" d="M221.469,43.055c3.8,-0.972 6.594,-1.633 5.6,1.537c-1.329,4.224 -2.923,8.316 -0.785,8.506c1.3,0.116 7.068,-2.332 6.336,-4.806c-0.639,-2.156 2.043,-2.737 2.537,-3.837c1.781,-3.959 -3.307,-3.445 -2.4,-5.84c0.882,-2.332 -4.1,-6.275 -6.857,-4.348c-4.467,3.117 -12.143,3.072 -8.107,-2.041c2.89,-3.663 -2.267,-2.91 -2.267,-2.91c0,0 3.115,1.848 -2.127,4.7c-5.561,3.039 -0.474,11.227 8.07,9.039Z" style="fill:#12274a;fill-rule:nonzero;"/><path id="Path_949" d="M231.886,52.508c-0.747,1.089 -1.878,1.858 -3.165,2.153c-1.691,0.367 -2.342,-1.149 -1.708,-2.676c0.57,-1.374 2.137,-3.22 3.756,-2.9c1.595,0.308 2.027,2.077 1.117,3.423Z" style="fill:#f4887b;fill-rule:nonzero;"/><path id="Path_950" d="M206.794,111.904c0,0 -4.64,41.536 -5,57.3c-0.377,16.4 15.728,67.556 15.728,67.556l8.247,-3.463c0,0 -9.6,-46.738 -8.269,-62.841c1.454,-17.555 7.471,-58.552 7.471,-58.552l-18.177,0Z" style="fill:#064724;fill-rule:nonzero;"/><path id="Path_951" d="M218.328,123.309c-3.7,7.676 -1.206,22.852 0.8,31.848c0.762,-6.35 1.665,-13.243 2.526,-19.621c-0.087,-9.807 -0.849,-17.377 -3.326,-12.227Z" style="fill:#125621;fill-rule:nonzero;"/><path id="Path_952" d="M225.394,230.605l0.978,2.628l-9.505,3.991l-1.5,-2.784l10.027,-3.835Z" style="fill:#125621;fill-rule:nonzero;"/><path id="Path_953" d="M216.603,111.904c0,0 3.55,39.5 5.9,54.305c2.577,16.207 12.7,70.194 12.7,70.194l9.468,0c0,0 -5.673,-52.679 -6.744,-68.725c-1.163,-17.416 -3.484,-55.774 -3.484,-55.774l-17.84,0Z" style="fill:#064724;fill-rule:nonzero;"/><path id="Path_954" d="M244.817,233.935l0.317,2.646l-10.407,0l-0.745,-3.038l10.835,0.392Z" style="fill:#125621;fill-rule:nonzero;"/><path id="Path_955" d="M241.191,230.808l-0.087,-0.078c-0.052,-0.479 -5.167,-48.038 -6.13,-62.455c-1.044,-15.645 -3.145,-50.335 -3.166,-50.683l0.082,-0.094l0.006,0l0.088,0.083c0.021,0.349 2.121,35.038 3.166,50.682c0.963,14.413 6.078,61.97 6.129,62.448l-0.078,0.1l-0.01,-0.003Z" style="fill:#449b3d;fill-rule:nonzero;"/><path id="Path_956" d="M222.053,48.295c-0.024,0.417 -0.265,0.755 -0.538,0.755c-0.273,0 -0.474,-0.338 -0.449,-0.755c0.025,-0.417 0.265,-0.755 0.538,-0.755c0.273,0 0.476,0.338 0.449,0.755Z" style="fill:#12274a;fill-rule:nonzero;"/><path id="Path_957" d="M217.34,48.295c-0.024,0.417 -0.265,0.755 -0.538,0.755c-0.273,0 -0.474,-0.338 -0.45,-0.755c0.024,-0.417 0.266,-0.755 0.538,-0.755c0.272,0 0.475,0.338 0.45,0.755Z" style="fill:#12274a;fill-rule:nonzero;"/><path id="Path_958" d="M218.826,48.502c-0.575,1.279 -1.315,2.478 -2.2,3.566c0.567,0.413 1.291,0.55 1.97,0.374l0.23,-3.94Z" style="fill:#f15f5c;fill-rule:nonzero;"/><path id="Path_959" d="M218.946,54.189c0,0 0,0 0,0c-0.063,0 -0.115,-0.052 -0.115,-0.115c0,-0.003 0,-0.005 0,-0.008c0.005,-0.068 0.062,-0.121 0.13,-0.122c1.07,0.011 2.089,-0.464 2.768,-1.291l0.172,-0.035l0.025,0.169c-0.723,0.902 -1.824,1.42 -2.98,1.402Z" style="fill:#12274a;fill-rule:nonzero;"/><path id="Path_960" d="M222.891,47.026c-0.071,0.028 -0.151,0.021 -0.216,-0.019c-0.52,-0.337 -1.171,-0.406 -1.749,-0.183c-0.032,0.016 -0.068,0.024 -0.104,0.024c-0.093,0 -0.177,-0.054 -0.215,-0.139c-0.05,-0.127 0.01,-0.272 0.134,-0.327c0.727,-0.296 1.554,-0.219 2.214,0.205c0.066,0.044 0.106,0.118 0.106,0.198c0,0.049 -0.015,0.098 -0.044,0.138l-0.126,0.103Z" style="fill:#12274a;fill-rule:nonzero;"/><path id="Path_961" d="M215.518,45.657l-0.093,-0.053c-0.046,-0.046 -0.072,-0.108 -0.072,-0.173c0,-0.064 0.026,-0.126 0.072,-0.172c0.532,-0.6 1.317,-0.916 2.116,-0.851c0.112,0.016 0.195,0.112 0.195,0.225c0,0.018 -0.002,0.036 -0.006,0.053c-0.027,0.133 -0.154,0.224 -0.289,0.207c-0.633,-0.042 -1.251,0.215 -1.669,0.692c-0.065,0.069 -0.163,0.097 -0.254,0.072Z" style="fill:#12274a;fill-rule:nonzero;"/><path id="Path_962" d="M241.35,73.714l-7.142,-1.9c0,0 -7,17.239 -9.478,18.364c-5.358,2.807 -10.538,5.941 -15.511,9.384c-0.202,1.265 -0.059,2.561 0.413,3.751c6.159,-1.12 18.009,-5.675 20.48,-7.99c5.634,-5.281 11.238,-21.609 11.238,-21.609Z" style="fill:#f4887b;fill-rule:nonzero;"/><path id="Path_963" d="M243.211,71.739c1.889,6.088 -5.465,14.4 -5.465,14.4l-10.194,-4.161c1.205,-3.521 2.597,-6.975 4.17,-10.348c3.106,-6.73 9.582,-6.038 11.489,0.109Z" style="fill:#a2ea9d;fill-rule:nonzero;"/><path id="Path_964" d="M235.661,242.629c-0.055,-0.002 -0.11,0.009 -0.161,0.031c-0.053,0.028 -0.086,0.083 -0.085,0.143c-0.035,0.162 0.018,0.331 0.139,0.445c0.575,0.266 1.231,0.3 1.83,0.093c-0.52,-0.351 -1.107,-0.593 -1.723,-0.712Zm0.706,1.07c-0.347,0.029 -0.694,-0.064 -0.98,-0.263c-0.179,-0.163 -0.261,-0.409 -0.216,-0.647c0.01,-0.148 0.098,-0.279 0.23,-0.346c0.584,-0.293 2.2,0.731 2.378,0.848l0.049,0.125l-0.1,0.1c-0.446,0.111 -0.903,0.172 -1.362,0.182l0.001,0.001Z" style="fill:#4872b8;fill-rule:nonzero;"/><path id="Path_965" d="M236.78,241.421l-0.056,0c-0.16,0.02 -0.178,0.093 -0.185,0.124c-0.085,0.341 0.523,1.2 1.032,1.6c0,-0.58 -0.18,-1.147 -0.516,-1.62c-0.076,-0.068 -0.174,-0.105 -0.275,-0.104Zm0.921,2.1l-0.058,-0.014c-0.518,-0.291 -1.486,-1.424 -1.342,-2c0.048,-0.186 0.217,-0.318 0.409,-0.321c0.185,-0.025 0.373,0.032 0.512,0.157c0.572,0.491 0.608,1.983 0.609,2.046l-0.062,0.112l-0.068,0.02Z" style="fill:#4872b8;fill-rule:nonzero;"/><path id="Path_966" d="M217.018,242.028c-0.079,0.016 -0.153,0.05 -0.216,0.1c-0.042,0.036 -0.063,0.091 -0.053,0.146c0.007,0.146 0.09,0.277 0.218,0.347c0.791,0.138 1.607,-0.009 2.3,-0.415c-0.734,-0.187 -1.495,-0.247 -2.249,-0.178Zm1.116,0.816c-0.42,0.144 -0.877,0.141 -1.295,-0.009c-0.195,-0.105 -0.322,-0.304 -0.334,-0.525c-0.02,-0.137 0.033,-0.274 0.139,-0.363c0.553,-0.493 2.792,0.036 3.047,0.1l0.087,0.106l-0.078,0.124c-0.504,0.235 -1.028,0.426 -1.566,0.568l0,-0.001Z" style="fill:#4872b8;fill-rule:nonzero;"/><path id="Path_967" d="M218.056,240.551l-0.072,0.021c-0.213,0.075 -0.211,0.161 -0.21,0.19c0.008,0.355 0.995,1.007 1.691,1.227c-0.161,-0.554 -0.499,-1.04 -0.961,-1.385c-0.138,-0.072 -0.297,-0.091 -0.448,-0.053Zm1.623,1.734l-0.051,0c-0.665,-0.123 -2.086,-0.913 -2.1,-1.5c0,-0.138 0.062,-0.327 0.387,-0.44c0.231,-0.087 0.488,-0.072 0.707,0.041c0.746,0.368 1.136,1.686 1.153,1.743l-0.03,0.119l-0.066,0.037Z" style="fill:#4872b8;fill-rule:nonzero;"/><path id="Path_968" d="M209.8,99.156l-7.159,3.3l-0.831,2.021l2.645,1.78c0,0 4.939,-0.537 6.345,-3.71l-1,-3.391Z" style="fill:#f4887b;fill-rule:nonzero;"/><path id="Path_969" d="M210.105,103.429c-0.167,-1.374 -0.621,-2.697 -1.331,-3.885l1.129,-0.846c0.858,1.363 1.403,2.9 1.594,4.5l-1.392,0.231Z" style="fill:#12274a;fill-rule:nonzero;"/><path id="Path_970" d="M211.324,100.13c0.19,0.653 -0.185,1.347 -0.834,1.547c-0.606,0.307 -1.357,0.068 -1.674,-0.533c-0.189,-0.652 0.185,-1.346 0.834,-1.546c0.606,-0.307 1.357,-0.068 1.674,0.532Z" style="fill:#12274a;fill-rule:nonzero;"/><path id="Path_971" d="M197.799,105.113l0.951,0.963l6.424,-2.748l-2.537,-0.877l-4.838,2.662Z" style="fill:#f4887b;fill-rule:nonzero;"/><rect id="Path_972" x="137.509" y="10.723" width="4.386" height="0.705" style="fill:#125621;fill-rule:nonzero;"/><path id="Path_973" d="M198.869,50.524l-0.7,-0.032l0.527,-11.781l0.7,0.032l-0.527,11.781Z" style="fill:#125621;fill-rule:nonzero;"/><path id="Path_974" d="M197.328,13.898l-81.016,0l-7.541,168.706l81.015,0l7.542,-168.706Z" style="fill:#064724;fill-rule:nonzero;"/><path id="Path_975" d="M187.367,184.919l-2.318,0l0.1,-2.316l2.315,0l-0.097,2.316Zm-71.262,-166.392l-2.315,0l0.1,-2.314l2.314,0l-0.099,2.314Z" style="fill:#fff;fill-rule:nonzero;"/><path id="Path_976" d="M187.472,182.608l-2.315,0l7.336,-164.081l-76.387,0l0.1,-2.314l78.7,0l-7.434,166.395Z" style="fill:#a2ea9d;fill-rule:nonzero;"/><path id="Path_977" d="M184.949,187.234l-27.59,0l0,-2.314l27.693,0l-0.103,2.314Zm-77.76,-21.064l-2.315,0l6.6,-147.643l2.316,0l-6.601,147.643Z" style="fill:#449b3d;fill-rule:nonzero;"/><path id="Path_978" d="M157.359,187.234l-2.225,0l0,-1.146l-51.15,0l0.108,-2.433l2.315,0l-0.058,1.264l51.01,0l0,2.315Zm-2.49,0l-50.936,0l0.039,-0.881l50.9,0l-0.003,0.881Zm-48.45,-3.844l-2.315,0l0.65,-14.521l2.315,0l-0.65,14.521Zm0.661,-14.787l-2.315,0l0.108,-2.433l2.315,0l-0.108,2.433Z" style="fill:#d6e4f5;fill-rule:nonzero;"/><path id="Path_979" d="M106.408,183.656l-2.315,0l0.012,-0.266l2.315,0l-0.012,0.266Zm0.661,-14.787l-2.315,0l0.012,-0.266l2.315,0l-0.012,0.266Z" style="fill:#d0e0f3;fill-rule:nonzero;"/><path id="Path_980" d="M155.131,187.234l-0.265,0l0,-0.881l-50.9,0l0.012,-0.265l51.153,0l0,1.146Z" style="fill:#d0e0f3;fill-rule:nonzero;"/><path id="Path_981" d="M185.053,184.919l-27.69,0l0,-2.316l27.8,0l-0.11,2.316Zm-75.547,-18.749l-2.316,0l6.6,-147.643l2.315,0l-6.21,138.914l-1.786,0c0.021,1.585 0.583,3.117 1.592,4.34l-0.195,4.389Z" style="fill:#b6e6b2;fill-rule:nonzero;"/><path id="Path_982" d="M157.359,184.919l-51.008,0l0.057,-1.264l48.727,0l0,-1.052l2.225,0l-0.001,2.316Zm-2.49,-1.53l-48.45,0l0.65,-14.521l2.315,0l-0.614,13.735l46.1,0l-0.001,0.786Zm-45.473,-14.787l-2.316,0l0.108,-2.433l2.316,0l-0.108,2.433Z" style="fill:#d9e6f5;fill-rule:nonzero;"/><path id="Path_983" d="M155.135,183.656l-48.727,0l0.012,-0.266l48.45,0l0,-0.786l0.265,0l0,1.052Zm-45.75,-14.787l-2.316,0l0.012,-0.266l2.316,0l-0.012,0.266Z" style="fill:#d6e4f5;fill-rule:nonzero;"/><path id="Path_984" d="M109.702,161.782c-1.009,-1.223 -1.571,-2.755 -1.592,-4.34l1.786,0l-0.194,4.34Z" style="fill:#d6e4f5;fill-rule:nonzero;"/><path id="Path_985" d="M185.156,182.603l-76.385,0l0.614,-13.735l0.012,-0.266l0.108,-2.433l0.2,-4.389l0.194,-4.34l6.21,-138.914l76.382,0l-7.335,164.077Z" style="fill:#aadba6;fill-rule:nonzero;"/><path id="Path_986" d="M183.269,92.107l-69.151,0l-0.577,12.913l69.151,0l0.577,-12.913Z" style="fill:#fff;fill-rule:nonzero;"/><path id="Path_987" d="M152.152,82.691l-37.612,0l-0.259,5.777l37.612,0l0.259,-5.777Z" style="fill:#449b3d;fill-rule:nonzero;"/><path id="Path_988" d="M181.712,126.947l-69.151,0l-0.577,12.912l69.151,0l0.577,-12.912Z" style="fill:#fff;fill-rule:nonzero;"/><path id="Path_989" d="M169.031,157.285l-46.5,0l-0.691,15.475l46.5,0l0.691,-15.475Z" style="fill:#449b3d;fill-rule:nonzero;"/><path id="Path_990" d="M119.505,174.991l46.337,0l0.685,-15.311l-46.338,0l-0.684,15.311Zm46.416,0.163l-46.504,0l-0.06,-0.025l-0.022,-0.06l0.691,-15.476l0.082,-0.079l46.5,0l0.06,0.026l0.021,0.06l-0.691,15.476l-0.077,0.078Z" style="fill:#fff;fill-rule:nonzero;"/><path id="Path_991" d="M144.025,117.53l-31.043,0l-0.259,5.777l31.044,0l0.258,-5.777Z" style="fill:#449b3d;fill-rule:nonzero;"/><path id="Path_992" d="M168.143,50.414c-0.173,3.757 -1.508,7.37 -3.82,10.336c-3.466,4.535 -8.847,7.217 -14.555,7.253c-5.546,0.046 -10.765,-2.677 -13.9,-7.253c-2.068,-3.036 -3.087,-6.667 -2.9,-10.336c0.514,-9.738 8.616,-17.497 18.367,-17.59c0.053,-0.001 0.107,-0.001 0.16,-0.001c9.147,0 16.673,7.527 16.673,16.673c0,0.306 -0.008,0.612 -0.025,0.918Z" style="fill:#fff;fill-rule:nonzero;"/><path id="Path_993" d="M169.798,36.507c-0.047,0.998 -0.402,1.958 -1.016,2.746c-0.921,1.205 -2.351,1.918 -3.868,1.927c-1.473,0.012 -2.86,-0.712 -3.693,-1.927c-0.549,-0.807 -0.819,-1.771 -0.77,-2.746c0.137,-2.588 2.29,-4.65 4.882,-4.674c0.014,0 0.027,0 0.041,0c2.43,0 4.431,2 4.431,4.431c0,0.081 -0.003,0.162 -0.007,0.243Z" style="fill:#125621;fill-rule:nonzero;"/><path id="Path_994" d="M157.934,44.534c-0.209,3.939 -3.487,7.078 -7.432,7.114c-0.022,0 -0.045,0 -0.067,0c-3.699,0 -6.743,-3.044 -6.743,-6.743c0,-0.124 0.003,-0.247 0.01,-0.371c0.209,-3.939 3.487,-7.078 7.432,-7.114c0.022,0 0.044,0 0.066,0c3.7,0 6.744,3.044 6.744,6.744c0,0.123 -0.003,0.247 -0.01,0.37Z" style="fill:#125621;fill-rule:nonzero;"/><path id="Path_995" d="M164.323,60.75c-3.466,4.535 -8.845,7.216 -14.552,7.253c-5.546,0.046 -10.765,-2.677 -13.9,-7.253c3.929,-3.632 9.119,-5.598 14.468,-5.482c5.854,0 10.943,2.159 13.984,5.482Z" style="fill:#125621;fill-rule:nonzero;"/><path id="Path_996" d="M121.566,98.56c-0.061,1.146 -1.015,2.058 -2.162,2.069c-0.006,0 -0.012,0 -0.018,0c-1.076,0 -1.962,-0.886 -1.962,-1.962c0,-0.036 0.001,-0.071 0.003,-0.107c0.061,-1.146 1.015,-2.058 2.162,-2.069c0.006,0 0.012,0 0.018,0c1.076,0 1.962,0.886 1.962,1.962c0,0.036 -0.001,0.071 -0.003,0.107Z" style="fill:#1b3a29;fill-rule:nonzero;"/><path id="Path_997" d="M130.825,98.56c-0.06,1.146 -1.014,2.059 -2.161,2.069c-0.006,0 -0.012,0 -0.018,0c-1.076,0 -1.961,-0.885 -1.961,-1.961c0,-0.036 0.001,-0.072 0.003,-0.108c0.06,-1.146 1.014,-2.059 2.161,-2.069c0.006,0 0.012,0 0.018,0c1.076,0 1.961,0.885 1.961,1.961c0,0.036 -0.001,0.072 -0.003,0.108Z" style="fill:#1b3a29;fill-rule:nonzero;"/><path id="Path_998" d="M140.085,98.56c-0.06,1.146 -1.014,2.059 -2.161,2.069c-0.006,0 -0.011,0 -0.017,0c-1.076,0 -1.962,-0.886 -1.962,-1.962c0,-0.036 0.001,-0.071 0.003,-0.107c0.06,-1.146 1.014,-2.059 2.161,-2.069c0.006,0 0.012,0 0.018,0c1.076,0 1.961,0.885 1.961,1.961c0,0.036 -0.001,0.072 -0.003,0.108Z" style="fill:#1b3a29;fill-rule:nonzero;"/><path id="Path_999" d="M120.008,133.403c-0.06,1.146 -1.014,2.059 -2.161,2.069c-0.006,0 -0.012,0 -0.018,0c-1.076,0 -1.962,-0.886 -1.962,-1.962c0,-0.036 0.001,-0.071 0.003,-0.107c0.061,-1.146 1.014,-2.058 2.161,-2.069c0.006,0 0.012,0 0.018,0c1.076,0 1.962,0.886 1.962,1.962c0,0.036 -0.001,0.071 -0.003,0.107Z" style="fill:#1b3a29;fill-rule:nonzero;"/><path id="Path_1000" d="M129.268,133.403c-0.061,1.146 -1.014,2.058 -2.161,2.069c-0.006,0 -0.012,0 -0.018,0c-1.076,0 -1.962,-0.886 -1.962,-1.962c0,-0.036 0.001,-0.071 0.003,-0.107c0.061,-1.146 1.014,-2.058 2.161,-2.069c0.006,0 0.013,0 0.019,0c1.076,0 1.961,0.885 1.961,1.961c0,0.036 -0.001,0.072 -0.003,0.108Z" style="fill:#1b3a29;fill-rule:nonzero;"/><path id="Path_1001" d="M138.529,133.403c-0.061,1.146 -1.015,2.058 -2.162,2.069c-0.006,0 -0.012,0 -0.018,0c-1.076,0 -1.962,-0.886 -1.962,-1.962c0,-0.036 0.001,-0.071 0.003,-0.107c0.061,-1.146 1.015,-2.058 2.162,-2.069c0.006,0 0.012,0 0.018,0c1.076,0 1.962,0.886 1.962,1.962c0,0.036 -0.001,0.071 -0.003,0.107Z" style="fill:#1b3a29;fill-rule:nonzero;"/><path id="Path_1002" d="M147.789,133.403c-0.061,1.146 -1.014,2.058 -2.161,2.069c-0.006,0 -0.013,0 -0.019,0c-1.076,0 -1.961,-0.885 -1.961,-1.961c0,-0.036 0.001,-0.072 0.003,-0.108c0.061,-1.146 1.014,-2.058 2.161,-2.069c0.006,0 0.012,0 0.018,0c1.076,0 1.962,0.886 1.962,1.962c0,0.036 -0.001,0.071 -0.003,0.107Z" style="fill:#1b3a29;fill-rule:nonzero;"/><path id="Path_1003" d="M157.048,133.403c-0.06,1.146 -1.014,2.059 -2.161,2.069c-0.006,0 -0.012,0 -0.018,0c-1.076,0 -1.962,-0.886 -1.962,-1.962c0,-0.036 0.001,-0.071 0.003,-0.107c0.06,-1.146 1.014,-2.059 2.161,-2.069c0.007,0 0.013,0 0.02,0c1.075,0 1.96,0.885 1.96,1.96c0,0.036 -0.001,0.073 -0.003,0.109Z" style="fill:#1b3a29;fill-rule:nonzero;"/><path id="Path_1004" d="M63.303,108.13c-0.65,1.426 -1.334,3 -1.935,4.526c-0.601,1.526 -1.21,3.091 -1.736,4.658c-1.08,3.085 -1.901,6.255 -2.455,9.476l-0.157,1.011c-0.012,0.172 0.005,0.345 0.05,0.512c0.161,0.57 0.416,1.108 0.755,1.593c0.882,1.253 1.906,2.401 3.05,3.42c1.207,1.123 2.472,2.181 3.791,3.169c1.318,1.013 2.707,2.006 4.066,2.935l-1.279,2.409c-3.269,-1.416 -6.373,-3.186 -9.256,-5.278c-1.545,-1.116 -2.938,-2.427 -4.147,-3.9c-0.713,-0.875 -1.269,-1.868 -1.642,-2.934c-0.215,-0.652 -0.327,-1.334 -0.331,-2.021c0,-0.17 0.014,-0.408 0.025,-0.522l0.034,-0.341l0.068,-0.682c0.391,-3.577 1.142,-7.105 2.242,-10.531c0.535,-1.694 1.107,-3.372 1.759,-5.018c0.652,-1.646 1.323,-3.248 2.156,-4.915l4.942,2.433Z" style="fill:#f4887b;fill-rule:nonzero;"/><path id="Path_1005" d="M60.232,99.869c-2.229,0.526 -8.393,22.85 -8.852,28.968c-0.246,3.276 8.239,9.557 8.239,9.557l4.449,-4.119l-6.262,-6.262c0,0 6.35,-20.251 8.074,-22.41c1.936,-2.423 -2.838,-6.398 -5.648,-5.734Z" style="fill:#a2ea9d;fill-rule:nonzero;"/><path id="Path_1006" d="M61.932,105.076l-0.607,7.05l3.237,2.166c0.892,-2.009 1.552,-4.113 1.968,-6.272l-4.598,-2.944Z" style="fill:#77b772;fill-rule:nonzero;"/><path id="Path_1007" d="M67.771,139.019l4.851,-2.461l-1.253,5.333c0,0 -3.331,0.93 -4.88,-0.687l1.282,-2.185Z" style="fill:#f4887b;fill-rule:nonzero;"/><path id="Path_1008" d="M77.066,137.433l-1.291,4.408l-4.406,0.05l1.253,-5.333l4.444,0.875Z" style="fill:#f4887b;fill-rule:nonzero;"/><path id="Path_1009" d="M83.919,82.424c0.264,0.941 0.629,1.851 1.088,2.714c-0.27,0.307 -0.689,0.442 -1.088,0.349l0,-3.063Z" style="fill:#f15f5c;fill-rule:nonzero;"/><path id="Path_1010" d="M83.261,81.677c0,0.435 0.23,0.787 0.514,0.787c0.284,0 0.514,-0.352 0.514,-0.787c0,-0.435 -0.231,-0.787 -0.514,-0.787c-0.283,0 -0.514,0.353 -0.514,0.787Z" style="fill:#12274a;fill-rule:nonzero;"/><path id="Path_1011" d="M83.649,80.91l1.044,-0.3c0,0 -0.536,0.819 -1.044,0.3Z" style="fill:#12274a;fill-rule:nonzero;"/><path id="Path_1012" d="M70.505,87.459c0.628,3.2 1.253,9.053 -0.984,11.186c0,0 0.874,3.242 6.813,3.242c6.53,0 3.121,-3.242 3.121,-3.242c-3.565,-0.851 -3.473,-3.5 -2.852,-5.979l-6.098,-5.207Z" style="fill:#f4887b;fill-rule:nonzero;"/><path id="Path_1013" d="M67.627,99.007c-0.011,-0.065 -0.016,-0.131 -0.016,-0.196c0,-0.591 0.433,-1.1 1.016,-1.194c2.415,-0.4 7.905,-1.207 10.669,-0.823c2.052,0.284 2.6,1.483 2.682,2.463c0.003,0.033 0.004,0.066 0.004,0.098c0,0.664 -0.546,1.21 -1.21,1.21c-0.02,0 -0.039,0 -0.059,-0.001l-11.939,-0.54c-0.573,-0.023 -1.055,-0.451 -1.147,-1.017Z" style="fill:#0a395d;fill-rule:nonzero;"/><path id="Path_1014" d="M68.772,80.183c0.327,5.336 0.352,7.6 3.048,10.34c4.053,4.12 10.535,2.551 11.809,-2.776c1.146,-4.794 0.417,-12.714 -4.805,-14.838c-0.882,-0.363 -1.826,-0.551 -2.779,-0.551c-4.001,0 -7.292,3.292 -7.292,7.292c0,0.178 0.006,0.356 0.019,0.533Z" style="fill:#f4887b;fill-rule:nonzero;"/><path id="Path_1015" d="M74.532,218.957l4.424,3.072l7.41,-10.042l-4.425,-3.071l-7.409,10.041Z" style="fill:#f4887b;fill-rule:nonzero;"/><path id="Path_1016" d="M64.201,218.755l4.681,2.665l6.558,-10.62l-4.68,-2.666l-6.559,10.621Z" style="fill:#f4887b;fill-rule:nonzero;"/><path id="Path_1017" d="M86.362,211.99l-3.818,5.176l-4.427,-3.072l3.819,-5.177l4.426,3.073Z" style="fill:#ee7567;fill-rule:nonzero;"/><path id="Path_1018" d="M70.757,208.137l4.682,2.667l-3.383,5.472l-4.683,-2.666l3.384,-5.473Z" style="fill:#ee7567;fill-rule:nonzero;"/><path id="Path_1019" d="M88.559,100.025c0,0 2.566,0.9 -2.574,32.51l-21.876,0c0.367,-8.9 0.378,-14.394 -3.878,-32.666c3.063,-0.633 6.167,-1.042 9.289,-1.224c3.307,-0.236 6.627,-0.236 9.934,0c4.267,0.39 9.105,1.38 9.105,1.38Z" style="fill:#a2ea9d;fill-rule:nonzero;"/><path id="Path_1020" d="M90.782,105.044c0.5,1.37 1.02,2.851 1.566,4.274c0.524,1.445 1.067,2.885 1.629,4.321l1.684,4.312l0.425,1.078l0.214,0.538l0.107,0.27l0.008,0.038c-0.127,-0.176 -0.291,-0.322 -0.48,-0.428c-0.274,-0.16 -0.583,-0.25 -0.9,-0.262c-0.261,-0.011 -0.522,0.036 -0.763,0.138c-0.31,0.148 -0.315,0.211 -0.308,0.2c0.058,-0.045 0.109,-0.098 0.154,-0.156c0.378,-0.501 0.706,-1.036 0.981,-1.6c0.325,-0.63 0.632,-1.3 0.937,-1.984c0.608,-1.369 1.16,-2.8 1.723,-4.227c0.563,-1.427 1.079,-2.89 1.6,-4.35l1.563,-4.382l2.645,0.667c-0.524,3.134 -1.2,6.2 -2.007,9.285c-0.393,1.543 -0.849,3.074 -1.371,4.619c-0.26,0.774 -0.551,1.546 -0.884,2.332c-0.353,0.868 -0.79,1.7 -1.305,2.483c-0.18,0.262 -0.381,0.51 -0.6,0.741c-0.353,0.376 -0.779,0.677 -1.251,0.884c-0.42,0.181 -0.876,0.266 -1.333,0.249c-0.512,-0.021 -1.011,-0.172 -1.449,-0.437c-0.519,-0.322 -0.948,-0.769 -1.248,-1.3c-0.1,-0.174 -0.194,-0.354 -0.255,-0.484l-0.13,-0.266l-0.261,-0.533l-0.518,-1.066c-0.679,-1.428 -1.343,-2.865 -1.973,-4.317c-0.63,-1.452 -1.231,-2.919 -1.821,-4.394c-0.564,-1.5 -1.121,-2.948 -1.617,-4.541l5.238,-1.702Z" style="fill:#f4887b;fill-rule:nonzero;"/><path id="Path_1021" d="M88.559,100.025c2.63,0.626 7.145,15.3 7.145,15.3l1.813,-3.79l2.636,-7.25l4.284,4.284c0,0 -2.994,10.326 -4.779,13.182c-1.123,1.8 -3.784,5.662 -5.438,3.955c-2.9,-2.99 -9.722,-17.631 -11.933,-21.9c-1.428,-2.751 2.838,-4.6 6.272,-3.781Z" style="fill:#a2ea9d;fill-rule:nonzero;"/><path id="Path_1022" d="M102.143,100.404l2.743,-2.294l1.907,2.972l-1.405,2.482c0,0 -2.238,2.048 -4.22,1.007c-0.637,-1.447 -0.238,-3.153 0.975,-4.167Z" style="fill:#f4887b;fill-rule:nonzero;"/><path id="Path_1023" d="M109.863,98.117l-0.205,0.747l-4.345,0.73l-0.428,-1.484l4.978,0.007Z" style="fill:#f4887b;fill-rule:nonzero;"/><path id="Path_1024" d="M78.261,132.535c0,0 17.288,21.789 14.045,42.624c-2.619,16.829 -17.791,39.618 -17.791,39.618l-7.134,-3.546c5.028,-10.076 9.32,-20.503 12.84,-31.2c2.191,-6.726 1.171,-14.1 -2.766,-19.978c-8.757,-12.791 -22.788,-5.18 -13.35,-27.52l14.156,0.002Z" style="fill:#064724;fill-rule:nonzero;"/><path id="Path_1025" d="M75.433,215.232l-8.963,-4.455l0.928,-2.426l9.568,4.691l-1.533,2.19Z" style="fill:#125621;fill-rule:nonzero;"/><path id="Path_1026" d="M86.742,146.535l-2.512,-2.5c0,0.2 4.868,30.246 6.237,38.692c0.804,-2.473 1.42,-5.004 1.841,-7.57c1.591,-10.2 -1.747,-20.635 -5.566,-28.622Z" style="fill:#125621;fill-rule:nonzero;"/><path id="Path_1027" d="M85.986,132.535c0,0 20.817,27.381 21.4,43.8c0.49,13.758 -22.675,40.333 -22.675,40.333l-6.725,-4.35c0,0 13.545,-18.893 16.955,-34.337c-1.3,-15.287 -29.208,-45.446 -29.208,-45.446l20.253,0Z" style="fill:#064724;fill-rule:nonzero;"/><path id="Path_1028" d="M85.269,217.03l-7.839,-5.072l1.4,-2.441l8.812,5.416l-2.373,2.097Z" style="fill:#125621;fill-rule:nonzero;"/><path id="Path_1029" d="M70.393,220.312c0.853,0.434 1.54,0.595 1.87,0.43c0.147,-0.081 0.241,-0.233 0.249,-0.4c0.018,-0.067 -0.005,-0.138 -0.058,-0.183c-0.277,-0.235 -1.308,-0.053 -2.061,0.153Zm1.544,0.749c-0.688,-0.078 -1.351,-0.307 -1.941,-0.671l-0.065,-0.125l0.088,-0.108c0.211,-0.067 2.071,-0.637 2.6,-0.194c0.119,0.101 0.175,0.259 0.146,0.413c-0.017,0.252 -0.164,0.478 -0.388,0.595c-0.137,0.064 -0.288,0.095 -0.439,0.09l-0.001,0Z" style="fill:#0a395d;fill-rule:nonzero;"/><path id="Path_1030" d="M71.39,218.533c-0.067,0.001 -0.132,0.016 -0.192,0.046c-0.42,0.2 -0.773,1.008 -0.941,1.5c0.6,-0.254 1.429,-0.928 1.458,-1.3c0,-0.061 -0.009,-0.141 -0.16,-0.2l-0.165,-0.046Zm-1.331,1.872l-0.091,-0.037l-0.031,-0.123c0.018,-0.063 0.447,-1.554 1.151,-1.894c0.177,-0.089 0.384,-0.096 0.566,-0.017c0.2,0.059 0.332,0.252 0.316,0.46c-0.048,0.617 -1.306,1.469 -1.88,1.609l-0.031,0.002Z" style="fill:#0a395d;fill-rule:nonzero;"/><path id="Path_1031" d="M79.756,222.516c0.868,0.844 1.626,1.311 2.062,1.252c0.153,-0.019 0.286,-0.114 0.354,-0.253l0.008,-0.161c-0.178,-0.367 -1.458,-0.681 -2.424,-0.838Zm1.99,1.512c-0.773,0 -1.852,-0.993 -2.441,-1.6l-0.023,-0.146l0.13,-0.07c0.272,0.035 2.66,0.358 3,1.032c0.064,0.127 0.058,0.278 -0.016,0.4c-0.107,0.209 -0.311,0.351 -0.544,0.38l-0.106,0.004Z" style="fill:#0a395d;fill-rule:nonzero;"/><path id="Path_1032" d="M79.655,222.237c0.767,0.043 1.993,-0.212 2.152,-0.547c0.014,-0.028 0.055,-0.113 -0.122,-0.266c-0.142,-0.124 -0.33,-0.182 -0.518,-0.161c-0.593,0.16 -1.122,0.5 -1.512,0.974Zm0.176,0.257c-0.153,0.002 -0.307,-0.009 -0.458,-0.034l-0.1,-0.081l0.021,-0.126c0.039,-0.047 0.968,-1.167 1.846,-1.244c0.256,-0.027 0.512,0.053 0.706,0.222c0.27,0.231 0.251,0.437 0.188,0.568c-0.213,0.459 -1.4,0.695 -2.202,0.695l-0.001,0Z" style="fill:#0a395d;fill-rule:nonzero;"/><path id="Path_1033" d="M63.781,131.252l-0.759,1.958c-0.076,0.152 0.1,0.307 0.358,0.307l22.714,0c0.2,0 0.36,-0.1 0.373,-0.22l0.2,-1.958c0.013,-0.136 -0.158,-0.251 -0.374,-0.251l-22.155,0c-0.139,-0.012 -0.275,0.051 -0.357,0.164Z" style="fill:#064724;fill-rule:nonzero;"/><path id="Path_1034" d="M67.354,133.728l-0.594,0c-0.118,0 -0.208,-0.06 -0.2,-0.135l0.279,-2.544c0.008,-0.074 0.111,-0.135 0.229,-0.135l0.593,0c0.118,0 0.208,0.061 0.2,0.135l-0.278,2.544c-0.007,0.075 -0.111,0.135 -0.229,0.135Z" style="fill:#111f17;fill-rule:nonzero;"/><path id="Path_1035" d="M81.365,133.728l-0.593,0c-0.118,0 -0.208,-0.06 -0.2,-0.135l0.278,-2.544c0.008,-0.074 0.111,-0.135 0.229,-0.135l0.593,0c0.119,0 0.209,0.061 0.2,0.135l-0.278,2.544c-0.008,0.075 -0.111,0.135 -0.229,0.135Z" style="fill:#111f17;fill-rule:nonzero;"/><path id="Path_1036" d="M69.299,74.148c-2.676,0.976 -6.245,0.249 -4.845,8.508c1.483,8.745 -5,17.839 -5,17.839c0,0 7.6,5.19 15.16,5.438c5.486,0.18 10.47,-4.308 14.83,-5.273c0,0 -8.431,-12.047 -7.543,-16.085c1.133,-5.152 0.235,-7.056 0.235,-7.056c0,0 -9.075,-4.744 -12.837,-3.371Z" style="fill:#123823;fill-rule:nonzero;"/><path id="Path_1037" d="M66.974,75.082c-0.149,-0.416 -2.1,1.322 -1.918,0.861c0.748,-1.929 6.31,-6.075 12.572,-4.96c7.756,1.381 8.355,6.278 8.355,6.278l-3.46,1.813l-1.813,0.33l-4.456,1.043l-9.28,-5.365Z" style="fill:#123823;fill-rule:nonzero;"/><path id="Path_1038" d="M70.247,219.686l-5.823,-1.646c-0.206,-0.062 -0.428,0.04 -0.514,0.237l-1.966,4.42c-0.041,0.103 -0.062,0.212 -0.062,0.323c0,0.388 0.26,0.731 0.633,0.835c2.04,0.538 3.053,0.7 5.613,1.42c1.575,0.445 3.831,1.259 6.006,1.875c2.128,0.6 2.9,-1.5 2.049,-1.955c-3.815,-2.022 -4.116,-3.408 -5.16,-4.944c-0.184,-0.274 -0.459,-0.474 -0.776,-0.565Z" style="fill:#141414;fill-rule:nonzero;"/><path id="Path_1039" d="M79.463,221.623l-4.971,-3.452c-0.175,-0.125 -0.417,-0.1 -0.563,0.058l-3.3,3.539c-0.136,0.157 -0.211,0.359 -0.211,0.567c0,0.285 0.14,0.552 0.374,0.713c1.754,1.173 2.66,1.651 4.846,3.169c1.345,0.933 4.03,3 5.887,4.294c1.817,1.261 3.231,-0.478 2.573,-1.182c-2.95,-3.153 -3.6,-5.129 -4.087,-6.921c-0.085,-0.318 -0.279,-0.596 -0.548,-0.785Z" style="fill:#141414;fill-rule:nonzero;"/><path id="Path_1040" d="M66.787,250.008l-0.017,0c-10.159,0 -18.367,-0.6 -18.333,-1.335c0.034,-0.735 8.287,-1.334 18.438,-1.334l0.018,0c10.159,0 18.367,0.6 18.333,1.336c-0.034,0.736 -8.287,1.333 -18.439,1.333Z" style="fill:#ceddeb;fill-rule:nonzero;"/><path id="Path_1041" d="M78.042,246.791c-3.134,-0.822 -6.169,-1.981 -9.053,-3.457c-0.061,-0.036 -0.127,-0.062 -0.189,-0.095l0,-14.712l6.546,0c1.075,0 1.96,-0.885 1.96,-1.96c-0.001,-1.075 -0.886,-1.96 -1.961,-1.96l-6.545,0l0,-67.164l-3.92,0l0,67.165l-6.546,0c-1.075,0 -1.96,0.885 -1.96,1.96c0,1.075 0.885,1.96 1.96,1.96l6.546,0l0,14.71c-0.063,0.033 -0.128,0.059 -0.189,0.095c-2.884,1.476 -5.919,2.635 -9.053,3.457c-0.409,0.119 -0.693,0.496 -0.693,0.922c0,0.527 0.434,0.96 0.96,0.96c0.001,0 0.001,0 0.002,0l21.865,0c0.526,0 0.959,-0.434 0.959,-0.96c0,-0.425 -0.282,-0.801 -0.689,-0.921Z" style="fill:#aadba6;fill-rule:nonzero;"/><path id="Path_1042" d="M79.049,164.982l-24.419,0c-1.948,-0.006 -3.55,-1.608 -3.556,-3.556l0,-7.259c0.005,-1.949 1.607,-3.551 3.556,-3.557l24.419,0c1.949,0.006 3.551,1.608 3.557,3.557l0,7.259c-0.006,1.949 -1.608,3.551 -3.557,3.556Z" style="fill:#125621;fill-rule:nonzero;"/><rect id="Rectangle_160" x="54.406" y="164.982" width="24.867" height="3.122" style="fill:none;"/></svg>