<?xml version="1.0" encoding="UTF-8" standalone="no"?>
<!DOCTYPE svg PUBLIC "-//W3C//DTD SVG 1.1//EN" "http://www.w3.org/Graphics/SVG/1.1/DTD/svg11.dtd">
<svg width="100%" height="100%" viewBox="0 0 21 21" version="1.1" xmlns="http://www.w3.org/2000/svg" xmlns:xlink="http://www.w3.org/1999/xlink" xml:space="preserve" xmlns:serif="http://www.serif.com/" style="fill-rule:evenodd;clip-rule:evenodd;stroke-linejoin:round;stroke-miterlimit:2;">
    <path d="M20.734,5.184C20.734,2.323 18.412,0 15.551,0L5.184,0C2.323,0 0,2.323 0,5.184L0,15.551C0,18.412 2.323,20.734 5.184,20.734L15.551,20.734C18.412,20.734 20.734,18.412 20.734,15.551L20.734,5.184Z" style="fill:url(#_Linear1);"/>
    <path d="M7.617,12.338L7.556,12.29L7.51,12.249C7.482,12.213 7.455,12.176 7.429,12.139C7.302,11.945 7.166,11.795 6.936,11.713C6.704,11.631 6.444,11.646 6.223,11.754C6.01,11.859 5.843,12.047 5.763,12.271C5.688,12.481 5.678,12.787 5.803,12.983C5.913,13.155 6.026,13.335 6.159,13.495L6.171,13.509C6.288,13.647 6.421,13.77 6.583,13.856C6.808,13.974 7.01,14.048 7.271,13.999C7.509,13.953 7.722,13.814 7.859,13.614C8.146,13.192 8.023,12.63 7.617,12.338Z" style="fill:rgb(255,212,168);fill-rule:nonzero;"/>
    <path d="M7.395,12.662C7.333,12.545 7.248,12.445 7.142,12.356C7.108,12.318 7.072,12.284 7.033,12.253C7.008,12.223 6.983,12.192 6.959,12.161C6.708,11.838 6.215,11.766 5.861,11.939C5.647,12.044 5.48,12.232 5.4,12.456C5.311,12.707 5.352,12.927 5.441,13.169C5.568,13.512 5.891,13.759 6.163,13.982C6.342,14.129 6.63,14.167 6.851,14.125C7.089,14.08 7.302,13.94 7.439,13.74C7.575,13.539 7.627,13.29 7.582,13.052C7.553,12.896 7.485,12.772 7.395,12.662Z" style="fill:rgb(255,212,168);fill-rule:nonzero;"/>
    <path d="M3.569,5.479C4.002,5.574 4.176,5.934 4.283,6.353C4.759,6.228 5.05,7.476 5.116,7.803C5.165,8.046 5.207,8.274 5.309,8.495C5.371,8.63 5.46,8.741 5.522,8.873C5.139,8.678 5.024,9.152 5.007,9.427C5,9.546 5.031,9.649 4.918,9.632C4.799,9.614 4.71,9.418 4.643,9.337C4.486,9.146 4.311,8.953 4.146,8.769C4.027,8.636 3.92,8.503 3.809,8.366C3.671,8.195 3.625,8.191 3.648,7.968C3.689,7.569 3.597,7.181 3.478,6.807C3.399,6.559 3.299,6.393 3.388,6.148C3.467,5.93 3.618,5.658 3.576,5.431L3.569,5.479Z" style="fill:rgb(0,143,211);fill-rule:nonzero;"/>
    <path d="M8.504,11.197C8.046,10.448 7.42,10.068 6.685,9.659C6.302,9.446 5.209,8.469 4.752,8.583C4.103,8.745 4.58,9.381 4.779,9.668C5.05,10.061 4.842,9.951 4.596,9.448C4.458,9.164 4.32,8.922 4.101,8.676C3.819,8.361 3.764,8.323 3.728,7.93C3.695,7.576 3.692,7.188 3.627,6.838C3.599,6.69 3.478,6.488 3.477,6.363C3.476,6.183 3.565,6.195 3.606,6.003C3.732,5.418 3.683,4.693 3.481,4.109C3.181,3.24 2.341,3.431 2.357,4.25C2.222,4.636 2.291,5.229 2.28,5.596C2.257,6.349 2.135,7.01 2.148,7.757C2.163,8.693 1.879,9.961 2.535,10.706C3.22,11.485 4.049,12.42 4.684,13.251C5.155,13.867 5.869,14.331 6.118,15.058C6.27,15.506 6.301,16.04 6.39,16.504C6.45,16.812 6.403,17.464 6.601,17.62C6.976,17.915 9.026,17.511 9.38,17.283C9.212,15.986 9.284,14.792 9.266,13.478C9.254,12.603 8.944,11.916 8.504,11.197Z" style="fill:rgb(158,201,236);fill-rule:nonzero;"/>
    <path d="M5.436,10.979C5.424,10.911 5.412,10.841 5.4,10.769C5.394,10.805 5.385,10.838 5.377,10.87C5.393,10.906 5.409,10.944 5.424,10.981L5.436,10.979Z" style="fill:rgb(255,212,168);fill-rule:nonzero;"/>
    <path d="M4.475,9.316C4.73,9.646 4.903,9.923 5.246,10.175C5.497,10.358 5.611,10.505 5.78,10.751C6.104,11.221 6.396,11.728 6.758,12.112C6.555,11.751 6.341,11.399 6.15,11.032C6.06,10.859 5.972,10.66 5.85,10.505C5.756,10.383 5.63,10.314 5.488,10.217C5.195,10.018 4.941,9.751 4.752,9.452C4.537,9.113 4.366,8.821 4.752,8.583C4.283,8.35 4.303,9.325 4.613,9.548L4.475,9.316Z" style="fill:rgb(25,143,206);fill-rule:nonzero;"/>
    <path d="M6.095,14.999L6.118,15.058C6.27,15.506 6.301,16.04 6.391,16.504C6.45,16.812 6.403,17.464 6.601,17.62C6.976,17.915 9.027,17.511 9.381,17.283C9.213,15.986 9.284,14.792 9.266,13.478C9.256,12.679 8.994,12.037 8.615,11.385C8.278,13.145 7.368,14.515 6.095,14.999Z" style="fill:rgb(86,173,225);fill-rule:nonzero;"/>
    <path d="M2.813,3.544C3.208,3.637 3.328,4.426 3.379,4.806C3.43,5.181 3.321,5.605 3.153,5.947C3.018,6.222 3.036,6.183 3.18,6.433C3.285,6.617 3.318,6.822 3.357,7.031C3.436,7.447 3.489,7.875 3.314,8.271C3.649,8.236 3.963,8.798 4.128,9.033C4.39,9.409 4.684,9.755 4.948,10.122C5.187,10.456 5.415,10.802 5.653,11.127C5.833,11.375 6.539,11.941 6.758,12.112C6.745,11.828 6.283,11.4 6.123,11.179C5.959,10.953 5.829,10.684 5.65,10.468C5.371,10.133 4.984,9.906 4.736,9.531C4.507,9.185 4.392,8.829 4.085,8.527C4.023,8.467 3.828,8.314 3.782,8.24C3.711,8.124 3.8,7.746 3.781,7.533C3.746,7.157 3.594,6.793 3.526,6.437C3.482,6.207 3.605,6.161 3.656,5.922C3.695,5.738 3.716,5.532 3.718,5.349C3.723,4.628 3.703,3.824 2.996,3.562C2.965,3.551 2.709,3.573 2.709,3.573L2.813,3.544Z" style="fill:rgb(63,159,212);fill-rule:nonzero;"/>
    <path d="M4.977,8.65C4.492,8.703 4.71,9.115 4.749,9.19C4.818,9.32 4.925,9.491 5.051,9.566C5.101,9.339 5.388,9.036 5.554,9.043C5.547,9.006 5.418,8.91 5.373,8.875C5.307,8.823 5.061,8.646 4.977,8.65Z" style="fill:rgb(0,149,209);fill-rule:nonzero;"/>
    <path d="M2.466,3.639C2.267,3.907 2.371,4.257 2.311,4.554C2.344,4.348 2.432,4.109 2.527,3.922C2.599,3.778 2.68,3.628 2.855,3.603C2.855,3.518 2.721,3.499 2.657,3.502C2.513,3.509 2.504,3.658 2.423,3.702L2.466,3.639Z" style="fill:rgb(25,143,206);fill-rule:nonzero;"/>
    <path d="M6.385,10.475C6.492,11.032 7.167,12.217 7.891,11.858C8.437,11.587 7.826,10.899 7.612,10.62C7.378,10.315 6.668,9.999 6.457,10.445L6.385,10.475Z" style="fill:rgb(86,173,225);fill-rule:nonzero;"/>
    <path d="M2.759,9.667C2.609,10.011 3.021,10.522 3.21,10.79C3.515,11.223 3.877,11.597 4.272,11.951C4.727,12.359 5.673,13.573 6.406,13.036C6.953,12.636 6.021,11.791 5.75,11.553C5.182,11.055 4.666,10.591 4.318,9.909C4.131,9.543 3.993,9.049 3.507,9.057C3.202,9.062 2.719,9.346 2.759,9.667Z" style="fill:rgb(86,173,225);fill-rule:nonzero;"/>
    <path d="M2.805,3.746C2.592,3.914 2.534,4.31 2.462,4.553C2.363,4.888 2.321,5.214 2.308,5.565C2.289,6.114 2.304,6.654 2.297,7.201C2.293,7.434 2.146,8.733 2.446,8.763C2.804,8.799 2.938,7.455 2.928,7.228C2.915,6.891 2.797,6.584 2.721,6.262C2.635,5.896 2.683,5.696 2.78,5.345C2.859,5.06 3.119,3.964 2.764,3.777L2.805,3.746Z" style="fill:rgb(86,173,225);fill-rule:nonzero;"/>
    <path d="M12.692,12.336C12.715,12.322 12.736,12.308 12.757,12.293L12.806,12.256C12.837,12.224 12.866,12.189 12.896,12.153C13.039,11.971 13.186,11.832 13.422,11.769C13.66,11.706 13.918,11.742 14.129,11.868C14.334,11.99 14.485,12.191 14.546,12.42C14.604,12.636 14.588,12.941 14.447,13.127C14.324,13.289 14.197,13.46 14.051,13.609L14.038,13.622C13.91,13.75 13.768,13.861 13.6,13.933C13.365,14.033 13.158,14.091 12.902,14.02C12.668,13.956 12.467,13.799 12.347,13.588C12.096,13.145 12.264,12.595 12.692,12.336Z" style="fill:rgb(255,212,168);fill-rule:nonzero;"/>
    <path d="M12.887,12.678C12.958,12.566 13.052,12.473 13.164,12.393C13.201,12.358 13.24,12.327 13.281,12.299C13.308,12.271 13.336,12.243 13.363,12.213C13.639,11.913 14.136,11.881 14.475,12.082C14.679,12.204 14.83,12.405 14.892,12.635C14.961,12.892 14.901,13.108 14.793,13.341C14.639,13.674 14.297,13.893 14.008,14.093C13.817,14.225 13.527,14.24 13.31,14.18C13.077,14.116 12.876,13.959 12.756,13.748C12.636,13.538 12.605,13.285 12.669,13.051C12.711,12.897 12.788,12.78 12.887,12.678Z" style="fill:rgb(255,212,168);fill-rule:nonzero;"/>
    <path d="M17.285,5.829C16.846,5.889 16.642,6.234 16.503,6.643C16.039,6.479 15.647,7.699 15.555,8.02C15.486,8.259 15.425,8.482 15.306,8.694C15.233,8.824 15.135,8.927 15.063,9.054C15.46,8.89 15.536,9.372 15.53,9.647C15.528,9.767 15.489,9.867 15.603,9.859C15.723,9.851 15.828,9.663 15.9,9.587C16.073,9.409 16.262,9.231 16.442,9.061C16.571,8.939 16.689,8.816 16.811,8.687C16.963,8.529 17.009,8.528 17.004,8.305C16.995,7.902 17.119,7.524 17.268,7.161C17.366,6.92 17.48,6.763 17.411,6.511C17.35,6.288 17.221,6.004 17.282,5.781L17.285,5.829Z" style="fill:rgb(0,143,211);fill-rule:nonzero;"/>
    <path d="M10.956,13.339C10.831,14.646 10.806,15.842 10.532,17.121C10.866,17.378 12.877,17.948 13.275,17.684C13.485,17.545 13.492,16.89 13.576,16.589C13.702,16.134 13.777,15.603 13.965,15.17C14.272,14.465 15.021,14.061 15.541,13.485C16.242,12.709 17.144,11.844 17.89,11.123C18.605,10.435 18.425,9.147 18.516,8.216C18.59,7.472 18.521,6.803 18.56,6.051C18.579,5.685 18.696,5.099 18.593,4.704C18.676,3.889 17.854,3.63 17.484,4.472C17.236,5.037 17.128,5.756 17.205,6.35C17.23,6.544 17.32,6.539 17.304,6.718C17.293,6.842 17.156,7.035 17.117,7.18C17.023,7.523 16.989,7.909 16.927,8.26C16.86,8.649 16.801,8.682 16.494,8.973C16.256,9.2 16.099,9.43 15.938,9.702C15.652,10.184 15.436,10.276 15.738,9.907C15.96,9.636 16.487,9.042 15.854,8.827C15.407,8.676 14.238,9.561 13.84,9.742C13.073,10.09 12.419,10.418 11.901,11.127C11.405,11.808 11.039,12.468 10.956,13.339Z" style="fill:rgb(158,201,236);fill-rule:nonzero;"/>
    <path d="M14.977,11.16C14.994,11.093 15.012,11.025 15.03,10.953C15.033,10.99 15.038,11.023 15.044,11.056C15.025,11.091 15.007,11.127 14.988,11.163L14.977,11.16Z" style="fill:rgb(255,212,168);fill-rule:nonzero;"/>
    <path d="M16.07,9.581C15.788,9.889 15.594,10.151 15.232,10.373C14.966,10.536 14.841,10.673 14.652,10.905C14.291,11.346 13.959,11.829 13.566,12.181C13.798,11.838 14.041,11.504 14.26,11.154C14.364,10.989 14.468,10.798 14.602,10.653C14.707,10.539 14.837,10.481 14.986,10.396C15.295,10.222 15.57,9.976 15.783,9.693C16.024,9.373 16.219,9.096 15.854,8.827C16.34,8.633 16.24,9.603 15.914,9.8L16.07,9.581Z" style="fill:rgb(25,143,206);fill-rule:nonzero;"/>
    <path d="M13.993,15.112L13.965,15.17C13.777,15.603 13.702,16.134 13.575,16.589C13.492,16.89 13.485,17.544 13.275,17.684C12.877,17.948 10.866,17.378 10.532,17.121C10.805,15.842 10.831,14.646 10.956,13.339C11.032,12.543 11.344,11.925 11.775,11.305C11.968,13.087 12.763,14.526 13.993,15.112Z" style="fill:rgb(86,173,225);fill-rule:nonzero;"/>
    <path d="M18.195,3.963C17.795,4.023 17.611,4.8 17.529,5.174C17.448,5.544 17.522,5.976 17.662,6.33C17.774,6.616 17.76,6.574 17.596,6.812C17.475,6.987 17.426,7.189 17.37,7.394C17.257,7.803 17.17,8.224 17.311,8.634C16.981,8.571 16.622,9.105 16.439,9.327C16.146,9.679 15.826,10 15.533,10.345C15.267,10.659 15.012,10.985 14.748,11.29C14.549,11.522 13.8,12.029 13.566,12.181C13.603,11.899 14.098,11.511 14.275,11.303C14.457,11.091 14.609,10.833 14.805,10.633C15.11,10.322 15.515,10.127 15.792,9.773C16.049,9.447 16.192,9.101 16.523,8.826C16.589,8.771 16.797,8.634 16.848,8.564C16.928,8.454 16.87,8.071 16.907,7.86C16.972,7.487 17.153,7.137 17.25,6.788C17.312,6.562 17.194,6.506 17.162,6.264C17.138,6.077 17.134,5.871 17.148,5.688C17.201,4.97 17.286,4.169 18.012,3.966C18.044,3.957 18.298,4 18.298,4L18.195,3.963Z" style="fill:rgb(63,159,212);fill-rule:nonzero;"/>
    <path d="M15.623,8.876C16.103,8.968 15.852,9.361 15.807,9.432C15.728,9.556 15.607,9.718 15.476,9.783C15.444,9.553 15.182,9.227 15.017,9.221C15.027,9.184 15.163,9.099 15.21,9.068C15.281,9.021 15.54,8.865 15.623,8.876Z" style="fill:rgb(0,149,209);fill-rule:nonzero;"/>
    <path d="M18.535,4.086C18.711,4.369 18.579,4.709 18.614,5.011C18.598,4.802 18.53,4.557 18.45,4.363C18.39,4.214 18.322,4.057 18.15,4.018C18.156,3.933 18.291,3.925 18.354,3.933C18.498,3.952 18.495,4.102 18.572,4.152L18.535,4.086Z" style="fill:rgb(25,143,206);fill-rule:nonzero;"/>
    <path d="M14.072,10.58C13.92,11.127 13.15,12.252 12.458,11.836C11.935,11.521 12.601,10.885 12.837,10.624C13.095,10.34 13.828,10.082 14.002,10.545L14.072,10.58Z" style="fill:rgb(86,173,225);fill-rule:nonzero;"/>
    <path d="M17.752,10.07C17.873,10.425 17.42,10.9 17.211,11.152C16.871,11.559 16.48,11.902 16.058,12.223C15.571,12.592 14.53,13.725 13.842,13.131C13.33,12.688 14.327,11.921 14.617,11.706C15.224,11.256 15.776,10.835 16.178,10.184C16.394,9.835 16.572,9.353 17.055,9.401C17.359,9.43 17.818,9.754 17.752,10.07Z" style="fill:rgb(86,173,225);fill-rule:nonzero;"/>
    <path d="M18.187,4.165C18.386,4.349 18.412,4.749 18.464,4.997C18.535,5.339 18.551,5.667 18.535,6.017C18.509,6.567 18.45,7.104 18.413,7.65C18.397,7.882 18.439,9.189 18.136,9.194C17.777,9.201 17.753,7.851 17.781,7.625C17.822,7.29 17.965,6.994 18.066,6.679C18.182,6.321 18.15,6.118 18.082,5.761C18.027,5.47 17.857,4.357 18.226,4.199L18.187,4.165Z" style="fill:rgb(86,173,225);fill-rule:nonzero;"/>
    <path d="M14.939,4.71C14.939,7.983 10.204,11.151 10.204,11.151C10.204,11.151 5.47,7.983 5.47,4.71C5.47,1.437 10.204,3.82 10.204,3.82C10.204,3.82 14.939,1.437 14.939,4.71Z" style="fill:rgb(0,110,165);fill-rule:nonzero;"/>
    <path d="M14.385,3.311C13.712,6.141 11.26,8.239 8.336,8.239C7.829,8.239 7.336,8.174 6.864,8.055C8.261,9.851 10.204,11.151 10.204,11.151C10.204,11.151 14.939,7.983 14.939,4.711C14.939,4.013 14.723,3.573 14.385,3.311Z" style="fill:rgb(0,88,134);fill-rule:nonzero;"/>
    <defs>
        <linearGradient id="_Linear1" x1="0" y1="0" x2="1" y2="0" gradientUnits="userSpaceOnUse" gradientTransform="matrix(20.7343,0,0,20.7343,0,10.3672)"><stop offset="0" style="stop-color:white;stop-opacity:1"/><stop offset="1" style="stop-color:rgb(217,246,255);stop-opacity:1"/></linearGradient>
    </defs>
</svg>
