<svg xmlns="http://www.w3.org/2000/svg" width="318.5" height="229" viewBox="0 0 318.5 229">
  <g id="_1" data-name="1" transform="translate(-34 -105)">
    <circle id="Ellipse_55" data-name="Ellipse 55" cx="56.5" cy="56.5" r="56.5" transform="translate(129 221)" fill="#fff"/>
    <path id="Path_1147" data-name="Path 1147" d="M4,0H135a4,4,0,0,1,4,4V89a4,4,0,0,1-4,4H4a4,4,0,0,1-4-4V4A4,4,0,0,1,4,0Z" transform="translate(118.151 178.25)" fill="#d5d3ff"/>
    <path id="Path_743" data-name="Path 743" d="M121.523,271.2a4,4,0,0,1-3.372-3.951V183.7H256.5L122,271.2Z" fill="#b9ceff" fill-rule="evenodd"/>
    <rect id="Rectangle_149" data-name="Rectangle 149" width="24" height="24" rx="2" transform="translate(223 237.701)" fill="#f7fff3"/>
    <rect id="Rectangle_150" data-name="Rectangle 150" width="14.747" height="14.747" rx="2" transform="translate(227.503 242.094)" fill="#0c364e"/>
    <path id="Path_744" data-name="Path 744" d="M189.81,135.633a4,4,0,0,0-4.318,0l-64.725,41.5a5.673,5.673,0,0,0,0,8.236l64.725,41.5a4,4,0,0,0,4.318,0l64.726-41.5a5.673,5.673,0,0,0,0-8.236Z" fill="#0159a9" fill-rule="evenodd"/>
    <path id="Path_745" data-name="Path 745" d="M276.026,248.274C291.034,228.491,333.5,231.6,352.5,281.531H198C205.248,259.147,257.265,273,276.026,248.274Z" fill="#94bbe3"/>
    <path id="Path_746" data-name="Path 746" d="M285.2,248.349c11.976-19.865,60.3,0,67.3,33.395H222.943C228.726,259.267,270.233,273.181,285.2,248.349Z" fill="#0159a9"/>
    <path id="Path_747" data-name="Path 747" d="M104,244.1c-5.605-24.191-51-12.326-70,37.607H178.5C166.5,223.1,113.5,285.1,104,244.1Z" fill="#94bbe3"/>
    <path id="Path_748" data-name="Path 748" d="M90.711,248.958c-8.134-19.715-49.456,0-54.211,33.14H133C129.071,259.792,100.879,273.6,90.711,248.958Z" fill="#0159a9"/>
    <path id="Path_749" data-name="Path 749" d="M143,105a3,3,0,0,0-3,3v89.7l45.492,29.167a4,4,0,0,0,4.318,0L232,199.816V108a3,3,0,0,0-3-3Z" fill="#fff" fill-rule="evenodd"/>
    <path id="Path_750" data-name="Path 750" d="M143,105a3,3,0,0,0-3,3v89.7l45.492,29.167a4,4,0,0,0,4.318,0L232,199.816V108a3,3,0,0,0-3-3Z" fill="#fff" fill-rule="evenodd"/>
    <line id="Line_16" data-name="Line 16" x2="74" transform="translate(149 118.5)" fill="none" stroke="#e1ffd3" stroke-width="1"/>
    <line id="Line_17" data-name="Line 17" x2="74" transform="translate(149 128.5)" fill="none" stroke="#e1ffd3" stroke-width="1"/>
    <line id="Line_18" data-name="Line 18" x2="74" transform="translate(149 138.5)" fill="none" stroke="#e1ffd3" stroke-width="1"/>
    <line id="Line_19" data-name="Line 19" x2="74" transform="translate(149 148.5)" fill="none" stroke="#e1ffd3" stroke-width="1"/>
    <path id="Path_751" data-name="Path 751" d="M182,184h12a8,8,0,0,1,8,8v8H174v-8A8,8,0,0,1,182,184Z" fill="none" stroke="#3383b0" stroke-width="4"/>
    <path id="Path_752" data-name="Path 752" d="M212,212.639V201a3,3,0,0,0-3-3H167a3,3,0,0,0-3,3v12.086l21.492,13.78a4,4,0,0,0,4.318,0Z" fill="#0c364e" fill-rule="evenodd"/>
    <path id="Path_753" data-name="Path 753" d="M189.333,215.333A1.333,1.333,0,0,0,188,214h0a1.333,1.333,0,0,0-1.333,1.333v1.777a.953.953,0,0,1-.1.423h0a5.366,5.366,0,0,0-.567,2.4v.64A1.425,1.425,0,0,0,187.426,222h1.148A1.425,1.425,0,0,0,190,220.574v-.64a5.366,5.366,0,0,0-.567-2.4h0a.953.953,0,0,1-.1-.423Z" fill="#fff" fill-rule="evenodd"/>
    <path id="Path_754" data-name="Path 754" d="M209.673,214.131,187.5,223,164,213l2.167,1.476,19.325,12.39a4,4,0,0,0,4.318,0Z" fill="#062334" fill-rule="evenodd"/>
  </g>
</svg>
