<?xml version="1.0" encoding="UTF-8" standalone="no"?><!DOCTYPE svg PUBLIC "-//W3C//DTD SVG 1.1//EN" "http://www.w3.org/Graphics/SVG/1.1/DTD/svg11.dtd"><svg width="100%" height="100%" viewBox="0 0 296 262" version="1.1" xmlns="http://www.w3.org/2000/svg" xmlns:xlink="http://www.w3.org/1999/xlink" xml:space="preserve" xmlns:serif="http://www.serif.com/" style="fill-rule:evenodd;clip-rule:evenodd;stroke-linejoin:round;stroke-miterlimit:2;"><rect id="Path_1045" x="44.244" y="237.529" width="24.175" height="0.176" style="fill:#c4daf1;fill-rule:nonzero;"/><rect id="Path_1046" x="25.488" y="237.621" width="13.6" height="0.176" style="fill:#c4daf1;fill-rule:nonzero;"/><rect id="Path_1047" x="96.122" y="237.208" width="27.572" height="0.176" style="fill:#c4daf1;fill-rule:nonzero;"/><rect id="Path_1048" x="112.83" y="234.71" width="81.355" height="0.176" style="fill:#c4daf1;fill-rule:nonzero;"/><rect id="Path_1049" x="226.597" y="234.798" width="37.231" height="0.176" style="fill:#c4daf1;fill-rule:nonzero;"/><path id="Path_1050" d="M4.011,0.178c-2.103,0.002 -3.832,1.731 -3.835,3.834l0,190.729c0.002,2.103 1.732,3.833 3.835,3.835l135.682,0c2.103,-0.002 3.833,-1.732 3.835,-3.835l0,-190.731c-0.003,-2.103 -1.732,-3.832 -3.835,-3.834l-135.682,0.002Zm135.682,198.574l-135.682,0c-2.2,-0.002 -4.009,-1.811 -4.011,-4.011l0,-190.731c0.003,-2.199 1.812,-4.008 4.011,-4.01l135.682,0c2.199,0.003 4.007,1.811 4.01,4.01l0,190.729c-0.001,2.2 -1.81,4.01 -4.01,4.013Z" style="fill:#c4daf1;fill-rule:nonzero;"/><path id="Path_1051" d="M155.998,0.178c-2.103,0.002 -3.832,1.731 -3.835,3.834l0,190.729c0.002,2.103 1.732,3.833 3.835,3.835l135.685,0c2.103,-0.003 3.832,-1.732 3.835,-3.835l0,-190.731c-0.003,-2.103 -1.732,-3.832 -3.835,-3.834l-135.685,0.002Zm135.685,198.574l-135.685,0c-2.199,-0.003 -4.008,-1.812 -4.01,-4.011l0,-190.731c0.003,-2.199 1.811,-4.007 4.01,-4.01l135.685,0c2.199,0.002 4.008,1.811 4.011,4.01l0,190.729c-0.001,2.2 -1.811,4.011 -4.011,4.013Z" style="fill:#c4daf1;fill-rule:nonzero;"/><path id="Path_1052" d="M123.342,161.377c-0.386,0 -0.775,0.008 -1.167,0.034c-8.252,0.609 -14.87,7.263 -15.433,15.518c-0.119,1.822 0.062,3.651 0.535,5.414c1.816,7.077 2.693,14.363 2.608,21.669l0,21.276c0,1.532 1.261,2.793 2.793,2.794l67.536,0l0,-66.7l-56.872,-0.005Z" style="fill:#dae7f6;fill-rule:nonzero;"/><path id="Path_1053" d="M196.85,178.011c0,-0.001 0,-0.002 0,-0.004c0,-9.126 -7.51,-16.637 -16.637,-16.637c-0.388,0 -0.776,0.014 -1.163,0.041c-8.253,0.606 -14.873,7.261 -15.434,15.518c-0.119,1.822 0.062,3.651 0.535,5.414c1.816,7.077 2.693,14.363 2.608,21.669l0,21.276c0,1.532 1.261,2.793 2.793,2.794l21.326,0c1.532,-0.001 2.793,-1.262 2.793,-2.794l0,-22.526c-0.061,-6.852 0.805,-13.68 2.575,-20.3c0.402,-1.449 0.605,-2.947 0.604,-4.451Z" style="fill:#edf3fa;fill-rule:nonzero;"/><rect id="Path_1054" x="96.676" y="187.577" width="60.619" height="40.5" style="fill:#b6e6b2;fill-rule:nonzero;"/><path id="Path_1055" d="M115.121,122.029l-55.958,0c-6.906,0 -12.589,5.683 -12.589,12.589l0,62.117l81.136,0l0,-62.117c0,-6.906 -5.683,-12.589 -12.589,-12.589Z" style="fill:#77b772;fill-rule:nonzero;"/><path id="Path_1056" d="M131.58,122.029l-57.173,0c-6.574,0 -11.983,5.409 -11.983,11.983l0,62.723l81.136,0l0,-62.723c0,-6.573 -5.407,-11.981 -11.98,-11.983Z" style="fill:#edf3fa;fill-rule:nonzero;"/><path id="Path_1057" d="M156.517,183.881l-55.874,0c-0.599,0 -1.091,0.492 -1.091,1.091c0,0 0,0.001 0,0.001l0,14.309c0,0.599 0.492,1.091 1.091,1.091l55.874,0c0,0 0.001,0 0.001,0c2.004,0 3.653,-1.649 3.653,-3.653l0,-9.185c0,-2.005 -1.649,-3.654 -3.654,-3.654Z" style="fill:#bdd6ef;fill-rule:nonzero;"/><path id="Path_1058" d="M40.597,161.377c-0.387,0 -0.775,0.008 -1.168,0.034c-8.253,0.606 -14.872,7.262 -15.433,15.518c-0.119,1.822 0.062,3.651 0.535,5.414c1.816,7.077 2.693,14.363 2.608,21.669l0,21.276c0,1.532 1.261,2.793 2.793,2.794l67.536,0l0,-66.7l-56.871,-0.005Z" style="fill:#b6e6b2;fill-rule:nonzero;"/><path id="Path_1059" d="M114.102,178.011c0,-0.002 0,-0.003 0,-0.005c0,-9.126 -7.51,-16.636 -16.636,-16.636c-0.388,0 -0.777,0.014 -1.164,0.041c-8.253,0.606 -14.873,7.261 -15.434,15.518c-0.119,1.822 0.062,3.651 0.535,5.414c1.816,7.077 2.693,14.363 2.608,21.669l0,21.276c0,1.532 1.261,2.793 2.793,2.794l21.326,0c1.532,-0.001 2.793,-1.262 2.793,-2.794l0,-22.526c-0.061,-6.852 0.805,-13.681 2.576,-20.3c0.402,-1.449 0.605,-2.947 0.603,-4.451Z" style="fill:#edf3fa;fill-rule:nonzero;"/><path id="Path_1060" d="M179.028,230.106l-137.246,0c-1.11,-0.001 -2.023,-0.914 -2.024,-2.024l141.3,0c-0.001,1.111 -0.914,2.024 -2.025,2.024c-0.002,0 -0.003,0 -0.005,0Z" style="fill:#99af97;fill-rule:nonzero;"/><rect id="Path_1061" x="33.496" y="32.683" width="40.387" height="41.849" style="fill:#125621;fill-rule:nonzero;"/><rect id="Path_1062" x="36.809" y="32.683" width="39.369" height="41.849" style="fill:#449b3d;fill-rule:nonzero;"/><rect id="Path_1063" x="40.106" y="35.979" width="32.773" height="35.255" style="fill:#fff;fill-rule:nonzero;"/><path id="Path_1064" d="M56.493,44.694l-8.963,15.524l17.926,0l-8.963,-15.524Z" style="fill:#aadba6;fill-rule:nonzero;"/><rect id="Path_1065" x="87.324" y="50.308" width="40.386" height="41.851" style="fill:#bdd6ef;fill-rule:nonzero;"/><rect id="Path_1066" x="90.637" y="50.308" width="39.369" height="41.851" style="fill:#449b3d;fill-rule:nonzero;"/><rect id="Path_1067" x="93.935" y="53.605" width="32.772" height="35.256" style="fill:#fff;fill-rule:nonzero;"/><path id="Path_1068" d="M114.332,77.52l3.888,-6.733c0.407,-0.704 0.621,-1.503 0.621,-2.316c0,-2.54 -2.091,-4.631 -4.631,-4.631c-0.001,0 -0.001,0 -0.001,0l-7.775,0c0,0 0,0 -0.001,0c-2.54,0 -4.631,2.091 -4.631,4.631c0,0.813 0.214,1.612 0.621,2.316l3.888,6.733c0.826,1.431 2.358,2.315 4.011,2.315c1.652,0 3.184,-0.884 4.01,-2.315Z" style="fill:#aadba6;fill-rule:nonzero;"/><rect id="Path_1069" x="210.208" y="130.349" width="11.042" height="96.415" style="fill:#dae7f6;fill-rule:nonzero;"/><rect id="Path_1070" x="213.117" y="226.761" width="61.14" height="3.329" style="fill:#dae7f6;fill-rule:nonzero;"/><rect id="Path_1071" x="221.244" y="130.349" width="55.928" height="96.415" style="fill:#77b772;fill-rule:nonzero;"/><rect id="Path_1072" x="227.208" y="180.554" width="44" height="17.216" style="fill:#b6e6b2;fill-rule:nonzero;"/><rect id="Path_1073" x="227.208" y="203.087" width="44" height="17.216" style="fill:#b6e6b2;fill-rule:nonzero;"/><path id="Path_1074" d="M255.58,190.342l-12.742,0c-0.612,-0.002 -1.116,-0.505 -1.118,-1.117l0,-0.126c0.002,-0.612 0.506,-1.115 1.118,-1.117l12.742,0c0.612,0.002 1.116,0.505 1.118,1.117l0,0.126c-0.002,0.612 -0.506,1.115 -1.118,1.117Z" style="fill:#edf3fa;fill-rule:nonzero;"/><path id="Path_1075" d="M255.58,212.875l-12.742,0c-0.612,-0.002 -1.116,-0.505 -1.118,-1.117l0,-0.126c0.002,-0.612 0.506,-1.115 1.118,-1.117l12.742,0c0.612,0.002 1.116,0.505 1.118,1.117l0,0.126c-0.002,0.612 -0.506,1.115 -1.118,1.117Z" style="fill:#edf3fa;fill-rule:nonzero;"/><rect id="Path_1076" x="227.208" y="135.666" width="44" height="17.216" style="fill:#b6e6b2;fill-rule:nonzero;"/><rect id="Path_1077" x="227.208" y="158.021" width="44" height="17.216" style="fill:#b6e6b2;fill-rule:nonzero;"/><path id="Path_1078" d="M255.58,145.455l-12.742,0c-0.612,-0.002 -1.116,-0.505 -1.118,-1.117l0,-0.126c0.002,-0.612 0.506,-1.115 1.118,-1.117l12.742,0c0.612,0.002 1.116,0.505 1.118,1.117l0,0.126c-0.002,0.612 -0.506,1.115 -1.118,1.117Z" style="fill:#edf3fa;fill-rule:nonzero;"/><path id="Path_1079" d="M255.58,167.806l-12.742,0c-0.613,-0.002 -1.116,-0.505 -1.118,-1.118l0,-0.126c0.002,-0.612 0.506,-1.115 1.118,-1.117l12.742,0c0.612,0.002 1.116,0.505 1.118,1.117l0,0.126c-0.002,0.613 -0.505,1.116 -1.118,1.118Z" style="fill:#edf3fa;fill-rule:nonzero;"/><path id="Path_1080" d="M262.777,102.491l-10.365,0c0,0 1.8,6.213 1.8,9.87c0,3.657 -7.884,17.984 3.383,17.984c11.267,0 3.383,-14.333 3.383,-17.989c0,-3.656 1.799,-9.865 1.799,-9.865Z" style="fill:#b6e6b2;fill-rule:nonzero;"/><path id="Path_1081" d="M235.802,110.84c0,2.718 -2.237,4.955 -4.955,4.956c-2.718,-0.001 -4.955,-2.238 -4.955,-4.956c0,-2.718 2.237,-4.955 4.955,-4.955c2.718,0 4.955,2.237 4.955,4.955Z" style="fill:#edf3fa;fill-rule:nonzero;"/><path id="Path_1082" d="M244.284,113.201c0,2.718 -2.237,4.955 -4.955,4.955c-2.718,0 -4.955,-2.237 -4.955,-4.955c0,-2.718 2.237,-4.955 4.955,-4.955c2.718,0.001 4.954,2.237 4.955,4.955Z" style="fill:#edf3fa;fill-rule:nonzero;"/><path id="Path_1083" d="M251.53,111.293c0,2.718 -2.237,4.955 -4.955,4.955c-2.718,0 -4.955,-2.237 -4.955,-4.955c0.001,-2.718 2.237,-4.954 4.955,-4.955c2.718,0 4.955,2.237 4.955,4.955Z" style="fill:#edf3fa;fill-rule:nonzero;"/><path id="Path_1084" d="M221.98,113.294l0,5.658c0,6.269 6.063,11.4 13.473,11.4l6.689,0c7.41,0 13.472,-5.129 13.472,-11.4l0,-5.658l-33.634,0Z" style="fill:#77b772;fill-rule:nonzero;"/><path id="Path_1085" d="M200.374,84.363c-7.721,0 -14.074,-6.353 -14.074,-14.074c0,-7.721 6.353,-14.074 14.074,-14.074l1.726,0l0,28.148l-1.726,0Z" style="fill:#bdd6ef;fill-rule:nonzero;"/><path id="Path_1086" d="M216.175,70.289c-0.001,7.721 -6.354,14.074 -14.075,14.074c-7.721,-0.001 -14.073,-6.353 -14.074,-14.074c0,-7.721 6.353,-14.074 14.074,-14.074c0,0 0.001,0 0.001,0c7.721,0 14.074,6.353 14.074,14.074l0,0Z" style="fill:#edf3fa;fill-rule:nonzero;"/><path id="Path_1087" d="M202.736,72.046c0,0 -0.001,0 -0.001,0c-0.963,0 -1.756,-0.793 -1.756,-1.756l0,-0.002c0,-0.963 0.793,-1.756 1.756,-1.756c0,0 0.001,0 0.001,0c8.336,-0.007 15.193,-6.864 15.2,-15.2l0,-23.358c0,0 0,-0.001 0,-0.001c0,-0.963 0.793,-1.756 1.756,-1.756c0,0 0.001,0 0.001,0c0.964,0 1.757,0.793 1.757,1.757l0,23.358c-0.009,10.263 -8.451,18.705 -18.714,18.714Z" style="fill:#b6e6b2;fill-rule:nonzero;"/><path id="Path_1088" d="M236.3,53.292l-33.226,0l3.712,-30.443l25.8,0l3.714,30.443Z" style="fill:#77b772;fill-rule:nonzero;"/><path id="Path_1089" d="M285.065,253.869c0,4.395 -61,7.956 -136.242,7.956c-75.242,0 -136.242,-3.566 -136.242,-7.956c0,-4.39 61,-7.957 136.242,-7.957c75.242,0 136.242,3.563 136.242,7.957Z" style="fill:#e8f0f9;fill-rule:nonzero;"/><path id="Path_1090" d="M103.509,171.55l-6.461,-50.08c-0.031,-0.244 -0.047,-0.489 -0.047,-0.735c0,-3.163 2.602,-5.765 5.765,-5.765l75.355,0c2.885,0 5.349,2.166 5.718,5.027l6.462,50.083c0.031,0.244 0.047,0.49 0.047,0.736c0,3.162 -2.602,5.764 -5.764,5.764c0,0 0,0 0,0l-75.357,0c-2.886,0 -5.35,-2.167 -5.718,-5.03Zm151.623,19.4l-1.206,-9.341c-0.369,-2.862 -2.832,-5.028 -5.718,-5.028l-31.125,0c-2.886,0 -5.349,-2.166 -5.718,-5.028l-6.464,-50.083c-0.031,-0.244 -0.047,-0.49 -0.047,-0.736c0,-3.162 2.602,-5.764 5.764,-5.764l28.153,0c3.163,-0.001 5.765,-2.603 5.765,-5.766c0,-0.245 -0.016,-0.491 -0.047,-0.734l-1.206,-9.341c-0.369,-2.862 -2.832,-5.028 -5.718,-5.028l-31.128,0c-2.886,0 -5.349,-2.166 -5.718,-5.028l-5.982,-46.363c-0.364,-2.866 -2.829,-5.039 -5.718,-5.04l-9.246,0c-3.163,0.001 -5.765,2.603 -5.765,5.766c0,0.245 0.016,0.491 0.047,0.734l5.6,43.412c0.031,0.244 0.047,0.489 0.047,0.735c0,3.163 -2.602,5.765 -5.765,5.765c0,0 0,0 0,0l-75.354,0c-2.886,0 -5.349,-2.166 -5.718,-5.028l-5.982,-46.353c-0.367,-2.863 -2.831,-5.03 -5.717,-5.031l-9.246,0c0,0 0,0 0,0c-3.163,0 -5.765,2.602 -5.765,5.765c0,0.246 0.016,0.491 0.047,0.735l5.6,43.412c0.031,0.244 0.047,0.489 0.047,0.735c0,3.163 -2.602,5.765 -5.765,5.765c0,0 0,0 0,0l-28.151,0c0,0 0,0 0,0c-3.163,0 -5.765,2.602 -5.765,5.765c0,0.246 0.016,0.491 0.047,0.735l1.205,9.342c0.369,2.862 2.833,5.028 5.718,5.028l31.129,0c2.885,0 5.349,2.166 5.718,5.027l6.463,50.083c0.031,0.244 0.047,0.489 0.047,0.735c0,3.163 -2.602,5.765 -5.765,5.765c0,0 0,0 0,0l-28.153,0c-3.163,0.001 -5.765,2.603 -5.765,5.766c0,0.245 0.016,0.491 0.047,0.734l1.206,9.342c0.369,2.862 2.833,5.028 5.718,5.028l31.129,0c2.885,0 5.349,2.166 5.718,5.028l5.982,46.363c0.369,2.862 2.833,5.028 5.718,5.028l9.246,0c3.163,-0.001 5.765,-2.603 5.765,-5.766c0,-0.245 -0.016,-0.491 -0.047,-0.734l-5.6,-43.413c-0.031,-0.244 -0.047,-0.489 -0.047,-0.735c0,-3.163 2.602,-5.765 5.765,-5.765l75.351,0c2.886,0 5.349,2.166 5.718,5.028l5.982,46.363c0.364,2.867 2.83,5.04 5.72,5.041l9.246,0c3.163,-0.001 5.765,-2.603 5.765,-5.766c0,-0.245 -0.016,-0.491 -0.047,-0.734l-5.6,-43.413c-0.031,-0.244 -0.047,-0.489 -0.047,-0.735c0,-3.163 2.602,-5.765 5.765,-5.765l28.152,0c3.162,-0.001 5.763,-2.603 5.763,-5.765c0,-0.249 -0.016,-0.499 -0.048,-0.746l0,0.004Z" style="fill:#125621;fill-rule:nonzero;"/><path id="Path_1091" d="M102.551,70.583l-1.684,-13.05l0.7,-0.089l1.684,13.049l-0.7,0.09Zm1.6,12.419l-0.993,-7.692l0.7,-0.09l0.993,7.692l-0.7,0.09Zm116.867,69.871l-2.47,-19.145l0.7,-0.09l2.469,19.145l-0.699,0.09Zm-98.587,71.813l-0.689,-5.337l0.7,-0.091l0.689,5.337l-0.7,0.091Z" style="fill:#125621;fill-rule:nonzero;"/><path id="Path_1092" d="M113.807,171.55l-6.461,-50.08c-0.031,-0.244 -0.047,-0.489 -0.047,-0.735c0,-3.163 2.602,-5.765 5.765,-5.765l75.355,0c2.885,0 5.348,2.166 5.717,5.027l6.463,50.083c0.031,0.244 0.047,0.489 0.047,0.735c0,3.163 -2.602,5.765 -5.765,5.765c0,0 0,0 0,0l-75.356,0c-2.886,0 -5.35,-2.167 -5.718,-5.03Zm151.623,19.4l-1.206,-9.341c-0.369,-2.862 -2.832,-5.028 -5.718,-5.028l-31.127,0c-2.885,0 -5.349,-2.166 -5.718,-5.028l-6.463,-50.083c-0.031,-0.244 -0.047,-0.489 -0.047,-0.735c0,-3.163 2.602,-5.765 5.765,-5.765l28.152,0c3.163,0 5.765,-2.602 5.765,-5.765c0,-0.246 -0.016,-0.491 -0.047,-0.735l-1.205,-9.341c-0.369,-2.862 -2.832,-5.028 -5.718,-5.028l-31.128,0c-2.886,0 -5.349,-2.166 -5.718,-5.028l-5.983,-46.363c-0.363,-2.866 -2.828,-5.039 -5.717,-5.04l-9.246,0c-3.163,0.001 -5.765,2.603 -5.765,5.766c0,0.245 0.016,0.491 0.047,0.734l5.6,43.412c0.031,0.244 0.047,0.489 0.047,0.735c0,3.163 -2.602,5.765 -5.765,5.765c0,0 0,0 0,0l-75.353,0c-2.886,0 -5.349,-2.166 -5.718,-5.028l-5.983,-46.363c-0.372,-2.859 -2.834,-5.021 -5.717,-5.021l-9.247,0c0,0 0,0 0,0c-3.163,0 -5.765,2.602 -5.765,5.765c0,0.246 0.016,0.491 0.047,0.735l5.6,43.412c0.031,0.244 0.047,0.489 0.047,0.735c0,3.163 -2.602,5.765 -5.765,5.765c0,0 0,0 0,0l-28.15,0c0,0 0,0 0,0c-3.163,0 -5.765,2.602 -5.765,5.765c0,0.246 0.016,0.491 0.047,0.735l1.206,9.342c0.369,2.862 2.833,5.028 5.718,5.028l31.128,0c2.885,0 5.349,2.166 5.718,5.027l6.462,50.091c0.031,0.244 0.047,0.489 0.047,0.735c0,3.163 -2.602,5.765 -5.765,5.765c0,0 0,0 0,0l-28.152,0c-3.163,0.001 -5.765,2.603 -5.765,5.766c0,0.245 0.016,0.491 0.047,0.734l1.206,9.342c0.369,2.862 2.833,5.028 5.718,5.028l31.128,0c2.886,0 5.349,2.166 5.718,5.028l5.982,46.363c0.364,2.865 2.828,5.037 5.716,5.039l9.247,0c3.163,0 5.765,-2.602 5.765,-5.765c0,-0.246 -0.016,-0.491 -0.047,-0.735l-5.6,-43.413c-0.031,-0.244 -0.047,-0.489 -0.047,-0.735c0,-3.162 2.602,-5.764 5.764,-5.765l75.355,0c2.886,0 5.349,2.166 5.718,5.028l5.982,46.363c0.369,2.862 2.833,5.028 5.718,5.028l9.245,0c3.163,0 5.765,-2.602 5.765,-5.765c0,-0.246 -0.016,-0.491 -0.047,-0.735l-5.6,-43.413c-0.031,-0.243 -0.047,-0.489 -0.047,-0.734c0,-3.163 2.602,-5.765 5.765,-5.766l28.153,0c3.163,0 5.765,-2.602 5.765,-5.765c0,-0.251 -0.016,-0.503 -0.049,-0.752l0,0.004Z" style="fill:#449b3d;fill-rule:nonzero;"/><path id="Path_1093" d="M113.063,112.945c-2.237,0.001 -4.369,0.965 -5.847,2.644c-1.477,1.68 -2.161,3.918 -1.875,6.137l6.462,50.083c0.507,3.86 3.829,6.781 7.722,6.789l75.355,0c2.238,0 4.37,-0.965 5.847,-2.646c1.477,-1.68 2.16,-3.918 1.874,-6.136l-6.462,-50.082c-0.505,-3.861 -3.827,-6.782 -7.721,-6.789l-75.355,0Zm81.817,65.829l-75.354,0c-3.983,-0.007 -7.382,-2.993 -7.9,-6.942l-6.456,-50.083c-0.292,-2.269 0.407,-4.558 1.918,-6.276c1.511,-1.716 3.691,-2.701 5.978,-2.7l75.355,0c3.983,0.007 7.382,2.993 7.9,6.942l6.462,50.083c0.293,2.269 -0.406,4.558 -1.916,6.276c-1.514,1.718 -3.697,2.703 -5.987,2.7Zm-71.174,16.481l75.355,0c3.983,0.005 7.383,2.993 7.9,6.943l5.983,46.364c0.232,1.77 1.755,3.109 3.54,3.113l9.246,0c1.027,0.006 2.007,-0.437 2.681,-1.213c0.683,-0.767 0.997,-1.796 0.859,-2.814l-5.6,-43.413c-0.292,-2.269 0.407,-4.558 1.918,-6.276c1.512,-1.716 3.691,-2.701 5.978,-2.7l28.153,0c1.027,0.006 2.007,-0.438 2.681,-1.213c0.682,-0.768 0.996,-1.796 0.859,-2.814l-1.205,-9.341c-0.232,-1.77 -1.755,-3.108 -3.54,-3.112l-31.135,0c-3.983,-0.006 -7.382,-2.993 -7.9,-6.942l-6.463,-50.083c-0.292,-2.269 0.407,-4.558 1.918,-6.276c1.512,-1.716 3.692,-2.701 5.979,-2.7l28.157,0c1.027,0.006 2.008,-0.437 2.681,-1.213c0.683,-0.767 0.997,-1.796 0.859,-2.814l-1.205,-9.342c-0.232,-1.77 -1.755,-3.108 -3.54,-3.112l-31.13,0c-3.983,-0.007 -7.382,-2.993 -7.9,-6.942l-5.983,-46.364c-0.232,-1.769 -1.754,-3.108 -3.539,-3.112l-9.243,0c-1.027,-0.006 -2.007,0.437 -2.681,1.212c-0.682,0.768 -0.996,1.796 -0.859,2.814l5.6,43.412c0.293,2.269 -0.406,4.558 -1.917,6.276c-1.512,1.716 -3.692,2.701 -5.979,2.7l-75.352,0c-3.983,-0.006 -7.382,-2.993 -7.9,-6.942l-5.983,-46.364c-0.232,-1.769 -1.754,-3.108 -3.539,-3.112l-9.246,0c-1.027,-0.006 -2.007,0.437 -2.681,1.212c-0.682,0.768 -0.996,1.796 -0.859,2.814l5.6,43.412c0.293,2.269 -0.406,4.557 -1.916,6.276c-1.512,1.716 -3.692,2.701 -5.979,2.7l-28.147,0c-1.027,-0.006 -2.007,0.437 -2.681,1.212c-0.682,0.768 -0.996,1.796 -0.859,2.814l1.205,9.341c0.232,1.77 1.755,3.11 3.54,3.113l31.128,0c3.983,0.006 7.382,2.993 7.9,6.942l6.462,50.083c0.292,2.269 -0.407,4.558 -1.917,6.276c-1.512,1.716 -3.691,2.7 -5.978,2.7l-28.162,0c-1.027,-0.006 -2.007,0.437 -2.68,1.213c-0.683,0.767 -0.998,1.796 -0.86,2.814l1.206,9.342c0.232,1.769 1.754,3.108 3.539,3.112l31.129,0c3.983,0.006 7.382,2.994 7.9,6.943l5.983,46.364c0.232,1.77 1.755,3.11 3.54,3.113l9.243,0c1.027,0.006 2.007,-0.438 2.681,-1.213c0.683,-0.767 0.997,-1.796 0.859,-2.814l-5.6,-43.413c-0.292,-2.269 0.407,-4.558 1.918,-6.276c1.512,-1.717 3.692,-2.701 5.979,-2.7l-0.001,0Zm102.018,56.6l-9.246,0c-1.873,-0.004 -3.471,-1.41 -3.714,-3.267l-5.982,-46.372c-0.505,-3.861 -3.827,-6.782 -7.721,-6.789l-75.354,0c-2.237,0 -4.369,0.964 -5.846,2.644c-1.478,1.68 -2.161,3.919 -1.875,6.138l5.6,43.413c0.144,1.068 -0.185,2.147 -0.9,2.952c-0.707,0.813 -1.735,1.279 -2.812,1.273l-9.246,0c-1.873,-0.004 -3.471,-1.41 -3.714,-3.267l-5.985,-46.364c-0.505,-3.861 -3.827,-6.782 -7.721,-6.789l-31.128,0c-1.873,-0.003 -3.471,-1.409 -3.714,-3.266l-1.206,-9.342c-0.145,-1.068 0.184,-2.147 0.9,-2.953c0.707,-0.813 1.735,-1.277 2.812,-1.271l28.153,0c2.238,-0.001 4.37,-0.966 5.847,-2.646c1.477,-1.679 2.161,-3.915 1.876,-6.133l-6.462,-50.082c-0.507,-3.86 -3.829,-6.781 -7.722,-6.789l-31.127,0c-1.873,-0.004 -3.471,-1.409 -3.714,-3.266l-1.205,-9.341c-0.145,-1.068 0.184,-2.147 0.9,-2.953c0.707,-0.813 1.735,-1.278 2.813,-1.272l28.152,0c2.237,0 4.37,-0.965 5.847,-2.645c1.477,-1.68 2.16,-3.918 1.874,-6.137l-5.6,-43.412c-0.145,-1.068 0.184,-2.147 0.9,-2.953c0.707,-0.813 1.735,-1.278 2.813,-1.272l9.246,0c1.873,0.003 3.471,1.408 3.714,3.265l5.983,46.364c0.505,3.861 3.827,6.782 7.721,6.789l75.355,0c2.238,0 4.37,-0.965 5.848,-2.645c1.476,-1.681 2.16,-3.918 1.874,-6.137l-5.6,-43.412c-0.145,-1.068 0.184,-2.147 0.9,-2.953c0.707,-0.813 1.735,-1.278 2.813,-1.272l9.246,0c1.873,0.004 3.471,1.408 3.714,3.265l5.982,46.364c0.505,3.861 3.828,6.783 7.722,6.789l31.128,0c1.873,0.004 3.471,1.408 3.714,3.265l1.205,9.342c0.144,1.068 -0.185,2.147 -0.9,2.952c-0.706,0.814 -1.734,1.28 -2.812,1.273l-28.153,0c-2.237,0 -4.37,0.964 -5.848,2.644c-1.477,1.681 -2.16,3.918 -1.875,6.137l6.463,50.083c0.505,3.861 3.828,6.783 7.722,6.789l31.128,0c1.873,0.004 3.471,1.409 3.714,3.266l1.205,9.341c0.144,1.068 -0.185,2.147 -0.9,2.952c-0.707,0.814 -1.735,1.279 -2.813,1.273l-28.154,0c-2.237,0 -4.369,0.965 -5.846,2.644c-1.477,1.681 -2.161,3.919 -1.875,6.138l5.6,43.413c0.145,1.068 -0.184,2.147 -0.9,2.952c-0.707,0.814 -1.735,1.28 -2.813,1.275l-0.001,0.005Z" style="fill:#316fb7;fill-rule:nonzero;"/><path id="Path_1094" d="M167.034,224.779l5.521,3.229l8.326,-12.288l-5.521,-3.229l-8.326,12.288Z" style="fill:#f4887b;fill-rule:nonzero;"/><path id="Path_1095" d="M172.751,227.822l-4.537,-5.569c-0.157,-0.201 -0.443,-0.253 -0.661,-0.12l-4.926,2.954c-0.292,0.189 -0.468,0.514 -0.468,0.862c0,0.237 0.082,0.467 0.233,0.651c1.615,1.916 2.491,2.759 4.487,5.209c1.227,1.508 3.609,4.754 5.3,6.836c1.658,2.036 3.844,0.516 3.325,-0.5c-2.329,-4.567 -2.421,-7.035 -2.388,-9.24c0.009,-0.393 -0.12,-0.776 -0.365,-1.083Z" style="fill:#12274a;fill-rule:nonzero;"/><path id="Path_1096" d="M172.686,228.841c0.741,1.329 1.494,2.163 2.038,2.248c0.194,0.032 0.392,-0.037 0.524,-0.183c0.064,-0.054 0.094,-0.139 0.077,-0.221c-0.105,-0.561 -1.739,-1.428 -2.639,-1.844Zm2.136,2.47c-0.044,0 -0.088,-0.004 -0.131,-0.011c-0.9,-0.141 -1.857,-1.712 -2.346,-2.636c-0.022,-0.04 -0.016,-0.09 0.015,-0.123c0.031,-0.034 0.08,-0.044 0.122,-0.025c0.3,0.127 2.894,1.272 3.053,2.13c0.03,0.152 -0.023,0.31 -0.138,0.414c-0.15,0.158 -0.357,0.248 -0.575,0.251Z" style="fill:#4872b8;fill-rule:nonzero;"/><path id="Path_1097" d="M172.666,228.597c0.863,0.341 2.452,0.464 2.771,0.1c0.029,-0.034 0.122,-0.136 -0.05,-0.4c-0.128,-0.199 -0.333,-0.335 -0.566,-0.374c-0.771,-0.006 -1.525,0.229 -2.155,0.674Zm1.847,0.538c-0.728,-0.002 -1.448,-0.146 -2.121,-0.424c-0.034,-0.017 -0.056,-0.051 -0.059,-0.089c-0.004,-0.039 0.014,-0.078 0.046,-0.1c0.722,-0.522 1.591,-0.804 2.482,-0.805c0.288,0.051 0.542,0.22 0.7,0.466c0.216,0.329 0.136,0.539 0.032,0.657c-0.31,0.231 -0.696,0.337 -1.08,0.294l0,0.001Z" style="fill:#4872b8;fill-rule:nonzero;"/><path id="Path_1098" d="M158.382,128.012l0.264,1.069l0.3,1.155c0.207,0.774 0.435,1.552 0.672,2.329c0.453,1.561 0.944,3.122 1.483,4.672c0.539,1.55 1.074,3.106 1.667,4.646c0.292,0.771 0.577,1.546 0.883,2.314l0.358,0.92c0.072,0.159 0.166,0.308 0.28,0.441c0.874,0.885 1.941,1.558 3.116,1.967c1.438,0.575 2.919,1.035 4.43,1.375c1.558,0.364 3.164,0.666 4.787,0.914c1.613,0.273 3.288,0.455 4.889,0.63l0.058,3.3c-3.508,0.366 -7.045,0.366 -10.553,0c-1.834,-0.186 -3.648,-0.538 -5.419,-1.051c-0.959,-0.287 -1.893,-0.655 -2.79,-1.1c-1.035,-0.503 -1.982,-1.169 -2.805,-1.972c-0.476,-0.476 -0.89,-1.011 -1.231,-1.592c-0.092,-0.148 -0.171,-0.313 -0.253,-0.471l-0.162,-0.33l-0.284,-0.585c-0.381,-0.779 -0.76,-1.561 -1.112,-2.355c-0.713,-1.584 -1.41,-3.18 -2.023,-4.813c-0.613,-1.633 -1.215,-3.276 -1.75,-4.953c-0.255,-0.843 -0.5,-1.69 -0.73,-2.552l-0.333,-1.3c-0.1,-0.462 -0.19,-0.852 -0.294,-1.407l6.552,-1.251Z" style="fill:#f4887b;fill-rule:nonzero;"/><path id="Path_1099" d="M156.293,121.049c2.367,1.535 8.27,22.446 8.27,22.446l-2.7,0l-4.384,2.024l-5.059,-12.142c0,0 -10.46,-0.137 -8.432,-3.036c1.673,-2.391 4.825,-8.471 8.095,-9.275c0.858,-0.211 3.416,-0.532 4.21,-0.017Z" style="fill:#a2ea9d;fill-rule:nonzero;"/><path id="Path_1100" d="M156.532,124.992l-5.643,1.307l-0.54,5.516c0.957,1.95 2.012,3.85 3.162,5.692l4.405,-2.994c-0.19,-2.536 -0.668,-7.806 -1.384,-9.521Z" style="fill:#77b772;fill-rule:nonzero;"/><path id="Path_1101" d="M180.567,150.402l4.536,-4.6l0.6,6.476c0,0 -3.4,2.3 -5.754,1.065l0.618,-2.941Z" style="fill:#f4887b;fill-rule:nonzero;"/><path id="Path_1102" d="M190.437,145.117l0.206,5.449l-4.943,1.714l-0.6,-6.476l5.337,-0.687Z" style="fill:#f4887b;fill-rule:nonzero;"/><path id="Path_1103" d="M157.935,237.419l6.4,0l2.056,-14.81l-6.4,0l-2.056,14.81Z" style="fill:#f4887b;fill-rule:nonzero;"/><path id="Path_1104" d="M164.757,235.507l-6.342,-3.378c-0.223,-0.124 -0.506,-0.061 -0.656,0.145l-3.402,4.634c-0.116,0.17 -0.177,0.371 -0.177,0.577c0,0.38 0.211,0.73 0.547,0.908c2.232,1.14 3.366,1.577 6.155,3.063c1.716,0.913 6.021,3.434 8.391,4.7c2.317,1.235 3.744,-1.014 2.87,-1.751c-3.917,-3.308 -5.81,-6 -6.635,-8.045c-0.143,-0.363 -0.409,-0.665 -0.751,-0.853Z" style="fill:#12274a;fill-rule:nonzero;"/><path id="Path_1105" d="M129.462,96.067c-0.16,7.03 -7.616,15.217 -8.578,23.312c-0.541,4.553 1.462,1.955 7.083,3.2c12.142,2.7 -2.773,-3.612 19.225,-2.412c16.362,0.891 3.5,12.806 0.727,2.591c-2.773,-10.215 -4.326,-11.783 -1.282,-14.594c3.044,-2.811 7.917,-4.253 6.361,-12.8c-1.207,-6.636 -3.444,-7.353 -3.444,-7.353c0,0 -19.738,-7.578 -20.092,8.056Z" style="fill:#142f1a;fill-rule:nonzero;"/><path id="Path_1106" d="M180.877,215.722l-4.291,6.335l-5.524,-3.229l4.291,-6.335l5.524,3.229Z" style="fill:#ee7567;fill-rule:nonzero;"/><path id="Path_1107" d="M159.989,222.617l6.4,0l-1.063,7.634l-6.4,0l1.063,-7.634Z" style="fill:#ee7567;fill-rule:nonzero;"/><path id="Path_1108" d="M156.294,121.049c0,0 -2.238,31.528 -7.077,37.962c-4.839,6.434 -16.94,0.639 -21.955,0.639c0.436,-10.572 0.448,-17.091 -4.6,-38.786c3.637,-0.751 7.323,-1.237 11.03,-1.453c3.928,-0.281 7.872,-0.281 11.8,0c5.056,0.465 10.802,1.638 10.802,1.638Z" style="fill:#a2ea9d;fill-rule:nonzero;"/><path id="Path_1109" d="M134.856,106.13c0.744,3.8 1.487,10.748 -1.169,13.281c0,0 1.038,3.85 8.089,3.85c6.783,0 3.706,-3.849 3.706,-3.849c-4.232,-1.01 -4.123,-4.151 -3.386,-7.1l-7.24,-6.182Z" style="fill:#f4887b;fill-rule:nonzero;"/><path id="Path_1110" d="M137.807,108.652l4.285,3.656c-0.182,0.686 -0.303,1.386 -0.363,2.093c-1.617,-0.233 -3.837,-2.008 -4.009,-3.7c-0.096,-0.683 -0.066,-1.377 0.087,-2.049Z" style="fill:#ee7567;fill-rule:nonzero;"/><path id="Path_1111" d="M134.409,96.127c-0.733,6.305 -1.178,8.958 1.4,12.723c3.877,5.663 11.781,5.184 14.382,-0.775c2.342,-5.364 3.147,-14.774 -2.513,-18.348c-1.391,-0.888 -3.007,-1.36 -4.658,-1.36c-4.411,0 -8.153,3.372 -8.611,7.76Z" style="fill:#f4887b;fill-rule:nonzero;"/><path id="Path_1112" d="M134.039,107.743c-1.855,-5.734 14.89,-13.779 13.335,-17.839c-1.555,-4.06 -5.62,-2.581 -5.62,-2.581c0,0 -7.219,1.639 -8.429,5.387c-1.21,3.748 0.714,15.033 0.714,15.033Z" style="fill:#142f1a;fill-rule:nonzero;"/><path id="Path_1113" d="M153.239,159.65c0,0 40.43,3.89 40.012,23.394c-0.436,20.286 -15.006,38.553 -15.006,38.553l-7.637,-4.321c0,0 8.4,-17.853 8,-30.02c-0.348,-10.4 -39.12,-12.394 -39.12,-12.394l-5.35,-15.211l19.101,-0.001Z" style="fill:#064724;fill-rule:nonzero;"/><path id="Path_1114" d="M167.324,171.081l0.815,8.292c5.657,1.771 10.006,4.2 10.435,7.491c0.956,-7.341 -4.16,-11.672 -11.25,-15.783Z" style="fill:#202321;fill-rule:nonzero;"/><path id="Path_1115" d="M146.377,159.65c0,0 27.714,9.192 28.413,20.565c1.287,20.945 -7.921,48.556 -7.921,48.556l-8.722,0c0,0 0.494,-18.32 1.537,-37.3c1.31,-23.843 -40.757,-0.33 -32.423,-31.825l19.116,0.004Z" style="fill:#064724;fill-rule:nonzero;"/><path id="Path_1116" d="M143.56,99.565c-0.091,0.508 0.1,0.968 0.436,1.027c0.336,0.059 0.675,-0.3 0.766,-0.812c0.091,-0.512 -0.1,-0.968 -0.436,-1.027c-0.336,-0.059 -0.678,0.305 -0.766,0.812Z" style="fill:#12274a;fill-rule:nonzero;"/><path id="Path_1117" d="M149.298,100.594c-0.091,0.507 0.1,0.968 0.436,1.027c0.336,0.059 0.675,-0.3 0.766,-0.812c0.091,-0.512 -0.105,-0.968 -0.437,-1.027c-0.332,-0.059 -0.675,0.303 -0.765,0.812Z" style="fill:#12274a;fill-rule:nonzero;"/><path id="Path_1118" d="M149.911,99.782l1.282,-0.134c0,0 -0.796,0.842 -1.282,0.134Z" style="fill:#12274a;fill-rule:nonzero;"/><path id="Path_1119" d="M147.623,101.193c0.245,1.239 0.659,2.439 1.231,3.565c-0.591,0.28 -1.276,0.286 -1.871,0.015l0.64,-3.58Z" style="fill:#f15f5c;fill-rule:nonzero;"/><path id="Path_1120" d="M144.056,106.094c-0.013,0 -0.025,-0.003 -0.037,-0.008c-1.023,-0.478 -1.824,-1.332 -2.235,-2.383c-0.016,-0.05 0.009,-0.105 0.058,-0.124c0.05,-0.016 0.105,0.009 0.124,0.058c0.399,0.996 1.159,1.807 2.128,2.27c0.048,0.022 0.07,0.078 0.051,0.127c-0.015,0.036 -0.05,0.059 -0.089,0.06Z" style="fill:#12274a;fill-rule:nonzero;"/><path id="Path_1121" d="M142.921,97.291c-0.055,-0.001 -0.108,-0.024 -0.145,-0.065c-0.032,-0.035 -0.049,-0.081 -0.049,-0.129c0,-0.055 0.024,-0.107 0.065,-0.144c0.685,-0.641 1.642,-0.91 2.561,-0.721c0.084,0.023 0.143,0.099 0.143,0.186c0,0.017 -0.003,0.034 -0.007,0.051c-0.022,0.084 -0.098,0.143 -0.185,0.143c-0.018,0 -0.035,-0.002 -0.052,-0.007c-0.793,-0.156 -1.613,0.082 -2.2,0.637c-0.036,0.032 -0.083,0.05 -0.131,0.049Z" style="fill:#12274a;fill-rule:nonzero;"/><path id="Path_1122" d="M152.429,98.309c-0.077,0 -0.146,-0.046 -0.177,-0.116c-0.305,-0.747 -0.948,-1.305 -1.731,-1.5c-0.103,-0.021 -0.173,-0.119 -0.159,-0.223c0.016,-0.092 0.097,-0.161 0.19,-0.161c0.011,0 0.022,0.001 0.033,0.003c0.914,0.214 1.669,0.86 2.021,1.731c0.011,0.024 0.016,0.051 0.016,0.077c0,0.077 -0.046,0.146 -0.116,0.177c-0.025,0.009 -0.051,0.014 -0.077,0.012Z" style="fill:#12274a;fill-rule:nonzero;"/><path id="Path_1123" d="M165.142,236.5c0.925,0.774 1.727,1.169 2.186,1.05c0.206,-0.059 0.365,-0.222 0.42,-0.429c0.042,-0.088 0.031,-0.193 -0.027,-0.271c-0.312,-0.406 -1.785,-0.399 -2.579,-0.35Zm2.01,1.285c-0.893,-0.189 -1.709,-0.639 -2.346,-1.292c-0.032,-0.028 -0.044,-0.073 -0.031,-0.113c0.012,-0.042 0.049,-0.071 0.092,-0.073c0.257,-0.025 2.54,-0.216 3.024,0.411c0.103,0.136 0.126,0.318 0.06,0.475c-0.078,0.274 -0.294,0.488 -0.569,0.565c-0.075,0.018 -0.153,0.028 -0.23,0.027Z" style="fill:#4872b8;fill-rule:nonzero;"/><path id="Path_1124" d="M166.76,234.668c-0.049,0 -0.097,0.006 -0.144,0.018c-0.63,0.151 -1.3,1.181 -1.544,1.6c0.736,-0.115 2,-0.707 2.149,-1.191c0.023,-0.078 0.032,-0.2 -0.152,-0.326c-0.09,-0.065 -0.198,-0.101 -0.309,-0.101Zm-1.884,1.851c-0.037,0 -0.072,-0.019 -0.091,-0.051c-0.019,-0.033 -0.019,-0.073 0,-0.106c0.037,-0.069 0.9,-1.673 1.784,-1.885c0.215,-0.056 0.444,-0.014 0.625,0.116c0.201,0.108 0.3,0.344 0.235,0.563c-0.195,0.647 -1.774,1.342 -2.547,1.363l-0.006,0Z" style="fill:#4872b8;fill-rule:nonzero;"/><path id="Path_1125" d="M144.171,98.755l1.282,-0.134c0,0 -0.796,0.841 -1.282,0.134Z" style="fill:#12274a;fill-rule:nonzero;"/><path id="Path_1126" d="M126.872,158.125l-0.207,2.324c-0.091,0.181 0.123,0.365 0.423,0.365l26.276,0c0.235,0 0.429,-0.115 0.443,-0.262l0.235,-2.325c0.015,-0.16 -0.188,-0.3 -0.443,-0.3l-26.3,0c-0.167,-0.015 -0.33,0.061 -0.427,0.198Z" style="fill:#12274a;fill-rule:nonzero;"/><path id="Path_1127" d="M130.406,161.066l-0.7,0c-0.141,0 -0.247,-0.072 -0.237,-0.16l0.33,-3.021c0.01,-0.088 0.132,-0.16 0.273,-0.16l0.7,0c0.14,0 0.247,0.072 0.237,0.16l-0.33,3.021c-0.01,0.089 -0.133,0.16 -0.273,0.16Z" style="fill:#94bbe3;fill-rule:nonzero;"/><path id="Path_1128" d="M151.385,161.066l-0.7,0c-0.141,0 -0.247,-0.072 -0.238,-0.16l0.33,-3.021c0.011,-0.088 0.133,-0.16 0.273,-0.16l0.7,0c0.141,0 0.248,0.072 0.237,0.16l-0.33,3.021c-0.009,0.089 -0.131,0.16 -0.272,0.16Z" style="fill:#94bbe3;fill-rule:nonzero;"/><path id="Path_1129" d="M140.895,161.066l-0.7,0c-0.14,0 -0.247,-0.072 -0.238,-0.16l0.33,-3.021c0.01,-0.088 0.133,-0.16 0.273,-0.16l0.7,0c0.14,0 0.247,0.072 0.237,0.16l-0.33,3.021c-0.009,0.089 -0.132,0.16 -0.272,0.16Z" style="fill:#94bbe3;fill-rule:nonzero;"/><path id="Path_1130" d="M128.769,130.936l-3.352,2.853c0.717,3.794 1.195,6.957 1.5,9.767c0.629,-2.817 2.224,-10.463 1.852,-12.62Z" style="fill:#77b772;fill-rule:nonzero;"/><path id="Path_1131" d="M199.776,141.697l-45.585,0l-6.606,26.918l45.583,0l6.608,-26.918Z" style="fill:#fff;fill-rule:nonzero;"/><path id="Path_1132" d="M176.68,163.601l-27.879,6.5l-17.891,-5.014l0.184,-1.488l45.586,0.002Z" style="fill:#fff;fill-rule:nonzero;"/><path id="Path_1133" d="M126.537,130.116c-0.546,1.787 -1.136,3.638 -1.659,5.468c-0.547,1.832 -1.084,3.664 -1.563,5.5c-0.479,1.836 -0.932,3.66 -1.285,5.455c-0.173,0.9 -0.328,1.785 -0.435,2.632c-0.079,0.59 -0.119,1.184 -0.117,1.779c0.152,0.481 0.417,0.918 0.772,1.276c0.531,0.577 1.121,1.098 1.76,1.554c1.462,1.044 3.007,1.969 4.618,2.764c1.653,0.852 3.383,1.626 5.144,2.343c1.744,0.746 3.563,1.426 5.323,2.075l-0.791,3.208c-2.016,-0.318 -3.933,-0.765 -5.885,-1.256c-1.934,-0.526 -3.86,-1.118 -5.78,-1.826c-1.98,-0.722 -3.889,-1.628 -5.7,-2.707c-0.998,-0.606 -1.932,-1.313 -2.786,-2.109c-1.079,-0.978 -1.897,-2.21 -2.379,-3.584c-0.134,-0.419 -0.227,-0.85 -0.279,-1.287l-0.032,-0.339l-0.013,-0.247l-0.017,-0.453c-0.014,-0.594 0,-1.154 0.03,-1.706c0.058,-1.1 0.178,-2.139 0.327,-3.165c0.294,-2.051 0.684,-4.029 1.144,-5.983c0.893,-3.887 1.987,-7.726 3.277,-11.5l6.326,2.108Z" style="fill:#f4887b;fill-rule:nonzero;"/><path id="Path_1134" d="M122.657,120.863c-2.6,0.791 -9.527,24.931 -9.362,30.052c0.169,5.228 19.731,14.166 19.731,14.166l3.879,-5.734l-14,-7.758c0,0 7.8,-21.236 6.706,-24.6c-1.136,-3.502 -3.984,-7.029 -6.954,-6.126Z" style="fill:#a2ea9d;fill-rule:nonzero;"/><path id="Path_1135" d="M137.786,161.186l6.067,-1.536l-2.89,5.826c0,0 -4.1,0.175 -5.457,-2.113l2.28,-2.177Z" style="fill:#f4887b;fill-rule:nonzero;"/><path id="Path_1136" d="M148.754,161.859l-2.684,4.747l-5.107,-1.133l2.89,-5.826l4.901,2.212Z" style="fill:#f4887b;fill-rule:nonzero;"/><path id="Path_1137" d="M201.18,141.697l-45.585,0l-6.607,26.918l45.584,0l6.608,-26.918Z" style="fill:#12274a;fill-rule:nonzero;"/><path id="Path_1138" d="M194.572,168.615l-0.184,1.488l-45.586,0l0.184,-1.488l45.586,0Z" style="fill:#12274a;fill-rule:nonzero;"/><path id="Path_1139" d="M146.285,92.378c6.144,2.459 6.649,6 6.324,3.5c-0.552,-3.112 -2.639,-5.744 -5.543,-6.99c-1.242,-0.505 -3.467,2.415 -0.781,3.49Z" style="fill:#142f1a;fill-rule:nonzero;"/><path id="Path_1140" d="M204.834,78.946c-1.073,-11.039 -10.773,-19.985 -21.673,-19.979c-10.9,0.006 -18.862,8.957 -17.79,20c0.796,7.261 5.071,13.701 11.454,17.253l-0.176,7.011l5.846,-4.811c1.491,0.348 3.017,0.524 4.548,0.526c10.898,-0.008 18.863,-8.961 17.791,-20Z" style="fill:#77b772;fill-rule:nonzero;"/><path id="Path_1143" d="M102.365,132.997l-6.308,-6c0.091,-1.249 0.076,-2.503 -0.045,-3.749c-1.185,-12.2 -11.908,-22.086 -23.95,-22.08c-12.042,0.006 -20.844,9.9 -19.66,22.1c1.184,12.2 11.908,22.086 23.95,22.08c7.568,0.125 14.544,-4.198 17.8,-11.031l8.213,-1.32Z" style="fill:#125621;fill-rule:nonzero;"/><path id="Path_1144" d="M84.305,115.357c-3.294,-3.038 -8.157,-3.036 -10.862,0c-3.294,-3.037 -8.157,-3.035 -10.862,0c-2.705,3.035 -2.226,7.967 1.068,11l11.931,11l9.794,-11.009c2.705,-3.027 2.226,-7.954 -1.069,-10.991Z" style="fill:#aadba6;fill-rule:nonzero;"/><path id="Path_1146" d="M195.635,69.916c-3.294,-3.038 -8.157,-3.036 -10.862,0c-3.294,-3.037 -8.157,-3.035 -10.862,0c-2.705,3.035 -2.226,7.967 1.068,11l11.931,11l9.794,-11.009c2.705,-3.027 2.226,-7.954 -1.069,-10.991Z" style="fill:#125621;fill-rule:nonzero;"/><path id="Path_1145" d="M134.207,105.382c0,0 0.6,6.9 10.674,7.387c0,0 2.318,7.418 12.092,8.129c0,0 2.879,10.793 -14.335,10.793c0,0 -21.586,-3.432 -21.586,-10.287l13.155,-16.022Z" style="fill:#142f1a;"/></svg>