<?xml version="1.0" encoding="UTF-8" standalone="no"?><!DOCTYPE svg PUBLIC "-//W3C//DTD SVG 1.1//EN" "http://www.w3.org/Graphics/SVG/1.1/DTD/svg11.dtd"><svg width="100%" height="100%" viewBox="0 0 226 199" version="1.1" xmlns="http://www.w3.org/2000/svg" xmlns:xlink="http://www.w3.org/1999/xlink" xml:space="preserve" xmlns:serif="http://www.serif.com/" style="fill-rule:evenodd;clip-rule:evenodd;stroke-linejoin:round;stroke-miterlimit:2;"><path d="M16.048,90.867l-9.347,1.247l0,40.39l6.348,-0.846l0,-15.176l2.999,-0.4c6.347,-0.846 9.463,-4.78 9.463,-11.242l0,-5.251c0,-5.766 -2.479,-8.858 -7.522,-8.858c-0.609,0 -1.257,0.045 -1.941,0.136Zm-2.999,6.171l2.999,-0.4c2.019,-0.268 3.116,0.507 3.116,3.393l0,6.058c0,2.884 -1.097,3.955 -3.116,4.224l-2.999,0.401l0,-13.676Z" style="fill:url(#_Linear1);fill-rule:nonzero;"/><path d="M28.742,89.175l0,40.39l17.31,-2.308l0,-5.77l-10.963,1.462l0,-11.828l8.712,-1.162l0,-5.77l-8.712,1.161l0,-11.251l10.963,-1.462l0,-5.77l-17.31,2.308Z" style="fill:url(#_Linear2);fill-rule:nonzero;"/><path d="M59.553,85.067l-9.578,1.278l0,40.39l6.347,-0.846l0,-16.445l2.192,-0.292c2.886,-0.385 4.155,0.83 4.155,4.581l0,6.347c0,3.288 0.231,3.893 0.577,4.884l6.462,-0.861c-0.634,-1.415 -0.693,-2.85 -0.693,-4.812l0,-6.232c0,-4.212 -1.038,-7.131 -4.212,-8.036c2.827,-1.703 4.156,-4.592 4.156,-8.746l0,-3.173c0,-5.464 -2.174,-8.199 -7.142,-8.199c-0.699,0 -1.453,0.054 -2.264,0.162Zm-3.231,6.201l3.058,-0.407c2.25,-0.301 3.231,0.839 3.231,3.724l0,3.981c0,3.232 -1.443,4.462 -3.808,4.778l-2.481,0.329l0,-12.405Z" style="fill:url(#_Linear3);fill-rule:nonzero;"/><path d="M77.267,82.705l0,30.812c0,3.116 -1.615,4.081 -3.635,4.351c-0.692,0.092 -1.501,0.199 -2.193,0.233l0,5.771c1.039,-0.023 1.905,-0.139 3.058,-0.293c4.788,-0.638 9.116,-3.292 9.116,-11.37l0,-30.35l-6.346,0.846Z" style="fill:url(#_Linear4);fill-rule:nonzero;"/><path d="M100.578,79.597l0,31.159c0,2.885 -1.27,4.092 -3.29,4.362c-2.02,0.269 -3.289,-0.602 -3.289,-3.485l0,-31.159l-6.346,0.847l0,30.754c0,6.463 3.231,9.724 9.462,8.893c6.231,-0.83 9.462,-4.954 9.462,-11.417l0,-30.754l-5.999,0.8Z" style="fill:url(#_Linear5);fill-rule:nonzero;"/><path d="M115.695,77.582l-6.463,41.251l5.828,-0.777l1.096,-7.474l7.788,-1.038l1.097,7.181l6.405,-0.854l-6.462,-39.528l-9.289,1.239Zm4.326,6.577l3.057,20.019l-6.114,0.816l3.057,-20.835Z" style="fill:url(#_Linear6);fill-rule:nonzero;"/><path d="M148.813,73.166l0,24.177l-6.52,-23.308l-7.963,1.062l0,40.39l5.713,-0.762l0,-29.254l7.904,28.199l6.52,-0.868l0,-40.39l-5.654,0.754Z" style="fill:url(#_Linear7);fill-rule:nonzero;"/><path d="M167.969,70.151c-6.232,0.831 -9.463,4.954 -9.463,11.416l0,21.004c0,6.462 3.231,9.723 9.463,8.893c6.231,-0.831 9.462,-4.955 9.462,-11.417l0,-12.809l-8.885,1.185l0,5.769l2.884,-0.386l0,7.444c0,2.886 -1.269,4.095 -3.288,4.363c-2.018,0.27 -3.289,-0.601 -3.289,-3.485l0,-21.811c0,-2.885 1.271,-4.15 3.289,-4.42c2.019,-0.27 3.288,0.658 3.288,3.543l0,4.328l6.001,-0.8l0,-3.924c0,-5.799 -2.601,-9.021 -7.638,-9.021c-0.576,0.001 -1.185,0.043 -1.824,0.128Z" style="fill:url(#_Linear8);fill-rule:nonzero;"/><path d="M186.261,68.173l-6.463,41.251l5.829,-0.777l1.095,-7.473l7.789,-1.039l1.097,7.181l6.404,-0.853l-6.463,-39.529l-9.288,1.239Zm4.327,6.578l3.058,20.019l-6.115,0.815l3.057,-20.834Z" style="fill:url(#_Linear9);fill-rule:nonzero;"/><path d="M219.379,63.757l0,24.177l-6.518,-23.308l-7.964,1.062l0,40.391l5.713,-0.763l0,-29.254l7.905,28.201l6.52,-0.87l0,-40.39l-5.656,0.754Z" style="fill:url(#_Linear10);fill-rule:nonzero;"/><path d="M0,45.61l19.615,-2.615l0,5.771l-6.635,0.885l0,34.623l-6.346,0.846l0,-34.623l-6.634,0.884l0,-5.771Z" style="fill:#3fa988;fill-rule:nonzero;"/><path d="M26.252,69.693l6.115,-0.815l-3.057,-20.02l-3.058,20.835Zm14.48,10.88l-6.403,0.854l-1.097,-7.182l-7.788,1.038l-1.096,7.474l-5.826,0.778l6.46,-41.256l9.29,-1.238l6.46,39.532Z" style="fill:#3fa988;fill-rule:nonzero;"/><path d="M50.023,61.158l0,12.406l3.635,-0.485c2.134,-0.284 3.288,-1.418 3.288,-4.42l0,-3.519c0,-3.751 -1.211,-4.744 -4.096,-4.359l-2.827,0.377Zm0,-16.446l0,10.675l2.48,-0.331c2.366,-0.315 3.808,-1.546 3.808,-4.778l0,-2.25c0,-2.886 -0.98,-4.023 -3.23,-3.724l-3.058,0.408Zm12.634,1.835l0,1.443c0,4.155 -1.269,6.978 -4.096,8.683c3.404,0.873 4.732,3.754 4.732,8.024l0,3.29c0,6.232 -3.29,10.017 -9.635,10.863l-9.982,1.331l0,-40.394l9.577,-1.276c6.578,-0.877 9.404,1.804 9.404,8.036" style="fill:#3fa988;fill-rule:nonzero;"/><path d="M73.16,35.856l0,31.162c0,2.884 1.27,3.754 3.289,3.485c2.019,-0.269 3.288,-1.478 3.288,-4.362l0,-31.162l6,-0.8l0,30.758c0,6.462 -3.23,10.586 -9.462,11.417c-6.231,0.831 -9.46,-2.432 -9.46,-8.894l0,-30.758l6.345,-0.846Z" style="fill:#3fa988;fill-rule:nonzero;"/><path d="M95.721,43.985l0,29.257l-5.712,0.761l0,-40.394l7.962,-1.062l6.52,23.31l0,-24.179l5.652,-0.754l0,40.394l-6.518,0.87l-7.904,-28.203Z" style="fill:#3fa988;fill-rule:nonzero;"/><path d="M124.224,46.936l8.884,-1.185l0,12.811c0,6.463 -3.231,10.587 -9.461,11.417c-6.231,0.831 -9.461,-2.432 -9.461,-8.895l0,-21.004c0,-6.463 3.23,-10.586 9.461,-11.417c6.23,-0.831 9.461,2.432 9.461,8.895l0,3.923l-6,0.8l0,-4.328c0,-2.885 -1.269,-3.812 -3.288,-3.543c-2.019,0.269 -3.289,1.536 -3.289,4.42l0,21.814c0,2.885 1.27,3.754 3.289,3.485c2.019,-0.269 3.288,-1.477 3.288,-4.363l0,-7.444l-2.884,0.385l0,-5.771Z" style="fill:#3fa988;fill-rule:nonzero;"/><path d="M16.111,146.118l0,20.098l4.409,-0.588c2.968,-0.396 4.58,-1.968 4.58,-6.207l0,-8.904c0,-4.24 -1.612,-5.382 -4.58,-4.987l-4.409,0.588Zm18.317,3.749l0,7.716c0,9.497 -4.578,15.28 -13.908,16.524l-4.409,0.589l0,22.302l-9.33,1.244l0,-59.359l13.739,-1.832c9.33,-1.245 13.908,3.317 13.908,12.816" style="fill:#3fa988;fill-rule:nonzero;"/><path d="M48.505,141.799l0,20.098l4.411,-0.587c2.968,-0.397 4.578,-1.968 4.578,-6.208l0,-8.904c0,-4.24 -1.61,-5.382 -4.578,-4.986l-4.411,0.587Zm18.319,3.749l0,7.716c0,9.497 -4.581,15.281 -13.908,16.525l-4.411,0.588l0,22.302l-9.328,1.244l0,-59.359l13.739,-1.831c9.327,-1.245 13.908,3.316 13.908,12.815" style="fill:#3fa988;fill-rule:nonzero;"/><path d="M71.571,130.244l9.328,-1.244l0,59.359l-9.328,1.244l0,-59.359Z" style="fill:#3fa988;fill-rule:nonzero;"/><path d="M107.44,167.606l6.362,-42.992l12.974,-1.731l0,59.36l-8.819,1.176l0,-42.57l-6.445,43.429l-8.821,1.176l-6.953,-41.049l0,41.975l-8.141,1.086l0,-59.359l12.975,-1.73l6.868,41.229Z" style="fill:#3fa988;fill-rule:nonzero;"/><path d="M162.319,4.731c-0.05,0.031 -0.082,0.062 -0.092,0.093c-0.012,0.03 -0.002,0.07 0.028,0.118l0.594,0.959c0.149,-0.097 0.235,-0.185 0.258,-0.261c0.035,-0.122 -0.022,-0.302 -0.169,-0.539c-0.101,-0.163 -0.201,-0.282 -0.302,-0.359c-0.053,-0.039 -0.108,-0.059 -0.164,-0.059c-0.05,0 -0.101,0.016 -0.153,0.048Z" style="fill:url(#_Linear11);fill-rule:nonzero;"/><path d="M184.515,5.487l0.508,0.285l0.226,-0.987l-0.022,-0.013l-0.712,0.715Z" style="fill:url(#_Linear12);fill-rule:nonzero;"/><path d="M191.118,10.926l0.357,0.459l0.589,-0.823l-0.014,-0.02l-0.932,0.384Z" style="fill:url(#_Linear13);fill-rule:nonzero;"/><path d="M158.494,8.706l0.493,0.879l0.413,-0.41l-0.889,-0.487l-0.017,0.018Z" style="fill:url(#_Linear14);fill-rule:nonzero;"/><path d="M151.659,20.994c-0.123,0.028 -0.194,0.105 -0.213,0.233c-0.009,0.059 -0.006,0.103 0.01,0.131c0.016,0.028 0.053,0.047 0.108,0.056l1.116,0.166c0.023,-0.177 0.012,-0.298 -0.032,-0.365c-0.07,-0.105 -0.244,-0.179 -0.521,-0.22c-0.095,-0.015 -0.182,-0.022 -0.261,-0.022c-0.077,0 -0.146,0.007 -0.207,0.021Z" style="fill:url(#_Linear15);fill-rule:nonzero;"/><path d="M154.686,13.831l0.718,0.708l0.283,-0.509l-0.989,-0.221l-0.012,0.022Z" style="fill:url(#_Linear16);fill-rule:nonzero;"/><path d="M152.433,17.151c-0.025,0.074 -0.029,0.129 -0.011,0.161c0.018,0.033 0.058,0.06 0.118,0.081l1.01,0.347c0.06,-0.186 0.069,-0.331 0.028,-0.433c-0.043,-0.104 -0.189,-0.198 -0.439,-0.285c-0.154,-0.054 -0.281,-0.08 -0.381,-0.08c-0.169,0 -0.277,0.069 -0.325,0.209Z" style="fill:url(#_Linear17);fill-rule:nonzero;"/><path d="M177.317,3.169l0.575,0.091l-0.133,-1.004l-0.025,-0.005l-0.417,0.918Z" style="fill:url(#_Linear18);fill-rule:nonzero;"/><path d="M195.78,21.476l0.916,-0.433l-0.004,-0.024l-1.002,-0.118l0.09,0.575Z" style="fill:url(#_Linear19);fill-rule:nonzero;"/><path d="M193.434,14.4l0.264,0.519l0.736,-0.696l-0.011,-0.022l-0.989,0.199Z" style="fill:url(#_Linear20);fill-rule:nonzero;"/><path d="M158.32,39.499c-0.142,0.083 -0.309,0.213 -0.498,0.389c-0.193,0.18 -0.337,0.337 -0.431,0.474c-0.174,0.254 -0.199,0.448 -0.074,0.581c0.123,0.133 0.317,0.123 0.583,-0.032c0.145,-0.085 0.314,-0.216 0.504,-0.394c0.264,-0.246 0.437,-0.458 0.518,-0.639c0.083,-0.181 0.078,-0.32 -0.012,-0.416c-0.056,-0.061 -0.129,-0.092 -0.216,-0.092c-0.104,0 -0.228,0.043 -0.374,0.129Z" style="fill:url(#_Linear21);fill-rule:nonzero;"/><path d="M192.832,36.869l0.546,0.603l0.252,-0.399l-0.787,-0.221l-0.011,0.017Z" style="fill:url(#_Linear22);fill-rule:nonzero;"/><path d="M180.738,45.962l0.021,0.812l0.451,-0.138l-0.454,-0.68l-0.018,0.006Z" style="fill:url(#_Linear23);fill-rule:nonzero;"/><path d="M167.682,45.219c-0.026,0.015 -0.047,0.048 -0.063,0.097l-0.265,0.818c0.151,0.046 0.268,0.052 0.352,0.016c0.083,-0.035 0.157,-0.153 0.223,-0.357c0.04,-0.125 0.059,-0.227 0.058,-0.307c-0.003,-0.136 -0.061,-0.223 -0.174,-0.26c-0.035,-0.011 -0.064,-0.017 -0.088,-0.017c-0.018,0 -0.032,0.004 -0.043,0.01Z" style="fill:url(#_Linear24);fill-rule:nonzero;"/><path d="M176.16,46.164c-0.182,0.015 -0.296,0.177 -0.34,0.486c-0.022,0.164 -0.023,0.375 -0.002,0.633c0.02,0.263 0.055,0.472 0.104,0.632c0.09,0.293 0.227,0.433 0.409,0.419c0.181,-0.014 0.293,-0.174 0.337,-0.479c0.023,-0.165 0.024,-0.378 0.005,-0.64c-0.029,-0.358 -0.089,-0.626 -0.179,-0.802c-0.087,-0.167 -0.191,-0.25 -0.314,-0.25c-0.006,0 -0.013,0.001 -0.02,0.001Z" style="fill:url(#_Linear25);fill-rule:nonzero;"/><path d="M188.293,41.111c-0.138,0.118 -0.134,0.316 0.014,0.592c0.078,0.146 0.202,0.317 0.37,0.513c0.172,0.199 0.325,0.348 0.457,0.447c0.248,0.185 0.439,0.217 0.579,0.097c0.137,-0.118 0.133,-0.313 -0.011,-0.585c-0.078,-0.147 -0.204,-0.32 -0.374,-0.518c-0.235,-0.274 -0.441,-0.454 -0.619,-0.543c-0.09,-0.044 -0.169,-0.067 -0.239,-0.067c-0.069,0 -0.127,0.021 -0.177,0.064Z" style="fill:url(#_Linear26);fill-rule:nonzero;"/><path d="M170.953,47.39l0.467,0.064l-0.124,-0.807l-0.019,-0.002l-0.324,0.745Z" style="fill:url(#_Linear27);fill-rule:nonzero;"/><path d="M194.5,33.745l0.636,0.506l0.183,-0.434l-0.812,-0.09l-0.007,0.018Z" style="fill:url(#_Linear28);fill-rule:nonzero;"/><path d="M184.701,43.606c-0.161,0.089 -0.197,0.282 -0.108,0.583c0.046,0.158 0.132,0.351 0.257,0.577c0.128,0.231 0.246,0.408 0.355,0.532c0.205,0.231 0.387,0.303 0.547,0.214c0.158,-0.088 0.195,-0.279 0.109,-0.576c-0.047,-0.16 -0.134,-0.354 -0.26,-0.584c-0.174,-0.315 -0.339,-0.534 -0.495,-0.657c-0.101,-0.081 -0.195,-0.121 -0.28,-0.121c-0.044,0 -0.086,0.01 -0.125,0.032Z" style="fill:url(#_Linear29);fill-rule:nonzero;"/><path d="M196.078,28.023l-0.002,0.021l0.749,0.312l0.059,-0.467l-0.806,0.134Z" style="fill:url(#_Linear30);fill-rule:nonzero;"/><path d="M197.937,24.855l-0.363,0.353l0.205,1.167l-1.048,-0.551l-1.048,0.551l0.198,-1.167l-0.361,-0.353l-1.257,0c-0.048,10.902 -8.898,19.722 -19.811,19.722c-10.91,0 -19.76,-8.82 -19.812,-19.722l-0.501,0l-0.757,0l-0.362,0.353l0.204,1.167l-1.047,-0.551l-1.049,0.551l0.199,-1.167l-0.362,-0.353l-1.27,0c0.047,13.635 11.114,24.671 24.757,24.671c13.647,0 24.711,-11.036 24.762,-24.671l-1.277,0Zm-46.41,2.701l1.592,-0.228c0.091,-0.013 0.148,-0.037 0.172,-0.072c0.025,-0.035 0.036,-0.094 0.033,-0.175l0.084,-0.011l0.088,0.603l-1.483,0.693l0.003,0.02l1.617,0.246l0.086,0.603l-0.085,0.013c-0.02,-0.08 -0.05,-0.133 -0.087,-0.158c-0.037,-0.024 -0.12,-0.028 -0.249,-0.009l-1.482,0.213c-0.122,0.017 -0.2,0.043 -0.235,0.078c-0.034,0.035 -0.047,0.094 -0.04,0.175l-0.085,0.012l-0.114,-0.795l0.086,-0.012c0.013,0.071 0.037,0.122 0.072,0.153c0.036,0.032 0.104,0.04 0.206,0.026l1.635,-0.234l-0.002,-0.018l-2.053,-0.304l-0.009,-0.065l1.844,-0.869l0,-0.01l-1.515,0.217c-0.112,0.016 -0.191,0.042 -0.239,0.079c-0.047,0.037 -0.065,0.106 -0.056,0.209l-0.086,0.011l-0.079,-0.56l0.084,-0.012c0.015,0.092 0.045,0.147 0.093,0.168c0.031,0.013 0.069,0.02 0.115,0.02c0.027,0 0.057,-0.003 0.089,-0.007Zm45.951,1.322c0.002,-0.059 -0.03,-0.11 -0.092,-0.153c-0.04,-0.028 -0.129,-0.073 -0.271,-0.133l-1.77,-0.761l0.009,-0.067l1.829,-0.316c0.205,-0.036 0.339,-0.065 0.399,-0.088c0.061,-0.022 0.094,-0.061 0.099,-0.116l0.085,0.01l-0.095,0.778l-0.087,-0.011c0.006,-0.079 0.004,-0.131 -0.008,-0.158c-0.011,-0.026 -0.045,-0.043 -0.103,-0.05c-0.027,-0.004 -0.067,-0.002 -0.123,0.004c-0.032,0.004 -0.072,0.01 -0.118,0.017l-0.211,0.037l-0.068,0.538l0.438,0.156c0.048,0.005 0.086,-0.014 0.113,-0.056c0.016,-0.027 0.028,-0.067 0.035,-0.121l0.086,0.01l-0.061,0.49l-0.086,-0.01Zm-2.379,0.702l0.16,-0.83l0.084,0.016c-0.01,0.075 -0.008,0.128 0.006,0.16c0.025,0.053 0.086,0.089 0.185,0.107l1.609,0.31c0.093,0.018 0.159,0.011 0.196,-0.02c0.039,-0.031 0.066,-0.083 0.08,-0.158l0.084,0.017l-0.16,0.83l-0.084,-0.016c0.011,-0.068 0.009,-0.118 -0.007,-0.152c-0.024,-0.054 -0.086,-0.091 -0.185,-0.11l-1.609,-0.31c-0.097,-0.019 -0.166,-0.008 -0.209,0.031c-0.026,0.024 -0.047,0.071 -0.066,0.141l-0.084,-0.016Zm-43.09,1.553c-0.176,-0.059 -0.289,-0.191 -0.339,-0.398c-0.066,-0.271 0.001,-0.483 0.202,-0.638c0.108,-0.082 0.257,-0.145 0.445,-0.192l1.1,-0.269c0.124,-0.031 0.198,-0.062 0.224,-0.093c0.027,-0.031 0.037,-0.088 0.028,-0.174l0.084,-0.021l0.195,0.794l-0.084,0.021c-0.027,-0.09 -0.061,-0.146 -0.104,-0.168c-0.042,-0.022 -0.126,-0.017 -0.252,0.013l-1.1,0.27c-0.168,0.041 -0.294,0.087 -0.377,0.137c-0.157,0.093 -0.218,0.211 -0.182,0.356c0.044,0.181 0.168,0.28 0.37,0.298c0.111,0.01 0.26,-0.008 0.445,-0.053l1.005,-0.246c0.118,-0.029 0.195,-0.064 0.232,-0.107c0.037,-0.041 0.048,-0.108 0.037,-0.201l0.082,-0.02l0.127,0.516l-0.083,0.02c-0.039,-0.07 -0.076,-0.113 -0.112,-0.129c-0.035,-0.017 -0.105,-0.014 -0.21,0.012l-1.051,0.258c-0.15,0.037 -0.285,0.055 -0.406,0.055c-0.103,0 -0.195,-0.014 -0.276,-0.041Zm43.371,-0.099c-0.16,-0.04 -0.3,-0.119 -0.418,-0.235c-0.118,-0.115 -0.157,-0.256 -0.114,-0.423c0.022,-0.084 0.06,-0.163 0.116,-0.232c0.057,-0.07 0.087,-0.111 0.089,-0.121c0.007,-0.026 0,-0.046 -0.018,-0.062c-0.018,-0.015 -0.044,-0.029 -0.076,-0.045l0.018,-0.069l0.713,0.181l-0.016,0.065c-0.173,-0.012 -0.329,0.006 -0.469,0.053c-0.138,0.047 -0.222,0.126 -0.25,0.237c-0.019,0.077 -0.005,0.146 0.044,0.206c0.049,0.061 0.116,0.101 0.204,0.124c0.103,0.026 0.185,0.024 0.247,-0.005c0.063,-0.028 0.164,-0.102 0.302,-0.22l0.165,-0.142c0.075,-0.064 0.151,-0.11 0.228,-0.14c0.146,-0.054 0.307,-0.059 0.484,-0.014c0.165,0.042 0.31,0.128 0.433,0.256c0.123,0.13 0.159,0.296 0.108,0.498c-0.012,0.047 -0.03,0.093 -0.055,0.137c-0.024,0.045 -0.054,0.087 -0.093,0.127l-0.035,0.038l-0.027,0.052c-0.007,0.025 -0.001,0.043 0.016,0.057c0.018,0.015 0.044,0.029 0.078,0.045l-0.016,0.068l-0.812,-0.205l0.016,-0.069c0.256,0.025 0.448,0.01 0.581,-0.045c0.133,-0.055 0.211,-0.136 0.239,-0.244c0.026,-0.103 0.006,-0.188 -0.057,-0.251c-0.066,-0.064 -0.141,-0.106 -0.226,-0.128c-0.098,-0.024 -0.184,-0.021 -0.257,0.009c-0.048,0.02 -0.116,0.068 -0.205,0.144l-0.144,0.123c-0.142,0.121 -0.272,0.201 -0.391,0.236c-0.056,0.016 -0.116,0.024 -0.18,0.024c-0.07,0 -0.144,-0.01 -0.222,-0.03Zm-0.816,0.542l0.169,-0.503l0.081,0.027c-0.003,0.039 -0.001,0.073 0.003,0.099c0.011,0.034 0.034,0.067 0.068,0.1l0.85,0.773l0.591,0.198c0.121,0.04 0.205,0.052 0.249,0.034c0.045,-0.018 0.084,-0.066 0.114,-0.147l0.081,0.027l-0.267,0.795l-0.082,-0.028c0.026,-0.085 0.025,-0.149 -0.003,-0.19c-0.029,-0.04 -0.101,-0.08 -0.217,-0.119l-0.472,-0.159l-1.205,0.061c-0.079,0.004 -0.139,0.021 -0.182,0.052c-0.026,0.021 -0.045,0.045 -0.055,0.073l-0.082,-0.028l0.258,-0.767l0.083,0.028c-0.021,0.081 -0.03,0.135 -0.027,0.16l0.103,0.066c0.019,0.002 0.054,0.002 0.104,0.002l0.872,-0.046l-0.481,-0.436l-0.266,-0.188c-0.056,-0.019 -0.098,-0.015 -0.128,0.011c-0.021,0.017 -0.046,0.062 -0.078,0.133l-0.081,-0.028Zm-41.856,0.932c0.097,-0.031 0.168,-0.079 0.214,-0.144l0.152,-0.413c0.055,-0.179 0.123,-0.315 0.204,-0.407c0.081,-0.092 0.195,-0.163 0.343,-0.212c0.156,-0.051 0.316,-0.059 0.478,-0.025c0.162,0.034 0.27,0.133 0.323,0.297c0.028,0.083 0.037,0.169 0.026,0.258c-0.01,0.089 -0.014,0.14 -0.01,0.151c0.007,0.025 0.024,0.038 0.048,0.042c0.023,0.002 0.053,0.002 0.088,-0.004l0.022,0.069l-0.699,0.229l-0.021,-0.064c0.152,-0.083 0.274,-0.182 0.367,-0.296c0.092,-0.114 0.12,-0.225 0.084,-0.333c-0.024,-0.076 -0.073,-0.127 -0.147,-0.151c-0.073,-0.025 -0.153,-0.023 -0.237,0.004c-0.102,0.033 -0.171,0.079 -0.208,0.136c-0.038,0.059 -0.084,0.174 -0.136,0.349l-0.064,0.208c-0.028,0.093 -0.068,0.173 -0.118,0.239c-0.094,0.124 -0.227,0.214 -0.401,0.271c-0.162,0.054 -0.33,0.058 -0.503,0.015c-0.174,-0.043 -0.293,-0.164 -0.358,-0.362c-0.015,-0.046 -0.024,-0.094 -0.026,-0.145c-0.005,-0.05 0,-0.102 0.009,-0.156l0.009,-0.052c0.001,-0.012 0.002,-0.023 0.001,-0.033l-0.049,-0.065c-0.023,-0.002 -0.053,-0.001 -0.09,0.004l-0.023,-0.067l0.797,-0.26l0.021,0.066c-0.228,0.115 -0.383,0.231 -0.465,0.349c-0.082,0.117 -0.106,0.229 -0.072,0.334c0.034,0.102 0.095,0.163 0.184,0.181c0.036,0.008 0.072,0.012 0.108,0.012c0.051,0 0.101,-0.008 0.149,-0.025Zm0.182,0.838l1.515,-0.623c0.091,-0.036 0.143,-0.083 0.158,-0.138c0.008,-0.032 0.002,-0.082 -0.02,-0.149l0.08,-0.033l0.322,0.782l-0.08,0.033c-0.042,-0.09 -0.084,-0.144 -0.128,-0.161c-0.043,-0.017 -0.127,0 -0.251,0.051l-1.479,0.607c-0.069,0.029 -0.109,0.061 -0.121,0.096c-0.011,0.035 -0.003,0.09 0.028,0.164c0.056,0.135 0.144,0.232 0.264,0.289c0.122,0.057 0.314,0.07 0.582,0.037l0.027,0.065l-0.746,0.201l-0.532,-1.295l0.08,-0.033c0.028,0.061 0.057,0.099 0.087,0.117c0.023,0.014 0.05,0.021 0.082,0.021c0.038,0 0.082,-0.01 0.132,-0.031Zm42.731,1.584c0.018,-0.056 0.002,-0.113 -0.047,-0.172c-0.03,-0.038 -0.105,-0.105 -0.223,-0.201l-1.497,-1.215l0.028,-0.062l1.846,0.194c0.207,0.022 0.342,0.03 0.407,0.025c0.066,-0.005 0.107,-0.033 0.127,-0.085l0.079,0.033l-0.305,0.722l-0.078,-0.034c0.026,-0.074 0.038,-0.125 0.034,-0.154c-0.004,-0.028 -0.032,-0.054 -0.086,-0.077l-0.238,-0.045l-0.212,-0.023l-0.21,0.5l0.376,0.269c0.045,0.018 0.086,0.011 0.125,-0.023c0.022,-0.021 0.044,-0.056 0.067,-0.107l0.079,0.034l-0.193,0.455l-0.079,-0.034Zm-42.02,0.061l1.473,-0.719c0.089,-0.043 0.138,-0.093 0.149,-0.15c0.006,-0.034 -0.005,-0.085 -0.033,-0.152l0.078,-0.038l0.37,0.76l-0.077,0.039c-0.037,-0.067 -0.072,-0.108 -0.101,-0.126c-0.052,-0.027 -0.122,-0.018 -0.213,0.026l-1.471,0.718c-0.085,0.041 -0.134,0.085 -0.147,0.134c-0.012,0.048 -0.001,0.105 0.032,0.174l-0.078,0.037l-0.37,-0.76l0.078,-0.038c0.032,0.061 0.063,0.1 0.095,0.118c0.021,0.011 0.045,0.017 0.072,0.017c0.041,0 0.089,-0.014 0.143,-0.04Zm39.231,0.544l0.393,-0.749l0.076,0.041c-0.041,0.089 -0.056,0.156 -0.04,0.2c0.015,0.045 0.081,0.099 0.199,0.16l1.416,0.741c0.067,0.036 0.118,0.046 0.152,0.032c0.035,-0.013 0.07,-0.056 0.108,-0.128c0.068,-0.129 0.084,-0.258 0.05,-0.387c-0.034,-0.129 -0.149,-0.285 -0.346,-0.47l0.033,-0.063l0.634,0.443l-0.649,1.24l-0.077,-0.039c0.028,-0.061 0.04,-0.108 0.034,-0.142c-0.009,-0.06 -0.058,-0.112 -0.146,-0.158l-1.451,-0.76c-0.087,-0.045 -0.156,-0.055 -0.207,-0.031c-0.031,0.014 -0.066,0.051 -0.102,0.111l-0.077,-0.041Zm-38.709,0.453l1.384,-0.816c0.08,-0.046 0.125,-0.09 0.133,-0.133c0.009,-0.042 -0.003,-0.1 -0.036,-0.173l0.073,-0.044l0.31,0.525l-1.108,1.205l0.011,0.017l1.589,-0.387l0.31,0.526l-0.075,0.043c-0.048,-0.066 -0.095,-0.103 -0.139,-0.112c-0.044,-0.009 -0.123,0.02 -0.235,0.086l-1.289,0.76c-0.107,0.063 -0.17,0.117 -0.187,0.162c-0.019,0.045 -0.008,0.105 0.029,0.178l-0.074,0.043l-0.408,-0.692l0.075,-0.043c0.038,0.06 0.081,0.098 0.125,0.113c0.045,0.016 0.111,-0.002 0.199,-0.054l1.424,-0.839l-0.009,-0.015l-2.014,0.499l-0.033,-0.056l1.375,-1.505l-0.006,-0.01l-1.316,0.777c-0.098,0.056 -0.161,0.111 -0.191,0.164c-0.029,0.052 -0.021,0.124 0.026,0.215l-0.073,0.043l-0.288,-0.487l0.074,-0.043c0.048,0.078 0.098,0.118 0.15,0.119l0.194,-0.066Zm39.623,2.234c0.026,-0.053 0.02,-0.112 -0.019,-0.179c-0.025,-0.042 -0.087,-0.12 -0.188,-0.234l-1.277,-1.444l0.036,-0.057l1.791,0.494c0.2,0.056 0.333,0.086 0.397,0.092c0.065,0.006 0.112,-0.016 0.14,-0.064l0.072,0.046l-0.419,0.662l-0.073,-0.046c0.039,-0.069 0.059,-0.117 0.06,-0.146c0.001,-0.029 -0.023,-0.059 -0.072,-0.09l-0.227,-0.084l-0.206,-0.057l-0.29,0.459c0.095,0.102 0.157,0.168 0.185,0.199c0.063,0.063 0.11,0.107 0.144,0.128c0.04,0.026 0.082,0.025 0.127,-0.002c0.025,-0.018 0.052,-0.049 0.082,-0.095l0.072,0.046l-0.263,0.418l-0.072,-0.046Zm-1.349,0.747l-0.946,-1.335l0.375,-0.481l0.068,0.053c-0.044,0.07 -0.062,0.127 -0.054,0.171c0.009,0.044 0.063,0.106 0.167,0.186l1.181,0.919c0.099,0.076 0.171,0.114 0.221,0.114c0.048,0 0.099,-0.031 0.153,-0.093l0.068,0.053l-0.493,0.634l-0.067,-0.052c0.041,-0.06 0.06,-0.113 0.058,-0.159c-0.001,-0.047 -0.043,-0.102 -0.123,-0.165l-1.305,-1.014l-0.011,0.013l1.206,1.688l-0.04,0.052l-1.906,-0.724l-0.006,0.008l1.207,0.939c0.089,0.069 0.163,0.108 0.222,0.116c0.06,0.009 0.124,-0.025 0.191,-0.103l0.067,0.053l-0.348,0.446l-0.066,-0.052c0.054,-0.074 0.073,-0.135 0.054,-0.185c-0.017,-0.048 -0.062,-0.1 -0.132,-0.155l-1.268,-0.987c-0.073,-0.057 -0.13,-0.081 -0.173,-0.074c-0.041,0.008 -0.091,0.04 -0.146,0.098l-0.068,-0.053l0.374,-0.481l1.527,0.586l0.013,-0.016Zm-36.037,0.788c-0.172,-0.028 -0.306,-0.103 -0.401,-0.227c-0.148,-0.189 -0.191,-0.407 -0.134,-0.656c0.063,-0.275 0.241,-0.527 0.534,-0.755c0.29,-0.226 0.577,-0.342 0.862,-0.346c0.266,-0.006 0.471,0.084 0.616,0.268c0.061,0.08 0.103,0.176 0.125,0.29c0.023,0.113 0.037,0.174 0.045,0.184c0.018,0.023 0.046,0.033 0.084,0.027c0.037,-0.005 0.071,-0.017 0.104,-0.036l0.041,0.053l-0.625,0.486l-0.037,-0.048c0.1,-0.152 0.171,-0.282 0.21,-0.39c0.076,-0.202 0.069,-0.359 -0.019,-0.472c-0.1,-0.128 -0.247,-0.159 -0.443,-0.093c-0.197,0.067 -0.424,0.201 -0.684,0.404c-0.19,0.148 -0.336,0.287 -0.434,0.415c-0.186,0.238 -0.215,0.438 -0.091,0.598c0.076,0.098 0.185,0.159 0.328,0.185c0.081,0.013 0.197,0.015 0.345,0.005l-0.021,0.108c-0.087,0.008 -0.164,0.011 -0.232,0.011c-0.067,0 -0.125,-0.003 -0.173,-0.011Zm0.873,1.265c-0.176,-0.189 -0.231,-0.426 -0.165,-0.71c0.063,-0.265 0.211,-0.507 0.448,-0.726c0.258,-0.241 0.527,-0.382 0.802,-0.42c0.278,-0.04 0.504,0.034 0.677,0.219c0.165,0.179 0.223,0.402 0.172,0.671c-0.052,0.274 -0.208,0.533 -0.469,0.776c-0.261,0.242 -0.53,0.378 -0.809,0.41c-0.041,0.005 -0.08,0.007 -0.118,0.007c-0.217,0 -0.397,-0.076 -0.538,-0.227Zm31.784,-0.633l0.964,-0.976l0.485,0.479l-0.041,0.042c-0.17,-0.126 -0.311,-0.193 -0.421,-0.203c-0.11,-0.008 -0.231,0.055 -0.365,0.191c-0.05,0.05 -0.073,0.09 -0.071,0.119c0.002,0.03 0.025,0.067 0.069,0.109l0.557,0.551c0.095,-0.091 0.129,-0.18 0.105,-0.27c-0.026,-0.089 -0.092,-0.204 -0.201,-0.345l0.043,-0.044l0.813,0.804l-0.043,0.044c-0.142,-0.117 -0.261,-0.187 -0.355,-0.21c-0.094,-0.024 -0.187,0.011 -0.278,0.103l0.561,0.554c0.073,0.073 0.136,0.105 0.187,0.093c0.05,-0.012 0.106,-0.049 0.168,-0.115l0.06,0.061l-0.611,0.618l-0.061,-0.06c0.046,-0.051 0.072,-0.096 0.076,-0.132c0.005,-0.057 -0.025,-0.12 -0.094,-0.187l-1.165,-1.151c-0.069,-0.069 -0.131,-0.099 -0.187,-0.092c-0.034,0.004 -0.078,0.029 -0.134,0.076l-0.061,-0.059Zm-30.661,1.464c0.049,-0.015 0.103,-0.056 0.161,-0.12l1.074,-1.189c0.023,-0.134 0.035,-0.215 0.036,-0.242c0.001,-0.027 -0.008,-0.053 -0.027,-0.077l0.057,-0.064l0.381,0.344l-0.33,1.606l0.009,0.008l0.666,-0.737c0.075,-0.085 0.119,-0.156 0.13,-0.212c0.011,-0.057 -0.013,-0.119 -0.073,-0.185l0.058,-0.064l0.385,0.348l-0.058,0.064c-0.068,-0.038 -0.12,-0.054 -0.16,-0.05c-0.039,0.005 -0.092,0.045 -0.161,0.122l-1.336,1.479l-0.051,-0.045l0.423,-2.055l-0.012,-0.011l-0.889,0.984c-0.069,0.076 -0.111,0.138 -0.125,0.183c-0.022,0.074 0.001,0.147 0.071,0.217l-0.057,0.064l-0.406,-0.367l0.057,-0.064c0.054,0.045 0.102,0.068 0.144,0.068c0.011,0 0.022,-0.001 0.033,-0.005Zm30.717,1.131c-0.263,-0.072 -0.5,-0.231 -0.709,-0.475c-0.232,-0.268 -0.361,-0.541 -0.389,-0.817c-0.029,-0.28 0.053,-0.503 0.245,-0.668c0.185,-0.159 0.41,-0.208 0.675,-0.146c0.273,0.063 0.526,0.229 0.757,0.498c0.233,0.27 0.36,0.545 0.38,0.824c0.021,0.272 -0.06,0.488 -0.245,0.647c-0.134,0.115 -0.289,0.173 -0.463,0.173c-0.08,0 -0.163,-0.012 -0.251,-0.036Zm-28.721,0.53c0.084,-0.035 0.153,-0.086 0.206,-0.154c0.062,-0.08 0.095,-0.161 0.096,-0.24c0.001,-0.052 -0.016,-0.134 -0.05,-0.246l-0.055,-0.18c-0.055,-0.179 -0.074,-0.33 -0.058,-0.452c0.014,-0.122 0.07,-0.245 0.164,-0.367c0.102,-0.131 0.23,-0.227 0.384,-0.289c0.153,-0.062 0.298,-0.041 0.433,0.065c0.07,0.054 0.125,0.119 0.166,0.199c0.042,0.08 0.068,0.124 0.077,0.131c0.019,0.016 0.041,0.019 0.062,0.007c0.021,-0.01 0.046,-0.027 0.072,-0.051l0.056,0.044l-0.451,0.581l-0.054,-0.041c0.08,-0.154 0.126,-0.304 0.139,-0.45c0.014,-0.147 -0.025,-0.255 -0.116,-0.324c-0.063,-0.05 -0.131,-0.064 -0.207,-0.043c-0.075,0.02 -0.14,0.066 -0.194,0.137c-0.065,0.084 -0.098,0.161 -0.096,0.229c0.001,0.069 0.028,0.191 0.082,0.364l0.064,0.209c0.028,0.094 0.04,0.181 0.036,0.265c-0.009,0.154 -0.068,0.304 -0.181,0.448c-0.104,0.135 -0.24,0.233 -0.409,0.294c-0.167,0.062 -0.333,0.028 -0.498,-0.1c-0.038,-0.029 -0.072,-0.064 -0.104,-0.105c-0.031,-0.039 -0.057,-0.085 -0.079,-0.135l-0.022,-0.048l-0.095,-0.054c-0.02,0.01 -0.044,0.028 -0.072,0.054l-0.055,-0.043l0.513,-0.661l0.055,0.042c-0.125,0.223 -0.188,0.407 -0.191,0.55c-0.001,0.143 0.04,0.248 0.128,0.317c0.056,0.044 0.112,0.065 0.167,0.065c0.029,0 0.058,-0.006 0.087,-0.018Zm26.147,-1.093l0.431,-0.29l0.048,0.072c-0.053,0.057 -0.082,0.105 -0.087,0.143c-0.005,0.038 0.022,0.101 0.079,0.186l1.111,1.655l-0.056,0.038l-1.891,-0.908l-0.013,0.009l0.739,1.1c0.057,0.087 0.107,0.142 0.148,0.167c0.066,0.039 0.141,0.034 0.228,-0.017l0.047,0.072l-0.455,0.305l-0.047,-0.072c0.071,-0.052 0.107,-0.105 0.103,-0.156c-0.003,-0.052 -0.028,-0.114 -0.077,-0.186l-0.892,-1.33c-0.126,-0.055 -0.203,-0.086 -0.228,-0.092c-0.026,-0.007 -0.053,-0.006 -0.08,0.006l-0.049,-0.07l0.426,-0.286l1.477,0.71l0.011,-0.007l-0.555,-0.825c-0.063,-0.095 -0.12,-0.155 -0.173,-0.179c-0.053,-0.024 -0.117,-0.015 -0.198,0.026l-0.047,-0.071Zm-25.009,2.21c-0.232,-0.153 -0.325,-0.355 -0.283,-0.605c0.022,-0.133 0.088,-0.28 0.197,-0.443l0.625,-0.944c0.07,-0.106 0.104,-0.179 0.102,-0.22c-0.001,-0.04 -0.034,-0.09 -0.098,-0.146l0.049,-0.072l0.68,0.45l-0.047,0.072c-0.081,-0.048 -0.145,-0.065 -0.19,-0.053c-0.046,0.013 -0.105,0.073 -0.176,0.181l-0.627,0.944c-0.095,0.144 -0.155,0.263 -0.184,0.357c-0.051,0.174 -0.015,0.303 0.109,0.386c0.155,0.102 0.313,0.091 0.474,-0.033c0.089,-0.069 0.186,-0.182 0.291,-0.342l0.572,-0.862c0.066,-0.101 0.099,-0.179 0.098,-0.235c-0.001,-0.055 -0.039,-0.113 -0.11,-0.173l0.047,-0.071l0.443,0.294l-0.047,0.071c-0.076,-0.025 -0.133,-0.032 -0.17,-0.02c-0.037,0.011 -0.087,0.062 -0.147,0.153l-0.597,0.902c-0.159,0.239 -0.323,0.397 -0.492,0.472c-0.066,0.03 -0.132,0.045 -0.199,0.045c-0.105,0 -0.211,-0.036 -0.32,-0.108Zm1.215,0.517c0.046,-0.026 0.09,-0.079 0.131,-0.158l0.755,-1.419c0.043,-0.08 0.057,-0.141 0.043,-0.182c-0.014,-0.04 -0.055,-0.082 -0.122,-0.128l0.041,-0.076l0.538,0.286l-0.315,1.606l0.018,0.009l1.153,-1.16l0.538,0.286l-0.04,0.076c-0.077,-0.031 -0.136,-0.038 -0.178,-0.023c-0.043,0.015 -0.094,0.081 -0.155,0.195l-0.703,1.322c-0.058,0.109 -0.083,0.189 -0.075,0.237c0.009,0.048 0.048,0.093 0.118,0.135l-0.04,0.076l-0.709,-0.376l0.04,-0.076c0.065,0.031 0.121,0.041 0.167,0.031c0.046,-0.01 0.093,-0.06 0.141,-0.151l0.776,-1.459l-0.016,-0.009l-1.456,1.478l-0.057,-0.03l0.385,-2.002l-0.009,-0.004l-0.717,1.35c-0.054,0.099 -0.079,0.179 -0.078,0.239c0.002,0.059 0.047,0.116 0.136,0.169l-0.041,0.076l-0.499,-0.266l0.04,-0.075c0.05,0.026 0.094,0.039 0.13,0.039c0.023,0 0.043,-0.006 0.06,-0.016Zm22.374,0.452c-0.242,-0.125 -0.441,-0.329 -0.596,-0.61c-0.171,-0.311 -0.242,-0.604 -0.213,-0.881c0.029,-0.279 0.154,-0.48 0.376,-0.603c0.214,-0.117 0.444,-0.119 0.693,-0.004c0.254,0.117 0.467,0.332 0.638,0.643c0.172,0.311 0.239,0.606 0.203,0.883c-0.035,0.271 -0.159,0.466 -0.373,0.583c-0.11,0.061 -0.223,0.091 -0.341,0.091c-0.124,0 -0.253,-0.034 -0.387,-0.102Zm-2.097,-1.21l0.768,-0.356l0.036,0.078c-0.067,0.036 -0.109,0.068 -0.127,0.098c-0.028,0.051 -0.021,0.122 0.022,0.214l0.689,1.484c0.041,0.086 0.085,0.136 0.133,0.149c0.047,0.013 0.105,0.004 0.174,-0.028l0.035,0.078l-0.766,0.356l-0.036,-0.078c0.061,-0.031 0.101,-0.062 0.118,-0.094c0.031,-0.052 0.025,-0.124 -0.018,-0.214l-0.69,-1.486c-0.042,-0.09 -0.091,-0.141 -0.148,-0.152c-0.034,-0.007 -0.085,0.003 -0.152,0.029l-0.038,-0.078Zm-18.079,1.911c0.056,-0.016 0.102,-0.068 0.14,-0.158l0.629,-1.512c0.039,-0.09 0.042,-0.161 0.013,-0.21c-0.017,-0.029 -0.056,-0.06 -0.119,-0.092l0.033,-0.079l1.286,0.536l-0.263,0.63l-0.055,-0.023c0.056,-0.213 0.066,-0.371 0.029,-0.474c-0.037,-0.102 -0.146,-0.19 -0.325,-0.265c-0.068,-0.029 -0.115,-0.037 -0.143,-0.025c-0.026,0.012 -0.052,0.047 -0.077,0.107l-0.301,0.722c0.126,0.055 0.226,0.058 0.299,0.011c0.073,-0.048 0.157,-0.155 0.256,-0.322l0.056,0.024l-0.44,1.054l-0.056,-0.023c0.058,-0.185 0.078,-0.323 0.059,-0.417c-0.018,-0.092 -0.092,-0.166 -0.219,-0.218l-0.315,0.755c-0.028,0.066 -0.034,0.117 -0.02,0.151c0.015,0.034 0.059,0.066 0.135,0.098c0.143,0.059 0.275,0.069 0.397,0.029c0.123,-0.04 0.262,-0.151 0.422,-0.334l0.062,0.025l-0.362,0.612l-1.305,-0.544l0.033,-0.079c0.047,0.017 0.086,0.025 0.117,0.025c0.013,0 0.024,-0.001 0.034,-0.004Zm16.559,-1.302l1.357,-0.529l0.25,0.635l-0.066,0.025c-0.109,-0.219 -0.23,-0.349 -0.362,-0.39c-0.074,-0.022 -0.168,-0.014 -0.281,0.026l0.647,1.66c0.045,0.116 0.089,0.187 0.133,0.214c0.044,0.026 0.113,0.023 0.203,-0.014l0.031,0.08l-0.802,0.313l-0.031,-0.079c0.087,-0.034 0.138,-0.077 0.153,-0.127c0.013,-0.049 -0.002,-0.132 -0.047,-0.247l-0.646,-1.659c-0.11,0.047 -0.184,0.103 -0.226,0.171c-0.075,0.124 -0.077,0.301 -0.002,0.532l-0.066,0.026l-0.245,-0.637Zm-14.837,1.967c0.04,-0.026 0.079,-0.099 0.119,-0.219l0.461,-1.423c0.039,-0.124 0.048,-0.21 0.027,-0.259c-0.014,-0.032 -0.059,-0.066 -0.135,-0.101l0.027,-0.081l0.739,0.24c0.154,0.049 0.271,0.112 0.352,0.188c0.154,0.151 0.194,0.345 0.117,0.581c-0.057,0.175 -0.15,0.297 -0.279,0.367c-0.098,0.051 -0.191,0.074 -0.281,0.068l0.192,1.075l0.073,0.094l-0.025,0.077l-0.481,-0.155l-0.209,-1.179l-0.002,-0.001l-0.204,0.631c-0.037,0.112 -0.047,0.192 -0.034,0.241c0.015,0.048 0.062,0.087 0.141,0.117l-0.026,0.082l-0.778,-0.251l0.027,-0.082c0.034,0.008 0.064,0.013 0.091,0.013c0.036,0 0.065,-0.008 0.088,-0.023Zm13.925,0.617c0.055,-0.022 0.088,-0.072 0.102,-0.147c0.009,-0.048 0.012,-0.148 0.01,-0.301l-0.029,-1.927l0.064,-0.019l1.037,1.539c0.117,0.173 0.198,0.282 0.244,0.329c0.045,0.047 0.094,0.06 0.145,0.042l0.026,0.082l-0.748,0.231l-0.026,-0.082c0.075,-0.028 0.122,-0.053 0.141,-0.073c0.019,-0.021 0.02,-0.06 0.003,-0.116l-0.117,-0.21l-0.12,-0.177l-0.519,0.159l0.037,0.462c0.014,0.046 0.047,0.073 0.098,0.081c0.03,0.002 0.071,-0.003 0.124,-0.018l0.026,0.082l-0.472,0.144l-0.026,-0.081Zm-11.414,0.076c0.063,-0.066 0.104,-0.141 0.125,-0.226c0.024,-0.098 0.021,-0.184 -0.011,-0.257c-0.02,-0.048 -0.069,-0.116 -0.146,-0.204l-0.124,-0.143c-0.123,-0.14 -0.203,-0.27 -0.239,-0.388c-0.036,-0.117 -0.036,-0.252 0.001,-0.402c0.038,-0.16 0.115,-0.301 0.229,-0.42c0.116,-0.12 0.256,-0.16 0.423,-0.119c0.085,0.021 0.163,0.058 0.233,0.114c0.071,0.056 0.112,0.085 0.123,0.088c0.026,0.006 0.046,0 0.061,-0.018c0.014,-0.019 0.029,-0.045 0.043,-0.077l0.07,0.016l-0.173,0.716l-0.065,-0.016c0.009,-0.173 -0.011,-0.329 -0.059,-0.468c-0.048,-0.138 -0.127,-0.22 -0.238,-0.247c-0.078,-0.019 -0.147,-0.005 -0.207,0.046c-0.06,0.049 -0.101,0.117 -0.121,0.204c-0.026,0.104 -0.023,0.186 0.007,0.249c0.029,0.062 0.103,0.161 0.224,0.298l0.144,0.165c0.064,0.073 0.11,0.148 0.141,0.226c0.055,0.145 0.062,0.306 0.019,0.483c-0.04,0.166 -0.124,0.311 -0.252,0.436c-0.128,0.125 -0.293,0.162 -0.496,0.113c-0.047,-0.011 -0.093,-0.029 -0.138,-0.053c-0.045,-0.024 -0.088,-0.054 -0.128,-0.091l-0.038,-0.035l-0.052,-0.028c-0.025,-0.005 -0.044,0 -0.057,0.018c-0.014,0.017 -0.029,0.043 -0.045,0.078l-0.068,-0.016l0.198,-0.814l0.067,0.017c-0.022,0.255 -0.005,0.447 0.052,0.58c0.057,0.131 0.139,0.209 0.246,0.236c0.029,0.007 0.056,0.011 0.082,0.011c0.067,0 0.124,-0.024 0.169,-0.072Zm9.797,-1.958l0.823,-0.195l0.02,0.084c-0.073,0.021 -0.12,0.045 -0.144,0.071c-0.038,0.043 -0.046,0.114 -0.022,0.212l0.376,1.594c0.022,0.093 0.055,0.15 0.099,0.172c0.045,0.023 0.103,0.025 0.176,0.007l0.02,0.085l-0.823,0.194l-0.019,-0.083c0.066,-0.018 0.111,-0.041 0.135,-0.069c0.04,-0.045 0.049,-0.117 0.025,-0.214l-0.377,-1.594c-0.022,-0.097 -0.061,-0.156 -0.113,-0.179c-0.033,-0.013 -0.086,-0.014 -0.157,-0.002l-0.019,-0.083Zm-0.392,0.199c0.031,-0.006 0.052,-0.026 0.065,-0.062c0.012,-0.035 0.019,-0.071 0.017,-0.108l0.066,-0.011l0.131,0.78l-0.061,0.011c-0.086,-0.16 -0.167,-0.284 -0.242,-0.372c-0.143,-0.161 -0.284,-0.23 -0.425,-0.207c-0.16,0.027 -0.257,0.142 -0.292,0.346c-0.034,0.204 -0.025,0.469 0.029,0.793c0.041,0.239 0.094,0.432 0.159,0.58c0.122,0.276 0.283,0.398 0.483,0.364c0.122,-0.02 0.228,-0.087 0.317,-0.2c0.052,-0.066 0.109,-0.167 0.171,-0.302l0.084,0.07c-0.069,0.161 -0.133,0.28 -0.193,0.357c-0.106,0.138 -0.236,0.219 -0.39,0.245c-0.235,0.039 -0.449,-0.026 -0.64,-0.195c-0.213,-0.186 -0.35,-0.462 -0.411,-0.828c-0.061,-0.363 -0.025,-0.671 0.105,-0.924c0.123,-0.237 0.3,-0.375 0.529,-0.413c0.1,-0.016 0.205,-0.008 0.314,0.027c0.106,0.032 0.166,0.049 0.182,0.049l0.002,0Zm-7.962,2.045c0.028,-0.039 0.073,-0.128 0.136,-0.268l0.783,-1.76l0.067,0.008l0.293,1.834c0.033,0.206 0.061,0.339 0.082,0.4c0.021,0.062 0.061,0.095 0.115,0.1l-0.012,0.086l-0.775,-0.107l0.012,-0.085c0.078,0.006 0.13,0.004 0.157,-0.007c0.026,-0.011 0.044,-0.045 0.052,-0.103c0.003,-0.026 0.002,-0.066 -0.002,-0.122c-0.004,-0.032 -0.009,-0.072 -0.017,-0.119l-0.033,-0.21l-0.537,-0.074l-0.161,0.434c-0.007,0.048 0.012,0.086 0.055,0.114c0.025,0.016 0.065,0.028 0.119,0.037l-0.011,0.084l-0.49,-0.066l0.019,-0.086c0.056,0 0.105,-0.029 0.148,-0.09Zm5.104,0.192c-0.17,-0.214 -0.267,-0.482 -0.292,-0.802c-0.028,-0.354 0.028,-0.65 0.169,-0.89c0.141,-0.243 0.339,-0.375 0.591,-0.394c0.244,-0.019 0.455,0.074 0.632,0.281c0.184,0.212 0.29,0.495 0.318,0.849c0.027,0.355 -0.032,0.652 -0.18,0.889c-0.144,0.233 -0.338,0.359 -0.58,0.377c-0.021,0.002 -0.042,0.003 -0.063,0.003c-0.231,0 -0.43,-0.104 -0.595,-0.313Zm-2.497,0.099c0.05,-0.076 0.078,-0.158 0.084,-0.245c0.006,-0.101 -0.013,-0.184 -0.056,-0.252c-0.029,-0.043 -0.088,-0.102 -0.18,-0.174l-0.147,-0.119c-0.147,-0.117 -0.247,-0.231 -0.302,-0.34c-0.057,-0.109 -0.08,-0.242 -0.071,-0.396c0.01,-0.166 0.062,-0.317 0.154,-0.455c0.091,-0.138 0.223,-0.201 0.395,-0.19c0.087,0.005 0.171,0.029 0.25,0.071c0.079,0.043 0.124,0.064 0.136,0.065c0.026,0.002 0.045,-0.008 0.056,-0.029c0.011,-0.02 0.022,-0.048 0.029,-0.083l0.073,0.005l-0.046,0.735l-0.067,-0.004c-0.021,-0.173 -0.068,-0.323 -0.139,-0.451c-0.073,-0.128 -0.165,-0.195 -0.279,-0.203c-0.08,-0.005 -0.145,0.023 -0.195,0.081c-0.051,0.06 -0.078,0.134 -0.084,0.223c-0.007,0.107 0.011,0.188 0.051,0.244c0.039,0.056 0.13,0.141 0.272,0.255l0.17,0.136c0.077,0.061 0.136,0.128 0.179,0.198c0.081,0.133 0.116,0.291 0.104,0.473c-0.011,0.171 -0.068,0.328 -0.172,0.473c-0.104,0.145 -0.261,0.211 -0.47,0.199c-0.047,-0.004 -0.096,-0.013 -0.144,-0.029c-0.048,-0.015 -0.095,-0.038 -0.142,-0.067l-0.044,-0.027l-0.057,-0.019c-0.024,-0.001 -0.042,0.007 -0.053,0.028c-0.01,0.018 -0.02,0.047 -0.029,0.084l-0.069,-0.004l0.051,-0.836l0.07,0.005c0.022,0.254 0.073,0.442 0.152,0.562c0.078,0.119 0.173,0.182 0.283,0.189c0.009,0.001 0.017,0.001 0.025,0.001c0.095,0 0.166,-0.034 0.212,-0.104Zm1.709,-2.047c0.011,-0.02 0.018,-0.049 0.024,-0.085l0.072,0l0.001,0.737l-0.067,0c-0.032,-0.171 -0.088,-0.318 -0.167,-0.441c-0.08,-0.123 -0.177,-0.185 -0.29,-0.184c-0.081,0 -0.144,0.031 -0.19,0.094c-0.047,0.062 -0.07,0.138 -0.07,0.227c0,0.107 0.023,0.187 0.066,0.24c0.042,0.053 0.14,0.132 0.289,0.237l0.178,0.126c0.079,0.055 0.143,0.118 0.191,0.185c0.089,0.128 0.133,0.283 0.134,0.465c0,0.171 -0.047,0.333 -0.142,0.484c-0.095,0.151 -0.246,0.227 -0.455,0.227c-0.047,0 -0.097,-0.006 -0.146,-0.018c-0.049,-0.013 -0.098,-0.032 -0.146,-0.058l-0.047,-0.025l-0.057,-0.015c-0.024,0 -0.041,0.01 -0.05,0.031c-0.01,0.02 -0.018,0.049 -0.024,0.086l-0.07,0l-0.001,-0.837l0.069,0c0.039,0.252 0.101,0.436 0.187,0.551c0.086,0.114 0.185,0.171 0.296,0.171c0.107,0 0.184,-0.039 0.23,-0.118c0.045,-0.079 0.067,-0.162 0.067,-0.249c0,-0.101 -0.025,-0.185 -0.072,-0.248c-0.032,-0.042 -0.095,-0.096 -0.191,-0.162l-0.154,-0.109c-0.153,-0.108 -0.261,-0.215 -0.324,-0.321c-0.064,-0.105 -0.095,-0.236 -0.095,-0.391c-0.001,-0.165 0.041,-0.32 0.123,-0.463c0.084,-0.144 0.211,-0.215 0.383,-0.216c0.087,0 0.172,0.019 0.254,0.056c0.082,0.038 0.127,0.056 0.139,0.056c0.026,0 0.045,-0.011 0.055,-0.033Z" style="fill:url(#_Linear31);fill-rule:nonzero;"/><path d="M154.137,24.76c0,0.033 0.002,0.065 0.002,0.095l0,-0.188c0,0.032 -0.002,0.064 -0.002,0.093Z" style="fill:url(#_Linear32);fill-rule:nonzero;"/><path d="M149.695,24.667l1.082,0l-0.294,-0.286l1.17,-0.167l0.524,-1.061l0.523,1.061l1.169,0.167l-0.291,0.286l1.062,0c0.052,-10.9 8.902,-19.716 19.812,-19.716c10.913,0 19.763,8.816 19.811,19.716l1.065,0l-0.294,-0.286l1.171,-0.167l0.526,-1.061l0.52,1.061l1.171,0.167l-0.292,0.286l1.084,0c-0.051,-13.631 -11.115,-24.667 -24.762,-24.667c-13.643,0 -24.71,11.036 -24.757,24.667Zm23.923,-20.797c0.229,-0.009 0.379,-0.136 0.448,-0.379c0.039,-0.134 0.052,-0.318 0.042,-0.555l-0.06,-1.282c-0.007,-0.151 -0.031,-0.253 -0.073,-0.308c-0.042,-0.055 -0.12,-0.086 -0.235,-0.093l-0.005,-0.106l0.656,-0.031l0.005,0.107c-0.095,0.03 -0.156,0.064 -0.185,0.104c-0.029,0.039 -0.04,0.126 -0.034,0.261l0.062,1.341c0.016,0.356 -0.032,0.634 -0.146,0.834c-0.113,0.199 -0.301,0.305 -0.563,0.317c-0.343,0.016 -0.584,-0.118 -0.724,-0.4c-0.075,-0.15 -0.117,-0.346 -0.128,-0.587l-0.064,-1.404c-0.008,-0.158 -0.027,-0.257 -0.059,-0.295c-0.031,-0.04 -0.1,-0.065 -0.204,-0.078l-0.005,-0.106l1.009,-0.046l0.005,0.106c-0.116,0.011 -0.192,0.04 -0.229,0.087c-0.037,0.047 -0.051,0.15 -0.045,0.309l0.066,1.406c0.01,0.213 0.035,0.377 0.076,0.492c0.072,0.204 0.194,0.307 0.368,0.307c0.007,0 0.015,0 0.022,-0.001Zm1.157,-0.104c0.036,-0.053 0.056,-0.134 0.062,-0.242l0.108,-1.985c-0.083,-0.149 -0.135,-0.236 -0.155,-0.262c-0.02,-0.026 -0.049,-0.044 -0.086,-0.054l0.007,-0.106l0.632,0.035l0.93,1.808l0.014,0l0.068,-1.232c0.008,-0.142 -0.005,-0.243 -0.039,-0.307c-0.033,-0.062 -0.105,-0.103 -0.214,-0.121l0.005,-0.106l0.641,0.034l-0.005,0.107c-0.094,0.016 -0.159,0.042 -0.192,0.078c-0.034,0.034 -0.054,0.115 -0.061,0.243l-0.134,2.47l-0.083,-0.004l-1.191,-2.313l-0.02,-0.001l-0.09,1.643c-0.007,0.13 0.001,0.221 0.024,0.276c0.035,0.089 0.114,0.14 0.237,0.153l-0.006,0.107l-0.676,-0.037l0.016,-0.107c0.105,0 0.174,-0.025 0.208,-0.077Zm-3.231,-2.311c0.031,-0.005 0.054,-0.025 0.068,-0.059c0.014,-0.034 0.023,-0.083 0.026,-0.149l0.082,-0.012l0.148,0.97l-0.074,0.012c-0.104,-0.2 -0.202,-0.354 -0.295,-0.465c-0.172,-0.204 -0.346,-0.291 -0.521,-0.265c-0.191,0.029 -0.312,0.167 -0.363,0.412c-0.052,0.246 -0.046,0.58 0.019,1.001c0.052,0.346 0.14,0.648 0.261,0.907c0.124,0.258 0.302,0.369 0.534,0.334c0.126,-0.019 0.205,-0.069 0.236,-0.15c0.02,-0.046 0.022,-0.112 0.009,-0.196l-0.067,-0.438c-0.018,-0.126 -0.059,-0.204 -0.119,-0.234c-0.039,-0.019 -0.114,-0.022 -0.223,-0.008l-0.016,-0.106l1.012,-0.155l0.017,0.106c-0.102,0.021 -0.166,0.06 -0.19,0.118c-0.025,0.056 -0.027,0.157 -0.005,0.3l0.081,0.528c-0.057,0.067 -0.153,0.14 -0.291,0.219c-0.138,0.079 -0.297,0.132 -0.478,0.16c-0.329,0.05 -0.612,-0.055 -0.852,-0.316c-0.224,-0.244 -0.368,-0.57 -0.43,-0.979c-0.063,-0.414 -0.022,-0.776 0.125,-1.087c0.151,-0.32 0.379,-0.504 0.685,-0.55c0.121,-0.02 0.248,-0.005 0.378,0.041c0.12,0.041 0.197,0.061 0.233,0.061l0.01,0Zm5.296,2.396c0.035,-0.049 0.094,-0.159 0.174,-0.331l1.012,-2.167l0.082,0.013l0.317,2.283c0.035,0.256 0.066,0.422 0.092,0.499c0.026,0.076 0.072,0.118 0.138,0.127l-0.016,0.105l-0.955,-0.151l0.016,-0.105c0.098,0.01 0.162,0.008 0.196,-0.004c0.032,-0.013 0.055,-0.055 0.066,-0.127c0.005,-0.033 0.005,-0.083 0,-0.151c-0.003,-0.041 -0.01,-0.09 -0.018,-0.148l-0.035,-0.263l-0.662,-0.104c-0.069,0.157 -0.114,0.261 -0.134,0.309c-0.044,0.102 -0.068,0.178 -0.076,0.226c-0.009,0.06 0.012,0.107 0.065,0.143c0.031,0.02 0.081,0.036 0.147,0.048l-0.017,0.106l-0.602,-0.095l0.03,-0.105c0.068,0 0.127,-0.037 0.18,-0.108Zm-7.787,-1.941c0.032,-0.009 0.051,-0.03 0.062,-0.065c0.011,-0.036 0.015,-0.087 0.01,-0.152l0.08,-0.021l0.254,0.948l-0.073,0.02c-0.125,-0.188 -0.239,-0.331 -0.343,-0.43c-0.194,-0.184 -0.377,-0.252 -0.548,-0.206c-0.185,0.05 -0.291,0.2 -0.316,0.45c-0.024,0.25 0.018,0.58 0.129,0.993c0.091,0.337 0.211,0.628 0.361,0.872c0.151,0.243 0.339,0.334 0.567,0.273c0.123,-0.033 0.196,-0.092 0.219,-0.175c0.013,-0.048 0.009,-0.113 -0.014,-0.196l-0.114,-0.428c-0.033,-0.122 -0.081,-0.195 -0.145,-0.22c-0.042,-0.014 -0.115,-0.009 -0.222,0.018l-0.028,-0.104l0.99,-0.265l0.027,0.103c-0.098,0.032 -0.157,0.078 -0.175,0.138c-0.02,0.059 -0.01,0.159 0.027,0.299l0.139,0.517c-0.049,0.072 -0.138,0.156 -0.266,0.249c-0.128,0.093 -0.28,0.164 -0.457,0.212c-0.32,0.085 -0.614,0.011 -0.882,-0.221c-0.248,-0.217 -0.427,-0.526 -0.535,-0.926c-0.108,-0.404 -0.106,-0.768 0.005,-1.094c0.115,-0.335 0.322,-0.543 0.62,-0.623c0.12,-0.031 0.247,-0.032 0.382,-0.001c0.109,0.025 0.183,0.037 0.224,0.037c0.009,0 0.017,0 0.022,-0.002Zm10.388,2.522c0.07,-0.027 0.12,-0.1 0.152,-0.22l0.526,-1.964c0.032,-0.12 0.026,-0.207 -0.019,-0.263c-0.027,-0.034 -0.083,-0.065 -0.168,-0.094l0.027,-0.102l1.009,0.27l-0.028,0.102c-0.091,-0.019 -0.156,-0.02 -0.197,-0.007c-0.067,0.026 -0.117,0.099 -0.149,0.22l-0.525,1.964c-0.03,0.114 -0.029,0.196 0.007,0.246c0.034,0.051 0.097,0.088 0.187,0.112l-0.027,0.103l-1.01,-0.27l0.027,-0.103c0.047,0.011 0.087,0.016 0.12,0.016c0.027,0 0.049,-0.003 0.068,-0.01Zm1.894,0.489c0.084,-0.075 0.144,-0.163 0.18,-0.266c0.04,-0.12 0.045,-0.226 0.016,-0.319c-0.021,-0.062 -0.072,-0.152 -0.159,-0.268l-0.136,-0.19c-0.135,-0.188 -0.219,-0.356 -0.251,-0.505c-0.03,-0.15 -0.015,-0.316 0.047,-0.498c0.067,-0.194 0.178,-0.359 0.331,-0.494c0.155,-0.136 0.332,-0.168 0.534,-0.101c0.103,0.035 0.194,0.091 0.275,0.167c0.081,0.077 0.127,0.118 0.141,0.122c0.03,0.01 0.056,0.005 0.076,-0.016c0.02,-0.022 0.041,-0.052 0.062,-0.09l0.084,0.029l-0.293,0.865l-0.079,-0.027c0.031,-0.213 0.025,-0.408 -0.019,-0.585c-0.044,-0.176 -0.133,-0.287 -0.266,-0.333c-0.093,-0.031 -0.18,-0.02 -0.258,0.035c-0.08,0.054 -0.138,0.134 -0.173,0.239c-0.043,0.126 -0.05,0.229 -0.02,0.308c0.028,0.08 0.109,0.212 0.242,0.394l0.159,0.219c0.07,0.097 0.119,0.196 0.147,0.295c0.053,0.184 0.042,0.385 -0.03,0.599c-0.069,0.201 -0.188,0.371 -0.36,0.511c-0.171,0.14 -0.379,0.169 -0.625,0.085c-0.056,-0.019 -0.11,-0.046 -0.162,-0.08c-0.053,-0.035 -0.101,-0.076 -0.147,-0.127l-0.045,-0.048l-0.061,-0.039c-0.028,-0.011 -0.053,-0.006 -0.071,0.014c-0.02,0.021 -0.04,0.052 -0.064,0.093l-0.081,-0.028l0.335,-0.984l0.081,0.028c-0.055,0.312 -0.056,0.553 -0.002,0.722c0.054,0.169 0.146,0.275 0.276,0.32c0.046,0.015 0.089,0.023 0.13,0.023c0.07,0 0.132,-0.023 0.186,-0.07Zm-14.877,-2.368l0.599,-0.231l0.038,0.099c-0.079,0.054 -0.127,0.104 -0.143,0.149c-0.016,0.046 -0.001,0.128 0.045,0.247l0.889,2.309l-0.077,0.03l-2.035,-1.621l-0.017,0.007l0.591,1.535c0.047,0.121 0.092,0.202 0.134,0.242c0.068,0.067 0.162,0.081 0.279,0.043l0.039,0.1l-0.631,0.243l-0.04,-0.099c0.103,-0.045 0.158,-0.098 0.169,-0.161c0.01,-0.063 -0.004,-0.145 -0.044,-0.245l-0.714,-1.856c-0.137,-0.101 -0.22,-0.159 -0.25,-0.176c-0.029,-0.016 -0.062,-0.019 -0.1,-0.013l-0.037,-0.099l0.591,-0.228l1.588,1.267l0.014,-0.005l-0.443,-1.151c-0.051,-0.132 -0.105,-0.221 -0.161,-0.264c-0.056,-0.043 -0.138,-0.051 -0.246,-0.023l-0.038,-0.099Zm15.571,2.696c0.072,-0.016 0.133,-0.081 0.182,-0.193l0.82,-1.861c0.049,-0.112 0.056,-0.199 0.021,-0.261c-0.019,-0.036 -0.067,-0.075 -0.144,-0.116l0.043,-0.098l0.956,0.421l-0.043,0.098c-0.114,-0.044 -0.198,-0.055 -0.251,-0.033c-0.054,0.023 -0.115,0.11 -0.181,0.261l-0.8,1.816c-0.037,0.085 -0.045,0.149 -0.028,0.19c0.021,0.042 0.076,0.082 0.168,0.123c0.165,0.073 0.326,0.082 0.482,0.029c0.157,-0.053 0.34,-0.208 0.551,-0.468l0.08,0.036l-0.494,0.821l-1.583,-0.697l0.043,-0.097c0.057,0.022 0.106,0.033 0.144,0.033c0.013,0 0.024,-0.002 0.034,-0.004Zm-18.841,-1.218l1.538,-0.773l0.38,0.757l-0.066,0.033c-0.155,-0.225 -0.295,-0.362 -0.421,-0.41c-0.126,-0.047 -0.297,-0.018 -0.512,0.09c-0.081,0.041 -0.127,0.079 -0.137,0.114c-0.011,0.035 0.002,0.088 0.037,0.158l0.436,0.869c0.154,-0.074 0.238,-0.165 0.251,-0.272c0.014,-0.107 -0.017,-0.274 -0.096,-0.501l0.068,-0.034l0.637,1.267l-0.069,0.034c-0.126,-0.204 -0.241,-0.334 -0.343,-0.393c-0.103,-0.057 -0.23,-0.047 -0.382,0.028l0.457,0.909c0.04,0.079 0.081,0.126 0.125,0.141c0.044,0.013 0.11,-0.002 0.201,-0.048c0.17,-0.086 0.286,-0.202 0.347,-0.348c0.062,-0.148 0.07,-0.37 0.025,-0.666l0.074,-0.038l0.284,0.835l-1.561,0.784l-0.047,-0.096c0.074,-0.042 0.121,-0.083 0.14,-0.126c0.031,-0.064 0.019,-0.15 -0.036,-0.256l-0.913,-1.818c-0.054,-0.109 -0.117,-0.169 -0.188,-0.181c-0.041,-0.008 -0.101,0.004 -0.181,0.037l-0.048,-0.096Zm20.642,1.927c0.052,-0.033 0.144,-0.116 0.278,-0.248l1.706,-1.678l0.073,0.041l-0.501,2.25c-0.055,0.252 -0.086,0.418 -0.089,0.499c-0.002,0.08 0.026,0.136 0.088,0.168l-0.053,0.093l-0.843,-0.475l0.052,-0.092c0.088,0.042 0.149,0.063 0.185,0.063c0.035,0 0.07,-0.032 0.106,-0.095l0.089,-0.287l0.058,-0.258l-0.584,-0.33c-0.12,0.124 -0.198,0.205 -0.233,0.243c-0.077,0.081 -0.127,0.143 -0.151,0.187c-0.03,0.052 -0.025,0.104 0.011,0.155c0.022,0.031 0.062,0.062 0.121,0.097l-0.052,0.093l-0.531,-0.299l0.052,-0.092c0.023,0.01 0.048,0.015 0.073,0.015c0.045,0 0.094,-0.017 0.145,-0.05Zm-22.351,-0.877l0.817,-0.507c0.216,-0.134 0.411,-0.187 0.586,-0.157c0.174,0.028 0.336,0.163 0.485,0.403c0.072,0.117 0.119,0.241 0.139,0.372c0.018,0.129 -0.003,0.258 -0.065,0.383c-0.05,0.092 -0.111,0.167 -0.182,0.223c-0.07,0.057 -0.182,0.132 -0.333,0.227l0.412,0.665c0.082,0.131 0.151,0.208 0.208,0.229c0.056,0.02 0.129,0.007 0.218,-0.042l0.056,0.091l-0.845,0.524l-0.056,-0.09c0.077,-0.06 0.119,-0.12 0.121,-0.178c0.003,-0.06 -0.035,-0.152 -0.113,-0.279l-0.979,-1.578c-0.083,-0.134 -0.15,-0.21 -0.2,-0.227c-0.051,-0.017 -0.123,-0.007 -0.213,0.032l-0.056,-0.091Zm24.173,1.97c0.06,-0.025 0.123,-0.082 0.188,-0.171l1.173,-1.613c0.067,-0.092 0.096,-0.165 0.085,-0.217c-0.01,-0.051 -0.052,-0.11 -0.126,-0.178l0.063,-0.086l0.609,0.443l-0.668,1.917l0.02,0.015l1.616,-1.228l0.609,0.443l-0.063,0.086c-0.088,-0.05 -0.16,-0.07 -0.213,-0.058c-0.055,0.012 -0.13,0.083 -0.225,0.214l-1.093,1.502c-0.09,0.124 -0.135,0.217 -0.134,0.277c0.002,0.062 0.043,0.124 0.122,0.188l-0.063,0.085l-0.803,-0.583l0.063,-0.086c0.074,0.048 0.14,0.071 0.199,0.067c0.057,-0.005 0.124,-0.058 0.2,-0.16l1.207,-1.66l-0.018,-0.013l-2.044,1.565l-0.066,-0.047l0.825,-2.391l-0.011,-0.008l-1.116,1.535c-0.082,0.113 -0.127,0.207 -0.135,0.281c-0.009,0.074 0.036,0.15 0.135,0.23l-0.063,0.087l-0.566,-0.412l0.063,-0.085c0.068,0.047 0.127,0.071 0.177,0.071c0.019,0 0.037,-0.003 0.053,-0.01Zm-25.577,-0.931l0.497,-0.405l0.068,0.082c-0.059,0.076 -0.089,0.138 -0.09,0.188c-0.002,0.047 0.039,0.121 0.119,0.22l1.56,1.921l-0.064,0.052l-2.437,-0.914l-0.016,0.014l1.039,1.277c0.082,0.101 0.148,0.163 0.201,0.189c0.087,0.042 0.179,0.027 0.28,-0.046l0.066,0.083l-0.525,0.426l-0.067,-0.082c0.083,-0.073 0.119,-0.142 0.109,-0.205c-0.009,-0.063 -0.048,-0.137 -0.116,-0.22l-1.253,-1.544c-0.162,-0.053 -0.26,-0.083 -0.291,-0.09c-0.033,-0.005 -0.066,0 -0.099,0.018l-0.068,-0.083l0.492,-0.398l1.903,0.714l0.012,-0.01l-0.778,-0.957c-0.09,-0.111 -0.168,-0.177 -0.234,-0.202c-0.067,-0.024 -0.147,-0.006 -0.241,0.054l-0.067,-0.082Zm28.315,3.043c0.064,-0.014 0.135,-0.06 0.214,-0.138l1.423,-1.398c0.081,-0.079 0.121,-0.146 0.119,-0.199c-0.001,-0.053 -0.034,-0.119 -0.095,-0.197l0.077,-0.075l0.527,0.537l-0.975,1.782l0.017,0.018l1.797,-0.945l0.528,0.537l-0.076,0.075c-0.08,-0.065 -0.146,-0.096 -0.201,-0.093c-0.056,0.003 -0.141,0.06 -0.257,0.174l-1.324,1.301c-0.111,0.109 -0.17,0.193 -0.179,0.252c-0.008,0.06 0.021,0.128 0.089,0.204l-0.077,0.075l-0.695,-0.707l0.076,-0.075c0.066,0.059 0.128,0.093 0.185,0.098c0.059,0.006 0.133,-0.036 0.224,-0.125l1.464,-1.438l-0.016,-0.015l-2.274,1.206l-0.057,-0.056l1.207,-2.223l-0.008,-0.009l-1.353,1.329c-0.101,0.099 -0.161,0.184 -0.181,0.256c-0.021,0.071 0.011,0.154 0.095,0.249l-0.075,0.075l-0.491,-0.499l0.077,-0.075c0.068,0.068 0.13,0.103 0.186,0.103c0.009,0 0.019,-0.002 0.029,-0.004Zm-29.163,1.429c0.046,-0.055 0.055,-0.129 0.026,-0.22c-0.017,-0.058 -0.072,-0.169 -0.163,-0.335l-1.148,-2.099l0.059,-0.058l2.028,1.095c0.228,0.123 0.379,0.196 0.456,0.222c0.077,0.025 0.139,0.011 0.185,-0.038l0.074,0.075l-0.685,0.683l-0.075,-0.076c0.066,-0.073 0.103,-0.126 0.111,-0.16c0.009,-0.034 -0.011,-0.078 -0.062,-0.129l-0.252,-0.164l-0.233,-0.126l-0.477,0.473c0.088,0.148 0.144,0.246 0.17,0.291c0.058,0.094 0.104,0.16 0.139,0.195c0.042,0.042 0.093,0.053 0.154,0.031c0.034,-0.012 0.075,-0.043 0.126,-0.09l0.075,0.076l-0.432,0.43l-0.076,-0.076Zm-2.557,-1.195l0.419,-0.506l0.082,0.068c-0.041,0.09 -0.056,0.158 -0.046,0.206c0.009,0.048 0.066,0.114 0.171,0.201l1.035,0.854c0.276,0.226 0.449,0.448 0.521,0.667c0.071,0.218 0.024,0.427 -0.143,0.631c-0.218,0.264 -0.479,0.353 -0.782,0.268c-0.161,-0.045 -0.334,-0.146 -0.522,-0.3l-1.084,-0.893c-0.122,-0.1 -0.208,-0.153 -0.258,-0.155c-0.051,-0.003 -0.116,0.03 -0.195,0.101l-0.082,-0.069l0.642,-0.778l0.083,0.067c-0.07,0.093 -0.099,0.168 -0.088,0.227c0.009,0.058 0.075,0.138 0.199,0.241l1.086,0.895c0.164,0.135 0.303,0.226 0.416,0.272c0.208,0.088 0.371,0.061 0.488,-0.082c0.147,-0.178 0.153,-0.373 0.02,-0.587c-0.073,-0.119 -0.201,-0.253 -0.383,-0.403l-0.992,-0.818c-0.116,-0.095 -0.208,-0.146 -0.277,-0.151c-0.069,-0.006 -0.144,0.032 -0.227,0.112l-0.083,-0.068Zm33.634,1.699c0.059,-0.011 0.177,-0.052 0.353,-0.121l2.22,-0.888l0.052,0.065l-1.331,1.881c-0.149,0.211 -0.241,0.353 -0.275,0.427c-0.034,0.073 -0.029,0.136 0.015,0.188l-0.084,0.065l-0.594,-0.763l0.083,-0.065c0.065,0.073 0.114,0.116 0.146,0.129c0.033,0.014 0.078,-0.002 0.136,-0.046l0.193,-0.23l0.153,-0.217l-0.413,-0.529c-0.158,0.069 -0.261,0.114 -0.308,0.134c-0.102,0.045 -0.172,0.084 -0.211,0.114c-0.047,0.037 -0.064,0.086 -0.05,0.148c0.009,0.037 0.034,0.082 0.074,0.136l-0.083,0.066l-0.375,-0.482l0.084,-0.065c0.037,0.039 0.087,0.059 0.148,0.059c0.021,0 0.043,-0.002 0.067,-0.006Zm-35.73,1.153l1.006,-1.49l0.704,0.472l-0.049,0.071c-0.267,-0.146 -0.482,-0.195 -0.645,-0.143c-0.091,0.028 -0.179,0.103 -0.267,0.224l1.833,1.237c0.128,0.087 0.223,0.127 0.287,0.124c0.063,-0.003 0.13,-0.055 0.197,-0.156l0.089,0.059l-0.595,0.883l-0.09,-0.059c0.066,-0.097 0.088,-0.177 0.067,-0.237c-0.022,-0.06 -0.095,-0.133 -0.222,-0.219l-1.833,-1.237c-0.077,0.124 -0.113,0.235 -0.109,0.332c0.012,0.18 0.136,0.362 0.375,0.544l-0.048,0.071l-0.7,-0.476Zm37.186,0.512l1.716,-1.09c0.103,-0.065 0.158,-0.133 0.163,-0.204c0.004,-0.041 -0.015,-0.1 -0.055,-0.177l0.091,-0.058l0.558,0.882l-0.089,0.058c-0.069,-0.1 -0.133,-0.156 -0.191,-0.167c-0.057,-0.011 -0.156,0.027 -0.296,0.116l-1.675,1.063c-0.077,0.051 -0.12,0.099 -0.127,0.144c-0.007,0.045 0.017,0.109 0.07,0.194c0.097,0.152 0.224,0.249 0.384,0.293c0.159,0.043 0.398,0.016 0.718,-0.082l0.047,0.073l-0.867,0.408l-0.928,-1.461l0.09,-0.056c0.047,0.066 0.091,0.108 0.132,0.123c0.02,0.008 0.041,0.012 0.064,0.012c0.056,0 0.121,-0.024 0.195,-0.071Zm-35.847,2.679c0.03,-0.066 0.018,-0.139 -0.035,-0.219c-0.033,-0.05 -0.116,-0.143 -0.248,-0.277l-1.686,-1.697l0.04,-0.073l2.251,0.49c0.253,0.055 0.42,0.084 0.501,0.087c0.081,0.002 0.137,-0.027 0.166,-0.088l0.095,0.053l-0.471,0.844l-0.094,-0.052c0.043,-0.088 0.064,-0.149 0.064,-0.184c-0.001,-0.036 -0.034,-0.071 -0.096,-0.106l-0.287,-0.088l-0.259,-0.057l-0.326,0.586c0.124,0.119 0.205,0.197 0.243,0.233c0.082,0.075 0.143,0.124 0.186,0.148c0.053,0.03 0.106,0.026 0.158,-0.011c0.029,-0.022 0.061,-0.062 0.095,-0.122l0.093,0.052l-0.296,0.533l-0.094,-0.052Zm37.06,-1.079l2.349,-0.449l0.038,0.074l-1.664,1.593c-0.188,0.179 -0.304,0.301 -0.351,0.367c-0.048,0.065 -0.055,0.128 -0.021,0.187l-0.095,0.048l-0.438,-0.863l0.094,-0.047c0.049,0.083 0.089,0.136 0.118,0.155c0.031,0.019 0.077,0.012 0.142,-0.02l0.233,-0.189l0.192,-0.183l-0.304,-0.598c-0.168,0.036 -0.278,0.061 -0.33,0.072c-0.108,0.026 -0.183,0.049 -0.226,0.072c-0.054,0.027 -0.08,0.072 -0.079,0.135c0.002,0.037 0.018,0.087 0.048,0.149l-0.095,0.048l-0.277,-0.544l0.096,-0.048c0.038,0.062 0.105,0.092 0.201,0.092l0.369,-0.051Zm-39.465,1.677c-0.188,-0.082 -0.341,-0.207 -0.46,-0.374c-0.122,-0.166 -0.138,-0.346 -0.053,-0.541c0.045,-0.098 0.109,-0.184 0.192,-0.257c0.084,-0.074 0.129,-0.116 0.135,-0.13c0.013,-0.03 0.009,-0.056 -0.01,-0.077c-0.019,-0.023 -0.047,-0.046 -0.084,-0.071l0.036,-0.081l0.835,0.372l-0.034,0.077c-0.209,-0.052 -0.404,-0.063 -0.584,-0.035c-0.179,0.027 -0.298,0.105 -0.356,0.233c-0.04,0.091 -0.036,0.177 0.011,0.262c0.047,0.083 0.121,0.148 0.223,0.193c0.121,0.054 0.222,0.07 0.303,0.048c0.083,-0.021 0.223,-0.089 0.415,-0.204l0.233,-0.138c0.104,-0.061 0.206,-0.102 0.307,-0.121c0.19,-0.035 0.388,-0.006 0.595,0.086c0.193,0.086 0.352,0.221 0.476,0.405c0.123,0.183 0.132,0.393 0.027,0.629c-0.024,0.055 -0.056,0.106 -0.094,0.155c-0.041,0.049 -0.087,0.094 -0.141,0.135l-0.051,0.04l-0.046,0.057c-0.012,0.028 -0.01,0.052 0.009,0.073c0.019,0.02 0.047,0.044 0.086,0.071l-0.036,0.079l-0.948,-0.424l0.035,-0.079c0.306,0.084 0.545,0.108 0.718,0.068c0.174,-0.038 0.288,-0.12 0.344,-0.245c0.055,-0.122 0.049,-0.228 -0.017,-0.319c-0.068,-0.091 -0.149,-0.158 -0.248,-0.202c-0.116,-0.052 -0.221,-0.067 -0.316,-0.046c-0.064,0.014 -0.158,0.059 -0.283,0.132l-0.202,0.119c-0.199,0.118 -0.374,0.185 -0.525,0.202c-0.028,0.004 -0.057,0.005 -0.086,0.005c-0.127,0 -0.263,-0.032 -0.406,-0.097Zm40.374,0.476l0.572,-0.231l1.088,-1.027c0.073,-0.067 0.115,-0.133 0.131,-0.195c0.007,-0.041 0.005,-0.079 -0.007,-0.112l0.099,-0.041l0.374,0.927l-0.099,0.041c-0.046,-0.093 -0.081,-0.151 -0.105,-0.172c-0.023,-0.023 -0.055,-0.025 -0.096,-0.009l-0.154,0.111l-0.788,0.743l0.001,0.004l0.804,0.022c0.051,0.002 0.11,0.001 0.179,-0.004c0.105,-0.005 0.18,-0.017 0.225,-0.035c0.068,-0.028 0.106,-0.065 0.113,-0.113c0.004,-0.033 -0.007,-0.095 -0.034,-0.187l0.099,-0.041l0.245,0.609l-0.099,0.04c-0.029,-0.04 -0.056,-0.069 -0.082,-0.089c-0.037,-0.024 -0.086,-0.037 -0.144,-0.04l-1.424,-0.04l-0.717,0.288c-0.148,0.06 -0.236,0.117 -0.265,0.17c-0.028,0.053 -0.024,0.129 0.012,0.229l-0.099,0.04l-0.387,-0.96l0.099,-0.04c0.045,0.101 0.098,0.159 0.156,0.175c0.013,0.003 0.028,0.004 0.044,0.004c0.061,0 0.147,-0.022 0.259,-0.067Zm-41.889,1.48l0.313,-0.909c0.065,-0.188 0.146,-0.331 0.241,-0.429c0.191,-0.187 0.431,-0.231 0.724,-0.131c0.216,0.075 0.365,0.193 0.448,0.354c0.062,0.122 0.088,0.238 0.079,0.349l1.338,-0.211l0.118,-0.088l0.095,0.033l-0.204,0.589l-1.467,0.232l0,0.001l0.777,0.268c0.14,0.048 0.24,0.064 0.299,0.047c0.061,-0.016 0.11,-0.072 0.149,-0.171l0.101,0.036l-0.329,0.953l-0.1,-0.034c0.026,-0.098 0.023,-0.172 -0.008,-0.222c-0.033,-0.05 -0.123,-0.1 -0.269,-0.151l-1.756,-0.604c-0.153,-0.053 -0.26,-0.067 -0.32,-0.041c-0.041,0.017 -0.084,0.071 -0.128,0.164l-0.101,-0.035Zm42.747,0.818c0.12,-0.037 0.21,-0.094 0.268,-0.173c0.038,-0.053 0.08,-0.147 0.126,-0.285l0.074,-0.221c0.074,-0.22 0.161,-0.386 0.265,-0.499c0.102,-0.111 0.246,-0.196 0.431,-0.253c0.196,-0.059 0.394,-0.065 0.595,-0.019c0.2,0.047 0.331,0.172 0.392,0.375c0.032,0.103 0.04,0.21 0.024,0.32c-0.014,0.11 -0.02,0.172 -0.016,0.185c0.009,0.032 0.029,0.05 0.059,0.054c0.028,0.004 0.064,0.003 0.109,-0.002l0.025,0.085l-0.874,0.266l-0.024,-0.079c0.191,-0.099 0.345,-0.218 0.464,-0.357c0.117,-0.138 0.156,-0.275 0.115,-0.41c-0.029,-0.095 -0.089,-0.158 -0.179,-0.19c-0.091,-0.033 -0.189,-0.033 -0.295,-0.001c-0.127,0.038 -0.214,0.093 -0.261,0.164c-0.05,0.069 -0.109,0.211 -0.179,0.426l-0.086,0.256c-0.038,0.114 -0.089,0.212 -0.153,0.293c-0.119,0.15 -0.289,0.259 -0.505,0.324c-0.202,0.062 -0.411,0.064 -0.624,0.007c-0.214,-0.058 -0.358,-0.21 -0.434,-0.457c-0.017,-0.057 -0.027,-0.117 -0.03,-0.18c-0.002,-0.063 0.004,-0.126 0.017,-0.193l0.015,-0.105l-0.06,-0.08c-0.027,-0.005 -0.064,-0.004 -0.111,0.001l-0.025,-0.082l0.995,-0.302l0.025,0.083c-0.287,0.137 -0.482,0.276 -0.587,0.418c-0.106,0.143 -0.139,0.28 -0.099,0.412c0.038,0.127 0.112,0.203 0.223,0.228c0.049,0.012 0.097,0.017 0.145,0.017c0.059,0 0.118,-0.008 0.175,-0.026Zm-43.268,1.306l0.402,-1.674l0.823,0.198l-0.016,0.071c-0.272,-0.026 -0.468,-0.007 -0.586,0.058c-0.118,0.066 -0.205,0.215 -0.261,0.448c-0.021,0.089 -0.022,0.148 -0.002,0.179c0.02,0.031 0.069,0.055 0.145,0.073l0.946,0.228c0.042,-0.166 0.026,-0.287 -0.046,-0.367c-0.073,-0.08 -0.221,-0.163 -0.445,-0.25l0.018,-0.074l1.379,0.333l-0.018,0.072c-0.238,-0.035 -0.412,-0.031 -0.521,0.009c-0.111,0.042 -0.186,0.144 -0.226,0.31l0.988,0.238c0.087,0.021 0.149,0.019 0.189,-0.006c0.039,-0.023 0.07,-0.084 0.094,-0.183c0.044,-0.186 0.029,-0.349 -0.044,-0.49c-0.072,-0.142 -0.237,-0.292 -0.493,-0.449l0.021,-0.08l0.82,0.321l-0.408,1.698l-0.103,-0.025c0.015,-0.083 0.014,-0.146 -0.006,-0.189c-0.029,-0.064 -0.103,-0.11 -0.219,-0.138l-1.978,-0.475c-0.119,-0.029 -0.205,-0.02 -0.26,0.025c-0.033,0.028 -0.062,0.082 -0.09,0.163l-0.103,-0.024Zm43.343,-0.496l1.979,-0.463c0.12,-0.028 0.194,-0.075 0.223,-0.141c0.016,-0.039 0.017,-0.104 0.003,-0.192l0.103,-0.025l0.239,1.017l-0.105,0.025c-0.026,-0.089 -0.054,-0.149 -0.087,-0.178c-0.055,-0.046 -0.142,-0.056 -0.264,-0.027l-1.98,0.463c-0.114,0.027 -0.185,0.068 -0.213,0.122c-0.028,0.054 -0.031,0.126 -0.011,0.218l-0.103,0.025l-0.239,-1.017l0.106,-0.025c0.02,0.081 0.048,0.138 0.082,0.168c0.036,0.03 0.085,0.046 0.147,0.046c0.036,0 0.076,-0.005 0.12,-0.016Zm-43.646,2.473l0.142,-0.951c0.037,-0.252 0.124,-0.436 0.258,-0.549c0.135,-0.114 0.342,-0.15 0.622,-0.109c0.136,0.021 0.261,0.066 0.372,0.135c0.112,0.07 0.197,0.169 0.251,0.298c0.038,0.097 0.055,0.191 0.054,0.282c-0.003,0.091 -0.018,0.225 -0.044,0.4l0.775,0.116c0.152,0.023 0.255,0.019 0.307,-0.009c0.053,-0.03 0.09,-0.094 0.111,-0.194l0.105,0.016l-0.147,0.984l-0.106,-0.015c0.006,-0.099 -0.013,-0.169 -0.056,-0.209c-0.043,-0.041 -0.139,-0.072 -0.287,-0.094l-1.836,-0.274c-0.155,-0.024 -0.257,-0.021 -0.303,0.006c-0.046,0.028 -0.084,0.088 -0.112,0.183l-0.106,-0.016Zm43.46,-1.575l0.106,-0.017c0.018,0.07 0.072,0.12 0.162,0.151c0.057,0.019 0.18,0.042 0.367,0.065l2.373,0.305l0.012,0.082l-2.077,0.997c-0.233,0.111 -0.383,0.19 -0.448,0.238c-0.065,0.048 -0.091,0.105 -0.078,0.172l-0.105,0.016l-0.149,-0.956l0.106,-0.016c0.02,0.095 0.042,0.157 0.064,0.185c0.022,0.027 0.069,0.035 0.141,0.024l0.279,-0.107l0.24,-0.113l-0.102,-0.664c-0.172,-0.018 -0.283,-0.029 -0.335,-0.034c-0.111,-0.009 -0.19,-0.01 -0.24,-0.003c-0.059,0.009 -0.098,0.045 -0.117,0.106c-0.009,0.036 -0.01,0.087 -0.001,0.154l-0.104,0.018l-0.094,-0.603Z" style="fill:url(#_Linear33);fill-rule:nonzero;"/><path d="M169.776,32.654c0,0 0.078,-0.145 -0.135,-0.145c0,0 0.069,0.145 0.135,0.145Z" style="fill:url(#_Linear34);fill-rule:nonzero;"/><path d="M187.6,10.318l-0.008,0.03l-0.011,0.096c0.186,0.172 0.382,0.333 0.562,0.512l0.009,-0.06l0.011,-0.068l0.03,-0.182l0.041,-0.005c-0.165,-0.16 -0.339,-0.308 -0.509,-0.462l-0.075,-0.037l-0.05,0.176Z" style="fill:url(#_Linear35);fill-rule:nonzero;"/><path d="M181.444,33.458l-0.993,0.033l-0.378,0.136l-0.179,0.139l1.336,0.278l0.523,0.996l0.499,0.495l0.867,0.429l0.746,-0.429l0,-0.435l0.432,-0.156c0,0 0.744,0 -0.901,-0.586l-1.176,-0.472l-0.432,-0.428l-0.344,0Z" style="fill:url(#_Linear36);fill-rule:nonzero;"/><path d="M187.518,34.654l0,0.211l0.184,0.266l0.348,-0.35l0.051,-0.502l-0.333,-0.036l-0.25,0.411Z" style="fill:url(#_Linear37);fill-rule:nonzero;"/><path d="M179.304,33.273l0.434,0.595l0,-0.468l-0.064,-0.269l0,-0.187l-0.337,-0.176l-0.033,0.505Z" style="fill:url(#_Linear38);fill-rule:nonzero;"/><path d="M177.314,29.822l-0.343,0.123l-1.593,0.082c0,0.121 0.64,0.32 0.64,0.32l0.688,0.465l0.689,-0.23l0.358,-0.352l-0.041,-0.808l-0.398,0.4Z" style="fill:url(#_Linear39);fill-rule:nonzero;"/><path d="M174.33,32.093l-0.167,0.525c0,0 0.096,-0.218 0.025,0.027c-0.071,0.236 0.222,0.281 0.222,0.281l0.402,0.051l0.543,1.085l0.104,0l0.056,-0.62c0.406,-0.117 0.257,-0.766 0.257,-0.766c0.472,-0.33 0.307,-0.583 0.307,-0.583l-1.749,0Z" style="fill:url(#_Linear40);fill-rule:nonzero;"/><path d="M173.356,29.628l-0.192,0.048c0,0 -1.261,1.064 -1.336,1.136c-0.006,0.006 -0.022,0.009 -0.042,0.018c-0.226,0.07 -1.197,0.13 -1.197,0.13c-0.316,0.32 0.406,1.411 0.406,1.411l0.715,0.432c0.189,0.087 1.134,0.174 1.134,0.174l0.998,-1.377l-0.19,-0.456c-0.374,-0.622 0.06,-1.036 0.06,-1.036l0.268,0l-0.389,-0.498l-0.107,-0.109l-0.128,0.127Z" style="fill:url(#_Linear41);fill-rule:nonzero;"/><path d="M175.271,28.13l-0.488,0.327l-0.299,0.359l0,0.242l0.089,0.093l0.172,-0.344l0.303,-0.308l0.249,-0.109l0.107,-0.26l-0.038,-0.344l-0.062,-0.073l-0.033,0.417Z" style="fill:url(#_Linear42);fill-rule:nonzero;"/><path d="M176.079,27.653l-0.406,-0.027l0,0.474l0.145,0.076l0.239,-0.046l0.26,-0.19l0,-0.381l-0.238,0.094Z" style="fill:url(#_Linear43);fill-rule:nonzero;"/><path d="M176.553,27.417l0.201,0.49l-0.252,0.2l-0.223,0.132l-0.098,0.205l-0.081,0.493l0,0.404l0.104,0.33l0.04,0.141c0,0 0.318,-0.081 0.351,-0.081c0.028,0 0.159,-0.133 0.159,-0.133l0.234,-0.567l0.238,-0.285l0.241,-0.369l-0.236,-0.513l-0.103,-0.102l-0.248,-0.248l-0.149,-0.205l-0.091,-0.043l-0.087,0.151Z" style="fill:url(#_Linear44);fill-rule:nonzero;"/><path d="M175.687,25.545l-0.195,0.199l-0.052,0.049l0.144,0.12l0.199,0.2l0.071,0.067l-0.008,0.15l-0.168,0.031l-0.188,-0.188l-0.149,-0.066l0,0.169l0,0.317l0.03,0.221l0.179,0.177l0.296,0.13l0.186,0.188l0.335,0.114l0.037,-0.241l0.064,-0.265l0,-0.085l0.299,-0.297l0.042,-0.7l-0.247,-0.151l-0.232,-0.081l-0.305,0l-0.135,-0.058l-0.203,0Z" style="fill:url(#_Linear45);fill-rule:nonzero;"/><path d="M174.517,33.615l0.332,0.332l0,0.257l0.147,-0.432l-0.08,-0.157l-0.399,0Z" style="fill:url(#_Linear46);fill-rule:nonzero;"/><path d="M178.233,21.888c0,0 0.007,0.36 0.177,0.36c0.164,0 0.397,0.035 0.164,-0.339c0,0 -0.257,0.023 -0.257,-0.102l-0.084,0.081Z" style="fill:url(#_Linear47);fill-rule:nonzero;"/><path d="M180.697,19.381l-0.165,0l-0.091,0.09l-0.054,0.04l-0.389,0.181l-0.063,0.26l0.412,0.106l0.276,-0.131l0.282,0l0.064,-0.063l0.133,-0.262l0,-0.221l-0.405,0Z" style="fill:url(#_Linear48);fill-rule:nonzero;"/><path d="M183.415,17.482c0,0 -0.025,0.504 -0.181,0.658c0,0 -0.884,-0.096 -1.074,0.091c0,0 -0.738,0.504 -1.305,0.504l-0.158,0.16l0.055,0.229l0.359,0l0.623,-0.051l0.18,-0.178l0.376,0l0.285,0.114c0,0 0.71,0 0.803,-0.401l0.52,-0.492c0,0 0.256,-0.197 0.128,-0.327c0,0 0.367,-0.353 0.088,-0.634c0,0 -0.381,-0.018 -0.49,-0.127c0,0 -0.339,0 -0.209,0.454Z" style="fill:url(#_Linear49);fill-rule:nonzero;"/><path d="M183.921,15.681c0,0 -0.38,0.227 -0.077,0.529c0.075,0.075 0.112,0.115 0.127,0.134c0.235,0.139 0.717,0.35 0.765,-0.245c0,0 0.117,-0.251 0.504,-0.251c0,0 0.22,-0.257 -0.116,-0.257c0,0 -0.166,-0.048 -0.428,-0.048c-0.209,0 -0.478,0.03 -0.775,0.138Z" style="fill:url(#_Linear50);fill-rule:nonzero;"/><path d="M183.971,16.344c-0.076,-0.045 -0.127,-0.082 -0.127,-0.082c0,0 0.173,0.143 0.127,0.082Z" style="fill:url(#_Linear51);fill-rule:nonzero;"/><path d="M185.642,14.957c0,0 -0.182,0.229 0.229,0.229c0,0 0.294,0.145 0.147,0.341c0,0 0.402,0.052 0.402,-0.232c0,0 0.632,-0.259 0.116,-0.779c0,0 -0.531,0.36 -0.894,0.441Z" style="fill:url(#_Linear52);fill-rule:nonzero;"/><path d="M187.558,13.477l-0.013,0.109c0,0 -0.219,0.223 -0.219,0.386l0.116,0.121l0.09,0.293l0,0.157l0.169,0c0,0 0.269,-0.272 0.194,-0.348c-0.08,-0.081 -0.194,-0.192 -0.194,-0.192c0,0 0.052,-0.082 0,-0.134c-0.052,-0.051 0.114,-0.224 0.114,-0.224l-0.047,-0.168l-0.21,0Z" style="fill:url(#_Linear53);fill-rule:nonzero;"/><path d="M167.707,29.634l0.063,0.561l0.038,0.164l0.158,0.158l0.182,0.368l0.101,0.102l0.054,-0.307l0,-0.312l-0.062,-0.227l-0.187,-0.099l-0.163,-0.166l0,-0.163l-0.073,-0.079l-0.111,0Z" style="fill:url(#_Linear54);fill-rule:nonzero;"/><path d="M168.397,30.966l0.257,0.498l0.041,0.181l0.202,0.33l0.203,0.202l0.035,0.109l0.078,-0.079l0.109,0l-0.218,-0.441l-0.196,-0.338l-0.221,-0.22l0,-0.323l-0.177,-0.178l-0.113,-0.064l0,0.323Z" style="fill:url(#_Linear55);fill-rule:nonzero;"/><path d="M170.009,32.768l0.011,0.025l0.115,0.233l0.205,0.022l0.072,0.195c0,0 0.182,-0.009 0.182,-0.063c0,-0.055 -0.078,-0.381 -0.078,-0.381l-0.121,-0.123l-0.386,0.092Z" style="fill:url(#_Linear56);fill-rule:nonzero;"/><path d="M170.981,33.391l-0.177,0.054l0.083,0.26l0.195,0.061l0,0.096l0.127,0.127c0,0 0.12,-0.194 0.088,-0.223c-0.031,-0.03 -0.08,-0.248 -0.08,-0.248l-0.131,-0.127l-0.105,0Z" style="fill:url(#_Linear57);fill-rule:nonzero;"/><path d="M171.517,33.98l0.099,0.103l0.281,0.063l0.143,0l0.103,0.106c0,0 0.171,-0.088 0.127,-0.13c-0.039,-0.042 -0.039,-0.26 -0.039,-0.26c0,0 -0.284,-0.042 -0.325,0c-0.042,0.037 -0.452,-0.169 -0.452,-0.169l0.063,0.287Z" style="fill:url(#_Linear58);fill-rule:nonzero;"/><path d="M172.505,34.518l0.267,0.196l0.17,0.036l0.118,-0.118l-0.228,-0.114l-0.327,0Z" style="fill:url(#_Linear59);fill-rule:nonzero;"/><path d="M179.083,37.522l-0.412,0.407l-0.693,-0.118l-0.18,0.336l-1.606,0l-1.058,1.055l-0.969,0c-0.183,0 -0.542,0.542 -0.542,0.542l0.164,0.501l1.015,1.013l0.816,1.12l3.267,-0.151l1.421,0l1.002,0.721l0.1,0.072c1.537,-0.585 2.98,-1.351 4.302,-2.284l-0.076,-0.076l-0.852,-0.852c-0.303,-1.118 -0.726,-1.18 -0.726,-1.18c-0.213,0 -0.725,-0.757 -0.725,-0.757c-0.544,-0.543 -0.409,-0.03 -0.409,-0.03l0,1.166l-0.528,0.524l-0.848,0.036l-0.319,-0.321l-0.771,-0.769l0.183,-0.451l0,-0.123l-0.734,-0.145l-0.234,-0.236l-0.588,0Z" style="fill:url(#_Linear60);fill-rule:nonzero;"/><path d="M177.08,5.832l-0.497,0.026l-1.275,0.657l-2.143,1.617l-0.775,0.094l-1.059,-0.592l-1.118,0.557l-1.617,0.654l-0.713,0.247l-0.718,0.283l-0.776,0.219l-0.776,0.029l-0.091,0.934l-2.054,-0.127l-0.619,-0.029l-0.312,0.309l-0.156,0.498c0,0 -1.359,0.543 -2.417,0.618c-3.047,3.41 -4.923,7.884 -4.958,12.798l0.607,-0.256l0.421,-0.186l0.56,0.213l1.372,-0.33l1.004,-0.651l-0.79,-0.351l-0.339,-0.336l-0.687,0l-0.521,-0.521l1.125,0l0.627,0.63l3.172,-0.1l0.631,1.005c0,0 0.649,1.885 0.886,1.885c0,0 1.769,-0.789 1.769,-1.376c0,0 0.105,-1.499 0,-1.606l1.714,-1.714l0.617,0.153l0.258,0.961c0,0 -0.173,1.072 -0.083,1.479c0.016,0.052 0.033,0.1 0.06,0.123c0.197,0.201 0.023,0.354 0.534,0.49l0,0.674l0,0.539l0,0.348l0,0.142l-0.174,0.173l0,0.197l0.267,0.095l0,0.536l0,0.607l-0.068,0.3l0.154,0.153l0,0.315l0,0.234l-0.098,0.362l0.107,0.209l0,0.245l0.198,0.28l0.197,0.162l0.271,0.326l0.136,0.254l0.13,0.051l0.023,-0.154l0.035,-0.327l0.07,-0.999l0,-0.247l-0.152,-0.222l-0.242,-0.418l-0.295,-0.383l-0.092,-0.141l-0.026,-0.477l0,-0.307l-0.019,-0.347c0,0 0.011,-0.174 0.011,-0.236c0,-0.06 0.198,-0.475 0.198,-0.475l0.372,0.292l0.245,0.348l0.209,0.43l0.397,0.26l0.42,0.128l0.479,-0.076l0.289,-0.451l0.175,-1.13l0.022,-0.433l-0.094,-0.395l-0.092,-0.349l-0.069,-0.394l-0.131,-0.571l-0.112,-0.513l0.337,-0.035l0.556,0.141l0.668,-0.038l0.315,0.079l0.021,0.248l0.223,-0.013l0.116,-0.188l1.072,-0.49l1.107,-0.871l0.745,-0.478l0.316,-0.282l0.316,-0.139l0.127,-1.166l0.035,-0.781l0.208,-0.36l0.598,-0.666l-0.014,-0.497l-0.444,-0.015l-0.186,-0.035l-0.243,-0.395l0.396,0l1.081,0.024l0.328,0.138l0.094,0.574l0.103,0.826l0.025,0.397l0.791,0.095l0.362,0l0.129,-2.157l1.166,-0.816l1.071,0.141l0.909,-1.087l1.411,-1.143l0.313,-0.509l-0.009,-0.307l-0.63,-0.407l-0.359,-0.347l-0.132,-0.244l1.494,-1.332l0.427,0.023l0.816,0.095l0.991,0.026l0.212,-0.035l0.035,-0.281c-2.192,-2.01 -4.833,-3.526 -7.766,-4.368l-0.186,0.129l-0.566,-0.323c-0.066,-0.016 -0.13,-0.035 -0.196,-0.05l-1.787,0Z" style="fill:url(#_Linear61);fill-rule:nonzero;"/><path d="M155.334,24.963l-0.324,0c0.003,0.335 0.029,0.664 0.05,0.993l0.58,-0.374l0.383,-0.383l-0.236,-0.236l-0.453,0Z" style="fill:url(#_Linear62);fill-rule:nonzero;"/><path d="M188.127,11.07l-0.361,0.197l-0.035,1.154l0.667,0.366l0.125,0.254l0.444,-0.095l0.326,-0.371l0.18,-0.165c-0.418,-0.508 -0.863,-0.992 -1.33,-1.454l-0.016,0.114Z" style="fill:url(#_Linear63);fill-rule:nonzero;"/><path d="M156.333,119.084l0.159,57.625l-20.022,-15.447l0.03,-39.649l-1.627,0.213l0,40.182l21.623,16.965l0.002,-0.001l0,0.005l68.519,-8.669l0,-60.283l-68.684,9.059Z" style="fill:url(#_Linear64);fill-rule:nonzero;"/><path d="M197.222,43.265l-6.116,0.789c-4.47,3.862 -10.282,6.213 -16.652,6.213c-4.025,0 -7.817,-0.958 -11.202,-2.619l-27.663,3.57l21.622,16.966l66.968,-8.641l-17.392,-13.647c-2.272,-1.783 -5.064,-2.737 -7.92,-2.737c-0.547,0 -1.096,0.035 -1.645,0.106Zm-33.263,11.528l29.113,-3.848c0.564,-0.075 1.135,0.082 1.584,0.433l1.69,1.326l-29.995,3.966l-2.392,-1.877Z" style="fill:url(#_Linear65);fill-rule:nonzero;"/><defs><linearGradient id="_Linear1" x1="0" y1="0" x2="1" y2="0" gradientUnits="userSpaceOnUse" gradientTransform="matrix(18.8098,0,0,18.8098,6.7017,111.617)"><stop offset="0" style="stop-color:#23455d;stop-opacity:1"/><stop offset="0.69" style="stop-color:#23455d;stop-opacity:1"/><stop offset="1" style="stop-color:#23455d;stop-opacity:1"/></linearGradient><linearGradient id="_Linear2" x1="0" y1="0" x2="1" y2="0" gradientUnits="userSpaceOnUse" gradientTransform="matrix(17.3096,0,0,17.3096,28.7424,108.216)"><stop offset="0" style="stop-color:#23455d;stop-opacity:1"/><stop offset="0.69" style="stop-color:#23455d;stop-opacity:1"/><stop offset="1" style="stop-color:#23455d;stop-opacity:1"/></linearGradient><linearGradient id="_Linear3" x1="0" y1="0" x2="1" y2="0" gradientUnits="userSpaceOnUse" gradientTransform="matrix(19.7332,0,0,19.7332,49.9753,105.82)"><stop offset="0" style="stop-color:#23455d;stop-opacity:1"/><stop offset="0.69" style="stop-color:#23455d;stop-opacity:1"/><stop offset="1" style="stop-color:#23455d;stop-opacity:1"/></linearGradient><linearGradient id="_Linear4" x1="0" y1="0" x2="1" y2="0" gradientUnits="userSpaceOnUse" gradientTransform="matrix(12.1743,0,0,12.1743,71.4393,102.865)"><stop offset="0" style="stop-color:#23455d;stop-opacity:1"/><stop offset="0.69" style="stop-color:#23455d;stop-opacity:1"/><stop offset="1" style="stop-color:#23455d;stop-opacity:1"/></linearGradient><linearGradient id="_Linear5" x1="0" y1="0" x2="1" y2="0" gradientUnits="userSpaceOnUse" gradientTransform="matrix(18.9241,0,0,18.9241,87.653,99.9466)"><stop offset="0" style="stop-color:#23455d;stop-opacity:1"/><stop offset="0.69" style="stop-color:#23455d;stop-opacity:1"/><stop offset="1" style="stop-color:#23455d;stop-opacity:1"/></linearGradient><linearGradient id="_Linear6" x1="0" y1="0" x2="1" y2="0" gradientUnits="userSpaceOnUse" gradientTransform="matrix(22.2145,0,0,22.2145,109.232,97.5882)"><stop offset="0" style="stop-color:#23455d;stop-opacity:1"/><stop offset="0.69" style="stop-color:#23455d;stop-opacity:1"/><stop offset="1" style="stop-color:#23455d;stop-opacity:1"/></linearGradient><linearGradient id="_Linear7" x1="0" y1="0" x2="1" y2="0" gradientUnits="userSpaceOnUse" gradientTransform="matrix(20.1371,0,0,20.1371,134.33,93.9495)"><stop offset="0" style="stop-color:#23455d;stop-opacity:1"/><stop offset="0.69" style="stop-color:#23455d;stop-opacity:1"/><stop offset="1" style="stop-color:#23455d;stop-opacity:1"/></linearGradient><linearGradient id="_Linear8" x1="0" y1="0" x2="1" y2="0" gradientUnits="userSpaceOnUse" gradientTransform="matrix(18.9251,0,0,18.9251,158.506,90.807)"><stop offset="0" style="stop-color:#23455d;stop-opacity:1"/><stop offset="0.69" style="stop-color:#23455d;stop-opacity:1"/><stop offset="1" style="stop-color:#23455d;stop-opacity:1"/></linearGradient><linearGradient id="_Linear9" x1="0" y1="0" x2="1" y2="0" gradientUnits="userSpaceOnUse" gradientTransform="matrix(22.2136,0,0,22.2136,179.799,88.1795)"><stop offset="0" style="stop-color:#23455d;stop-opacity:1"/><stop offset="0.69" style="stop-color:#23455d;stop-opacity:1"/><stop offset="1" style="stop-color:#23455d;stop-opacity:1"/></linearGradient><linearGradient id="_Linear10" x1="0" y1="0" x2="1" y2="0" gradientUnits="userSpaceOnUse" gradientTransform="matrix(20.1371,0,0,20.1371,204.897,84.5406)"><stop offset="0" style="stop-color:#23455d;stop-opacity:1"/><stop offset="0.69" style="stop-color:#23455d;stop-opacity:1"/><stop offset="1" style="stop-color:#23455d;stop-opacity:1"/></linearGradient><linearGradient id="_Linear11" x1="0" y1="0" x2="1" y2="0" gradientUnits="userSpaceOnUse" gradientTransform="matrix(0.894789,0,0,0.894789,162.222,5.29186)"><stop offset="0" style="stop-color:#23455d;stop-opacity:1"/><stop offset="0.69" style="stop-color:#23455d;stop-opacity:1"/><stop offset="1" style="stop-color:#23455d;stop-opacity:1"/></linearGradient><linearGradient id="_Linear12" x1="0" y1="0" x2="1" y2="0" gradientUnits="userSpaceOnUse" gradientTransform="matrix(0.733357,0,0,0.733357,184.515,5.27213)"><stop offset="0" style="stop-color:#23455d;stop-opacity:1"/><stop offset="0.69" style="stop-color:#23455d;stop-opacity:1"/><stop offset="1" style="stop-color:#23455d;stop-opacity:1"/></linearGradient><linearGradient id="_Linear13" x1="0" y1="0" x2="1" y2="0" gradientUnits="userSpaceOnUse" gradientTransform="matrix(0.947543,-5.55112e-17,5.55112e-17,0.947543,191.118,10.9635)"><stop offset="0" style="stop-color:#23455d;stop-opacity:1"/><stop offset="0.69" style="stop-color:#23455d;stop-opacity:1"/><stop offset="1" style="stop-color:#23455d;stop-opacity:1"/></linearGradient><linearGradient id="_Linear14" x1="0" y1="0" x2="1" y2="0" gradientUnits="userSpaceOnUse" gradientTransform="matrix(0.90653,0,0,0.90653,158.493,9.13654)"><stop offset="0" style="stop-color:#23455d;stop-opacity:1"/><stop offset="0.69" style="stop-color:#23455d;stop-opacity:1"/><stop offset="1" style="stop-color:#23455d;stop-opacity:1"/></linearGradient><linearGradient id="_Linear15" x1="0" y1="0" x2="1" y2="0" gradientUnits="userSpaceOnUse" gradientTransform="matrix(1.25039,0,0,1.25039,151.441,21.2766)"><stop offset="0" style="stop-color:#23455d;stop-opacity:1"/><stop offset="0.69" style="stop-color:#23455d;stop-opacity:1"/><stop offset="1" style="stop-color:#23455d;stop-opacity:1"/></linearGradient><linearGradient id="_Linear16" x1="0" y1="0" x2="1" y2="0" gradientUnits="userSpaceOnUse" gradientTransform="matrix(1.00105,0,0,1.00105,154.686,14.1737)"><stop offset="0" style="stop-color:#23455d;stop-opacity:1"/><stop offset="0.69" style="stop-color:#23455d;stop-opacity:1"/><stop offset="1" style="stop-color:#23455d;stop-opacity:1"/></linearGradient><linearGradient id="_Linear17" x1="0" y1="0" x2="1" y2="0" gradientUnits="userSpaceOnUse" gradientTransform="matrix(1.19278,0,0,1.19278,152.41,17.3411)"><stop offset="0" style="stop-color:#23455d;stop-opacity:1"/><stop offset="0.69" style="stop-color:#23455d;stop-opacity:1"/><stop offset="1" style="stop-color:#23455d;stop-opacity:1"/></linearGradient><linearGradient id="_Linear18" x1="0" y1="0" x2="1" y2="0" gradientUnits="userSpaceOnUse" gradientTransform="matrix(0.575055,-1.38778e-17,1.38778e-17,0.575055,177.317,2.7558)"><stop offset="0" style="stop-color:#23455d;stop-opacity:1"/><stop offset="0.69" style="stop-color:#23455d;stop-opacity:1"/><stop offset="1" style="stop-color:#23455d;stop-opacity:1"/></linearGradient><linearGradient id="_Linear19" x1="0" y1="0" x2="1" y2="0" gradientUnits="userSpaceOnUse" gradientTransform="matrix(1.00552,0,0,1.00552,195.69,21.1886)"><stop offset="0" style="stop-color:#23455d;stop-opacity:1"/><stop offset="0.69" style="stop-color:#23455d;stop-opacity:1"/><stop offset="1" style="stop-color:#23455d;stop-opacity:1"/></linearGradient><linearGradient id="_Linear20" x1="0" y1="0" x2="1" y2="0" gradientUnits="userSpaceOnUse" gradientTransform="matrix(0.99971,0,0,0.99971,193.435,14.56)"><stop offset="0" style="stop-color:#23455d;stop-opacity:1"/><stop offset="0.69" style="stop-color:#23455d;stop-opacity:1"/><stop offset="1" style="stop-color:#23455d;stop-opacity:1"/></linearGradient><linearGradient id="_Linear21" x1="0" y1="0" x2="1" y2="0" gradientUnits="userSpaceOnUse" gradientTransform="matrix(1.74247,0,0,1.74247,157.239,40.2027)"><stop offset="0" style="stop-color:#23455d;stop-opacity:1"/><stop offset="0.69" style="stop-color:#23455d;stop-opacity:1"/><stop offset="1" style="stop-color:#23455d;stop-opacity:1"/></linearGradient><linearGradient id="_Linear22" x1="0" y1="0" x2="1" y2="0" gradientUnits="userSpaceOnUse" gradientTransform="matrix(0.796445,0,0,0.796445,192.833,37.1618)"><stop offset="0" style="stop-color:#23455d;stop-opacity:1"/><stop offset="0.69" style="stop-color:#23455d;stop-opacity:1"/><stop offset="1" style="stop-color:#23455d;stop-opacity:1"/></linearGradient><linearGradient id="_Linear23" x1="0" y1="0" x2="1" y2="0" gradientUnits="userSpaceOnUse" gradientTransform="matrix(0.471709,-1.73472e-18,1.73472e-18,0.471709,180.737,46.3651)"><stop offset="0" style="stop-color:#23455d;stop-opacity:1"/><stop offset="0.69" style="stop-color:#23455d;stop-opacity:1"/><stop offset="1" style="stop-color:#23455d;stop-opacity:1"/></linearGradient><linearGradient id="_Linear24" x1="0" y1="0" x2="1" y2="0" gradientUnits="userSpaceOnUse" gradientTransform="matrix(0.633287,0,0,0.633287,167.354,45.6912)"><stop offset="0" style="stop-color:#23455d;stop-opacity:1"/><stop offset="0.69" style="stop-color:#23455d;stop-opacity:1"/><stop offset="1" style="stop-color:#23455d;stop-opacity:1"/></linearGradient><linearGradient id="_Linear25" x1="0" y1="0" x2="1" y2="0" gradientUnits="userSpaceOnUse" gradientTransform="matrix(0.883683,0,0,0.883683,175.803,47.2493)"><stop offset="0" style="stop-color:#23455d;stop-opacity:1"/><stop offset="0.69" style="stop-color:#23455d;stop-opacity:1"/><stop offset="1" style="stop-color:#23455d;stop-opacity:1"/></linearGradient><linearGradient id="_Linear26" x1="0" y1="0" x2="1" y2="0" gradientUnits="userSpaceOnUse" gradientTransform="matrix(1.62059,0,0,1.62059,188.193,41.939)"><stop offset="0" style="stop-color:#23455d;stop-opacity:1"/><stop offset="0.69" style="stop-color:#23455d;stop-opacity:1"/><stop offset="1" style="stop-color:#23455d;stop-opacity:1"/></linearGradient><linearGradient id="_Linear27" x1="0" y1="0" x2="1" y2="0" gradientUnits="userSpaceOnUse" gradientTransform="matrix(0.466597,1.38778e-17,-1.38778e-17,0.466597,170.954,47.049)"><stop offset="0" style="stop-color:#23455d;stop-opacity:1"/><stop offset="0.69" style="stop-color:#23455d;stop-opacity:1"/><stop offset="1" style="stop-color:#23455d;stop-opacity:1"/></linearGradient><linearGradient id="_Linear28" x1="0" y1="0" x2="1" y2="0" gradientUnits="userSpaceOnUse" gradientTransform="matrix(0.819508,0,0,0.819508,194.5,33.9888)"><stop offset="0" style="stop-color:#23455d;stop-opacity:1"/><stop offset="0.69" style="stop-color:#23455d;stop-opacity:1"/><stop offset="1" style="stop-color:#23455d;stop-opacity:1"/></linearGradient><linearGradient id="_Linear29" x1="0" y1="0" x2="1" y2="0" gradientUnits="userSpaceOnUse" gradientTransform="matrix(1.3607,0,0,1.3607,184.546,44.5612)"><stop offset="0" style="stop-color:#23455d;stop-opacity:1"/><stop offset="0.69" style="stop-color:#23455d;stop-opacity:1"/><stop offset="1" style="stop-color:#23455d;stop-opacity:1"/></linearGradient><linearGradient id="_Linear30" x1="0" y1="0" x2="1" y2="0" gradientUnits="userSpaceOnUse" gradientTransform="matrix(0.807947,0,0,0.807947,196.076,28.1226)"><stop offset="0" style="stop-color:#23455d;stop-opacity:1"/><stop offset="0.69" style="stop-color:#23455d;stop-opacity:1"/><stop offset="1" style="stop-color:#23455d;stop-opacity:1"/></linearGradient><linearGradient id="_Linear31" x1="0" y1="0" x2="1" y2="0" gradientUnits="userSpaceOnUse" gradientTransform="matrix(49.5192,0,0,49.5192,149.695,37.1905)"><stop offset="0" style="stop-color:#23455d;stop-opacity:1"/><stop offset="0.69" style="stop-color:#23455d;stop-opacity:1"/><stop offset="1" style="stop-color:#23455d;stop-opacity:1"/></linearGradient><linearGradient id="_Linear32" x1="0" y1="0" x2="1" y2="0" gradientUnits="userSpaceOnUse" gradientTransform="matrix(0.0015104,0,0,0.0015104,154.138,24.7612)"><stop offset="0" style="stop-color:#23455d;stop-opacity:1"/><stop offset="0.69" style="stop-color:#23455d;stop-opacity:1"/><stop offset="1" style="stop-color:#23455d;stop-opacity:1"/></linearGradient><linearGradient id="_Linear33" x1="0" y1="0" x2="1" y2="0" gradientUnits="userSpaceOnUse" gradientTransform="matrix(49.5192,0,0,49.5192,149.695,12.3335)"><stop offset="0" style="stop-color:#23455d;stop-opacity:1"/><stop offset="0.69" style="stop-color:#23455d;stop-opacity:1"/><stop offset="1" style="stop-color:#23455d;stop-opacity:1"/></linearGradient><linearGradient id="_Linear34" x1="0" y1="0" x2="1" y2="0" gradientUnits="userSpaceOnUse" gradientTransform="matrix(0.14865,0,0,0.14865,169.641,32.5818)"><stop offset="0" style="stop-color:#23455d;stop-opacity:1"/><stop offset="0.69" style="stop-color:#23455d;stop-opacity:1"/><stop offset="1" style="stop-color:#23455d;stop-opacity:1"/></linearGradient><linearGradient id="_Linear35" x1="0" y1="0" x2="1" y2="0" gradientUnits="userSpaceOnUse" gradientTransform="matrix(0.654003,0,0,0.654003,187.58,10.5486)"><stop offset="0" style="stop-color:#23455d;stop-opacity:1"/><stop offset="0.69" style="stop-color:#23455d;stop-opacity:1"/><stop offset="1" style="stop-color:#23455d;stop-opacity:1"/></linearGradient><linearGradient id="_Linear36" x1="0" y1="0" x2="1" y2="0" gradientUnits="userSpaceOnUse" gradientTransform="matrix(4.57062,0,0,4.57062,179.894,34.7111)"><stop offset="0" style="stop-color:#23455d;stop-opacity:1"/><stop offset="0.69" style="stop-color:#23455d;stop-opacity:1"/><stop offset="1" style="stop-color:#23455d;stop-opacity:1"/></linearGradient><linearGradient id="_Linear37" x1="0" y1="0" x2="1" y2="0" gradientUnits="userSpaceOnUse" gradientTransform="matrix(0.582956,0,0,0.582956,187.519,34.687)"><stop offset="0" style="stop-color:#23455d;stop-opacity:1"/><stop offset="0.69" style="stop-color:#23455d;stop-opacity:1"/><stop offset="1" style="stop-color:#23455d;stop-opacity:1"/></linearGradient><linearGradient id="_Linear38" x1="0" y1="0" x2="1" y2="0" gradientUnits="userSpaceOnUse" gradientTransform="matrix(0.433485,0,0,0.433485,179.304,33.3188)"><stop offset="0" style="stop-color:#23455d;stop-opacity:1"/><stop offset="0.69" style="stop-color:#23455d;stop-opacity:1"/><stop offset="1" style="stop-color:#23455d;stop-opacity:1"/></linearGradient><linearGradient id="_Linear39" x1="0" y1="0" x2="1" y2="0" gradientUnits="userSpaceOnUse" gradientTransform="matrix(2.37528,0,0,2.37528,175.378,30.1174)"><stop offset="0" style="stop-color:#23455d;stop-opacity:1"/><stop offset="0.69" style="stop-color:#23455d;stop-opacity:1"/><stop offset="1" style="stop-color:#23455d;stop-opacity:1"/></linearGradient><linearGradient id="_Linear40" x1="0" y1="0" x2="1" y2="0" gradientUnits="userSpaceOnUse" gradientTransform="matrix(1.94388,0,0,1.94388,174.164,33.0772)"><stop offset="0" style="stop-color:#23455d;stop-opacity:1"/><stop offset="0.69" style="stop-color:#23455d;stop-opacity:1"/><stop offset="1" style="stop-color:#23455d;stop-opacity:1"/></linearGradient><linearGradient id="_Linear41" x1="0" y1="0" x2="1" y2="0" gradientUnits="userSpaceOnUse" gradientTransform="matrix(3.47047,0,0,3.47047,170.509,31.2394)"><stop offset="0" style="stop-color:#23455d;stop-opacity:1"/><stop offset="0.69" style="stop-color:#23455d;stop-opacity:1"/><stop offset="1" style="stop-color:#23455d;stop-opacity:1"/></linearGradient><linearGradient id="_Linear42" x1="0" y1="0" x2="1" y2="0" gradientUnits="userSpaceOnUse" gradientTransform="matrix(0.919601,0,0,0.919601,174.484,28.4324)"><stop offset="0" style="stop-color:#23455d;stop-opacity:1"/><stop offset="0.69" style="stop-color:#23455d;stop-opacity:1"/><stop offset="1" style="stop-color:#23455d;stop-opacity:1"/></linearGradient><linearGradient id="_Linear43" x1="0" y1="0" x2="1" y2="0" gradientUnits="userSpaceOnUse" gradientTransform="matrix(0.64494,0,0,0.64494,175.672,27.8675)"><stop offset="0" style="stop-color:#23455d;stop-opacity:1"/><stop offset="0.69" style="stop-color:#23455d;stop-opacity:1"/><stop offset="1" style="stop-color:#23455d;stop-opacity:1"/></linearGradient><linearGradient id="_Linear44" x1="0" y1="0" x2="1" y2="0" gradientUnits="userSpaceOnUse" gradientTransform="matrix(1.36784,0,0,1.36784,176.1,28.5395)"><stop offset="0" style="stop-color:#23455d;stop-opacity:1"/><stop offset="0.69" style="stop-color:#23455d;stop-opacity:1"/><stop offset="1" style="stop-color:#23455d;stop-opacity:1"/></linearGradient><linearGradient id="_Linear45" x1="0" y1="0" x2="1" y2="0" gradientUnits="userSpaceOnUse" gradientTransform="matrix(1.46782,0,0,1.46782,175.342,26.4844)"><stop offset="0" style="stop-color:#23455d;stop-opacity:1"/><stop offset="0.69" style="stop-color:#23455d;stop-opacity:1"/><stop offset="1" style="stop-color:#23455d;stop-opacity:1"/></linearGradient><linearGradient id="_Linear46" x1="0" y1="0" x2="1" y2="0" gradientUnits="userSpaceOnUse" gradientTransform="matrix(0.47868,0,0,0.47868,174.517,33.9092)"><stop offset="0" style="stop-color:#23455d;stop-opacity:1"/><stop offset="0.69" style="stop-color:#23455d;stop-opacity:1"/><stop offset="1" style="stop-color:#23455d;stop-opacity:1"/></linearGradient><linearGradient id="_Linear47" x1="0" y1="0" x2="1" y2="0" gradientUnits="userSpaceOnUse" gradientTransform="matrix(0.439214,3.46945e-18,-3.46945e-18,0.439214,178.233,22.0271)"><stop offset="0" style="stop-color:#23455d;stop-opacity:1"/><stop offset="0.69" style="stop-color:#23455d;stop-opacity:1"/><stop offset="1" style="stop-color:#23455d;stop-opacity:1"/></linearGradient><linearGradient id="_Linear48" x1="0" y1="0" x2="1" y2="0" gradientUnits="userSpaceOnUse" gradientTransform="matrix(1.16742,0,0,1.16742,179.935,19.7193)"><stop offset="0" style="stop-color:#23455d;stop-opacity:1"/><stop offset="0.69" style="stop-color:#23455d;stop-opacity:1"/><stop offset="1" style="stop-color:#23455d;stop-opacity:1"/></linearGradient><linearGradient id="_Linear49" x1="0" y1="0" x2="1" y2="0" gradientUnits="userSpaceOnUse" gradientTransform="matrix(3.5205,0,0,3.5205,180.698,18.0764)"><stop offset="0" style="stop-color:#23455d;stop-opacity:1"/><stop offset="0.69" style="stop-color:#23455d;stop-opacity:1"/><stop offset="1" style="stop-color:#23455d;stop-opacity:1"/></linearGradient><linearGradient id="_Linear50" x1="0" y1="0" x2="1" y2="0" gradientUnits="userSpaceOnUse" gradientTransform="matrix(1.5837,0,0,1.5837,183.727,16.0199)"><stop offset="0" style="stop-color:#23455d;stop-opacity:1"/><stop offset="0.69" style="stop-color:#23455d;stop-opacity:1"/><stop offset="1" style="stop-color:#23455d;stop-opacity:1"/></linearGradient><linearGradient id="_Linear51" x1="0" y1="0" x2="1" y2="0" gradientUnits="userSpaceOnUse" gradientTransform="matrix(0.134302,0,0,0.134302,183.845,16.3103)"><stop offset="0" style="stop-color:#23455d;stop-opacity:1"/><stop offset="0.69" style="stop-color:#23455d;stop-opacity:1"/><stop offset="1" style="stop-color:#23455d;stop-opacity:1"/></linearGradient><linearGradient id="_Linear52" x1="0" y1="0" x2="1" y2="0" gradientUnits="userSpaceOnUse" gradientTransform="matrix(1.13663,0,0,1.13663,185.602,15.0234)"><stop offset="0" style="stop-color:#23455d;stop-opacity:1"/><stop offset="0.69" style="stop-color:#23455d;stop-opacity:1"/><stop offset="1" style="stop-color:#23455d;stop-opacity:1"/></linearGradient><linearGradient id="_Linear53" x1="0" y1="0" x2="1" y2="0" gradientUnits="userSpaceOnUse" gradientTransform="matrix(0.582578,0,0,0.582578,187.325,14.0099)"><stop offset="0" style="stop-color:#23455d;stop-opacity:1"/><stop offset="0.69" style="stop-color:#23455d;stop-opacity:1"/><stop offset="1" style="stop-color:#23455d;stop-opacity:1"/></linearGradient><linearGradient id="_Linear54" x1="0" y1="0" x2="1" y2="0" gradientUnits="userSpaceOnUse" gradientTransform="matrix(0.596375,0,0,0.596375,167.707,30.3107)"><stop offset="0" style="stop-color:#23455d;stop-opacity:1"/><stop offset="0.69" style="stop-color:#23455d;stop-opacity:1"/><stop offset="1" style="stop-color:#23455d;stop-opacity:1"/></linearGradient><linearGradient id="_Linear55" x1="0" y1="0" x2="1" y2="0" gradientUnits="userSpaceOnUse" gradientTransform="matrix(0.925642,0,0,0.925642,168.397,31.4643)"><stop offset="0" style="stop-color:#23455d;stop-opacity:1"/><stop offset="0.69" style="stop-color:#23455d;stop-opacity:1"/><stop offset="1" style="stop-color:#23455d;stop-opacity:1"/></linearGradient><linearGradient id="_Linear56" x1="0" y1="0" x2="1" y2="0" gradientUnits="userSpaceOnUse" gradientTransform="matrix(0.584641,0,0,0.584641,170.01,32.9593)"><stop offset="0" style="stop-color:#23455d;stop-opacity:1"/><stop offset="0.69" style="stop-color:#23455d;stop-opacity:1"/><stop offset="1" style="stop-color:#23455d;stop-opacity:1"/></linearGradient><linearGradient id="_Linear57" x1="0" y1="0" x2="1" y2="0" gradientUnits="userSpaceOnUse" gradientTransform="matrix(0.498987,0,0,0.498987,170.804,33.6902)"><stop offset="0" style="stop-color:#23455d;stop-opacity:1"/><stop offset="0.69" style="stop-color:#23455d;stop-opacity:1"/><stop offset="1" style="stop-color:#23455d;stop-opacity:1"/></linearGradient><linearGradient id="_Linear58" x1="0" y1="0" x2="1" y2="0" gradientUnits="userSpaceOnUse" gradientTransform="matrix(0.822872,0,0,0.822872,171.455,33.9726)"><stop offset="0" style="stop-color:#23455d;stop-opacity:1"/><stop offset="0.69" style="stop-color:#23455d;stop-opacity:1"/><stop offset="1" style="stop-color:#23455d;stop-opacity:1"/></linearGradient><linearGradient id="_Linear59" x1="0" y1="0" x2="1" y2="0" gradientUnits="userSpaceOnUse" gradientTransform="matrix(0.555769,0,0,0.555769,172.504,34.6341)"><stop offset="0" style="stop-color:#23455d;stop-opacity:1"/><stop offset="0.69" style="stop-color:#23455d;stop-opacity:1"/><stop offset="1" style="stop-color:#23455d;stop-opacity:1"/></linearGradient><linearGradient id="_Linear60" x1="0" y1="0" x2="1" y2="0" gradientUnits="userSpaceOnUse" gradientTransform="matrix(12.087,0,0,12.087,173.623,40.2716)"><stop offset="0" style="stop-color:#23455d;stop-opacity:1"/><stop offset="0.69" style="stop-color:#23455d;stop-opacity:1"/><stop offset="1" style="stop-color:#23455d;stop-opacity:1"/></linearGradient><linearGradient id="_Linear61" x1="0" y1="0" x2="1" y2="0" gradientUnits="userSpaceOnUse" gradientTransform="matrix(32.5737,0,0,32.5737,155.006,18.0842)"><stop offset="0" style="stop-color:#23455d;stop-opacity:1"/><stop offset="0.69" style="stop-color:#23455d;stop-opacity:1"/><stop offset="1" style="stop-color:#23455d;stop-opacity:1"/></linearGradient><linearGradient id="_Linear62" x1="0" y1="0" x2="1" y2="0" gradientUnits="userSpaceOnUse" gradientTransform="matrix(1.01371,0,0,1.01371,155.01,25.46)"><stop offset="0" style="stop-color:#23455d;stop-opacity:1"/><stop offset="0.69" style="stop-color:#23455d;stop-opacity:1"/><stop offset="1" style="stop-color:#23455d;stop-opacity:1"/></linearGradient><linearGradient id="_Linear63" x1="0" y1="0" x2="1" y2="0" gradientUnits="userSpaceOnUse" gradientTransform="matrix(1.74248,0,0,1.74248,187.73,11.9981)"><stop offset="0" style="stop-color:#23455d;stop-opacity:1"/><stop offset="0.69" style="stop-color:#23455d;stop-opacity:1"/><stop offset="1" style="stop-color:#23455d;stop-opacity:1"/></linearGradient><linearGradient id="_Linear64" x1="0" y1="0" x2="1" y2="0" gradientUnits="userSpaceOnUse" gradientTransform="matrix(90.1436,0,0,90.1436,134.873,144.501)"><stop offset="0" style="stop-color:#23455d;stop-opacity:1"/><stop offset="0.69" style="stop-color:#23455d;stop-opacity:1"/><stop offset="1" style="stop-color:#23455d;stop-opacity:1"/></linearGradient><linearGradient id="_Linear65" x1="0" y1="0" x2="1" y2="0" gradientUnits="userSpaceOnUse" gradientTransform="matrix(88.5902,0,0,88.5902,135.589,55.6714)"><stop offset="0" style="stop-color:#23455d;stop-opacity:1"/><stop offset="0.69" style="stop-color:#23455d;stop-opacity:1"/><stop offset="1" style="stop-color:#23455d;stop-opacity:1"/></linearGradient></defs></svg>