<?xml version="1.0" encoding="UTF-8" standalone="no"?><!DOCTYPE svg PUBLIC "-//W3C//DTD SVG 1.1//EN" "http://www.w3.org/Graphics/SVG/1.1/DTD/svg11.dtd"><svg width="100%" height="100%" viewBox="0 0 421 373" version="1.1" xmlns="http://www.w3.org/2000/svg" xmlns:xlink="http://www.w3.org/1999/xlink" xml:space="preserve" xmlns:serif="http://www.serif.com/" style="fill-rule:evenodd;clip-rule:evenodd;stroke-linejoin:round;stroke-miterlimit:2;"><rect x="360.181" y="338.325" width="24.834" height="0.25" style="fill:#c5daf1;fill-rule:nonzero;"/><rect x="392.349" y="338.2" width="8.39" height="0.25" style="fill:#c5daf1;fill-rule:nonzero;"/><rect x="241.829" y="339.88" width="51.989" height="0.25" style="fill:#c5daf1;fill-rule:nonzero;"/><rect x="221.818" y="342.589" width="7.752" height="0.25" style="fill:#c5daf1;fill-rule:nonzero;"/><rect x="60.383" y="334.672" width="13.357" height="0.25" style="fill:#c5daf1;fill-rule:nonzero;"/><rect x="79.293" y="334.672" width="67.76" height="0.25" style="fill:#c5daf1;fill-rule:nonzero;"/><rect x="42.151" y="340.714" width="47.142" height="0.25" style="fill:#c5daf1;fill-rule:nonzero;"/><path d="M5.708,0.251c-3.01,0 -5.458,2.448 -5.458,5.457l0,271.431c0,3.01 2.448,5.458 5.458,5.458l193.099,0c3.008,0 5.457,-2.448 5.457,-5.458l0,-271.431c0,-3.009 -2.449,-5.457 -5.457,-5.457l-193.099,0Zm193.099,282.596l-193.099,0c-3.148,0 -5.708,-2.56 -5.708,-5.708l0,-271.431c0,-3.147 2.56,-5.708 5.708,-5.708l193.099,0c3.146,0 5.707,2.561 5.707,5.708l0,271.431c0,3.148 -2.561,5.708 -5.707,5.708Z" style="fill:#c5daf1;fill-rule:nonzero;"/><path d="M222.005,0.251c-3.009,0 -5.457,2.448 -5.457,5.457l0,271.431c0,3.01 2.448,5.458 5.457,5.458l193.099,0c3.009,0 5.458,-2.448 5.458,-5.458l0,-271.431c0,-3.009 -2.449,-5.457 -5.458,-5.457l-193.099,0Zm193.099,282.596l-193.099,0c-3.147,0 -5.707,-2.56 -5.707,-5.708l0,-271.431c0,-3.147 2.56,-5.708 5.707,-5.708l193.099,0c3.147,0 5.708,2.561 5.708,5.708l0,271.431c0,3.148 -2.561,5.708 -5.708,5.708Z" style="fill:#c5daf1;fill-rule:nonzero;"/><rect x="303.544" y="263.329" width="35.331" height="64.117" style="fill:#c5daf1;fill-rule:nonzero;"/><rect x="338.875" y="263.329" width="42.152" height="64.117" style="fill:#dae8f7;fill-rule:nonzero;"/><rect x="381.027" y="269.971" width="0.369" height="1.682" style="fill:#d5e5f6;fill-rule:nonzero;"/><path d="M381.027,271.653l-15.922,0l-0.15,-1.682l16.072,0l0,1.682Z" style="fill:#bad3ee;fill-rule:nonzero;"/><rect x="301.595" y="256.613" width="37.28" height="13.358" style="fill:#c5daf1;fill-rule:nonzero;"/><rect x="338.875" y="256.613" width="44.103" height="13.358" style="fill:#dae8f7;fill-rule:nonzero;"/><rect x="36.927" y="19.038" width="118.928" height="141.897" style="fill:#c5daf1;fill-rule:nonzero;"/><rect x="39.47" y="19.038" width="121.826" height="141.897" style="fill:#dae8f7;fill-rule:nonzero;"/><rect x="36.927" y="160.935" width="118.928" height="10.11" style="fill:#c5daf1;fill-rule:nonzero;"/><rect x="48.534" y="160.935" width="121.826" height="10.11" style="fill:#dae8f7;fill-rule:nonzero;"/><rect x="47.087" y="26.656" width="106.592" height="126.661" style="fill:#f1fafe;fill-rule:nonzero;"/><path d="M60.173,153.317l44.71,-126.661l21.105,0l-44.709,126.661l-21.106,0Z" style="fill:#fff;fill-rule:nonzero;"/><path d="M50.614,110.344c-0.3,0 -0.544,-0.244 -0.544,-0.544l0,-78.188c0,-0.3 0.244,-0.544 0.544,-0.544c0.3,0 0.544,0.244 0.544,0.544l0,78.188c0,0.3 -0.244,0.544 -0.544,0.544Z" style="fill:#d9e8f7;fill-rule:nonzero;"/><path d="M85.813,153.317l44.709,-126.661l8.228,0l-44.709,126.661l-8.228,0Z" style="fill:#fff;fill-rule:nonzero;"/><rect x="152.711" y="26.656" width="0.968" height="126.661" style="fill:#c5daf1;fill-rule:nonzero;"/><path d="M163.097,36.401l-118.927,0l-0.701,-6.784l118.928,0l0.7,6.784Z" style="fill:#c5daf1;fill-rule:nonzero;"/><path d="M163.097,41.367l-118.927,0l-0.701,-6.784l118.928,0l0.7,6.784Z" style="fill:#c5daf1;fill-rule:nonzero;"/><path d="M163.097,47.326l-118.927,0l-0.701,-6.784l118.928,0l0.7,6.784Z" style="fill:#c5daf1;fill-rule:nonzero;"/><path d="M163.097,53.958l-118.927,0l-0.701,-6.785l118.928,0l0.7,6.785Z" style="fill:#c5daf1;fill-rule:nonzero;"/><path d="M163.097,61.903l-118.927,0l-0.701,-6.784l118.928,0l0.7,6.784Z" style="fill:#c5daf1;fill-rule:nonzero;"/><path d="M163.097,70.842l-118.927,0l-0.701,-6.785l118.928,0l0.7,6.785Z" style="fill:#c5daf1;fill-rule:nonzero;"/><rect x="253.226" y="19.038" width="118.926" height="141.897" style="fill:#c5daf1;fill-rule:nonzero;"/><rect x="255.768" y="19.038" width="121.826" height="141.897" style="fill:#dae8f7;fill-rule:nonzero;"/><rect x="253.226" y="160.935" width="118.926" height="10.11" style="fill:#c5daf1;fill-rule:nonzero;"/><rect x="264.832" y="160.935" width="121.826" height="10.11" style="fill:#dae8f7;fill-rule:nonzero;"/><rect x="263.385" y="26.656" width="106.592" height="126.661" style="fill:#f1fafe;fill-rule:nonzero;"/><path d="M276.472,153.317l44.709,-126.661l21.105,0l-44.709,126.661l-21.105,0Z" style="fill:#fff;fill-rule:nonzero;"/><path d="M266.912,110.344c-0.301,0 -0.544,-0.244 -0.544,-0.544l0,-78.188c0,-0.3 0.243,-0.544 0.544,-0.544c0.301,0 0.544,0.244 0.544,0.544l0,78.188c0,0.3 -0.243,0.544 -0.544,0.544Z" style="fill:#d9e8f7;fill-rule:nonzero;"/><path d="M302.11,153.317l44.709,-126.661l8.229,0l-44.709,126.661l-8.229,0Z" style="fill:#fff;fill-rule:nonzero;"/><rect x="369.009" y="26.656" width="0.968" height="126.661" style="fill:#c5daf1;fill-rule:nonzero;"/><path d="M379.396,36.401l-118.928,0l-0.701,-6.784l118.927,0l0.702,6.784Z" style="fill:#c5daf1;fill-rule:nonzero;"/><path d="M379.396,41.367l-118.928,0l-0.701,-6.784l118.927,0l0.702,6.784Z" style="fill:#c5daf1;fill-rule:nonzero;"/><path d="M379.396,47.326l-118.928,0l-0.701,-6.784l118.927,0l0.702,6.784Z" style="fill:#c5daf1;fill-rule:nonzero;"/><path d="M379.396,53.958l-118.928,0l-0.701,-6.785l118.927,0l0.702,6.785Z" style="fill:#c5daf1;fill-rule:nonzero;"/><path d="M379.396,61.903l-118.928,0l-0.701,-6.784l118.927,0l0.702,6.784Z" style="fill:#c5daf1;fill-rule:nonzero;"/><path d="M379.396,70.842l-118.928,0l-0.701,-6.785l118.927,0l0.702,6.785Z" style="fill:#c5daf1;fill-rule:nonzero;"/><rect x="256.078" y="237.503" width="23.746" height="89.943" style="fill:#c5daf1;fill-rule:nonzero;"/><path d="M275.313,327.446l4.511,0l0,-11.016l-9.239,0l4.728,11.016Z" style="fill:#e7f6fd;fill-rule:nonzero;"/><rect x="25.598" y="237.502" width="23.746" height="89.944" style="fill:#c5daf1;fill-rule:nonzero;"/><rect x="45.408" y="237.503" width="234.416" height="83.884" style="fill:#e7f6fd;fill-rule:nonzero;"/><rect x="164.129" y="241.703" width="112.196" height="59.9" style="fill:#c5daf1;fill-rule:nonzero;"/><rect x="48.906" y="241.703" width="112.197" height="59.9" style="fill:#c5daf1;fill-rule:nonzero;"/><rect x="164.13" y="307.603" width="112.195" height="6.667" style="fill:#c5daf1;fill-rule:nonzero;"/><rect x="48.906" y="307.603" width="112.197" height="6.667" style="fill:#c5daf1;fill-rule:nonzero;"/><path d="M144.526,245.292l-79.043,0c-3.551,0 -6.947,-1.46 -9.39,-4.039l97.823,0c-2.443,2.579 -5.838,4.039 -9.39,4.039Z" style="fill:#e7f6fd;fill-rule:nonzero;"/><path d="M260.166,245.292l-79.042,0c-3.552,0 -6.947,-1.46 -9.39,-4.039l97.823,0c-2.444,2.579 -5.839,4.039 -9.391,4.039Z" style="fill:#e7f6fd;fill-rule:nonzero;"/><path d="M49.918,327.446l-4.51,0l0,-11.016l9.239,0l-4.729,11.016Z" style="fill:#e7f6fd;fill-rule:nonzero;"/><path d="M191.669,192.968c-0.228,-0.147 -0.483,-0.255 -0.755,-0.315l0,-10.366l0.755,10.681Z" style="fill:#e5eff9;fill-rule:nonzero;"/><path d="M239.561,237.503l-44.744,0l-4.215,-59.623l44.744,0l4.215,59.623Z" style="fill:#c5daf1;fill-rule:nonzero;"/><path d="M244.653,237.503l-48.565,0l-4.215,-59.623l48.566,0l4.214,59.623Z" style="fill:#edf5fc;fill-rule:nonzero;"/><path d="M198.331,235.225l-3.893,-55.066l43.757,0l3.893,55.066l-43.757,0Z" style="fill:#fff;fill-rule:nonzero;"/><path d="M208.923,222.892l-2.149,-30.401l20.83,0l2.149,30.401l-20.83,0Z" style="fill:#edf5fc;fill-rule:nonzero;"/><path d="M132.772,216.099c0,6.42 -5.205,11.624 -11.625,11.624c-6.419,0 -11.624,-5.204 -11.624,-11.624c0,-6.42 5.205,-11.624 11.624,-11.624c6.42,0 11.625,5.204 11.625,11.624Z" style="fill:#dae8f7;fill-rule:nonzero;"/><path d="M152.668,221.639c0,6.42 -5.204,11.624 -11.624,11.624c-6.419,0 -11.624,-5.204 -11.624,-11.624c0,-6.42 5.205,-11.624 11.624,-11.624c6.42,0 11.624,5.204 11.624,11.624Z" style="fill:#dae8f7;fill-rule:nonzero;"/><path d="M165.614,216.798c0,4.281 -3.47,7.751 -7.75,7.751c-4.281,0 -7.751,-3.47 -7.751,-7.751c0,-4.28 3.47,-7.75 7.751,-7.75c4.28,0 7.75,3.47 7.75,7.75Z" style="fill:#dae8f7;fill-rule:nonzero;"/><path d="M140.522,209.048c0,4.281 -3.47,7.75 -7.75,7.75c-4.281,0 -7.751,-3.469 -7.751,-7.75c0,-4.281 3.47,-7.751 7.751,-7.751c4.28,0 7.75,3.47 7.75,7.751Z" style="fill:#dae8f7;fill-rule:nonzero;"/><path d="M102.565,219.56c0,0 0.91,17.943 35.779,17.943c34.869,0 35.779,-17.943 35.779,-17.943l-71.558,0Z" style="fill:#c5daf1;fill-rule:nonzero;"/><path d="M70.358,231.358c0,0 -11.359,-19.58 4.4,-35.167c0,0 4.113,2.681 4.05,6.284c-0.063,3.604 -4.405,4.516 -3.472,7.524c0.934,3.006 5.032,5.958 2.342,8.444c-2.69,2.486 0.433,4.699 0.252,7.746c-0.182,3.046 -7.572,5.169 -7.572,5.169Z" style="fill:#c5daf1;fill-rule:nonzero;"/><path d="M71.22,233.148c0,0 4.605,-22.163 -15.265,-31.985c0,0 -3.058,3.84 -1.862,7.24c1.197,3.4 5.604,2.896 5.667,6.045c0.063,3.148 -2.896,7.241 0.441,8.752c3.338,1.511 1.071,4.596 2.204,7.429c1.134,2.834 8.815,2.519 8.815,2.519Z" style="fill:#c5daf1;fill-rule:nonzero;"/><path d="M53.816,222.895c0,0 0.377,14.607 14.86,14.607c14.482,0 14.86,-14.607 14.86,-14.607l-29.72,0Z" style="fill:#dae8f7;fill-rule:nonzero;"/><path d="M405.682,361.286c0,6.254 -86.807,11.323 -193.889,11.323c-107.082,0 -193.889,-5.069 -193.889,-11.323c0,-6.254 86.807,-11.324 193.889,-11.324c107.082,0 193.889,5.07 193.889,11.324Z" style="fill:#e9f2fb;fill-rule:nonzero;"/><path d="M142.248,217.483c-1.288,0 -2.333,-1.044 -2.333,-2.332c0,-1.288 1.045,-2.332 2.333,-2.332c5.713,0 10.54,-8.192 10.54,-17.889c0,-1.288 1.044,-2.332 2.332,-2.332c1.288,0 2.333,1.044 2.333,2.332c0,12.647 -6.679,22.553 -15.205,22.553Z" style="fill:#1f5fad;fill-rule:nonzero;"/><path d="M177.535,217.483c-1.288,0 -2.332,-1.044 -2.332,-2.332c0,-1.288 1.044,-2.332 2.332,-2.332c5.714,0 10.54,-8.192 10.54,-17.889c0,-1.288 1.045,-2.332 2.333,-2.332c1.288,0 2.332,1.044 2.332,2.332c0,12.647 -6.678,22.553 -15.205,22.553Z" style="fill:#1f5fad;fill-rule:nonzero;"/><path d="M212.822,217.483c-1.288,0 -2.332,-1.044 -2.332,-2.332c0,-1.288 1.044,-2.332 2.332,-2.332c5.714,0 10.541,-8.192 10.541,-17.889c0,-1.288 1.044,-2.332 2.332,-2.332c1.288,0 2.332,1.044 2.332,2.332c0,12.647 -6.678,22.553 -15.205,22.553Z" style="fill:#1f5fad;fill-rule:nonzero;"/><path d="M248.109,217.483c-1.288,0 -2.332,-1.044 -2.332,-2.332c0,-1.288 1.044,-2.332 2.332,-2.332c5.714,0 10.541,-8.192 10.541,-17.889c0,-1.288 1.044,-2.332 2.332,-2.332c1.289,0 2.332,1.044 2.332,2.332c0,12.647 -6.678,22.553 -15.205,22.553Z" style="fill:#1f5fad;fill-rule:nonzero;"/><path d="M283.397,217.483c-1.288,0 -2.332,-1.044 -2.332,-2.332c0,-1.288 1.044,-2.332 2.332,-2.332c5.713,0 10.54,-8.192 10.54,-17.889c0,-1.288 1.045,-2.332 2.333,-2.332c1.288,0 2.332,1.044 2.332,2.332c0,12.647 -6.678,22.553 -15.205,22.553Z" style="fill:#1f5fad;fill-rule:nonzero;"/><path d="M318.685,217.483c-1.288,0 -2.332,-1.044 -2.332,-2.332c0,-1.288 1.044,-2.332 2.332,-2.332c5.712,0 10.54,-8.192 10.54,-17.889c0,-1.288 1.044,-2.332 2.332,-2.332c1.288,0 2.332,1.044 2.332,2.332c0,12.647 -6.678,22.553 -15.204,22.553Z" style="fill:#1f5fad;fill-rule:nonzero;"/><clipPath id="_clip1"><path d="M371.52,354.865c-6.636,-0.562 -14.124,-1.088 -22.348,-1.57c0.304,-0.944 0.488,-1.937 0.534,-2.96l1.022,-22.639l19.346,0l0.943,10.629l-10.836,0l0,0.25l10.858,0l1.043,11.76c0.143,1.609 -0.066,3.143 -0.562,4.53Zm-7.749,-98.252l-9.833,0l2.171,-48.104c0.279,-6.158 -4.532,-11.196 -10.69,-11.196l-11.61,0l13.507,0c6.158,0 11.643,5.038 12.189,11.196l4.266,48.104Z"/></clipPath><g clip-path="url(#_clip1)"><rect x="333.809" y="197.313" width="38.416" height="157.552" style="fill:#6ca6da;fill-rule:nonzero;"/></g><path d="M370.074,327.696l-19.346,0l0.012,-0.25l19.312,0l0.022,0.25Z" style="fill:#6192cc;fill-rule:nonzero;"/><path d="M371.039,338.575l-10.858,0l0,-0.25l10.836,0l0.022,0.25Z" style="fill:#6192cc;fill-rule:nonzero;"/><path d="M370.052,327.446l-19.312,0l2.519,-55.793l11.846,0l4.947,55.793Z" style="fill:#659ad2;fill-rule:nonzero;"/><path d="M365.105,271.653l-11.846,0l0.075,-1.682l11.621,0l0.15,1.682Z" style="fill:#5f8dc9;fill-rule:nonzero;"/><path d="M364.955,269.971l-11.621,0l0.604,-13.358l9.833,0l1.184,13.358Z" style="fill:#659ad2;fill-rule:nonzero;"/><path d="M361.879,361.53l-23.874,0c5.133,0 9.647,-3.502 11.167,-8.235c8.224,0.482 15.712,1.008 22.348,1.57c-1.4,3.917 -5.093,6.665 -9.641,6.665Z" style="fill:#68a0d6;fill-rule:nonzero;"/><path d="M345.419,197.313l-227.185,0c-6.158,0 -11.423,5.038 -11.701,11.196l-6.404,141.826c-0.278,6.157 4.533,11.195 10.69,11.195l227.186,0c6.157,0 11.423,-5.038 11.701,-11.195l6.403,-141.826c0.279,-6.158 -4.532,-11.196 -10.69,-11.196Z" style="fill:#4983c4;fill-rule:nonzero;"/><path d="M335.047,206.105l-207.235,0c0.474,-1.969 2.275,-3.456 4.357,-3.456l198.833,0c2.082,0 3.749,1.487 4.045,3.456Z" style="fill:#4279bd;fill-rule:nonzero;"/><path d="M340.134,210.537l-5.208,0l0.163,-3.608c0.013,-0.282 -0.002,-0.557 -0.042,-0.824l0.792,0c2.461,0 4.371,1.978 4.294,4.432m-212.6,0l-5.208,0c0.146,-2.454 2.234,-4.432 4.695,-4.432l0.792,0c-0.064,0.267 -0.103,0.542 -0.116,0.824l-0.163,3.608Z" style="fill:#4279bd;fill-rule:nonzero;"/><path d="M334.926,210.537l-207.393,0l0.163,-3.608c0.013,-0.282 0.052,-0.557 0.116,-0.824l207.235,0c0.04,0.267 0.055,0.542 0.042,0.824l-0.163,3.608Z" style="fill:#3b71b8;fill-rule:nonzero;"/><path d="M111.632,343.53l5.793,-128.305c0.117,-2.59 2.311,-4.688 4.9,-4.688l217.809,0c2.59,0 4.593,2.098 4.476,4.688l-5.793,128.305c-0.117,2.589 -2.31,4.688 -4.9,4.688l-217.808,0c-2.589,0 -4.594,-2.099 -4.477,-4.688Z" style="fill:#fff;fill-rule:nonzero;"/><path d="M152.011,267.176l-23.114,0c-2.157,0 -3.842,-1.764 -3.744,-3.921l1.043,-23.114c0.098,-2.156 1.942,-3.921 4.098,-3.921l23.114,0c2.157,0 3.842,1.765 3.744,3.921l-1.043,23.114c-0.098,2.157 -1.941,3.921 -4.098,3.921Z" style="fill:#dae7f6;fill-rule:nonzero;"/><path d="M187.298,267.176l-23.114,0c-2.156,0 -3.841,-1.764 -3.744,-3.921l1.044,-23.114c0.097,-2.156 1.941,-3.921 4.098,-3.921l23.114,0c2.157,0 3.841,1.765 3.744,3.921l-1.044,23.114c-0.097,2.157 -1.941,3.921 -4.098,3.921Z" style="fill:#dae7f6;fill-rule:nonzero;"/><path d="M222.586,267.176l-23.114,0c-2.157,0 -3.842,-1.764 -3.744,-3.921l1.043,-23.114c0.098,-2.156 1.942,-3.921 4.098,-3.921l23.114,0c2.157,0 3.841,1.765 3.745,3.921l-1.044,23.114c-0.098,2.157 -1.942,3.921 -4.098,3.921Z" style="fill:#dae7f6;fill-rule:nonzero;"/><path d="M257.873,267.176l-23.114,0c-2.156,0 -3.841,-1.764 -3.744,-3.921l1.044,-23.114c0.097,-2.156 1.941,-3.921 4.097,-3.921l23.115,0c2.156,0 3.841,1.765 3.744,3.921l-1.044,23.114c-0.097,2.157 -1.942,3.921 -4.098,3.921Z" style="fill:#dae7f6;fill-rule:nonzero;"/><path d="M293.16,267.176l-23.113,0c-2.157,0 -3.842,-1.764 -3.744,-3.921l1.043,-23.114c0.097,-2.156 1.941,-3.921 4.098,-3.921l23.114,0c2.157,0 3.841,1.765 3.744,3.921l-1.043,23.114c-0.098,2.157 -1.943,3.921 -4.099,3.921Z" style="fill:#dae7f6;fill-rule:nonzero;"/><path d="M328.447,267.176l-23.113,0c-2.157,0 -3.842,-1.764 -3.744,-3.921l1.044,-23.114c0.097,-2.156 1.941,-3.921 4.097,-3.921l23.115,0c2.156,0 3.841,1.765 3.744,3.921l-1.044,23.114c-0.098,2.157 -1.942,3.921 -4.099,3.921Z" style="fill:#dae7f6;fill-rule:nonzero;"/><path d="M318.649,218.23l-0.001,0c-1.75,0 -3.118,-1.431 -3.039,-3.18l0,-0.006c0.075,-1.635 1.474,-2.973 3.112,-2.973c1.75,0 3.118,1.43 3.039,3.18l0,0.006c-0.074,1.636 -1.474,2.973 -3.111,2.973Z" style="fill:#5f9ad2;fill-rule:nonzero;"/><path d="M283.362,218.23l-0.001,0c-1.75,0 -3.118,-1.431 -3.039,-3.18l0,-0.006c0.074,-1.635 1.474,-2.973 3.111,-2.973c1.751,0 3.119,1.43 3.04,3.18l-0.001,0.006c-0.074,1.636 -1.473,2.973 -3.11,2.973Z" style="fill:#5f9ad2;fill-rule:nonzero;"/><path d="M248.075,218.23l-0.001,0c-1.751,0 -3.118,-1.431 -3.039,-3.18l0,-0.006c0.073,-1.635 1.474,-2.973 3.111,-2.973c1.75,0 3.118,1.43 3.039,3.18l0,0.006c-0.075,1.636 -1.474,2.973 -3.11,2.973Z" style="fill:#5f9ad2;fill-rule:nonzero;"/><path d="M212.788,218.23l-0.001,0c-1.751,0 -3.119,-1.431 -3.04,-3.18l0.001,-0.006c0.073,-1.635 1.473,-2.973 3.11,-2.973c1.75,0 3.119,1.43 3.04,3.18l0,0.006c-0.075,1.636 -1.474,2.973 -3.11,2.973Z" style="fill:#5f9ad2;fill-rule:nonzero;"/><path d="M177.5,218.23c-1.751,0 -3.119,-1.431 -3.04,-3.18l0,-0.006c0.074,-1.635 1.474,-2.973 3.111,-2.973c1.75,0 3.118,1.43 3.039,3.18l0,0.006c-0.074,1.636 -1.473,2.973 -3.11,2.973Z" style="fill:#5f9ad2;fill-rule:nonzero;"/><path d="M142.213,218.23l-0.001,0c-1.751,0 -3.118,-1.431 -3.04,-3.18l0.001,-0.006c0.074,-1.635 1.473,-2.973 3.11,-2.973c1.751,0 3.119,1.43 3.04,3.18l-0.001,0.006c-0.073,1.636 -1.473,2.973 -3.109,2.973Z" style="fill:#5f9ad2;fill-rule:nonzero;"/><path d="M151.033,229.406l-17.748,0c-1.078,0 -1.921,-0.882 -1.872,-1.961c0.049,-1.078 0.971,-1.96 2.049,-1.96l17.748,0c1.079,0 1.921,0.882 1.872,1.96c-0.048,1.079 -0.971,1.961 -2.049,1.961Z" style="fill:#1f5fad;fill-rule:nonzero;"/><path d="M186.321,229.406l-17.749,0c-1.078,0 -1.92,-0.882 -1.872,-1.961c0.049,-1.078 0.971,-1.96 2.05,-1.96l17.748,0c1.078,0 1.92,0.882 1.872,1.96c-0.049,1.079 -0.971,1.961 -2.049,1.961Z" style="fill:#1f5fad;fill-rule:nonzero;"/><path d="M221.608,229.406l-17.748,0c-1.078,0 -1.921,-0.882 -1.872,-1.961c0.049,-1.078 0.971,-1.96 2.049,-1.96l17.748,0c1.078,0 1.921,0.882 1.872,1.96c-0.049,1.079 -0.97,1.961 -2.049,1.961Z" style="fill:#1f5fad;fill-rule:nonzero;"/><path d="M256.896,229.406l-17.749,0c-1.078,0 -1.92,-0.882 -1.872,-1.961c0.049,-1.078 0.971,-1.96 2.049,-1.96l17.748,0c1.078,0 1.921,0.882 1.872,1.96c-0.048,1.079 -0.97,1.961 -2.048,1.961Z" style="fill:#1f5fad;fill-rule:nonzero;"/><path d="M292.183,229.406l-17.748,0c-1.079,0 -1.921,-0.882 -1.872,-1.961c0.048,-1.078 0.97,-1.96 2.048,-1.96l17.748,0c1.08,0 1.921,0.882 1.872,1.96c-0.047,1.079 -0.97,1.961 -2.048,1.961Z" style="fill:#1f5fad;fill-rule:nonzero;"/><path d="M327.47,229.406l-17.748,0c-1.078,0 -1.92,-0.882 -1.872,-1.961c0.048,-1.078 0.97,-1.96 2.049,-1.96l17.748,0c1.079,0 1.921,0.882 1.873,1.96c-0.049,1.079 -0.971,1.961 -2.05,1.961Z" style="fill:#1f5fad;fill-rule:nonzero;"/><path d="M150.391,303.045l-23.114,0c-2.156,0 -3.841,-1.765 -3.744,-3.922l1.044,-23.114c0.097,-2.157 1.942,-3.921 4.098,-3.921l23.114,0c2.156,0 3.841,1.764 3.744,3.921l-1.044,23.114c-0.097,2.157 -1.941,3.922 -4.098,3.922Z" style="fill:#dae7f6;fill-rule:nonzero;"/><path d="M185.679,303.045l-23.114,0c-2.157,0 -3.842,-1.765 -3.744,-3.922l1.043,-23.114c0.097,-2.157 1.942,-3.921 4.098,-3.921l23.114,0c2.157,0 3.842,1.764 3.744,3.921l-1.043,23.114c-0.098,2.157 -1.942,3.922 -4.098,3.922Z" style="fill:#dae7f6;fill-rule:nonzero;"/><path d="M220.966,303.045l-23.114,0c-2.157,0 -3.841,-1.765 -3.744,-3.922l1.044,-23.114c0.097,-2.157 1.941,-3.921 4.098,-3.921l23.113,0c2.158,0 3.842,1.764 3.744,3.921l-1.043,23.114c-0.097,2.157 -1.942,3.922 -4.098,3.922Z" style="fill:#dae7f6;fill-rule:nonzero;"/><path d="M256.253,303.045l-23.113,0c-2.157,0 -3.842,-1.765 -3.744,-3.922l1.043,-23.114c0.097,-2.157 1.942,-3.921 4.098,-3.921l23.114,0c2.157,0 3.841,1.764 3.744,3.921l-1.043,23.114c-0.098,2.157 -1.942,3.922 -4.099,3.922Z" style="fill:#dae7f6;fill-rule:nonzero;"/><path d="M291.541,303.045l-23.114,0c-2.156,0 -3.841,-1.765 -3.744,-3.922l1.044,-23.114c0.097,-2.157 1.941,-3.921 4.097,-3.921l23.115,0c2.156,0 3.841,1.764 3.744,3.921l-1.044,23.114c-0.097,2.157 -1.942,3.922 -4.098,3.922Z" style="fill:#dae7f6;fill-rule:nonzero;"/><path d="M326.828,303.045l-23.114,0c-2.156,0 -3.841,-1.765 -3.743,-3.922l1.043,-23.114c0.097,-2.157 1.941,-3.921 4.098,-3.921l23.114,0c2.157,0 3.841,1.764 3.744,3.921l-1.043,23.114c-0.098,2.157 -1.943,3.922 -4.099,3.922Z" style="fill:#dae7f6;fill-rule:nonzero;"/><path d="M148.771,338.912l-23.113,0c-2.157,0 -3.842,-1.764 -3.744,-3.921l1.044,-23.113c0.097,-2.158 1.941,-3.922 4.098,-3.922l23.113,0c2.157,0 3.842,1.764 3.745,3.922l-1.044,23.113c-0.097,2.157 -1.942,3.921 -4.099,3.921Z" style="fill:#dae7f6;fill-rule:nonzero;"/><path d="M184.059,338.912l-23.114,0c-2.156,0 -3.841,-1.764 -3.744,-3.921l1.044,-23.113c0.097,-2.158 1.942,-3.922 4.098,-3.922l23.114,0c2.156,0 3.841,1.764 3.744,3.922l-1.044,23.113c-0.097,2.157 -1.941,3.921 -4.098,3.921Z" style="fill:#dae7f6;fill-rule:nonzero;"/><path d="M219.346,338.912l-23.114,0c-2.156,0 -3.841,-1.764 -3.743,-3.921l1.043,-23.113c0.097,-2.158 1.942,-3.922 4.098,-3.922l23.113,0c2.157,0 3.843,1.764 3.745,3.922l-1.044,23.113c-0.096,2.157 -1.942,3.921 -4.098,3.921Z" style="fill:#dae7f6;fill-rule:nonzero;"/><path d="M254.634,338.912l-23.113,0c-2.158,0 -3.842,-1.764 -3.745,-3.921l1.043,-23.113c0.098,-2.158 1.942,-3.922 4.099,-3.922l23.113,0c2.158,0 3.842,1.764 3.744,3.922l-1.043,23.113c-0.097,2.157 -1.941,3.921 -4.098,3.921Z" style="fill:#dae7f6;fill-rule:nonzero;"/><path d="M289.921,338.912l-23.113,0c-2.158,0 -3.842,-1.764 -3.745,-3.921l1.044,-23.113c0.097,-2.158 1.942,-3.922 4.098,-3.922l23.114,0c2.157,0 3.841,1.764 3.745,3.922l-1.044,23.113c-0.098,2.157 -1.942,3.921 -4.099,3.921Z" style="fill:#dae7f6;fill-rule:nonzero;"/><path d="M325.209,338.912l-23.114,0c-2.156,0 -3.841,-1.764 -3.744,-3.921l1.044,-23.113c0.097,-2.158 1.941,-3.922 4.097,-3.922l23.114,0c2.157,0 3.842,1.764 3.745,3.922l-1.044,23.113c-0.097,2.157 -1.942,3.921 -4.098,3.921Z" style="fill:#dae7f6;fill-rule:nonzero;"/><path d="M142.248,217.483c-8.527,0 -15.205,-9.906 -15.205,-22.553c0,-12.646 6.678,-22.553 15.205,-22.553c8.526,0 15.205,9.907 15.205,22.553c0,1.288 -1.045,2.332 -2.333,2.332c-1.288,0 -2.332,-1.044 -2.332,-2.332c0,-9.696 -4.827,-17.888 -10.54,-17.888c-5.714,0 -10.54,8.192 -10.54,17.888c0,9.696 4.826,17.889 10.54,17.889c1.288,0 2.332,1.044 2.332,2.332c0,1.288 -1.044,2.332 -2.332,2.332Z" style="fill:#1f5fad;fill-rule:nonzero;"/><path d="M177.535,217.483c-8.526,0 -15.205,-9.906 -15.205,-22.553c0,-12.646 6.679,-22.553 15.205,-22.553c8.527,0 15.205,9.907 15.205,22.553c0,1.288 -1.044,2.332 -2.332,2.332c-1.288,0 -2.333,-1.044 -2.333,-2.332c0,-9.696 -4.826,-17.888 -10.54,-17.888c-5.713,0 -10.54,8.192 -10.54,17.888c0,9.696 4.827,17.889 10.54,17.889c1.288,0 2.333,1.044 2.333,2.332c0,1.288 -1.045,2.332 -2.333,2.332Z" style="fill:#1f5fad;fill-rule:nonzero;"/><path d="M212.822,217.483c-8.526,0 -15.205,-9.906 -15.205,-22.553c0,-12.646 6.679,-22.553 15.205,-22.553c8.527,0 15.205,9.907 15.205,22.553c0,1.288 -1.044,2.332 -2.332,2.332c-1.288,0 -2.332,-1.044 -2.332,-2.332c0,-9.696 -4.827,-17.888 -10.541,-17.888c-5.713,0 -10.54,8.192 -10.54,17.888c0,9.696 4.827,17.889 10.54,17.889c1.288,0 2.332,1.044 2.332,2.332c0,1.288 -1.044,2.332 -2.332,2.332Z" style="fill:#1f5fad;fill-rule:nonzero;"/><path d="M248.109,217.483c-8.526,0 -15.204,-9.906 -15.204,-22.553c0,-12.646 6.678,-22.553 15.204,-22.553c8.527,0 15.205,9.907 15.205,22.553c0,1.288 -1.043,2.332 -2.332,2.332c-1.288,0 -2.332,-1.044 -2.332,-2.332c0,-9.696 -4.827,-17.888 -10.541,-17.888c-5.712,0 -10.54,8.192 -10.54,17.888c0,9.696 4.828,17.889 10.54,17.889c1.288,0 2.332,1.044 2.332,2.332c0,1.288 -1.044,2.332 -2.332,2.332Z" style="fill:#1f5fad;fill-rule:nonzero;"/><path d="M283.397,217.483c-8.526,0 -15.205,-9.906 -15.205,-22.553c0,-12.646 6.679,-22.553 15.205,-22.553c8.527,0 15.205,9.907 15.205,22.553c0,1.288 -1.044,2.332 -2.332,2.332c-1.289,0 -2.332,-1.044 -2.332,-2.332c0,-9.696 -4.828,-17.888 -10.541,-17.888c-5.713,0 -10.541,8.192 -10.541,17.888c0,9.696 4.828,17.889 10.541,17.889c1.289,0 2.333,1.044 2.333,2.332c0,1.288 -1.044,2.332 -2.333,2.332Z" style="fill:#1f5fad;fill-rule:nonzero;"/><path d="M318.685,217.483c-8.527,0 -15.204,-9.906 -15.204,-22.553c0,-12.646 6.677,-22.553 15.204,-22.553c8.526,0 15.204,9.907 15.204,22.553c0,1.288 -1.044,2.332 -2.332,2.332c-1.288,0 -2.332,-1.044 -2.332,-2.332c0,-9.696 -4.828,-17.888 -10.54,-17.888c-5.713,0 -10.54,8.192 -10.54,17.888c0,9.696 4.827,17.889 10.54,17.889c1.288,0 2.332,1.044 2.332,2.332c0,1.288 -1.044,2.332 -2.332,2.332Z" style="fill:#1f5fad;fill-rule:nonzero;"/><path d="M250.476,268.469c-8.16,-1.622 -17.328,0.266 -20.593,8.87c-2.626,6.919 0.737,14.423 8.03,16.251c6.4,1.604 17.439,-0.36 19.72,-7.743c2.607,-8.439 -7.97,-11.176 -13.948,-11.679c-1.795,-0.152 -1.786,2.648 0,2.798c2.713,0.229 5.808,0.379 8.205,1.869c5.035,3.13 2.944,8.152 -1.321,10.552c-4.175,2.351 -10.781,3.011 -14.956,0.345c-4.596,-2.937 -4.746,-9.38 -2.016,-13.575c3.611,-5.551 10.195,-6.169 16.134,-4.989c1.76,0.349 2.513,-2.348 0.745,-2.699Z" style="fill:#4983c4;fill-rule:nonzero;"/><path d="M160.44,236.258c7.832,10.356 16.488,19.97 26.006,28.802c1.319,1.224 3.303,-0.751 1.979,-1.979c-9.338,-8.664 -17.883,-18.074 -25.568,-28.235c-1.073,-1.419 -3.504,-0.025 -2.417,1.412Z" style="fill:#1f5fad;fill-rule:nonzero;"/><path d="M163.336,263.883c5.894,-10.49 16.229,-19.437 25.979,-26.288c1.462,-1.028 0.065,-3.456 -1.413,-2.417c-10.156,7.137 -20.838,16.356 -26.983,27.292c-0.883,1.573 1.534,2.986 2.417,1.413Z" style="fill:#1f5fad;fill-rule:nonzero;"/><path d="M271.663,245.212l18.245,0c1.801,0 1.804,-2.798 0,-2.798l-18.245,0c-1.801,0 -1.804,2.798 0,2.798Z" style="fill:#4983c4;fill-rule:nonzero;"/><path d="M271.456,250.395l10.573,0c1.802,0 1.805,-2.799 0,-2.799l-10.573,0c-1.801,0 -1.805,2.799 0,2.799Z" style="fill:#4983c4;fill-rule:nonzero;"/><path d="M162.349,316.844l15.653,0c1.801,0 1.804,-2.799 0,-2.799l-15.653,0c-1.801,0 -1.804,2.799 0,2.799Z" style="fill:#4983c4;fill-rule:nonzero;"/><path d="M161.779,322.857l20.318,0c1.801,0 1.804,-2.799 0,-2.799l-20.318,0c-1.801,0 -1.804,2.799 0,2.799Z" style="fill:#4983c4;fill-rule:nonzero;"/><path d="M161.779,329.077l10.159,0c1.801,0 1.804,-2.799 0,-2.799l-10.159,0c-1.801,0 -1.804,2.799 0,2.799Z" style="fill:#1f5fad;fill-rule:nonzero;"/><path d="M51.98,159.839l4.731,-0.215l-2.137,8.979c0,0 -2.641,-1.747 -4.585,-4.045c-0.812,-0.96 -0.711,-2.392 0.242,-3.212l1.749,-1.507Z" style="fill:#f5897c;fill-rule:nonzero;"/><path d="M62.203,164.472l-2.124,7.328l-5.505,-3.197l2.137,-8.979l5.492,4.848Z" style="fill:#f5897c;fill-rule:nonzero;"/><path d="M61.274,121.018l-9.681,0.896l22.201,239.744l9.68,-0.897l-22.2,-239.743Z" style="fill:#1f5fad;fill-rule:nonzero;"/><path d="M80.636,119.225l-9.681,0.896l22.2,239.744l9.68,-0.897l-22.199,-239.743Z" style="fill:#1f5fad;fill-rule:nonzero;"/><path d="M70.955,120.121l-9.681,0.897l22.2,239.743l9.681,-0.896l-22.2,-239.744Z" style="fill:#2d6cb5;fill-rule:nonzero;"/><path d="M68.915,103.36l-8.713,0.807l-8.609,17.747l29.043,-2.689l-11.721,-15.865Z" style="fill:#d2e2f4;fill-rule:nonzero;"/><path d="M63.892,96.562l-3.69,7.605l8.713,-0.807l-5.023,-6.798Z" style="fill:#1f5fad;fill-rule:nonzero;"/><path d="M137.072,110.112c0.992,1.033 1.828,1.947 2.687,2.952c0.851,0.985 1.685,1.979 2.504,2.988c1.651,2.006 3.193,4.103 4.688,6.251c2.972,4.304 5.678,8.886 7.78,13.999c0.257,0.644 0.485,1.317 0.726,1.973l0.357,1.005c0.198,0.617 0.347,1.244 0.416,1.836c0.297,2.416 -0.217,4.287 -0.769,5.872c-1.167,3.145 -2.801,5.431 -4.482,7.595c-3.429,4.255 -7.212,7.692 -11.432,10.852l-3.774,-4.024c2.928,-3.77 5.858,-7.764 8.124,-11.691c1.112,-1.945 2.071,-3.984 2.433,-5.594c0.178,-0.782 0.139,-1.43 0.051,-1.489l-0.032,0.026l-0.333,-0.731c-0.23,-0.496 -0.437,-0.992 -0.681,-1.488c-1.999,-3.975 -4.567,-7.904 -7.399,-11.691c-1.399,-1.906 -2.884,-3.768 -4.382,-5.623c-0.749,-0.926 -1.514,-1.843 -2.289,-2.744l-2.285,-2.625l8.092,-7.649Z" style="fill:#f5897c;fill-rule:nonzero;"/><path d="M129.718,164.58l4.266,8.426l4.166,-3.586l-3.419,-5.997l-5.013,1.157Z" style="fill:#f5897c;fill-rule:nonzero;"/><path d="M97.636,115.037c-2.593,4.939 -5.286,9.823 -8.081,14.652c-1.375,2.427 -2.811,4.82 -4.215,7.232l-2.15,3.593l-0.54,0.902c-0.27,0.431 -0.569,0.942 -0.832,1.282c-0.272,0.378 -0.546,0.748 -0.809,1.062c-0.268,0.336 -0.535,0.655 -0.798,0.948c-2.13,2.376 -4.264,4.3 -6.438,6.217c-2.193,1.873 -4.382,3.692 -6.636,5.42c-4.477,3.494 -9.069,6.743 -13.829,9.841l-3.43,-4.32l11.858,-11.665c1.941,-1.959 3.894,-3.887 5.743,-5.867c1.851,-1.95 3.695,-3.959 5.136,-5.88c0.189,-0.239 0.354,-0.469 0.505,-0.692c0.171,-0.232 0.294,-0.436 0.416,-0.635c0.153,-0.222 0.173,-0.335 0.272,-0.496l0.462,-0.937l1.857,-3.762c1.267,-2.493 2.503,-5.002 3.799,-7.479c2.547,-4.979 5.197,-9.902 7.946,-14.77l9.764,5.354Z" style="fill:#f5897c;fill-rule:nonzero;"/><path d="M125.699,81.271c-0.123,0.58 0.082,1.127 0.457,1.222c0.376,0.095 0.78,-0.299 0.903,-0.879c0.123,-0.58 -0.082,-1.127 -0.458,-1.222c-0.375,-0.095 -0.779,0.299 -0.902,0.879Z" style="fill:#12274b;fill-rule:nonzero;"/><path d="M125.728,82.385c0,0 0.597,3.677 1.693,5.655c-1.219,0.701 -2.855,-0.174 -2.855,-0.174l1.162,-5.481Z" style="fill:#f15f5d;fill-rule:nonzero;"/><path d="M127.234,77.749l-0.197,-0.062c-0.045,-0.03 -1.098,-0.735 -2.489,-0.164c-0.176,0.073 -0.38,-0.011 -0.454,-0.189c-0.073,-0.178 0.012,-0.381 0.19,-0.454c1.752,-0.722 3.094,0.197 3.151,0.236c0.156,0.111 0.194,0.326 0.085,0.483c-0.067,0.097 -0.176,0.15 -0.286,0.15Z" style="fill:#12274b;fill-rule:nonzero;"/><path d="M105.475,83.48c1.261,5.374 2.693,15.222 -0.929,18.807c0,0 1.68,5.452 11.666,5.452c10.981,0 5.037,-5.451 5.037,-5.451c-6.048,-1.432 -6.065,-5.877 -5.183,-10.053l-10.591,-8.755Z" style="fill:#f5897c;fill-rule:nonzero;"/><path d="M103.18,104.159c-0.854,-1.726 -1.797,-3.701 -0.029,-4.32c1.947,-0.68 12.715,-1.375 16.487,-0.097c3.771,1.278 2.851,4.778 2.851,4.778l-19.309,-0.361Z" style="fill:#94bce4;fill-rule:nonzero;"/><path d="M87.359,354.603c1.101,0.188 2.604,0.183 2.907,-0.225c0.028,-0.041 0.117,-0.16 -0.053,-0.45c-0.075,-0.128 -0.191,-0.207 -0.349,-0.241c-0.651,-0.143 -1.822,0.486 -2.505,0.916Zm1.436,0.464c-0.757,0 -1.543,-0.116 -1.922,-0.207l-0.13,-0.136l0.07,-0.175c0.083,-0.058 2.035,-1.438 3.124,-1.202c0.255,0.055 0.449,0.192 0.576,0.406c0.237,0.403 0.148,0.674 0.032,0.832c-0.273,0.368 -0.998,0.482 -1.75,0.482Z" style="fill:#fff;fill-rule:nonzero;"/><path d="M88.281,351.887c-0.143,0 -0.272,0.05 -0.392,0.153c-0.529,0.45 -0.714,1.692 -0.775,2.306c0.722,-0.565 1.611,-1.774 1.516,-2.262c-0.009,-0.049 -0.031,-0.163 -0.27,-0.192l-0.079,-0.005Zm-1.367,2.978l-0.092,-0.026l-0.082,-0.155c0.003,-0.09 0.097,-2.207 0.924,-2.909c0.217,-0.186 0.467,-0.261 0.738,-0.229c0.426,0.053 0.54,0.318 0.57,0.471c0.16,0.825 -1.243,2.422 -1.974,2.826l-0.084,0.022Z" style="fill:#fff;fill-rule:nonzero;"/><path d="M131.206,354.602c1.379,0.192 3.24,0.17 3.558,-0.284c0.028,-0.039 0.1,-0.143 -0.049,-0.387c-0.445,-0.733 -2.426,0.106 -3.509,0.671Zm1.703,0.466c-0.879,0 -1.788,-0.113 -2.259,-0.206l-0.138,-0.142l0.084,-0.179c0.368,-0.216 3.629,-2.083 4.416,-0.791c0.22,0.362 0.142,0.617 0.037,0.767c-0.294,0.421 -1.199,0.551 -2.14,0.551Z" style="fill:#fff;fill-rule:nonzero;"/><path d="M132.361,351.887c-0.221,0 -0.417,0.074 -0.595,0.228c-0.595,0.507 -0.808,1.698 -0.878,2.269c0.884,-0.537 2.018,-1.765 1.933,-2.281c-0.007,-0.044 -0.029,-0.178 -0.355,-0.211l-0.105,-0.005Zm-1.677,2.978l-0.099,-0.03l-0.075,-0.154c0.005,-0.084 0.126,-2.059 1.03,-2.831c0.278,-0.238 0.6,-0.343 0.961,-0.304c0.488,0.049 0.63,0.299 0.664,0.5c0.14,0.852 -1.53,2.403 -2.409,2.803l-0.072,0.016Z" style="fill:#fff;fill-rule:nonzero;"/><path d="M122.606,354.691l7.346,0l0.075,-17.012l-7.346,0l-0.075,17.012Z" style="fill:#f5897c;fill-rule:nonzero;"/><path d="M78.497,354.691l7.347,0l3.035,-17.012l-7.346,0l-3.036,17.012Z" style="fill:#f5897c;fill-rule:nonzero;"/><path d="M86.333,353.84l-8.253,0c-0.301,0 -0.553,0.209 -0.607,0.502l-1.199,6.531c-0.124,0.676 0.433,1.318 1.126,1.306c2.88,-0.05 4.273,-0.218 7.903,-0.218c2.233,0 6.842,0.231 9.926,0.231c3.015,0 3.368,-3.049 2.095,-3.325c-5.708,-1.238 -7.906,-2.946 -9.781,-4.574c-0.338,-0.294 -0.771,-0.453 -1.21,-0.453Z" style="fill:#0a395d;fill-rule:nonzero;"/><path d="M129.871,353.84l-8.023,0c-0.3,0 -0.552,0.209 -0.606,0.502l-1.199,6.531c-0.125,0.676 0.415,1.318 1.107,1.306c2.893,-0.049 7.068,-0.218 10.705,-0.218c4.253,0 7.936,0.231 12.923,0.231c3.016,0 3.735,-3.049 2.462,-3.325c-5.795,-1.257 -10.493,-1.392 -15.577,-4.453c-0.553,-0.333 -1.158,-0.574 -1.792,-0.574Z" style="fill:#0a395d;fill-rule:nonzero;"/><path d="M90.528,103.948c-6.824,1.578 -13.996,20.351 -13.996,20.351l14.196,9.478c0,0 4.956,-7.329 8.534,-15.529c3.749,-8.591 -1.756,-15.914 -8.734,-14.3Z" style="fill:#12274b;fill-rule:nonzero;"/><path d="M95.925,115.918l-5.868,17.409l0.667,0.45c0,0 2.677,-3.969 5.53,-9.33l-0.329,-8.529Z" style="fill:#021534;fill-rule:nonzero;"/><path d="M136.36,136.764c-0.054,8.2 -0.55,18.4 -1.771,31.06l-39.3,0c-0.503,-6.03 2.151,-35.46 -4.757,-63.88c0,0 6.678,-1.35 13.086,-1.66c5.011,-0.24 12.275,-0.4 16.7,0c5.841,0.53 11.379,2.04 11.379,2.04c0,0 3.361,3.64 4.38,20.71c0.2,3.37 0.31,7.25 0.283,11.73Z" style="fill:#12274b;fill-rule:nonzero;"/><path d="M136.36,136.764c-2.378,-4.34 -6.694,-13.05 -6.086,-18.01l5.803,6.28c0.2,3.37 0.31,7.25 0.283,11.73Z" style="fill:#021534;fill-rule:nonzero;"/><path d="M123.99,110.971c-0.621,6.967 15.25,23.839 15.25,23.839l12.721,-10.362c0,0 -5.23,-9.065 -11.889,-15.504c-7.437,-7.192 -15.383,-5.82 -16.082,2.027Z" style="fill:#12274b;fill-rule:nonzero;"/><path d="M130.025,337.683l-0.037,8.77l-7.349,0l0.037,-8.77l7.349,0Z" style="fill:#f07568;fill-rule:nonzero;"/><path d="M81.53,337.683l7.35,0l-1.568,8.77l-7.35,0l1.568,-8.77Z" style="fill:#f07568;fill-rule:nonzero;"/><path d="M106.797,75.202c-1.076,7.234 -2.069,11.4 0.72,15.956c4.194,6.855 13.595,5.791 16.785,-0.895c2.872,-6.018 4.15,-16.837 -2.156,-21.417c-6.212,-4.512 -14.272,-0.878 -15.349,6.356Z" style="fill:#f5897c;fill-rule:nonzero;"/><path d="M128.543,71.77c-3.425,1.928 -7.031,2.152 -7.031,2.152c-1.83,8.366 -6.7,17.962 -14.576,15.228c-3.026,-1.05 -5.976,-8.269 -6.31,-14.727c-0.527,0.639 -0.875,1.455 -1.139,1.791c-0.666,-4.138 0.46,-7.165 0.931,-8.5c2.181,-6.18 3.633,-2.073 5.952,-5.824c1.534,-2.481 4.256,-3.759 9.006,-3.926c-1.333,0.695 -1.583,1.806 0.389,1.64c1.972,-0.167 10.382,-0.62 15.278,2.694c-3.312,0.745 -1.291,6.015 3.125,3.203c-1.528,2.611 -3.528,5.088 -5.625,6.269Z" style="fill:#12274b;fill-rule:nonzero;"/><path d="M115.88,79.678c0.004,1.926 0.778,3.811 1.765,5.088c1.484,1.921 3.201,0.972 3.605,-1.161c0.363,-1.92 0.028,-5.234 -1.854,-6.393c-1.855,-1.142 -3.52,0.264 -3.516,2.466Z" style="fill:#f5897c;fill-rule:nonzero;"/><path d="M106.922,62.668c-1.032,-0.14 -3.379,-0.454 -4.89,-3.044c0,0 -0.133,5.904 4.89,3.044Z" style="fill:#12274b;fill-rule:nonzero;"/><path d="M120.647,167.824c0,0 -6.169,56.142 -9.934,77.176c-4.123,23.032 -20.043,99.754 -20.043,99.754l-13.455,0c0,0 9.56,-74.863 11.54,-97.667c2.148,-24.751 6.538,-79.263 6.538,-79.263l25.354,0Z" style="fill:#94bce4;fill-rule:nonzero;"/><path d="M92.627,339.797l-1.189,5.167l-15.139,0l0.1,-4.611l16.228,-0.556Z" style="fill:#4983c4;fill-rule:nonzero;"/><path d="M116.151,187.827c-9.567,1.89 -7.159,37.841 -5.285,56.331c2.275,-13.071 5.374,-38.221 7.465,-56.071c-0.652,-0.319 -1.376,-0.419 -2.18,-0.26Z" style="fill:#71aadc;fill-rule:nonzero;"/><path d="M134.586,167.824c0,0 3.133,54.927 3.199,77.33c0.069,23.303 -5.125,99.6 -5.125,99.6l-12.445,0c0,0 -3.35,-74.936 -4.787,-97.822c-1.567,-24.948 -6.671,-79.108 -6.671,-79.108l25.829,0Z" style="fill:#94bce4;fill-rule:nonzero;"/><path d="M137.594,160.77l-3.492,0.282c-1.213,0.097 -2.027,1.287 -1.68,2.454l1.444,4.847c0.516,1.733 2.628,2.415 4.035,1.281c1.386,-1.116 3.171,-3.813 3.736,-6.211l-4.043,-2.653Z" style="fill:#f5897c;fill-rule:nonzero;"/><path d="M129.718,335.815l-0.008,0l-0.117,-0.133c1.378,-21.115 4.577,-72.204 4.523,-90.528c-0.055,-18.745 -2.281,-60.689 -2.963,-73.097l0.119,-0.132l0.131,0.118c0.682,12.41 2.908,54.359 2.963,73.111c0.054,18.331 -3.145,69.427 -4.524,90.544l-0.124,0.117Z" style="fill:#71aadc;fill-rule:nonzero;"/><path d="M134.863,339.797l-0.502,5.167l-15.139,0l-0.587,-4.611l16.228,-0.556Z" style="fill:#4983c4;fill-rule:nonzero;"/></svg>