<?xml version="1.0" encoding="UTF-8" standalone="no"?>
<!DOCTYPE svg PUBLIC "-//W3C//DTD SVG 1.1//EN" "http://www.w3.org/Graphics/SVG/1.1/DTD/svg11.dtd">
<svg width="100%" height="100%" viewBox="0 0 1754 1553" version="1.1" xmlns="http://www.w3.org/2000/svg" xmlns:xlink="http://www.w3.org/1999/xlink" xml:space="preserve" xmlns:serif="http://www.serif.com/" style="fill-rule:evenodd;clip-rule:evenodd;stroke-linejoin:round;stroke-miterlimit:2;">
    <g transform="matrix(1,0,0,1,-159.192,-1.62913)">
        <g transform="matrix(4.16667,0,0,4.16667,0,0)">
            <rect x="416.779" y="343.933" width="33.122" height="0.25" style="fill:rgb(229,229,228);fill-rule:nonzero;"/>
        </g>
        <g transform="matrix(4.16667,0,0,4.16667,0,0)">
            <rect x="322.527" y="346.646" width="8.693" height="0.25" style="fill:rgb(229,229,228);fill-rule:nonzero;"/>
        </g>
        <g transform="matrix(4.16667,0,0,4.16667,0,0)">
            <rect x="396.586" y="334.647" width="19.192" height="0.25" style="fill:rgb(229,229,228);fill-rule:nonzero;"/>
        </g>
        <g transform="matrix(4.16667,0,0,4.16667,0,0)">
            <rect x="52.459" y="336.327" width="43.193" height="0.25" style="fill:rgb(229,229,228);fill-rule:nonzero;"/>
        </g>
        <g transform="matrix(4.16667,0,0,4.16667,0,0)">
            <rect x="104.556" y="336.327" width="6.333" height="0.25" style="fill:rgb(229,229,228);fill-rule:nonzero;"/>
        </g>
        <g transform="matrix(4.16667,0,0,4.16667,0,0)">
            <rect x="131.471" y="340.549" width="93.676" height="0.25" style="fill:rgb(229,229,228);fill-rule:nonzero;"/>
        </g>
        <g transform="matrix(4.16667,0,0,4.16667,0,0)">
            <path d="M43.915,0.642C40.905,0.642 38.457,3.09 38.457,6.099L38.457,277.53C38.457,280.54 40.905,282.988 43.915,282.988L237.014,282.988C240.023,282.988 242.471,280.54 242.471,277.53L242.471,6.099C242.471,3.09 240.023,0.642 237.014,0.642L43.915,0.642ZM237.014,283.238L43.915,283.238C40.767,283.238 38.206,280.678 38.206,277.53L38.206,6.099C38.206,2.952 40.767,0.391 43.915,0.391L237.014,0.391C240.16,0.391 242.721,2.952 242.721,6.099L242.721,277.53C242.721,280.678 240.16,283.238 237.014,283.238Z" style="fill:rgb(229,229,228);fill-rule:nonzero;"/>
        </g>
        <g transform="matrix(4.16667,0,0,4.16667,0,0)">
            <path d="M260.212,0.642C257.203,0.642 254.755,3.09 254.755,6.099L254.755,277.53C254.755,280.54 257.203,282.988 260.212,282.988L453.31,282.988C456.32,282.988 458.769,280.54 458.769,277.53L458.769,6.099C458.769,3.09 456.32,0.642 453.31,0.642L260.212,0.642ZM453.31,283.238L260.212,283.238C257.065,283.238 254.505,280.678 254.505,277.53L254.505,6.099C254.505,2.952 257.065,0.391 260.212,0.391L453.31,0.391C456.458,0.391 459.019,2.952 459.019,6.099L459.019,277.53C459.019,280.678 456.458,283.238 453.31,283.238Z" style="fill:rgb(229,229,228);fill-rule:nonzero;"/>
        </g>
        <g transform="matrix(4.16667,0,0,4.16667,0,0)">
            <rect x="289.691" y="29.271" width="137.781" height="90.226" style="fill:rgb(224,224,223);fill-rule:nonzero;"/>
        </g>
        <g transform="matrix(4.16667,0,0,4.16667,0,0)">
            <rect x="285.487" y="29.271" width="140.02" height="90.226" style="fill:rgb(234,235,234);fill-rule:nonzero;"/>
        </g>
        <g transform="matrix(4.16667,0,0,4.16667,0,0)">
            <rect x="289.691" y="119.497" width="137.781" height="17.708" style="fill:rgb(224,224,223);fill-rule:nonzero;"/>
        </g>
        <g transform="matrix(4.16667,0,0,4.16667,0,0)">
            <rect x="278.483" y="119.497" width="140.02" height="17.708" style="fill:rgb(234,235,234);fill-rule:nonzero;"/>
        </g>
        <g transform="matrix(4.16667,0,0,4.16667,0,0)">
            <rect x="291.372" y="35.156" width="128.25" height="78.455" style="fill:rgb(249,249,249);fill-rule:nonzero;"/>
        </g>
        <g transform="matrix(4.16667,0,0,4.16667,0,0)">
            <path d="M390.702,113.612L374.322,35.157L348.761,35.157L365.141,113.612L390.702,113.612Z" style="fill:white;fill-rule:nonzero;"/>
        </g>
        <g transform="matrix(4.16667,0,0,4.16667,0,0)">
            <path d="M416.897,107.754C417.129,107.754 417.317,107.565 417.317,107.333L417.317,38.985C417.317,38.753 417.129,38.565 416.897,38.565C416.665,38.565 416.476,38.753 416.476,38.985L416.476,107.333C416.476,107.565 416.665,107.754 416.897,107.754Z" style="fill:rgb(234,235,234);fill-rule:nonzero;"/>
        </g>
        <g transform="matrix(4.16667,0,0,4.16667,0,0)">
            <path d="M359.65,113.612L343.27,35.157L333.304,35.157L349.685,113.612L359.65,113.612Z" style="fill:white;fill-rule:nonzero;"/>
        </g>
        <g transform="matrix(4.16667,0,0,4.16667,0,0)">
            <rect x="291.372" y="35.156" width="0.748" height="78.455" style="fill:rgb(224,224,223);fill-rule:nonzero;"/>
        </g>
        <g transform="matrix(4.16667,0,0,4.16667,0,0)">
            <path d="M421.876,44.03L419.622,44.03L419.622,37.444L422.417,37.444L421.876,44.03Z" style="fill:rgb(231,232,231);fill-rule:nonzero;"/>
        </g>
        <g transform="matrix(4.16667,0,0,4.16667,0,0)">
            <path d="M419.622,44.03L417.317,44.03L417.317,38.985C417.317,38.753 417.129,38.565 416.897,38.565C416.665,38.565 416.476,38.753 416.476,38.985L416.476,44.03L376.174,44.03L374.799,37.444L419.622,37.444L419.622,44.03ZM350.613,44.03L345.122,44.03L343.747,37.444L349.238,37.444L350.613,44.03Z" style="fill:rgb(235,236,235);fill-rule:nonzero;"/>
        </g>
        <g transform="matrix(4.16667,0,0,4.16667,0,0)">
            <path d="M376.174,44.03L350.613,44.03L349.238,37.444L374.799,37.444L376.174,44.03Z" style="fill:rgb(238,238,238);fill-rule:nonzero;"/>
        </g>
        <g transform="matrix(4.16667,0,0,4.16667,0,0)">
            <path d="M335.157,44.03L292.12,44.03L292.12,37.444L333.782,37.444L335.157,44.03Z" style="fill:rgb(235,236,235);fill-rule:nonzero;"/>
        </g>
        <g transform="matrix(4.16667,0,0,4.16667,0,0)">
            <path d="M285.487,44.03L284.095,44.03L284.636,37.444L285.487,37.444L285.487,44.03Z" style="fill:rgb(238,238,238);fill-rule:nonzero;"/>
        </g>
        <g transform="matrix(4.16667,0,0,4.16667,0,0)">
            <rect x="285.487" y="37.444" width="5.885" height="6.586" style="fill:rgb(231,232,231);fill-rule:nonzero;"/>
        </g>
        <g transform="matrix(4.16667,0,0,4.16667,0,0)">
            <path d="M417.317,44.03L416.476,44.03L416.476,38.985C416.476,38.753 416.665,38.565 416.897,38.565C417.129,38.565 417.317,38.753 417.317,38.985L417.317,44.03Z" style="fill:rgb(231,232,231);fill-rule:nonzero;"/>
        </g>
        <g transform="matrix(4.16667,0,0,4.16667,0,0)">
            <path d="M345.122,44.03L335.157,44.03L333.782,37.444L343.747,37.444L345.122,44.03Z" style="fill:rgb(238,238,238);fill-rule:nonzero;"/>
        </g>
        <g transform="matrix(4.16667,0,0,4.16667,0,0)">
            <rect x="291.372" y="37.444" width="0.748" height="6.586" style="fill:rgb(227,227,226);fill-rule:nonzero;"/>
        </g>
        <g transform="matrix(4.16667,0,0,4.16667,0,0)">
            <path d="M421.876,54.832L419.622,54.832L419.622,48.246L422.417,48.246L421.876,54.832Z" style="fill:rgb(231,232,231);fill-rule:nonzero;"/>
        </g>
        <g transform="matrix(4.16667,0,0,4.16667,0,0)">
            <path d="M419.622,54.832L417.317,54.832L417.317,48.246L419.622,48.246L419.622,54.832ZM416.476,54.832L378.43,54.832L377.054,48.246L416.476,48.246L416.476,54.832ZM352.869,54.832L347.378,54.832L346.002,48.246L351.493,48.246L352.869,54.832Z" style="fill:rgb(235,236,235);fill-rule:nonzero;"/>
        </g>
        <g transform="matrix(4.16667,0,0,4.16667,0,0)">
            <path d="M378.43,54.832L352.869,54.832L351.493,48.246L377.054,48.246L378.43,54.832Z" style="fill:rgb(238,238,238);fill-rule:nonzero;"/>
        </g>
        <g transform="matrix(4.16667,0,0,4.16667,0,0)">
            <path d="M337.412,54.832L292.12,54.832L292.12,48.246L336.037,48.246L337.412,54.832Z" style="fill:rgb(235,236,235);fill-rule:nonzero;"/>
        </g>
        <g transform="matrix(4.16667,0,0,4.16667,0,0)">
            <path d="M285.487,54.832L284.095,54.832L284.636,48.246L285.487,48.246L285.487,54.832Z" style="fill:rgb(238,238,238);fill-rule:nonzero;"/>
        </g>
        <g transform="matrix(4.16667,0,0,4.16667,0,0)">
            <rect x="285.487" y="48.246" width="5.885" height="6.586" style="fill:rgb(231,232,231);fill-rule:nonzero;"/>
        </g>
        <g transform="matrix(4.16667,0,0,4.16667,0,0)">
            <rect x="416.476" y="48.246" width="0.841" height="6.586" style="fill:rgb(231,232,231);fill-rule:nonzero;"/>
        </g>
        <g transform="matrix(4.16667,0,0,4.16667,0,0)">
            <path d="M347.378,54.832L337.412,54.832L336.037,48.246L346.002,48.246L347.378,54.832Z" style="fill:rgb(238,238,238);fill-rule:nonzero;"/>
        </g>
        <g transform="matrix(4.16667,0,0,4.16667,0,0)">
            <rect x="291.372" y="48.246" width="0.748" height="6.586" style="fill:rgb(227,227,226);fill-rule:nonzero;"/>
        </g>
        <g transform="matrix(4.16667,0,0,4.16667,0,0)">
            <path d="M421.876,65.634L419.622,65.634L419.622,59.048L422.417,59.048L421.876,65.634Z" style="fill:rgb(231,232,231);fill-rule:nonzero;"/>
        </g>
        <g transform="matrix(4.16667,0,0,4.16667,0,0)">
            <path d="M419.622,65.634L417.317,65.634L417.317,59.048L419.622,59.048L419.622,65.634ZM416.476,65.634L380.685,65.634L379.31,59.048L416.476,59.048L416.476,65.634ZM355.124,65.634L349.633,65.634L348.258,59.048L353.749,59.048L355.124,65.634Z" style="fill:rgb(235,236,235);fill-rule:nonzero;"/>
        </g>
        <g transform="matrix(4.16667,0,0,4.16667,0,0)">
            <path d="M380.685,65.634L355.124,65.634L353.749,59.048L379.31,59.048L380.685,65.634Z" style="fill:rgb(238,238,238);fill-rule:nonzero;"/>
        </g>
        <g transform="matrix(4.16667,0,0,4.16667,0,0)">
            <path d="M339.668,65.634L292.12,65.634L292.12,59.048L338.293,59.048L339.668,65.634Z" style="fill:rgb(235,236,235);fill-rule:nonzero;"/>
        </g>
        <g transform="matrix(4.16667,0,0,4.16667,0,0)">
            <path d="M285.487,65.634L284.095,65.634L284.636,59.048L285.487,59.048L285.487,65.634Z" style="fill:rgb(238,238,238);fill-rule:nonzero;"/>
        </g>
        <g transform="matrix(4.16667,0,0,4.16667,0,0)">
            <rect x="285.487" y="59.048" width="5.885" height="6.586" style="fill:rgb(231,232,231);fill-rule:nonzero;"/>
        </g>
        <g transform="matrix(4.16667,0,0,4.16667,0,0)">
            <rect x="416.476" y="59.048" width="0.841" height="6.586" style="fill:rgb(231,232,231);fill-rule:nonzero;"/>
        </g>
        <g transform="matrix(4.16667,0,0,4.16667,0,0)">
            <path d="M349.633,65.634L339.668,65.634L338.293,59.048L348.258,59.048L349.633,65.634Z" style="fill:rgb(238,238,238);fill-rule:nonzero;"/>
        </g>
        <g transform="matrix(4.16667,0,0,4.16667,0,0)">
            <rect x="291.372" y="59.048" width="0.748" height="6.586" style="fill:rgb(227,227,226);fill-rule:nonzero;"/>
        </g>
        <g transform="matrix(4.16667,0,0,4.16667,0,0)">
            <path d="M421.876,76.436L419.622,76.436L419.622,69.85L422.417,69.85L421.876,76.436Z" style="fill:rgb(231,232,231);fill-rule:nonzero;"/>
        </g>
        <g transform="matrix(4.16667,0,0,4.16667,0,0)">
            <path d="M419.622,76.436L417.317,76.436L417.317,69.85L419.622,69.85L419.622,76.436ZM416.476,76.436L382.94,76.436L381.565,69.85L416.476,69.85L416.476,76.436ZM357.379,76.436L351.888,76.436L350.513,69.85L356.004,69.85L357.379,76.436Z" style="fill:rgb(235,236,235);fill-rule:nonzero;"/>
        </g>
        <g transform="matrix(4.16667,0,0,4.16667,0,0)">
            <path d="M382.94,76.436L357.379,76.436L356.004,69.85L381.565,69.85L382.94,76.436Z" style="fill:rgb(238,238,238);fill-rule:nonzero;"/>
        </g>
        <g transform="matrix(4.16667,0,0,4.16667,0,0)">
            <path d="M341.923,76.436L292.12,76.436L292.12,69.85L340.548,69.85L341.923,76.436Z" style="fill:rgb(235,236,235);fill-rule:nonzero;"/>
        </g>
        <g transform="matrix(4.16667,0,0,4.16667,0,0)">
            <path d="M285.487,76.436L284.095,76.436L284.636,69.85L285.487,69.85L285.487,76.436Z" style="fill:rgb(238,238,238);fill-rule:nonzero;"/>
        </g>
        <g transform="matrix(4.16667,0,0,4.16667,0,0)">
            <rect x="285.487" y="69.85" width="5.885" height="6.586" style="fill:rgb(231,232,231);fill-rule:nonzero;"/>
        </g>
        <g transform="matrix(4.16667,0,0,4.16667,0,0)">
            <rect x="416.476" y="69.85" width="0.841" height="6.586" style="fill:rgb(231,232,231);fill-rule:nonzero;"/>
        </g>
        <g transform="matrix(4.16667,0,0,4.16667,0,0)">
            <path d="M351.888,76.436L341.923,76.436L340.548,69.85L350.513,69.85L351.888,76.436Z" style="fill:rgb(238,238,238);fill-rule:nonzero;"/>
        </g>
        <g transform="matrix(4.16667,0,0,4.16667,0,0)">
            <rect x="291.372" y="69.85" width="0.748" height="6.586" style="fill:rgb(227,227,226);fill-rule:nonzero;"/>
        </g>
        <g transform="matrix(4.16667,0,0,4.16667,0,0)">
            <path d="M285.487,87.238L284.095,87.238L284.636,80.652L285.487,80.652L285.487,87.238Z" style="fill:rgb(238,238,238);fill-rule:nonzero;"/>
        </g>
        <g transform="matrix(4.16667,0,0,4.16667,0,0)">
            <path d="M421.876,87.238L419.622,87.238L419.622,80.652L422.417,80.652L421.876,87.238ZM291.372,87.238L285.487,87.238L285.487,80.652L291.372,80.652L291.372,87.238Z" style="fill:rgb(231,232,231);fill-rule:nonzero;"/>
        </g>
        <g transform="matrix(4.16667,0,0,4.16667,0,0)">
            <path d="M419.622,87.238L417.317,87.238L417.317,80.652L419.622,80.652L419.622,87.238ZM416.476,87.238L385.196,87.238L383.82,80.652L416.476,80.652L416.476,87.238ZM359.635,87.238L354.143,87.238L352.768,80.652L358.259,80.652L359.635,87.238ZM344.178,87.238L306.527,87.238C307.517,86.585 308.515,85.947 309.504,85.324L307.729,81.471C306.364,81.94 305.109,82.456 303.823,83.011C302.543,83.557 301.279,84.15 300.039,84.808C298.621,85.561 297.205,86.344 295.814,87.238L292.12,87.238L292.12,80.652L342.803,80.652L344.178,87.238Z" style="fill:rgb(235,236,235);fill-rule:nonzero;"/>
        </g>
        <g transform="matrix(4.16667,0,0,4.16667,0,0)">
            <path d="M385.196,87.238L382.384,87.238C381.469,84.984 380.461,82.8 379.358,80.652L383.82,80.652L385.196,87.238ZM376.138,87.238L359.635,87.238L358.259,80.652L374.282,80.652C374.924,82.838 375.56,85.042 376.138,87.238Z" style="fill:rgb(238,238,238);fill-rule:nonzero;"/>
        </g>
        <g transform="matrix(4.16667,0,0,4.16667,0,0)">
            <rect x="416.476" y="80.652" width="0.841" height="6.586" style="fill:rgb(231,232,231);fill-rule:nonzero;"/>
        </g>
        <g transform="matrix(4.16667,0,0,4.16667,0,0)">
            <path d="M354.143,87.238L344.178,87.238L342.803,80.652L352.768,80.652L354.143,87.238Z" style="fill:rgb(238,238,238);fill-rule:nonzero;"/>
        </g>
        <g transform="matrix(4.16667,0,0,4.16667,0,0)">
            <rect x="291.372" y="80.652" width="0.748" height="6.586" style="fill:rgb(227,227,226);fill-rule:nonzero;"/>
        </g>
        <g transform="matrix(4.16667,0,0,4.16667,0,0)">
            <path d="M285.487,96.857L284.192,96.857L284.636,91.454L285.487,91.454L285.487,96.857Z" style="fill:rgb(238,238,238);fill-rule:nonzero;"/>
        </g>
        <g transform="matrix(4.16667,0,0,4.16667,0,0)">
            <path d="M421.876,98.04L419.622,98.04L419.622,91.454L422.417,91.454L421.876,98.04ZM287.578,96.857L285.487,96.857L285.487,91.454L290.609,91.454C290.175,91.921 289.753,92.43 289.347,92.995C288.823,93.726 288.322,94.57 287.94,95.602C287.794,95.987 287.67,96.409 287.578,96.857Z" style="fill:rgb(231,232,231);fill-rule:nonzero;"/>
        </g>
        <g transform="matrix(4.16667,0,0,4.16667,0,0)">
            <path d="M419.622,98.04L417.317,98.04L417.317,91.454L419.622,91.454L419.622,98.04ZM416.476,98.04L387.451,98.04L386.076,91.454L416.476,91.454L416.476,98.04ZM361.89,98.04L356.399,98.04L355.024,91.454L360.515,91.454L361.89,98.04ZM346.434,98.04L345.388,98.04C345.542,97.085 345.709,96.17 345.868,95.332L346.434,98.04ZM340.934,98.04L331.223,98.04C329.873,97.288 328.339,96.857 326.741,96.857L325.92,96.857L295.414,96.857C295.861,96.112 296.536,95.28 297.303,94.483C298.325,93.439 299.462,92.431 300.672,91.454L345.059,91.454L345.599,94.041L340.934,98.04Z" style="fill:rgb(235,236,235);fill-rule:nonzero;"/>
        </g>
        <g transform="matrix(4.16667,0,0,4.16667,0,0)">
            <path d="M387.451,98.04L385.542,98.04C385.246,95.61 384.627,93.526 383.96,91.454L386.076,91.454L387.451,98.04ZM378.222,98.04L361.89,98.04L360.515,91.454L377.165,91.454C377.288,92.015 377.406,92.574 377.517,93.131C377.845,94.803 378.13,96.518 378.222,98.04Z" style="fill:rgb(238,238,238);fill-rule:nonzero;"/>
        </g>
        <g transform="matrix(4.16667,0,0,4.16667,0,0)">
            <rect x="416.476" y="91.454" width="0.841" height="6.586" style="fill:rgb(231,232,231);fill-rule:nonzero;"/>
        </g>
        <g transform="matrix(4.16667,0,0,4.16667,0,0)">
            <path d="M356.399,98.04L346.434,98.04L345.868,95.332C345.994,94.671 346.115,94.057 346.223,93.505L345.599,94.041L345.059,91.454L355.024,91.454L356.399,98.04Z" style="fill:rgb(238,238,238);fill-rule:nonzero;"/>
        </g>
        <g transform="matrix(4.16667,0,0,4.16667,0,0)">
            <rect x="378.799" y="262.221" width="28.889" height="5.694" style="fill:rgb(224,224,223);fill-rule:nonzero;"/>
        </g>
        <g transform="matrix(4.16667,0,0,4.16667,0,0)">
            <rect x="324.308" y="196.772" width="5.333" height="131.065" style="fill:rgb(224,224,223);fill-rule:nonzero;"/>
        </g>
        <g transform="matrix(4.16667,0,0,4.16667,0,0)">
            <rect x="305.836" y="262.221" width="72.963" height="5.694" style="fill:rgb(240,240,240);fill-rule:nonzero;"/>
        </g>
        <g transform="matrix(4.16667,0,0,4.16667,0,0)">
            <rect x="378.799" y="293.386" width="28.889" height="5.696" style="fill:rgb(224,224,223);fill-rule:nonzero;"/>
        </g>
        <g transform="matrix(4.16667,0,0,4.16667,0,0)">
            <rect x="305.836" y="293.386" width="72.963" height="5.696" style="fill:rgb(240,240,240);fill-rule:nonzero;"/>
        </g>
        <g transform="matrix(4.16667,0,0,4.16667,0,0)">
            <rect x="378.799" y="199.886" width="28.889" height="5.696" style="fill:rgb(224,224,223);fill-rule:nonzero;"/>
        </g>
        <g transform="matrix(4.16667,0,0,4.16667,0,0)">
            <rect x="305.836" y="199.886" width="72.963" height="5.696" style="fill:rgb(240,240,240);fill-rule:nonzero;"/>
        </g>
        <g transform="matrix(4.16667,0,0,4.16667,0,0)">
            <rect x="378.799" y="231.053" width="28.889" height="5.696" style="fill:rgb(224,224,223);fill-rule:nonzero;"/>
        </g>
        <g transform="matrix(4.16667,0,0,4.16667,0,0)">
            <rect x="305.836" y="231.053" width="72.963" height="5.696" style="fill:rgb(240,240,240);fill-rule:nonzero;"/>
        </g>
        <g transform="matrix(4.16667,0,0,4.16667,0,0)">
            <rect x="397.271" y="196.772" width="5.333" height="131.065" style="fill:rgb(224,224,223);fill-rule:nonzero;"/>
        </g>
        <g transform="matrix(4.16667,0,0,4.16667,0,0)">
            <rect x="373.466" y="196.772" width="5.333" height="131.065" style="fill:rgb(240,240,240);fill-rule:nonzero;"/>
        </g>
        <g transform="matrix(4.16667,0,0,4.16667,0,0)">
            <rect x="305.836" y="196.772" width="5.333" height="131.065" style="fill:rgb(240,240,240);fill-rule:nonzero;"/>
        </g>
        <g transform="matrix(4.16667,0,0,4.16667,0,0)">
            <rect x="65.373" y="221.945" width="54.579" height="105.893" style="fill:rgb(224,224,223);fill-rule:nonzero;"/>
        </g>
        <g transform="matrix(4.16667,0,0,4.16667,0,0)">
            <path d="M79.947,327.838L65.373,327.838L65.373,313.22L95.228,313.22L79.947,327.838Z" style="fill:rgb(249,249,249);fill-rule:nonzero;"/>
        </g>
        <g transform="matrix(4.16667,0,0,4.16667,0,0)">
            <rect x="214.183" y="221.945" width="54.578" height="105.893" style="fill:rgb(224,224,223);fill-rule:nonzero;"/>
        </g>
        <g transform="matrix(4.16667,0,0,4.16667,0,0)">
            <rect x="65.373" y="221.945" width="161.53" height="100.861" style="fill:rgb(249,249,249);fill-rule:nonzero;"/>
        </g>
        <g transform="matrix(4.16667,0,0,4.16667,0,0)">
            <path d="M212.329,327.838L226.903,327.838L226.903,313.22L197.048,313.22L212.329,327.838Z" style="fill:rgb(249,249,249);fill-rule:nonzero;"/>
        </g>
        <g transform="matrix(4.16667,0,0,4.16667,0,0)">
            <rect x="76.679" y="259.529" width="138.918" height="25.241" style="fill:rgb(234,235,234);fill-rule:nonzero;"/>
        </g>
        <g transform="matrix(4.16667,0,0,4.16667,0,0)">
            <rect x="76.679" y="290.165" width="138.918" height="25.241" style="fill:rgb(234,235,234);fill-rule:nonzero;"/>
        </g>
        <g transform="matrix(4.16667,0,0,4.16667,0,0)">
            <path d="M103.084,262.228L189.192,262.228C191.72,262.228 193.769,260.179 193.769,257.652L193.769,257.343L98.507,257.343L98.507,257.652C98.507,260.179 100.557,262.228 103.084,262.228Z" style="fill:rgb(249,249,249);fill-rule:nonzero;"/>
        </g>
        <g transform="matrix(4.16667,0,0,4.16667,0,0)">
            <rect x="76.679" y="228.893" width="138.918" height="25.241" style="fill:rgb(234,235,234);fill-rule:nonzero;"/>
        </g>
        <g transform="matrix(4.16667,0,0,4.16667,0,0)">
            <path d="M103.084,231.592L189.192,231.592C191.72,231.592 193.769,229.543 193.769,227.016L193.769,226.707L98.507,226.707L98.507,227.016C98.507,229.543 100.557,231.592 103.084,231.592Z" style="fill:rgb(249,249,249);fill-rule:nonzero;"/>
        </g>
        <g transform="matrix(4.16667,0,0,4.16667,0,0)">
            <path d="M103.084,292.864L189.192,292.864C191.72,292.864 193.769,290.815 193.769,288.287L193.769,287.979L98.507,287.979L98.507,288.287C98.507,290.815 100.556,292.864 103.084,292.864Z" style="fill:rgb(249,249,249);fill-rule:nonzero;"/>
        </g>
        <g transform="matrix(4.16667,0,0,4.16667,0,0)">
            <rect x="74.068" y="29.271" width="137.781" height="90.226" style="fill:rgb(224,224,223);fill-rule:nonzero;"/>
        </g>
        <g transform="matrix(4.16667,0,0,4.16667,0,0)">
            <rect x="69.864" y="29.271" width="140.021" height="90.226" style="fill:rgb(234,235,234);fill-rule:nonzero;"/>
        </g>
        <g transform="matrix(4.16667,0,0,4.16667,0,0)">
            <rect x="74.068" y="119.497" width="137.781" height="17.708" style="fill:rgb(224,224,223);fill-rule:nonzero;"/>
        </g>
        <g transform="matrix(4.16667,0,0,4.16667,0,0)">
            <rect x="62.86" y="119.497" width="140.021" height="17.708" style="fill:rgb(234,235,234);fill-rule:nonzero;"/>
        </g>
        <g transform="matrix(4.16667,0,0,4.16667,0,0)">
            <rect x="75.749" y="35.156" width="128.25" height="78.455" style="fill:rgb(249,249,249);fill-rule:nonzero;"/>
        </g>
        <g transform="matrix(4.16667,0,0,4.16667,0,0)">
            <path d="M175.08,113.612L158.699,35.157L133.138,35.157L149.519,113.612L175.08,113.612Z" style="fill:white;fill-rule:nonzero;"/>
        </g>
        <g transform="matrix(4.16667,0,0,4.16667,0,0)">
            <path d="M201.274,107.754C201.506,107.754 201.695,107.565 201.695,107.333L201.695,38.985C201.695,38.753 201.506,38.565 201.274,38.565C201.042,38.565 200.854,38.753 200.854,38.985L200.854,107.333C200.854,107.565 201.042,107.754 201.274,107.754Z" style="fill:rgb(234,235,234);fill-rule:nonzero;"/>
        </g>
        <g transform="matrix(4.16667,0,0,4.16667,0,0)">
            <path d="M144.028,113.612L127.647,35.157L117.682,35.157L134.063,113.612L144.028,113.612Z" style="fill:white;fill-rule:nonzero;"/>
        </g>
        <g transform="matrix(4.16667,0,0,4.16667,0,0)">
            <rect x="75.749" y="35.156" width="0.748" height="78.455" style="fill:rgb(224,224,223);fill-rule:nonzero;"/>
        </g>
        <g transform="matrix(4.16667,0,0,4.16667,0,0)">
            <path d="M68.777,44.03L68.472,44.03L69.013,37.444L69.864,37.444L69.864,41.159L69.013,41.159L68.777,44.03Z" style="fill:rgb(238,238,238);fill-rule:nonzero;"/>
        </g>
        <g transform="matrix(4.16667,0,0,4.16667,0,0)">
            <path d="M206.489,41.159L203.999,41.159L203.999,37.444L206.795,37.444L206.489,41.159ZM75.749,41.159L69.864,41.159L69.864,37.444L75.749,37.444L75.749,41.159Z" style="fill:rgb(231,232,231);fill-rule:nonzero;"/>
        </g>
        <g transform="matrix(4.16667,0,0,4.16667,0,0)">
            <path d="M203.999,41.159L201.695,41.159L201.695,38.985C201.695,38.753 201.506,38.565 201.274,38.565C201.042,38.565 200.854,38.753 200.854,38.985L200.854,41.159L159.952,41.159L159.177,37.444L203.999,37.444L203.999,41.159ZM134.391,41.159L128.899,41.159L128.125,37.444L133.616,37.444L134.391,41.159ZM118.935,41.159L76.497,41.159L76.497,37.444L118.159,37.444L118.935,41.159Z" style="fill:rgb(235,236,235);fill-rule:nonzero;"/>
        </g>
        <g transform="matrix(4.16667,0,0,4.16667,0,0)">
            <path d="M159.952,41.159L134.391,41.159L133.616,37.444L159.177,37.444L159.952,41.159Z" style="fill:rgb(238,238,238);fill-rule:nonzero;"/>
        </g>
        <g transform="matrix(4.16667,0,0,4.16667,0,0)">
            <path d="M201.695,41.159L200.854,41.159L200.854,38.985C200.854,38.753 201.042,38.565 201.274,38.565C201.506,38.565 201.695,38.753 201.695,38.985L201.695,41.159Z" style="fill:rgb(231,232,231);fill-rule:nonzero;"/>
        </g>
        <g transform="matrix(4.16667,0,0,4.16667,0,0)">
            <path d="M128.899,41.159L118.935,41.159L118.159,37.444L128.125,37.444L128.899,41.159Z" style="fill:rgb(238,238,238);fill-rule:nonzero;"/>
        </g>
        <g transform="matrix(4.16667,0,0,4.16667,0,0)">
            <rect x="75.749" y="37.444" width="0.748" height="3.715" style="fill:rgb(227,227,226);fill-rule:nonzero;"/>
        </g>
        <g transform="matrix(4.16667,0,0,4.16667,0,0)">
            <path d="M68.777,47.746L68.472,47.746L68.777,44.03L69.864,44.03L69.864,44.875L69.013,44.875L68.777,47.746Z" style="fill:rgb(238,238,238);fill-rule:nonzero;"/>
        </g>
        <g transform="matrix(4.16667,0,0,4.16667,0,0)">
            <path d="M206.489,44.875L203.999,44.875L203.999,44.03L206.253,44.03L206.489,41.159L206.795,41.159L206.489,44.875ZM75.749,44.875L69.864,44.875L69.864,44.03L75.749,44.03L75.749,44.875Z" style="fill:rgb(231,232,231);fill-rule:nonzero;"/>
        </g>
        <g transform="matrix(4.16667,0,0,4.16667,0,0)">
            <path d="M203.999,44.875L201.695,44.875L201.695,44.03L203.999,44.03L203.999,44.875ZM200.854,44.875L160.728,44.875L160.552,44.03L200.854,44.03L200.854,44.875ZM135.167,44.875L129.675,44.875L129.5,44.03L134.991,44.03L135.167,44.875ZM119.711,44.875L76.497,44.875L76.497,44.03L119.535,44.03L119.711,44.875Z" style="fill:rgb(235,236,235);fill-rule:nonzero;"/>
        </g>
        <g transform="matrix(4.16667,0,0,4.16667,0,0)">
            <path d="M160.728,44.875L135.167,44.875L134.991,44.03L160.552,44.03L160.728,44.875Z" style="fill:rgb(238,238,238);fill-rule:nonzero;"/>
        </g>
        <g transform="matrix(4.16667,0,0,4.16667,0,0)">
            <rect x="200.854" y="44.03" width="0.841" height="0.845" style="fill:rgb(231,232,231);fill-rule:nonzero;"/>
        </g>
        <g transform="matrix(4.16667,0,0,4.16667,0,0)">
            <path d="M129.675,44.875L119.711,44.875L119.535,44.03L129.5,44.03L129.675,44.875Z" style="fill:rgb(238,238,238);fill-rule:nonzero;"/>
        </g>
        <g transform="matrix(4.16667,0,0,4.16667,0,0)">
            <rect x="75.749" y="44.03" width="0.748" height="0.845" style="fill:rgb(227,227,226);fill-rule:nonzero;"/>
        </g>
        <g transform="matrix(4.16667,0,0,4.16667,0,0)">
            <path d="M69.864,44.03L68.777,44.03L69.013,41.159L69.864,41.159L69.864,44.03Z" style="fill:rgb(233,233,232);fill-rule:nonzero;"/>
        </g>
        <g transform="matrix(4.16667,0,0,4.16667,0,0)">
            <path d="M206.253,44.03L203.999,44.03L203.999,41.159L206.489,41.159L206.253,44.03ZM75.749,44.03L69.864,44.03L69.864,41.159L75.749,41.159L75.749,44.03Z" style="fill:rgb(230,231,229);fill-rule:nonzero;"/>
        </g>
        <g transform="matrix(4.16667,0,0,4.16667,0,0)">
            <path d="M203.999,44.03L201.695,44.03L201.695,41.159L203.999,41.159L203.999,44.03ZM200.854,44.03L160.552,44.03L159.952,41.159L200.854,41.159L200.854,44.03ZM134.991,44.03L129.5,44.03L128.899,41.159L134.391,41.159L134.991,44.03ZM119.535,44.03L76.497,44.03L76.497,41.159L118.935,41.159L119.535,44.03Z" style="fill:rgb(231,232,231);fill-rule:nonzero;"/>
        </g>
        <g transform="matrix(4.16667,0,0,4.16667,0,0)">
            <path d="M160.552,44.03L134.991,44.03L134.391,41.159L159.952,41.159L160.552,44.03Z" style="fill:rgb(232,232,231);fill-rule:nonzero;"/>
        </g>
        <g transform="matrix(4.16667,0,0,4.16667,0,0)">
            <rect x="200.854" y="41.159" width="0.841" height="2.871" style="fill:rgb(230,231,229);fill-rule:nonzero;"/>
        </g>
        <g transform="matrix(4.16667,0,0,4.16667,0,0)">
            <path d="M129.5,44.03L119.535,44.03L118.935,41.159L128.899,41.159L129.5,44.03Z" style="fill:rgb(232,232,231);fill-rule:nonzero;"/>
        </g>
        <g transform="matrix(4.16667,0,0,4.16667,0,0)">
            <rect x="75.749" y="41.159" width="0.748" height="2.871" style="fill:rgb(228,228,228);fill-rule:nonzero;"/>
        </g>
        <g transform="matrix(4.16667,0,0,4.16667,0,0)">
            <path d="M68.777,51.461L68.472,51.461L68.777,47.746L69.864,47.746L69.864,48.59L69.013,48.59L68.777,51.461Z" style="fill:rgb(238,238,238);fill-rule:nonzero;"/>
        </g>
        <g transform="matrix(4.16667,0,0,4.16667,0,0)">
            <path d="M206.489,48.59L203.999,48.59L203.999,47.746L206.253,47.746L206.489,44.875L206.795,44.875L206.489,48.59ZM75.749,48.59L69.864,48.59L69.864,47.746L75.749,47.746L75.749,48.59Z" style="fill:rgb(231,232,231);fill-rule:nonzero;"/>
        </g>
        <g transform="matrix(4.16667,0,0,4.16667,0,0)">
            <path d="M203.999,48.59L201.695,48.59L201.695,47.746L203.999,47.746L203.999,48.59ZM200.854,48.59L161.504,48.59L161.327,47.746L200.854,47.746L200.854,48.59ZM135.943,48.59L130.451,48.59L130.274,47.746L135.766,47.746L135.943,48.59ZM120.487,48.59L76.497,48.59L76.497,47.746L120.31,47.746L120.487,48.59Z" style="fill:rgb(235,236,235);fill-rule:nonzero;"/>
        </g>
        <g transform="matrix(4.16667,0,0,4.16667,0,0)">
            <path d="M161.504,48.59L135.943,48.59L135.766,47.746L161.327,47.746L161.504,48.59Z" style="fill:rgb(238,238,238);fill-rule:nonzero;"/>
        </g>
        <g transform="matrix(4.16667,0,0,4.16667,0,0)">
            <rect x="200.854" y="47.746" width="0.841" height="0.844" style="fill:rgb(231,232,231);fill-rule:nonzero;"/>
        </g>
        <g transform="matrix(4.16667,0,0,4.16667,0,0)">
            <path d="M130.451,48.59L120.487,48.59L120.31,47.746L130.274,47.746L130.451,48.59Z" style="fill:rgb(238,238,238);fill-rule:nonzero;"/>
        </g>
        <g transform="matrix(4.16667,0,0,4.16667,0,0)">
            <rect x="75.749" y="47.746" width="0.748" height="0.844" style="fill:rgb(227,227,226);fill-rule:nonzero;"/>
        </g>
        <g transform="matrix(4.16667,0,0,4.16667,0,0)">
            <path d="M69.864,47.746L68.777,47.746L69.013,44.875L69.864,44.875L69.864,47.746Z" style="fill:rgb(233,233,232);fill-rule:nonzero;"/>
        </g>
        <g transform="matrix(4.16667,0,0,4.16667,0,0)">
            <path d="M206.253,47.746L203.999,47.746L203.999,44.875L206.489,44.875L206.253,47.746ZM75.749,47.746L69.864,47.746L69.864,44.875L75.749,44.875L75.749,47.746Z" style="fill:rgb(230,231,229);fill-rule:nonzero;"/>
        </g>
        <g transform="matrix(4.16667,0,0,4.16667,0,0)">
            <path d="M203.999,47.746L201.695,47.746L201.695,44.875L203.999,44.875L203.999,47.746ZM200.854,47.746L161.327,47.746L160.728,44.875L200.854,44.875L200.854,47.746ZM135.766,47.746L130.274,47.746L129.675,44.875L135.167,44.875L135.766,47.746ZM120.31,47.746L76.497,47.746L76.497,44.875L119.711,44.875L120.31,47.746Z" style="fill:rgb(231,232,231);fill-rule:nonzero;"/>
        </g>
        <g transform="matrix(4.16667,0,0,4.16667,0,0)">
            <path d="M161.327,47.746L135.766,47.746L135.167,44.875L160.728,44.875L161.327,47.746Z" style="fill:rgb(232,232,231);fill-rule:nonzero;"/>
        </g>
        <g transform="matrix(4.16667,0,0,4.16667,0,0)">
            <rect x="200.854" y="44.875" width="0.841" height="2.871" style="fill:rgb(230,231,229);fill-rule:nonzero;"/>
        </g>
        <g transform="matrix(4.16667,0,0,4.16667,0,0)">
            <path d="M130.274,47.746L120.31,47.746L119.711,44.875L129.675,44.875L130.274,47.746Z" style="fill:rgb(232,232,231);fill-rule:nonzero;"/>
        </g>
        <g transform="matrix(4.16667,0,0,4.16667,0,0)">
            <rect x="75.749" y="44.875" width="0.748" height="2.871" style="fill:rgb(228,228,228);fill-rule:nonzero;"/>
        </g>
        <g transform="matrix(4.16667,0,0,4.16667,0,0)">
            <path d="M68.777,55.176L68.472,55.176L68.777,51.461L69.864,51.461L69.864,52.306L69.013,52.306L68.777,55.176Z" style="fill:rgb(238,238,238);fill-rule:nonzero;"/>
        </g>
        <g transform="matrix(4.16667,0,0,4.16667,0,0)">
            <path d="M206.489,52.306L203.999,52.306L203.999,51.461L206.253,51.461L206.489,48.59L206.795,48.59L206.489,52.306ZM75.749,52.306L69.864,52.306L69.864,51.461L75.749,51.461L75.749,52.306Z" style="fill:rgb(231,232,231);fill-rule:nonzero;"/>
        </g>
        <g transform="matrix(4.16667,0,0,4.16667,0,0)">
            <path d="M203.999,52.306L201.695,52.306L201.695,51.461L203.999,51.461L203.999,52.306ZM200.854,52.306L162.28,52.306L162.103,51.461L200.854,51.461L200.854,52.306ZM136.719,52.306L131.227,52.306L131.05,51.461L136.542,51.461L136.719,52.306ZM121.262,52.306L76.497,52.306L76.497,51.461L121.086,51.461L121.262,52.306Z" style="fill:rgb(235,236,235);fill-rule:nonzero;"/>
        </g>
        <g transform="matrix(4.16667,0,0,4.16667,0,0)">
            <path d="M162.28,52.306L136.719,52.306L136.542,51.461L162.103,51.461L162.28,52.306Z" style="fill:rgb(238,238,238);fill-rule:nonzero;"/>
        </g>
        <g transform="matrix(4.16667,0,0,4.16667,0,0)">
            <rect x="200.854" y="51.461" width="0.841" height="0.845" style="fill:rgb(231,232,231);fill-rule:nonzero;"/>
        </g>
        <g transform="matrix(4.16667,0,0,4.16667,0,0)">
            <path d="M131.227,52.306L121.262,52.306L121.086,51.461L131.05,51.461L131.227,52.306Z" style="fill:rgb(238,238,238);fill-rule:nonzero;"/>
        </g>
        <g transform="matrix(4.16667,0,0,4.16667,0,0)">
            <rect x="75.749" y="51.461" width="0.748" height="0.845" style="fill:rgb(227,227,226);fill-rule:nonzero;"/>
        </g>
        <g transform="matrix(4.16667,0,0,4.16667,0,0)">
            <path d="M69.864,51.461L68.777,51.461L69.013,48.59L69.864,48.59L69.864,51.461Z" style="fill:rgb(233,233,232);fill-rule:nonzero;"/>
        </g>
        <g transform="matrix(4.16667,0,0,4.16667,0,0)">
            <path d="M206.253,51.461L203.999,51.461L203.999,48.59L206.489,48.59L206.253,51.461ZM75.749,51.461L69.864,51.461L69.864,48.59L75.749,48.59L75.749,51.461Z" style="fill:rgb(230,231,229);fill-rule:nonzero;"/>
        </g>
        <g transform="matrix(4.16667,0,0,4.16667,0,0)">
            <path d="M203.999,51.461L201.695,51.461L201.695,48.59L203.999,48.59L203.999,51.461ZM200.854,51.461L162.103,51.461L161.504,48.59L200.854,48.59L200.854,51.461ZM136.542,51.461L131.05,51.461L130.451,48.59L135.943,48.59L136.542,51.461ZM121.086,51.461L76.497,51.461L76.497,48.59L120.487,48.59L121.086,51.461Z" style="fill:rgb(231,232,231);fill-rule:nonzero;"/>
        </g>
        <g transform="matrix(4.16667,0,0,4.16667,0,0)">
            <path d="M162.103,51.461L136.542,51.461L135.943,48.59L161.504,48.59L162.103,51.461Z" style="fill:rgb(232,232,231);fill-rule:nonzero;"/>
        </g>
        <g transform="matrix(4.16667,0,0,4.16667,0,0)">
            <rect x="200.854" y="48.59" width="0.841" height="2.871" style="fill:rgb(230,231,229);fill-rule:nonzero;"/>
        </g>
        <g transform="matrix(4.16667,0,0,4.16667,0,0)">
            <path d="M131.05,51.461L121.086,51.461L120.487,48.59L130.451,48.59L131.05,51.461Z" style="fill:rgb(232,232,231);fill-rule:nonzero;"/>
        </g>
        <g transform="matrix(4.16667,0,0,4.16667,0,0)">
            <rect x="75.749" y="48.59" width="0.748" height="2.871" style="fill:rgb(228,228,228);fill-rule:nonzero;"/>
        </g>
        <g transform="matrix(4.16667,0,0,4.16667,0,0)">
            <path d="M68.777,58.892L68.472,58.892L68.777,55.176L69.864,55.176L69.864,56.021L69.013,56.021L68.777,58.892Z" style="fill:rgb(238,238,238);fill-rule:nonzero;"/>
        </g>
        <g transform="matrix(4.16667,0,0,4.16667,0,0)">
            <path d="M206.489,56.021L203.999,56.021L203.999,55.176L206.253,55.176L206.489,52.306L206.795,52.306L206.489,56.021ZM75.749,56.021L69.864,56.021L69.864,55.176L75.749,55.176L75.749,56.021Z" style="fill:rgb(231,232,231);fill-rule:nonzero;"/>
        </g>
        <g transform="matrix(4.16667,0,0,4.16667,0,0)">
            <path d="M203.999,56.021L201.695,56.021L201.695,55.176L203.999,55.176L203.999,56.021ZM200.854,56.021L163.055,56.021L162.879,55.176L200.854,55.176L200.854,56.021ZM137.494,56.021L132.003,56.021L131.827,55.176L137.318,55.176L137.494,56.021ZM122.038,56.021L76.497,56.021L76.497,55.176L121.862,55.176L122.038,56.021Z" style="fill:rgb(235,236,235);fill-rule:nonzero;"/>
        </g>
        <g transform="matrix(4.16667,0,0,4.16667,0,0)">
            <path d="M163.055,56.021L137.494,56.021L137.318,55.176L162.879,55.176L163.055,56.021Z" style="fill:rgb(238,238,238);fill-rule:nonzero;"/>
        </g>
        <g transform="matrix(4.16667,0,0,4.16667,0,0)">
            <rect x="200.854" y="55.176" width="0.841" height="0.845" style="fill:rgb(231,232,231);fill-rule:nonzero;"/>
        </g>
        <g transform="matrix(4.16667,0,0,4.16667,0,0)">
            <path d="M132.003,56.021L122.038,56.021L121.862,55.176L131.827,55.176L132.003,56.021Z" style="fill:rgb(238,238,238);fill-rule:nonzero;"/>
        </g>
        <g transform="matrix(4.16667,0,0,4.16667,0,0)">
            <rect x="75.749" y="55.176" width="0.748" height="0.845" style="fill:rgb(227,227,226);fill-rule:nonzero;"/>
        </g>
        <g transform="matrix(4.16667,0,0,4.16667,0,0)">
            <path d="M69.864,55.176L68.777,55.176L69.013,52.306L69.864,52.306L69.864,55.176Z" style="fill:rgb(233,233,232);fill-rule:nonzero;"/>
        </g>
        <g transform="matrix(4.16667,0,0,4.16667,0,0)">
            <path d="M206.253,55.176L203.999,55.176L203.999,52.306L206.489,52.306L206.253,55.176ZM75.749,55.176L69.864,55.176L69.864,52.306L75.749,52.306L75.749,55.176Z" style="fill:rgb(230,231,229);fill-rule:nonzero;"/>
        </g>
        <g transform="matrix(4.16667,0,0,4.16667,0,0)">
            <path d="M203.999,55.176L201.695,55.176L201.695,52.306L203.999,52.306L203.999,55.176ZM200.854,55.176L162.879,55.176L162.28,52.306L200.854,52.306L200.854,55.176ZM137.318,55.176L131.827,55.176L131.227,52.306L136.719,52.306L137.318,55.176ZM121.862,55.176L76.497,55.176L76.497,52.306L121.262,52.306L121.862,55.176Z" style="fill:rgb(231,232,231);fill-rule:nonzero;"/>
        </g>
        <g transform="matrix(4.16667,0,0,4.16667,0,0)">
            <path d="M162.879,55.176L137.318,55.176L136.719,52.306L162.28,52.306L162.879,55.176Z" style="fill:rgb(232,232,231);fill-rule:nonzero;"/>
        </g>
        <g transform="matrix(4.16667,0,0,4.16667,0,0)">
            <rect x="200.854" y="52.306" width="0.841" height="2.87" style="fill:rgb(230,231,229);fill-rule:nonzero;"/>
        </g>
        <g transform="matrix(4.16667,0,0,4.16667,0,0)">
            <path d="M131.827,55.176L121.862,55.176L121.262,52.306L131.227,52.306L131.827,55.176Z" style="fill:rgb(232,232,231);fill-rule:nonzero;"/>
        </g>
        <g transform="matrix(4.16667,0,0,4.16667,0,0)">
            <rect x="75.749" y="52.306" width="0.748" height="2.87" style="fill:rgb(228,228,228);fill-rule:nonzero;"/>
        </g>
        <g transform="matrix(4.16667,0,0,4.16667,0,0)">
            <path d="M69.864,62.607L68.472,62.607L68.777,58.892L69.864,58.892L69.864,62.607Z" style="fill:rgb(238,238,238);fill-rule:nonzero;"/>
        </g>
        <g transform="matrix(4.16667,0,0,4.16667,0,0)">
            <path d="M206.253,62.607L203.999,62.607L203.999,58.892L206.253,58.892L206.489,56.021L206.795,56.021L206.253,62.607ZM75.749,62.607L69.864,62.607L69.864,58.892L75.749,58.892L75.749,62.607Z" style="fill:rgb(231,232,231);fill-rule:nonzero;"/>
        </g>
        <g transform="matrix(4.16667,0,0,4.16667,0,0)">
            <path d="M203.999,62.607L201.695,62.607L201.695,58.892L203.999,58.892L203.999,62.607ZM200.854,62.607L164.43,62.607L163.655,58.892L200.854,58.892L200.854,62.607ZM138.869,62.607L133.378,62.607L132.603,58.892L138.094,58.892L138.869,62.607ZM123.413,62.607L76.497,62.607L76.497,58.892L122.637,58.892L123.413,62.607Z" style="fill:rgb(235,236,235);fill-rule:nonzero;"/>
        </g>
        <g transform="matrix(4.16667,0,0,4.16667,0,0)">
            <path d="M164.43,62.607L138.869,62.607L138.094,58.892L163.655,58.892L164.43,62.607Z" style="fill:rgb(238,238,238);fill-rule:nonzero;"/>
        </g>
        <g transform="matrix(4.16667,0,0,4.16667,0,0)">
            <rect x="200.854" y="58.892" width="0.841" height="3.715" style="fill:rgb(231,232,231);fill-rule:nonzero;"/>
        </g>
        <g transform="matrix(4.16667,0,0,4.16667,0,0)">
            <path d="M133.378,62.607L123.413,62.607L122.637,58.892L132.603,58.892L133.378,62.607Z" style="fill:rgb(238,238,238);fill-rule:nonzero;"/>
        </g>
        <g transform="matrix(4.16667,0,0,4.16667,0,0)">
            <rect x="75.749" y="58.892" width="0.748" height="3.715" style="fill:rgb(227,227,226);fill-rule:nonzero;"/>
        </g>
        <g transform="matrix(4.16667,0,0,4.16667,0,0)">
            <path d="M69.864,58.892L68.777,58.892L69.013,56.021L69.864,56.021L69.864,58.892Z" style="fill:rgb(233,233,232);fill-rule:nonzero;"/>
        </g>
        <g transform="matrix(4.16667,0,0,4.16667,0,0)">
            <path d="M206.253,58.892L203.999,58.892L203.999,56.021L206.489,56.021L206.253,58.892ZM75.749,58.892L69.864,58.892L69.864,56.021L75.749,56.021L75.749,58.892Z" style="fill:rgb(230,231,229);fill-rule:nonzero;"/>
        </g>
        <g transform="matrix(4.16667,0,0,4.16667,0,0)">
            <path d="M203.999,58.892L201.695,58.892L201.695,56.021L203.999,56.021L203.999,58.892ZM200.854,58.892L163.655,58.892L163.055,56.021L200.854,56.021L200.854,58.892ZM138.094,58.892L132.603,58.892L132.003,56.021L137.494,56.021L138.094,58.892ZM122.637,58.892L76.497,58.892L76.497,56.021L122.038,56.021L122.637,58.892Z" style="fill:rgb(231,232,231);fill-rule:nonzero;"/>
        </g>
        <g transform="matrix(4.16667,0,0,4.16667,0,0)">
            <path d="M163.655,58.892L138.094,58.892L137.494,56.021L163.055,56.021L163.655,58.892Z" style="fill:rgb(232,232,231);fill-rule:nonzero;"/>
        </g>
        <g transform="matrix(4.16667,0,0,4.16667,0,0)">
            <rect x="200.854" y="56.021" width="0.841" height="2.871" style="fill:rgb(230,231,229);fill-rule:nonzero;"/>
        </g>
        <g transform="matrix(4.16667,0,0,4.16667,0,0)">
            <path d="M132.603,58.892L122.637,58.892L122.038,56.021L132.003,56.021L132.603,58.892Z" style="fill:rgb(232,232,231);fill-rule:nonzero;"/>
        </g>
        <g transform="matrix(4.16667,0,0,4.16667,0,0)">
            <rect x="75.749" y="56.021" width="0.748" height="2.871" style="fill:rgb(228,228,228);fill-rule:nonzero;"/>
        </g>
        <g transform="matrix(4.16667,0,0,4.16667,0,0)">
            <rect x="96.013" y="165.617" width="4.764" height="53.092" style="fill:rgb(240,240,240);fill-rule:nonzero;"/>
        </g>
        <g transform="matrix(4.16667,0,0,4.16667,0,0)">
            <rect x="96.626" y="165.58" width="1.346" height="53.093" style="fill:rgb(249,249,249);fill-rule:nonzero;"/>
        </g>
        <g transform="matrix(4.16667,0,0,4.16667,0,0)">
            <rect x="98.535" y="165.58" width="0.528" height="53.093" style="fill:rgb(249,249,249);fill-rule:nonzero;"/>
        </g>
        <g transform="matrix(4.16667,0,0,4.16667,0,0)">
            <path d="M80.762,221.945L116.027,221.945C116.027,219.492 114.038,217.503 111.584,217.503L85.205,217.503C82.752,217.503 80.762,219.492 80.762,221.945Z" style="fill:rgb(234,235,234);fill-rule:nonzero;"/>
        </g>
        <g transform="matrix(4.16667,0,0,4.16667,0,0)">
            <path d="M89.835,198.577C90.588,198.577 91.205,197.96 91.205,197.207L91.205,162.397C91.205,161.643 90.588,161.027 89.835,161.027C89.081,161.027 88.464,161.643 88.464,162.397L88.464,197.207C88.464,197.96 89.081,198.577 89.835,198.577Z" style="fill:rgb(234,235,234);fill-rule:nonzero;"/>
        </g>
        <g transform="matrix(4.16667,0,0,4.16667,0,0)">
            <path d="M77.073,178.237L119.716,178.237L114.811,148.438L81.978,148.438L77.073,178.237Z" style="fill:rgb(215,217,217);fill-rule:nonzero;"/>
        </g>
        <g transform="matrix(4.16667,0,0,4.16667,0,0)">
            <path d="M443.889,361.676C443.889,367.93 357.082,373 250,373C142.918,373 56.111,367.93 56.111,361.676C56.111,355.423 142.918,350.353 250,350.353C357.082,350.353 443.889,355.423 443.889,361.676Z" style="fill:rgb(240,240,240);fill-rule:nonzero;"/>
        </g>
        <g transform="matrix(4.16667,0,0,4.16667,0,0)">
            <path d="M104.448,166.311L103.12,147.87L104.117,147.798L105.445,166.24L104.448,166.311Z" style="fill:rgb(48,115,186);fill-rule:nonzero;"/>
        </g>
        <g transform="matrix(4.16667,0,0,4.16667,0,0)">
            <path d="M105.633,182.772L105.133,175.834L106.131,175.762L106.631,182.7L105.633,182.772Z" style="fill:rgb(48,115,186);fill-rule:nonzero;"/>
        </g>
        <g transform="matrix(4.16667,0,0,4.16667,0,0)">
            <path d="M337.711,260.601L123.553,260.601C118.709,260.601 114.461,256.636 114.112,251.793L103.59,105.663C103.241,100.819 106.919,96.857 111.762,96.857L325.92,96.857C330.764,96.857 335.012,100.819 335.361,105.663L345.884,251.793C346.232,256.636 342.555,260.601 337.711,260.601Z" style="fill:rgb(48,115,186);fill-rule:nonzero;"/>
        </g>
        <g transform="matrix(4.16667,0,0,4.16667,0,0)">
            <path d="M338.532,260.601L124.374,260.601C119.53,260.601 115.282,256.636 114.933,251.793L104.411,105.663C104.062,100.819 107.74,96.857 112.583,96.857L326.741,96.857C331.585,96.857 335.833,100.819 336.182,105.663L346.705,251.793C347.053,256.636 343.376,260.601 338.532,260.601Z" style="fill:rgb(48,115,186);fill-rule:nonzero;"/>
        </g>
        <g transform="matrix(4.16667,0,0,4.16667,0,0)">
            <path d="M336.464,260.601L329.641,260.601L329.559,260.601C328.708,256.818 328.09,253.748 327.817,251.772C327.567,249.964 327.451,248.102 327.451,246.194C327.451,246.134 327.452,246.074 327.452,246.015L332.854,246.015C333.408,246.015 333.918,245.874 334.354,245.626C334.459,246.528 334.567,247.42 334.677,248.298C334.678,248.295 334.678,248.291 334.679,248.287C334.977,250.657 335.294,252.94 335.631,255.105C335.895,256.801 336.174,258.64 336.464,260.601ZM305.018,260.601L192.693,260.601L124.374,260.601C119.53,260.601 115.282,256.636 114.933,251.793L104.411,105.663C104.395,105.445 104.387,105.23 104.388,105.016C104.395,100.471 107.957,96.857 112.583,96.857L287.578,96.857C287.429,97.59 287.367,98.395 287.449,99.223C287.522,99.924 287.702,100.618 287.954,101.259L112.9,101.259C112.658,101.259 112.419,101.269 112.183,101.289C106.708,101.739 107.827,110.066 113.352,110.066L296.828,110.066C300.575,112.635 304.425,114.733 308.324,116.728C309.131,117.141 309.94,117.546 310.749,117.943L310.547,119.457L118.838,119.457C117.075,119.457 115.748,120.886 115.875,122.649L124.529,242.822C124.656,244.585 126.188,246.015 127.951,246.015L302.173,246.015C302.32,248.888 302.66,251.584 303.229,254.042C303.704,256.095 304.308,258.292 305.018,260.601ZM325.257,112.588C323.805,111.691 321.846,110.826 319.8,110.066L327.875,110.066C328.462,110.066 328.987,109.972 329.448,109.803C329.13,110.292 328.761,111.266 328.609,112.138C327.472,112.274 326.341,112.428 325.257,112.588ZM330.433,109.265C333.169,107.167 332.258,101.653 327.78,101.289C327.541,101.269 327.3,101.259 327.058,101.259L298.349,101.259C297.507,100.646 296.725,100.009 296.045,99.374C295.857,99.191 295.645,99.007 295.496,98.828L295.097,98.401C295.009,98.313 294.997,98.302 294.979,98.302C294.973,98.302 294.966,98.303 294.957,98.304C294.954,98.305 294.951,98.306 294.948,98.306C294.876,98.306 294.887,97.731 295.345,96.973C295.367,96.934 295.39,96.896 295.414,96.857L326.741,96.857C331.4,96.857 335.508,100.522 336.125,105.112C336.173,105.603 336.189,106.088 336.164,106.559C333.84,107.212 332.04,107.87 331.723,108.238C331.624,108.353 331.542,108.658 331.489,109.056C331.077,109.125 330.721,109.195 330.433,109.265Z" style="fill:rgb(138,179,223);fill-rule:nonzero;"/>
        </g>
        <g transform="matrix(4.16667,0,0,4.16667,0,0)">
            <path d="M327.058,101.259L112.9,101.259C112.658,101.259 112.419,101.269 112.183,101.289C106.708,101.739 107.827,110.066 113.352,110.066L327.875,110.066C333.4,110.066 333.319,101.739 327.78,101.289C327.541,101.269 327.3,101.259 327.058,101.259Z" style="fill:rgb(48,115,186);fill-rule:nonzero;"/>
        </g>
        <g transform="matrix(4.16667,0,0,4.16667,0,0)">
            <path d="M118.478,105.663C118.558,106.778 117.719,107.682 116.604,107.682C115.489,107.682 114.52,106.778 114.44,105.663C114.36,104.548 115.198,103.644 116.314,103.644C117.429,103.644 118.398,104.548 118.478,105.663Z" style="fill:rgb(249,249,249);fill-rule:nonzero;"/>
        </g>
        <g transform="matrix(4.16667,0,0,4.16667,0,0)">
            <path d="M125.346,105.663C125.426,106.778 124.587,107.682 123.472,107.682C122.357,107.682 121.388,106.778 121.308,105.663C121.227,104.548 122.066,103.644 123.181,103.644C124.296,103.644 125.266,104.548 125.346,105.663Z" style="fill:rgb(249,249,249);fill-rule:nonzero;"/>
        </g>
        <g transform="matrix(4.16667,0,0,4.16667,0,0)">
            <path d="M132.214,105.663C132.294,106.778 131.455,107.682 130.34,107.682C129.225,107.682 128.256,106.778 128.175,105.663C128.095,104.548 128.934,103.644 130.048,103.644C131.164,103.644 132.133,104.548 132.214,105.663Z" style="fill:rgb(249,249,249);fill-rule:nonzero;"/>
        </g>
        <g transform="matrix(4.16667,0,0,4.16667,0,0)">
            <path d="M332.854,246.015L127.951,246.015C126.188,246.015 124.656,244.585 124.529,242.822L115.875,122.649C115.748,120.886 117.075,119.457 118.838,119.457L323.741,119.457C325.504,119.457 327.037,120.886 327.164,122.649L335.817,242.822C335.944,244.585 334.618,246.015 332.854,246.015Z" style="fill:white;fill-rule:nonzero;"/>
        </g>
        <g transform="matrix(4.16667,0,0,4.16667,0,0)">
            <path d="M246.53,200.236L243.194,153.917L233.087,147.834L205.283,147.834L209.057,200.236L246.53,200.236Z" style="fill:white;fill-rule:nonzero;"/>
        </g>
        <g transform="matrix(4.16667,0,0,4.16667,0,0)">
            <path d="M209.508,199.752L246.009,199.752L242.729,154.203L232.953,148.319L205.804,148.319L209.508,199.752ZM246.53,200.721L209.057,200.721C208.802,200.721 208.592,200.525 208.573,200.271L204.8,147.869C204.79,147.735 204.837,147.602 204.928,147.504C205.02,147.405 205.149,147.349 205.283,147.349L233.087,147.349L233.337,147.419L243.444,153.502C243.579,153.583 243.666,153.726 243.678,153.882L247.013,200.202C247.023,200.336 246.976,200.468 246.885,200.567C246.793,200.665 246.664,200.721 246.53,200.721Z" style="fill:rgb(48,115,186);fill-rule:nonzero;"/>
        </g>
        <g transform="matrix(4.16667,0,0,4.16667,0,0)">
            <path d="M243.194,153.917L233.087,147.834L236.798,155.893L243.194,153.917Z" style="fill:rgb(229,229,228);fill-rule:nonzero;"/>
        </g>
        <g transform="matrix(4.16667,0,0,4.16667,0,0)">
            <path d="M234.186,149.06L237.061,155.305L242.017,153.774L234.186,149.06ZM236.798,156.378C236.613,156.378 236.439,156.271 236.358,156.096L232.647,148.037C232.558,147.843 232.606,147.615 232.764,147.473C232.923,147.331 233.155,147.309 233.337,147.419L243.444,153.502C243.608,153.601 243.698,153.786 243.675,153.976C243.652,154.166 243.52,154.324 243.337,154.38L236.941,156.356L236.798,156.378Z" style="fill:rgb(48,115,186);fill-rule:nonzero;"/>
        </g>
        <g transform="matrix(4.16667,0,0,4.16667,0,0)">
            <path d="M220.969,171.444C221.053,172.613 220.174,173.561 219.005,173.561C217.835,173.561 216.819,172.613 216.735,171.444C216.651,170.275 217.53,169.327 218.7,169.327C219.869,169.327 220.885,170.275 220.969,171.444Z" style="fill:rgb(48,115,186);fill-rule:nonzero;"/>
        </g>
        <g transform="matrix(4.16667,0,0,4.16667,0,0)">
            <path d="M234.705,171.444C234.789,172.613 233.909,173.561 232.74,173.561C231.571,173.561 230.555,172.613 230.471,171.444C230.387,170.275 231.266,169.327 232.435,169.327C233.605,169.327 234.621,170.275 234.705,171.444Z" style="fill:rgb(48,115,186);fill-rule:nonzero;"/>
        </g>
        <g transform="matrix(4.16667,0,0,4.16667,0,0)">
            <path d="M238.58,185.174C238.328,185.174 238.115,184.979 238.097,184.724C237.852,181.32 232.513,178.551 226.197,178.551C222.012,178.551 218.254,179.795 216.391,181.798C215.562,182.689 215.178,183.65 215.251,184.654C215.27,184.921 215.069,185.153 214.802,185.172C214.534,185.189 214.303,184.991 214.284,184.724C214.193,183.458 214.676,182.218 215.681,181.138C217.722,178.944 221.752,177.582 226.197,177.582C233.126,177.582 238.778,180.688 239.063,184.654C239.083,184.921 238.882,185.153 238.615,185.172L238.58,185.174Z" style="fill:rgb(48,115,186);fill-rule:nonzero;"/>
        </g>
        <g transform="matrix(4.16667,0,0,4.16667,0,0)">
            <path d="M213.167,167.155C213.049,167.155 212.931,167.112 212.838,167.026C212.641,166.843 212.63,166.537 212.812,166.341L214.936,164.053C215.118,163.856 215.425,163.846 215.62,164.027C215.817,164.209 215.828,164.516 215.646,164.712L213.522,167C213.427,167.103 213.297,167.155 213.167,167.155Z" style="fill:rgb(48,115,186);fill-rule:nonzero;"/>
        </g>
        <g transform="matrix(4.16667,0,0,4.16667,0,0)">
            <path d="M237.584,167.155C237.466,167.155 237.347,167.112 237.254,167.025L234.801,164.736C234.605,164.554 234.594,164.247 234.777,164.052C234.959,163.856 235.266,163.845 235.462,164.028L237.915,166.316C238.11,166.498 238.121,166.805 237.938,167.001C237.843,167.103 237.714,167.155 237.584,167.155Z" style="fill:rgb(48,115,186);fill-rule:nonzero;"/>
        </g>
        <g transform="matrix(4.16667,0,0,4.16667,0,0)">
            <path d="M353.688,118.518C354.582,118.071 355.647,117.491 356.632,116.951C357.635,116.399 358.633,115.825 359.616,115.227C361.575,114.021 363.549,112.829 365.424,111.504C369.206,108.899 372.749,106.009 375.936,102.851C376.354,102.469 376.709,102.046 377.096,101.642L377.666,101.03L377.952,100.724L378.095,100.571L378.105,100.562L378.074,100.611C377.931,100.878 378.05,100.797 378.105,100.539C378.172,100.292 378.228,99.887 378.246,99.449C378.31,97.633 377.951,95.344 377.517,93.131C376.626,88.645 375.279,84.033 373.946,79.513L377.832,77.809C380.265,82.155 382.294,86.594 383.944,91.407C384.73,93.844 385.453,96.292 385.663,99.3C385.702,100.066 385.719,100.871 385.58,101.81C385.434,102.734 385.2,103.84 384.357,105.094L384.191,105.325L384.062,105.493L383.908,105.68L383.6,106.055L382.982,106.804C382.565,107.298 382.17,107.819 381.727,108.282C378.278,112.111 374.442,115.493 370.347,118.433C368.31,119.922 366.227,121.337 364.064,122.623C362.987,123.275 361.896,123.901 360.787,124.509C359.664,125.133 358.596,125.676 357.32,126.274L353.688,118.518Z" style="fill:rgb(250,171,118);fill-rule:nonzero;"/>
        </g>
        <g transform="matrix(4.16667,0,0,4.16667,0,0)">
            <path d="M346.444,353.033C344.986,353.324 343.889,353.274 343.465,352.887C343.284,352.723 343.218,352.492 343.262,352.182C343.285,352.014 343.362,351.959 343.427,351.93C343.94,351.698 345.407,352.406 346.444,353.033ZM344.794,353.617C345.568,353.617 346.414,353.457 347.005,353.317L347.155,353.158L347.069,352.958C346.782,352.769 344.238,351.128 343.263,351.569C343.11,351.638 342.916,351.791 342.869,352.126C342.806,352.57 342.917,352.925 343.198,353.18C343.555,353.506 344.15,353.617 344.794,353.617Z" style="fill:rgb(48,115,186);fill-rule:nonzero;"/>
        </g>
        <g transform="matrix(4.16667,0,0,4.16667,0,0)">
            <path d="M345.535,349.927C345.697,349.927 345.842,349.984 345.973,350.101C346.517,350.582 346.704,351.935 346.749,352.738C345.953,352.102 345.003,350.745 345.118,350.17C345.137,350.075 345.191,349.963 345.444,349.932L345.535,349.927ZM346.96,353.322L347.06,353.295L347.158,353.124C347.158,353.021 347.147,350.61 346.236,349.804C345.994,349.589 345.713,349.5 345.397,349.539C344.9,349.599 344.765,349.911 344.729,350.092C344.54,351.036 346.063,352.843 346.862,353.296L346.96,353.322Z" style="fill:rgb(48,115,186);fill-rule:nonzero;"/>
        </g>
        <g transform="matrix(4.16667,0,0,4.16667,0,0)">
            <path d="M346.223,93.505C345.249,98.476 343.196,108.542 346.673,111.859C346.673,111.859 345.314,116.901 336.079,116.901C325.923,116.901 331.225,111.86 331.225,111.86C336.768,110.536 336.625,106.424 335.659,102.562L346.223,93.505Z" style="fill:rgb(250,171,118);fill-rule:nonzero;"/>
        </g>
        <g transform="matrix(4.16667,0,0,4.16667,0,0)">
            <path d="M329.284,113.863C327.69,114.079 329.046,109.949 329.694,109.521C331.19,108.533 350.545,107.132 350.419,109.481C350.339,110.491 349.864,112.465 349.018,113.135C348.682,113.4 347.699,113.243 345.769,113.085C342.827,112.845 337.686,112.605 329.284,113.863Z" style="fill:rgb(12,43,52);fill-rule:nonzero;"/>
        </g>
        <g transform="matrix(4.16667,0,0,4.16667,0,0)">
            <path d="M332.437,112.472C331.171,112.901 331.291,108.74 331.723,108.238C332.72,107.08 348.386,103.055 348.852,105.333C349.031,106.316 349.117,108.28 348.58,109.042C348.042,109.804 343.439,108.544 332.437,112.472Z" style="fill:rgb(12,43,52);fill-rule:nonzero;"/>
        </g>
        <g transform="matrix(4.16667,0,0,4.16667,0,0)">
            <path d="M326.61,84.547C326.488,84.554 326.363,84.504 326.279,84.401C325.159,83.032 323.704,83.172 323.69,83.174C323.469,83.197 323.276,83.04 323.252,82.822C323.229,82.604 323.386,82.408 323.604,82.385C323.681,82.377 325.504,82.2 326.894,83.899C327.033,84.069 327.007,84.319 326.838,84.458L326.61,84.547Z" style="fill:rgb(12,43,52);fill-rule:nonzero;"/>
        </g>
        <g transform="matrix(4.16667,0,0,4.16667,0,0)">
            <path d="M324.672,89.44C324.672,89.44 323.816,92.447 322.698,93.967C323.667,94.708 325.139,94.181 325.139,94.181L324.672,89.44Z" style="fill:rgb(241,96,96);fill-rule:nonzero;"/>
        </g>
        <g transform="matrix(4.16667,0,0,4.16667,0,0)">
            <path d="M325.16,88.225C325.227,88.898 324.924,89.478 324.484,89.521C324.045,89.564 323.635,89.054 323.569,88.382C323.503,87.71 323.805,87.129 324.245,87.086C324.684,87.043 325.094,87.553 325.16,88.225Z" style="fill:rgb(12,43,52);fill-rule:nonzero;"/>
        </g>
        <g transform="matrix(4.16667,0,0,4.16667,0,0)">
            <path d="M324.443,87.104L322.782,86.798C322.782,86.798 323.735,87.977 324.443,87.104Z" style="fill:rgb(12,43,52);fill-rule:nonzero;"/>
        </g>
        <g transform="matrix(4.16667,0,0,4.16667,0,0)">
            <path d="M356.7,353.124L348.324,353.124L348.981,333.726L357.357,333.726L356.7,353.124Z" style="fill:rgb(250,171,118);fill-rule:nonzero;"/>
        </g>
        <g transform="matrix(4.16667,0,0,4.16667,0,0)">
            <path d="M347.661,352.154L357.071,352.154C357.414,352.154 357.691,352.392 357.74,352.726L358.812,360.172C358.923,360.944 358.259,361.675 357.469,361.661C354.188,361.604 352.607,361.412 348.469,361.412C345.923,361.412 342.203,361.676 338.687,361.676C335.249,361.676 334.984,358.2 336.448,357.885C343.012,356.473 344.049,354.526 346.261,352.669C346.659,352.334 347.16,352.154 347.661,352.154Z" style="fill:rgb(12,43,52);fill-rule:nonzero;"/>
        </g>
        <g transform="matrix(4.16667,0,0,4.16667,0,0)">
            <path d="M357.025,343.73L357.019,343.73L357.084,341.794L357.089,341.794L357.025,343.73Z" style="fill:rgb(195,197,197);fill-rule:nonzero;"/>
        </g>
        <g transform="matrix(4.16667,0,0,4.16667,0,0)">
            <path d="M357.019,343.73L348.645,343.73L348.71,341.794L357.084,341.794L357.019,343.73Z" style="fill:rgb(220,144,93);fill-rule:nonzero;"/>
        </g>
        <g transform="matrix(4.16667,0,0,4.16667,0,0)">
            <path d="M323.373,123.482C318.191,121.454 313.247,119.246 308.324,116.728C303.408,114.213 298.57,111.534 293.919,107.955C292.762,107.043 291.617,106.048 290.497,104.884C290.219,104.584 289.94,104.307 289.666,103.962C289.378,103.6 289.161,103.388 288.787,102.831C288.111,101.86 287.588,100.554 287.449,99.223C287.318,97.89 287.556,96.617 287.94,95.602C288.322,94.57 288.823,93.726 289.347,92.995C290.398,91.531 291.562,90.449 292.736,89.475C295.079,87.536 297.557,86.126 300.039,84.808C301.279,84.15 302.543,83.557 303.823,83.011C305.109,82.456 306.364,81.94 307.729,81.471L309.504,85.324C305.143,88.073 300.624,91.094 297.303,94.483C296.496,95.322 295.79,96.2 295.345,96.973C294.87,97.76 294.875,98.349 294.957,98.304C294.998,98.303 294.981,98.285 295.097,98.401L295.496,98.828C295.645,99.007 295.857,99.191 296.045,99.374C296.831,100.107 297.751,100.843 298.745,101.542C300.729,102.955 302.917,104.277 305.178,105.512C307.433,106.764 309.751,107.962 312.113,109.099C316.826,111.355 321.711,113.527 326.505,115.511L323.373,123.482Z" style="fill:rgb(250,171,118);fill-rule:nonzero;"/>
        </g>
        <g transform="matrix(4.16667,0,0,4.16667,0,0)">
            <path d="M311.969,82.593L313.354,79.589L307.058,77.402C307.058,77.402 305.097,83.305 307.435,86.029C309.425,85.711 311.125,84.422 311.969,82.593Z" style="fill:rgb(250,171,118);fill-rule:nonzero;"/>
        </g>
        <g transform="matrix(4.16667,0,0,4.16667,0,0)">
            <path d="M313.354,73.095L308.321,71.644L307.058,77.402L313.354,79.589L313.354,73.095Z" style="fill:rgb(250,171,118);fill-rule:nonzero;"/>
        </g>
        <g transform="matrix(4.16667,0,0,4.16667,0,0)">
            <path d="M378.35,79.88L379.083,72.86L372.595,74.385C372.595,74.385 372.5,80.965 375.932,82.014L378.35,79.88Z" style="fill:rgb(250,171,118);fill-rule:nonzero;"/>
        </g>
        <g transform="matrix(4.16667,0,0,4.16667,0,0)">
            <path d="M375.958,67.946L371.731,69.92L372.595,74.385L379.083,72.86L375.958,67.946Z" style="fill:rgb(250,171,118);fill-rule:nonzero;"/>
        </g>
        <g transform="matrix(4.16667,0,0,4.16667,0,0)">
            <path d="M347.54,83.693C347.846,92.001 348.152,95.511 344.398,100.16C338.752,107.152 328.481,105.71 325.7,97.661C323.197,90.416 323.119,78.047 330.878,73.966C338.523,69.945 347.235,75.386 347.54,83.693Z" style="fill:rgb(250,171,118);fill-rule:nonzero;"/>
        </g>
        <g transform="matrix(4.16667,0,0,4.16667,0,0)">
            <path d="M330.053,164.56C330.053,164.56 330.587,222.704 335.631,255.105C339.705,281.275 347.244,341.794 347.244,341.794L358.667,341.794C358.667,341.794 359.783,283.37 357.715,257.486C352.482,191.988 365.986,179.743 355.089,164.56L330.053,164.56Z" style="fill:rgb(12,43,52);fill-rule:nonzero;"/>
        </g>
        <g transform="matrix(4.16667,0,0,4.16667,0,0)">
            <path d="M359.313,351.488L356.33,351.165L346.771,350.842L347.244,341.794C347.244,341.794 347.014,339.942 346.611,336.746L350.083,335.204L346.593,327.935L345.099,324.824C345.077,324.648 345.055,324.473 345.032,324.295L345.983,323.818C345.983,323.818 345.252,321.178 344.083,316.895C341.535,297.106 337.998,270.31 335.631,255.105C335.294,252.94 334.977,250.657 334.679,248.287C336.396,238.738 338.733,219.685 337.728,203.444C342.073,190.49 346.224,177.568 346.569,166.086L356.108,166.086C358.643,170.186 359.474,174.21 359.474,179.291C359.474,184.581 358.573,191.019 357.756,199.886C357.591,201.682 357.429,203.576 357.278,205.582C356.812,211.797 356.458,219.07 356.458,227.719C356.458,236.214 356.8,246.036 357.715,257.486C358.709,269.935 358.967,289.911 358.967,307.294C358.967,314.927 358.918,322.061 358.859,327.837C358.858,327.92 358.857,328.004 358.856,328.087C358.771,336.367 359.313,351.488 359.313,351.488ZM332.525,225.86C332.395,224.094 332.272,222.319 332.155,220.546L332.155,220.544C332.272,222.32 332.395,224.092 332.525,225.86Z" style="fill:rgb(44,66,72);fill-rule:nonzero;"/>
        </g>
        <g transform="matrix(4.16667,0,0,4.16667,0,0)">
            <path d="M334.677,248.298C334.567,247.42 334.459,246.528 334.354,245.626C334.355,245.626 334.356,245.625 334.356,245.625C334.462,246.525 334.569,247.41 334.679,248.287C334.678,248.291 334.678,248.295 334.677,248.298Z" style="fill:rgb(99,132,178);fill-rule:nonzero;"/>
        </g>
        <g transform="matrix(4.16667,0,0,4.16667,0,0)">
            <path d="M334.354,245.626C333.631,239.424 333.028,232.696 332.525,225.86C333.028,232.696 333.632,239.422 334.356,245.625C334.356,245.625 334.355,245.626 334.354,245.626Z" style="fill:rgb(168,171,171);fill-rule:nonzero;"/>
        </g>
        <g transform="matrix(4.16667,0,0,4.16667,0,0)">
            <path d="M334.679,248.287C334.569,247.41 334.462,246.525 334.356,245.625C333.632,239.422 333.028,232.696 332.525,225.86C332.395,224.092 332.272,222.32 332.155,220.544C333.842,214.92 335.804,209.179 337.728,203.444C338.733,219.685 336.396,238.738 334.679,248.287Z" style="fill:rgb(21,43,48);fill-rule:nonzero;"/>
        </g>
        <g transform="matrix(4.16667,0,0,4.16667,0,0)">
            <path d="M349.833,115.48C351.202,112.759 358.558,111.047 362.579,111.053L365.589,124.418C365.589,124.418 357.578,136.308 354.246,135.047C350.31,133.56 346.901,121.31 349.833,115.48Z" style="fill:rgb(48,115,186);fill-rule:nonzero;"/>
        </g>
        <g transform="matrix(4.16667,0,0,4.16667,0,0)">
            <path d="M356.844,134.335C357.797,128.773 359.171,122.129 361.119,113.762C361.119,113.762 358.208,113.129 354.196,112.58C356.916,111.605 360.27,111.053 362.556,111.053C362.564,111.053 377.719,100.114 377.726,100.114L374.161,84.14L380.235,79.498L390.255,103.476C390.255,103.476 360.587,131.842 356.844,134.335Z" style="fill:rgb(0,86,167);fill-rule:nonzero;"/>
        </g>
        <g transform="matrix(4.16667,0,0,4.16667,0,0)">
            <path d="M336.912,340.289C337.255,339.728 339.168,339.21 340.63,338.942C339.31,340.283 338.149,341.03 337.469,340.96C337.231,340.935 337.049,340.811 336.91,340.58L336.89,340.329L336.912,340.289ZM341.353,338.751L341.359,338.555L341.154,338.452C340.734,338.515 337.032,339.102 336.531,340.159C336.435,340.364 336.448,340.58 336.57,340.784C336.774,341.125 337.063,341.317 337.428,341.354C338.641,341.48 340.393,339.797 341.329,338.782L341.353,338.751Z" style="fill:rgb(48,115,186);fill-rule:nonzero;"/>
        </g>
        <g transform="matrix(4.16667,0,0,4.16667,0,0)">
            <path d="M337.438,337.492L337.596,337.312C337.821,337.111 338.082,337.022 338.395,337.043C339.293,337.102 340.313,338.031 340.778,338.504C339.593,338.604 337.672,338.245 337.412,337.729C337.397,337.698 337.358,337.622 337.438,337.492ZM341.353,338.751L341.371,338.712L341.334,338.519C341.271,338.446 339.788,336.737 338.421,336.647C338.002,336.62 337.635,336.744 337.331,337.017C336.92,337.385 336.955,337.705 337.058,337.908C337.491,338.766 340.151,339.065 341.224,338.842L341.353,338.751Z" style="fill:rgb(48,115,186);fill-rule:nonzero;"/>
        </g>
        <g transform="matrix(4.16667,0,0,4.16667,0,0)">
            <path d="M350.083,335.204L342.422,338.606L339.008,331.502L334.547,322.197L334.024,321.116L341.676,317.707L342.268,318.925L346.593,327.935L350.083,335.204Z" style="fill:rgb(250,171,118);fill-rule:nonzero;"/>
        </g>
        <g transform="matrix(4.16667,0,0,4.16667,0,0)">
            <path d="M339.008,331.502L337.392,328.131L344.882,324.371L346.593,327.935L339.008,331.502Z" style="fill:rgb(220,144,93);fill-rule:nonzero;"/>
        </g>
        <g transform="matrix(4.16667,0,0,4.16667,0,0)">
            <path d="M321.069,164.56C321.069,164.56 296.596,225.395 303.229,254.042C309.224,279.932 335.733,328.963 335.733,328.963L345.983,323.818C345.983,323.818 329.595,264.63 327.817,251.772C324.358,226.753 346.593,191.438 346.593,164.56L321.069,164.56Z" style="fill:rgb(12,43,52);fill-rule:nonzero;"/>
        </g>
        <g transform="matrix(4.16667,0,0,4.16667,0,0)">
            <path d="M335.733,328.963C335.733,328.963 333.254,324.377 329.641,317.271C328.046,314.134 326.229,310.505 324.308,306.562C320.024,297.773 315.218,287.429 311.169,277.489C309.15,272.533 307.319,267.675 305.836,263.166C304.766,259.915 303.878,256.844 303.229,254.042C302.439,250.629 301.79,246.748 302.089,242.59C304.135,214.113 317.363,174.1 320.508,165.989C321.846,162.537 331.022,163.21 331.173,163.21L346.569,166.086C346.224,177.568 342.073,190.49 337.728,203.444C335.804,209.179 333.842,214.92 332.155,220.544L332.155,220.546C329.471,229.494 327.483,238.148 327.452,246.015C327.452,246.074 327.451,246.134 327.451,246.194C327.451,248.102 327.567,249.964 327.817,251.772C329.595,264.63 345.983,323.818 345.983,323.818L345.032,324.295L347.911,331.271L340.59,336.041L335.733,328.963Z" style="fill:rgb(44,66,72);fill-rule:nonzero;"/>
        </g>
        <g transform="matrix(4.16667,0,0,4.16667,0,0)">
            <path d="M341.055,337.542L348.664,332.004C348.94,331.802 349.305,331.831 349.541,332.073L354.789,337.462C355.333,338.021 355.227,339.003 354.58,339.456C351.894,341.342 350.502,342.116 347.156,344.551C345.098,346.05 340.996,349.362 338.153,351.431C335.373,353.455 333.113,350.8 334.112,349.684C338.588,344.679 339.531,341.585 340.226,338.782C340.352,338.276 340.65,337.836 341.055,337.542Z" style="fill:rgb(12,43,52);fill-rule:nonzero;"/>
        </g>
        <g transform="matrix(4.16667,0,0,4.16667,0,0)">
            <path d="M327.564,114.799C326.466,111.958 316.907,108.842 312.111,107.754L310.004,123.522C310.004,123.522 317.835,134.777 321.273,133.845C325.335,132.747 329.916,120.885 327.564,114.799Z" style="fill:rgb(48,115,186);fill-rule:nonzero;"/>
        </g>
        <g transform="matrix(4.16667,0,0,4.16667,0,0)">
            <path d="M316.629,131.403C313.351,128.332 284.76,101.012 284.76,101.012C287.614,92.262 299.724,83.212 302.579,80.632L307.537,88.139L296.964,97.446C300.524,98.253 321.857,110.487 325.257,112.588C320.762,113.249 317.066,114.005 317.066,114.005C317.066,114.005 316.071,114.356 316.07,120.833C316.07,123.333 316.218,126.745 316.629,131.403Z" style="fill:rgb(0,86,167);fill-rule:nonzero;"/>
        </g>
        <g transform="matrix(4.16667,0,0,4.16667,0,0)">
            <path d="M317.066,114.005C317.066,114.005 313.076,115.411 321.069,164.56L355.089,164.56C354.518,150.715 354.502,142.177 361.119,113.762C361.119,113.762 353.991,112.212 346.673,111.859C340.948,111.583 336.258,111.4 331.225,111.86C324.59,112.465 317.066,114.005 317.066,114.005Z" style="fill:rgb(48,115,186);fill-rule:nonzero;"/>
        </g>
        <g transform="matrix(4.16667,0,0,4.16667,0,0)">
            <path d="M358.994,234.212L301.313,228.969C308.133,196.378 316.07,127.121 316.07,120.833C316.071,114.356 317.066,114.005 317.066,114.005C317.066,114.005 324.59,112.465 331.225,111.86C333.443,111.657 335.593,111.58 337.796,111.58C340.592,111.58 343.471,111.705 346.673,111.859C353.991,112.212 361.119,113.762 361.119,113.762C359.171,122.129 357.797,128.773 356.844,134.335C356.674,135.325 356.518,136.28 356.374,137.205C355.207,144.703 359.788,182.322 359.788,187.73C359.788,189.936 358.909,231.902 358.994,234.212Z" style="fill:rgb(0,86,167);fill-rule:nonzero;"/>
        </g>
        <g transform="matrix(4.16667,0,0,4.16667,0,0)">
            <path d="M344.973,134.592C348.15,133.219 357.27,127.561 359.704,122.405C363.518,114.323 356.559,84.663 355.176,77.57C353.01,66.454 331.578,66.531 326.941,70.433C324.605,72.399 321.889,77.328 321.518,79.344C320.7,83.801 325.622,85.468 330.985,90.38C331.542,90.89 328.529,94.842 329.144,95.376C329.979,97.091 317.692,110.184 318.468,114.347C319.892,121.974 339.796,136.829 344.973,134.592Z" style="fill:rgb(44,66,72);fill-rule:nonzero;"/>
        </g>
        <g transform="matrix(4.16667,0,0,4.16667,0,0)">
            <g transform="matrix(0.24,0,0,0.24,30.1738,0)">
                <text x="693.875px" y="898.626px" style="font-family:'Barlow-SemiBold', 'Barlow';font-weight:600;font-size:50px;fill:rgb(44,66,72);">TIAD<tspan x="797.575px " y="898.626px ">A</tspan> REK<tspan x="930.075px " y="898.626px ">O</tspan>D</text>
            </g>
        </g>
        <g transform="matrix(4.16667,0,0,4.16667,0,0)">
            <g transform="matrix(0.339784,0,0,0.339784,303.763,5.59209)">
                <text x="108.053px" y="168.356px" style="font-family:'Barlow-Bold', 'Barlow';font-weight:700;font-size:125px;fill:rgb(44,66,72);">?</text>
            </g>
        </g>
    </g>
</svg>
